<?xml version="1.0" encoding="utf-8"?>
<!-- Created by Zoltan Dul in 2026 - free to use with MIT license. Part of React Venn Diagram Lab Module - https://github.com/ZoliQua/React-Venn-Diagram-Lab - SVG Version: 3.0.0 -->
<svg xmlns="http://www.w3.org/2000/svg"
	 id="Layer_1"
	 version="1.1" viewBox="0 0 700 700">
<g id="Shapes">
	<polygon id="ShapeC" style="fill: #ed1c24; opacity: .2; stroke: #000; stroke-linecap: round; stroke-linejoin: round; stroke-width: 3px;" points="465.5 636.8 210.2 319.6 465.5 208.4 465.5 636.8" transform="translate(3.4,-15.7) translate(193.1,426) scale(1.06) translate(-193.1,-426) rotate(-4.8,193.1,426) translate(-0.3,0) translate(5.6,-8.2) translate(-25.8,49.3) translate(-7.6,-6) translate(10.6,-10.3) rotate(7.3,210.6,401.2) translate(-93,10.7) translate(0,0) translate(-37.4,-24.4) translate(-0.1,0) rotate(-4.7,341.1,414.9) rotate(45.6,341.1,414.9) translate(-2.8,-4.4) translate(0,0) translate(6.1,-3.3)"/>
	<polygon id="ShapeB" style="fill: #2e3192; opacity: .2; stroke: #000; stroke-linecap: round; stroke-linejoin: round; stroke-width: 3px;" points="647.9 418.9 208.7 367.1 319.9 188.1 647.9 418.9" transform="translate(398.3,294) scale(0.99) translate(-398.3,-294) translate(4.7,3.5) translate(0,-0.1) translate(6.5,-25.7) rotate(-1.6,387.1,316.3) translate(0.1,-0.1) translate(17.2,-24.3) translate(-47.4,-22.4) translate(417.2,363.1) scale(1.14) translate(-417.2,-363.1) translate(417.2,363.1) scale(1.03) translate(-417.2,-363.1) rotate(-17.3,417.2,363.1) translate(8.1,-16.7) translate(12.3,-0.7) translate(0,0) translate(-7.3,49.2) translate(0,0) translate(0,2.6) rotate(-0.9,404.1,328.7) rotate(1.3,404.1,328.7) translate(1.2,9.9) translate(0,0) translate(0.5,12.1) translate(0,0.1) translate(-6.2,-11.8) rotate(-0.9,408.6,318.4) translate(0,0.1) translate(-20.6,16.7) translate(0,0) translate(-0.3,-0.7) translate(0.6,1.2) translate(0,0) translate(-1.6,-4) translate(0,0) translate(3.6,-0.5) translate(0.1,0.1) translate(0,0) translate(-1.6,1.9) translate(0.1,0.1) translate(0,0)"/>
	<polygon id="ShapeA" style="fill: #fff200; opacity: .2; stroke: #000; stroke-linecap: round; stroke-linejoin: round; stroke-width: 3px;" points="452.3 503.8 145.8 241.8 444.3 72.5 452.3 503.8" transform="translate(-7.5,-2.8) translate(0,0) translate(-3.2,-17.2) translate(2.2,20.3) translate(-11.6,48.7) translate(0,0) translate(-0.1,0) rotate(-4.9,213.5,334.5) rotate(-5.1,213.5,334.5) translate(10.1,9.9) rotate(-18,203.4,324.7) translate(0,0) translate(0,0) translate(0,0) translate(2.3,0) rotate(-6.3,201.2,324.7) translate(-91.5,53.2) translate(0,0) translate(-3,-17.1) translate(0,-0.1) translate(0.1,0) translate(0,0) translate(-3.5,0.5) translate(0,0) translate(0,0)"/>
</g>
<g id="Texts">
	<g id="Header">
		<text id="Title" transform="matrix(1 0 0 1 381.1 55.6)" style="fill:#262262;stroke:#000000;stroke-width:0.5;stroke-miterlimit:10; font-family:'Tahoma'; font-size:14;">Carroll Venn 3-set diagram</text>
	</g>
	<g id="Group_Names">
		<text id="NameA" transform="matrix(1 0 0 1 376.9 96)" style="fill:#262262;stroke:#000000;stroke-width:0.5;stroke-miterlimit:10; font-family:'Tahoma'; font-size:14;">NameA</text>
		<text id="NameB" transform="matrix(1 0 0 1 377.6 118.1)" style="fill:#262262;stroke:#000000;stroke-width:0.5;stroke-miterlimit:10; font-family:'Tahoma'; font-size:14;">NameB</text>
		<text id="NameC" transform="matrix(1 0 0 1 376.7 140.1)" style="fill:#262262;stroke:#000000;stroke-width:0.5;stroke-miterlimit:10; font-family:'Tahoma'; font-size:14;">NameC</text>
	</g>
	<g id="Group_Values">
		<text id="Count_A" transform="matrix(1 0 0 1 118.7 381)" style="fill:#262262;stroke:#000000;stroke-width:0.5;stroke-miterlimit:10;font-family:'Tahoma';font-size:36;text-anchor:middle">A</text>
		<text id="Count_B" transform="matrix(1 0 0 1 504 342.8)" style="fill:#262262;stroke:#000000;stroke-width:0.5;stroke-miterlimit:10;font-family:'Tahoma';font-size:36;text-anchor:middle">B</text>
		<text id="Count_C" transform="matrix(1 0 0 1 204.4 541.2)" style="fill:#262262;stroke:#000000;stroke-width:0.5;stroke-miterlimit:10;font-family:'Tahoma';font-size:36;text-anchor:middle">C</text>
		<text id="Count_AB" transform="matrix(1 0 0 1 251.8 257.1)" style="text-anchor:middle;fill:#262262;stroke:#000000;stroke-width:0.5;stroke-miterlimit:10;font-family:'Tahoma';font-size:20">AB</text>
		<text id="Count_AC" transform="matrix(1 0 0 1 192.6 298.2)" style="text-anchor:middle;fill:#262262;stroke:#000000;stroke-width:0.5;stroke-miterlimit:10;font-family:'Tahoma';font-size:20">AC</text>
		<text id="Count_BC" transform="matrix(1 0 0 1 387.1 356.3)" style="text-anchor:middle;fill:#262262;stroke:#000000;stroke-width:0.5;stroke-miterlimit:10;font-family:'Tahoma';font-size:20">BC</text>
		<text id="Count_ABC" transform="matrix(1 0 0 1 282.8 371)" style="text-anchor:middle;fill:#FFFFFF;stroke:#000000;stroke-width:0.5;stroke-miterlimit:10;font-family:'Tahoma';font-size:36">ABC</text>
	</g>
	<g id="Group_CountSums">
		<text id="CountSUM_A" transform="matrix(1 0 0 1 551.6 96)" style="fill:#262262;font-family:'Tahoma';font-size:14;text-anchor:middle">CountSUM_A</text>
		<text id="CountSUM_B" transform="matrix(1 0 0 1 551.9 118)" style="fill:#262262;font-family:'Tahoma';font-size:14;text-anchor:middle">CountSUM_B</text>
		<text id="CountSUM_C" transform="matrix(1 0 0 1 551.8 140)" style="fill:#262262;font-family:'Tahoma';font-size:14;text-anchor:middle">CountSUM_C</text>
	</g>
</g>
<g id="Group_Bullets">
	<circle id="BulletA" style="opacity:0.2;fill:#FFF200;stroke:#010101;stroke-width:2;" cx="365" cy="90.1" r="6.9"/>
	<circle id="BulletB" style="opacity:0.2;fill:#2E3192;stroke:#010101;stroke-width:2;" cx="365" cy="113" r="6.9"/>
	<circle id="BulletC" style="opacity:0.2;fill:#ED1C24;stroke:#010101;stroke-width:2;" cx="365" cy="134.5" r="6.9"/>
</g>
</svg>
