<?xml version="1.0" encoding="utf-8"?>
<!-- Created by Zoltan Dul in 2026 - free to use with MIT license. Part of React Venn Diagram Lab Module - https://github.com/ZoliQua/React-Venn-Diagram-Lab - SVG Version: 3.0.0 -->
<svg xmlns="http://www.w3.org/2000/svg"
	 id="Layer_1"
	 version="1.1" viewBox="0 0 700 700">
<g id="Shapes">
	<circle id="ShapeE" style="fill: #3C2415; isolation: isolate; opacity: .2; stroke: #000; stroke-miterlimit: 10; stroke-width: 3px;" cx="351" cy="244.1" r="182.2" transform="translate(-8.1,-2.2) translate(0.1,0) translate(-2.7,4.7) translate(7.2,-14.9) translate(6.9,0.2) translate(49.7,-0.6) translate(-57.5,75) translate(-21.1,-11) translate(22.6,21) translate(-21.4,-25.1) translate(0.4,16.8) translate(3.1,-3.9) translate(2.2,-6.6) translate(-92.5,28.6)"/>
	<circle id="ShapeD" style="fill: #808285; isolation: isolate; opacity: .2; stroke: #000; stroke-miterlimit: 10; stroke-width: 3px;" cx="351" cy="244.1" r="182.2" transform="translate(-11.3,-2.3) translate(-15.4,-16.8) translate(58.2,72.3) translate(29.4,18.7) translate(0.7,0.4) translate(8.5,-10.9) translate(0,0.3) translate(-127.4,151.4)"/>
	<circle id="ShapeC" style="fill: #ed1c24; isolation: isolate; opacity: .2; stroke: #000; stroke-miterlimit: 10; stroke-width: 3px;" cx="247" cy="350.5" r="182.2" transform="translate(-8.5,-8.2) translate(4.1,4.1) translate(-5.4,7.7) translate(94.8,-41.7) translate(4,-2) translate(-0.3,15) translate(12.3,2.8) translate(-5.5,-8.7) translate(2,-4.8) translate(-11.6,-29.5) translate(-27,13.8) translate(140.1,137.2)"/>
	<circle id="ShapeB" style="fill: #2e3192; isolation: isolate; opacity: .2; stroke: #000; stroke-miterlimit: 10; stroke-width: 3px;" cx="461.8" cy="350.5" r="182.2" transform="translate(4.1,-6.5) translate(2.8,3.8) translate(-34,-0.6) translate(0,0) translate(4,7.3) translate(-0.1,-109.9) translate(-5.3,13.3) translate(0.2,-10.6) translate(3.3,8.1) translate(4.8,1.2) translate(1.3,44.4) translate(15.5,2.7)"/>
	<circle id="ShapeA" style="fill: #fff200; isolation: isolate; opacity: .2; stroke: #000; stroke-miterlimit: 10; stroke-width: 3px;" cx="351" cy="456" r="182.2" transform="translate(0,0) translate(-25.5,1) translate(15.3,3.4) translate(-134.4,-22) translate(8.2,-1.5) translate(10.6,-28.1) translate(0,14.4) translate(11.4,25.6) translate(0,0) translate(-1.5,5.4) translate(96.7,-220.7)"/>
</g>
<g id="Texts">
	<g id="Header">
		<text id="Title" transform="matrix(1 0 0 1 58.8 33.4)" style="fill:#262262;stroke:#000000;stroke-width:0.5;stroke-miterlimit:10;font-family:'Tahoma';font-size:14;">Euler 5-set diagram</text>
	</g>
	<g id="Group_Names">
		<text id="NameA" transform="matrix(1 0 0 1 343.4 24.6)" style="fill:#262262;stroke:#000000;stroke-width:0.5;stroke-miterlimit:10;font-family:'Tahoma';font-size:24;text-anchor:middle;">NameA</text>
		<text id="NameB" transform="matrix(1 0 0 1 599.3 110.8)" style="fill:#262262;stroke:#000000;stroke-width:0.5;stroke-miterlimit:10;font-family:'Tahoma';font-size:24;text-anchor:middle;">NameB</text>
		<text id="NameC" transform="matrix(1 0 0 1 597 628.2)" style="fill:#262262;stroke:#000000;stroke-width:0.5;stroke-miterlimit:10;font-family:'Tahoma';font-size:24;text-anchor:middle;">NameC</text>
		<text id="NameD" transform="matrix(1 0 0 1 89.5 632.3)" style="fill:#262262;stroke:#000000;stroke-width:0.5;stroke-miterlimit:10;font-family:'Tahoma';font-size:24;text-anchor:middle;">NameD</text>
		<text id="NameE" transform="matrix(1 0 0 1 77.4 144.9)" style="fill:#262262;stroke:#000000;stroke-width:0.5;stroke-miterlimit:10;font-family:'Tahoma';font-size:24;text-anchor:middle;">NameE</text>
	</g>
	<g id="Group_Values">
		<text id="Count_A" transform="matrix(1 0 0 1 313.5 117.1)" style="fill:#262262;stroke:#000000;stroke-width:0.5;stroke-miterlimit:10;font-family:'Tahoma';font-size:48">A</text>
		<text id="Count_B" transform="matrix(1 0 0 1 572.8 257.5)" style="fill:#262262;stroke:#000000;stroke-width:0.5;stroke-miterlimit:10;font-family:'Tahoma';font-size:48;text-anchor:middle;">B</text>
		<text id="Count_C" transform="matrix(1 0 0 1 533.1 542.6)" style="fill:#262262;stroke:#000000;stroke-width:0.5;stroke-miterlimit:10;font-family:'Tahoma';font-size:48;text-anchor:middle;">C</text>
		<text id="Count_D" transform="matrix(1 0 0 1 246.4 583.7)" style="fill:#262262;stroke:#000000;stroke-width:0.5;stroke-miterlimit:10;font-family:'Tahoma';font-size:48;text-anchor:middle;">D</text>
		<text id="Count_E" transform="matrix(1 0 0 1 109.9 312.3)" style="fill:#262262;stroke:#000000;stroke-width:0.5;stroke-miterlimit:10;font-family:'Tahoma';font-size:48;text-anchor:middle;">E</text>
		<text id="Count_AB" transform="matrix(1 0 0 1 439.3 202.2)" style="fill:#262262;stroke:#000000;stroke-width:0.5;stroke-miterlimit:10;font-family:'Tahoma';font-size:40;text-anchor:middle">AB</text>
		<text id="Count_AE" transform="matrix(1 0 0 1 225.4 234)" style="fill:#262262;stroke:#000000;stroke-width:0.5;stroke-miterlimit:10;font-family:'Tahoma';font-size:40;text-anchor:middle">AE</text>
		<text id="Count_BC" transform="matrix(1 0 0 1 537.6 392.7)" style="fill:#262262;stroke:#000000;stroke-width:0.5;stroke-miterlimit:10;font-family:'Tahoma';font-size:40;text-anchor:middle">BC</text>
		<text id="Count_CD" transform="matrix(1 0 0 1 381.4 548)" style="fill:#262262;stroke:#000000;stroke-width:0.5;stroke-miterlimit:10;font-family:'Tahoma';font-size:48;text-anchor:middle;">CD</text>
		<text id="Count_DE" transform="matrix(1 0 0 1 194.8 441.9)" style="fill:#262262;stroke:#000000;stroke-width:0.5;stroke-miterlimit:10;font-family:'Tahoma';font-size:40;text-anchor:middle;">DE</text>
		<text id="Count_ABE" transform="matrix(1 0 0 1 341.3 238.6)" style="fill:#262262;stroke:#000000;stroke-width:0.5;stroke-miterlimit:10;font-family:'Tahoma';font-size:24;text-anchor:middle;">ABE</text>
		<text id="Count_ACE" transform="matrix(1 0 0 1 451.9 303.6)" style="fill:#262262;stroke:#000000;stroke-width:0.5;stroke-miterlimit:10;font-family:'Tahoma';font-size:24;text-anchor:middle;">ACE</text>
		<text id="Count_ADE" transform="matrix(1 0 0 1 234.3 342.6)" style="fill:#262262;stroke:#000000;stroke-width:0.5;stroke-miterlimit:10;font-family:'Tahoma';font-size:24;text-anchor:middle;">ADE</text>
		<text id="Count_BCD" transform="matrix(1 0 0 1 434.6 449.5)" style="fill:#262262;stroke:#000000;stroke-width:0.5;stroke-miterlimit:10;font-family:'Tahoma';font-size:24;text-anchor:middle;">BCD</text>
		<text id="Count_CDE" transform="matrix(1 0 0 1 308 465.2)" style="fill:#262262;stroke:#000000;stroke-width:0.5;stroke-miterlimit:10;font-family:'Tahoma';font-size:24;text-anchor:middle;">CDE</text>
		<text id="Count_ABCD" transform="matrix(1 0 0 1 435.1 369.6)" style="fill:#262262;stroke:#000000;stroke-width:0.5;stroke-miterlimit:10;font-family:'Tahoma';font-size:10;text-anchor:middle">ABCD</text>
		<text id="Count_ABCE" transform="matrix(1 0 0 1 392.9 289.9)" style="fill:#262262;stroke:#000000;stroke-width:0.5;stroke-miterlimit:10;font-family:'Tahoma';font-size:10;text-anchor:middle;">ABCE</text>
		<text id="Count_ABDE" transform="matrix(1 0 0 1 297.3 301.8)" style="fill:#262262;stroke:#000000;stroke-width:0.5;stroke-miterlimit:10;font-family:'Tahoma';font-size:10;text-anchor:middle;">ABDE</text>
		<text id="Count_ACDE" transform="matrix(1 0 0 1 284.7 397.8)" style="fill:#262262;stroke:#000000;stroke-width:0.5;stroke-miterlimit:10;font-family:'Tahoma';font-size:10;text-anchor:middle;">ACDE</text>
		<text id="Count_BCDE" transform="matrix(1 0 0 1 359.5 434.3)" style="fill:#262262;stroke:#000000;stroke-width:0.5;stroke-miterlimit:10;font-family:'Tahoma';font-size:10;text-anchor:middle;">BCDE</text>
		<text id="Count_ABCDE" transform="matrix(1 0 0 1 355 363.7)" style="fill:#FFFFFF;stroke:#000000;stroke-width:0.5;stroke-miterlimit:10;font-family:'Tahoma';font-size:36;text-anchor:middle;">ABCDE</text>
	</g>
	<g id="Group_CountSums">
		<text id="CountSUM_A" transform="matrix(1 0 0 1 340.2 43.9)" style="fill:#262262;font-family:'Tahoma';font-size:18;text-anchor:middle;">CountSUM_A</text>
		<text id="CountSUM_B" transform="matrix(1 0 0 1 600.5 131.5)" style="fill:#262262;font-family:'Tahoma';font-size:18;text-anchor:middle;">CountSUM_B</text>
		<text id="CountSUM_C" transform="matrix(1 0 0 1 598 649.4)" style="fill:#262262;font-family:'Tahoma';font-size:18;text-anchor:middle;">CountSUM_C</text>
		<text id="CountSUM_D" transform="matrix(1 0 0 1 89.6 653.4)" style="fill:#262262;font-family:'Tahoma';font-size:18;text-anchor:middle;">CountSUM_D</text>
		<text id="CountSUM_E" transform="matrix(1 0 0 1 78.8 166.9)" style="fill:#262262;font-family:'Tahoma';font-size:18;text-anchor:middle;">CountSUM_E</text>
	</g>
</g>
<g id="Group_Bullets" style="display:none;">
	<circle id="BulletA" style="fill: #fff200; isolation: isolate; opacity: .2; stroke: #010101; stroke-width: 2px;" cx="59.2" cy="31.9" r="6.9"/>
	<circle id="BulletB" style="fill: #2e3192; isolation: isolate; opacity: .2; stroke: #010101; stroke-width: 2px;" cx="59.2" cy="50.6" r="6.9"/>
	<circle id="BulletC" style="fill: #ed1c24; isolation: isolate; opacity: .2; stroke: #010101; stroke-width: 2px;" cx="59.2" cy="69.3" r="6.9"/>
	<circle id="BulletD" style="fill: #808285; isolation: isolate; opacity: .2; stroke: #010101; stroke-width: 2px;" cx="59.2" cy="88" r="6.9"/>
	<circle id="BulletE" style="fill: #3C2415; isolation: isolate; opacity: .2; stroke: #010101; stroke-width: 2px;" cx="59.2" cy="106.7" r="6.9"/>
</g>
</svg>
