<?xml version="1.0" encoding="utf-8"?>
<!-- Created by Zoltan Dul in 2026 - free to use with MIT license. Part of React Venn Diagram Lab Module - https://github.com/ZoliQua/React-Venn-Diagram-Lab - SVG Version: 3.0.0 -->
<svg xmlns="http://www.w3.org/2000/svg"
	 xmlns:xlink="http://www.w3.org/1999/xlink"
	 version="1.1"
	 x="0px"
	 y="0px"
	 style="enable-background:new 0 0 930 850;"
	 xml:space="preserve" viewBox="0 0 930 850">
<g id="Shapes">
	<path id="ShapeA" style="opacity:0.2;fill:#FFF200;stroke:#000000;stroke-width:2;stroke-miterlimit:10;" d="M 708.5 142.3 L 695.7 123.1 L 680.5 107.1 L 663.5 94.4 L 644.8 84.6 L 624.9 77.9 L 604.1 74.0 L 582.8 73.0 L 561.2 74.6 L 539.9 78.9 L 519.0 85.7 L 499.0 95.0 L 480.2 106.6 L 476.0 109.5 L 471.9 112.6 L 467.9 115.8 L 464.0 119.1 L 460.2 122.5 L 456.5 126.0 L 452.9 129.6 L 449.4 133.4 L 446.0 137.1 L 442.6 141.0 L 439.3 144.9 L 436.1 148.9 L 433.3 152.2 L 430.7 155.7 L 428.1 159.3 L 425.6 163.1 L 423.2 166.9 L 420.7 170.6 L 418.2 174.4 L 415.7 178.0 L 413.0 181.5 L 410.2 184.9 L 407.2 188.0 L 404.0 190.8 L 401.3 192.6 L 398.5 193.8 L 395.6 194.5 L 392.5 194.9 L 389.5 195.0 L 386.3 194.8 L 383.2 194.5 L 380.1 194.1 L 376.9 193.8 L 373.8 193.6 L 370.8 193.5 L 367.8 193.7 L 362.8 195.3 L 358.7 197.8 L 355.4 201.1 L 352.8 205.0 L 350.8 209.4 L 349.2 214.2 L 347.9 219.3 L 346.8 224.5 L 345.8 229.6 L 344.7 234.7 L 343.5 239.5 L 341.9 243.9 L 337.4 253.7 L 330.6 260.5 L 321.7 265.0 L 311.0 267.7 L 298.8 269.2 L 285.3 270.1 L 270.8 271.0 L 255.7 272.5 L 240.1 275.1 L 224.3 279.5 L 208.7 286.1 L 193.4 295.7 L 184.5 302.4 L 177.0 309.8 L 171.0 318.0 L 166.3 326.8 L 163.1 336.0 L 161.2 345.6 L 160.6 355.4 L 161.3 365.4 L 163.3 375.3 L 166.5 385.2 L 171.0 394.8 L 176.6 404.0 L 182.1 411.9 L 188.1 419.3 L 194.6 426.3 L 201.4 433.0 L 208.6 439.3 L 216.0 445.4 L 223.6 451.3 L 231.4 457.0 L 239.2 462.7 L 247.0 468.2 L 254.7 473.8 L 262.2 479.5 L 268.6 484.1 L 274.1 489.0 L 278.8 494.1 L 282.8 499.4 L 286.0 505.0 L 288.5 510.9 L 290.3 517.0 L 291.5 523.3 L 292.1 530.0 L 292.1 537.0 L 291.6 544.2 L 290.5 551.8 L 289.7 558.5 L 288.9 565.2 L 288.1 572.0 L 287.2 578.7 L 286.4 585.5 L 285.7 592.3 L 285.1 599.1 L 284.7 605.9 L 284.4 612.6 L 284.4 619.4 L 284.7 626.2 L 285.2 633.0 L 285.8 639.0 L 286.9 644.9 L 288.5 650.7 L 290.7 656.3 L 293.5 661.6 L 296.7 666.5 L 300.5 670.9 L 304.8 674.7 L 309.6 677.8 L 314.9 680.0 L 320.8 681.4 L 327.1 681.7 L 332.9 681.9 L 338.6 681.3 L 344.4 680.1 L 350.2 678.4 L 356.0 676.5 L 361.7 674.6 L 367.5 672.9 L 373.2 671.5 L 378.8 670.8 L 384.5 670.8 L 390.1 671.8 L 395.6 674.0 L 400.0 677.7 L 404.2 681.1 L 408.1 684.2 L 411.9 686.8 L 415.6 688.8 L 419.4 690.3 L 423.2 691.0 L 427.2 691.0 L 431.5 690.2 L 436.0 688.3 L 440.9 685.5 L 446.2 681.6 L 454.6 674.6 L 462.6 667.2 L 470.2 659.4 L 477.4 651.3 L 484.2 642.8 L 490.7 634.1 L 496.9 625.2 L 502.9 616.0 L 508.7 606.8 L 514.2 597.4 L 519.7 587.9 L 525.0 578.4 L 528.8 570.8 L 532.6 563.9 L 536.5 557.6 L 540.7 551.9 L 545.2 546.9 L 550.1 542.5 L 555.4 538.8 L 561.2 535.7 L 567.7 533.3 L 574.8 531.6 L 582.7 530.5 L 591.5 530.1 L 600.3 529.5 L 609.1 528.9 L 617.9 528.3 L 626.7 527.5 L 635.4 526.7 L 644.1 525.7 L 652.8 524.6 L 661.5 523.2 L 670.2 521.6 L 678.7 519.8 L 687.3 517.7 L 695.8 515.2 L 709.8 510.4 L 719.4 505.3 L 725.2 500.0 L 727.9 494.3 L 728.1 488.3 L 726.6 481.9 L 724.1 475.1 L 721.1 467.9 L 718.5 460.3 L 716.8 452.2 L 716.7 443.6 L 719.0 434.5 L 721.1 430.4 L 723.5 426.5 L 726.1 422.7 L 728.8 419.1 L 731.8 415.6 L 734.8 412.1 L 737.8 408.6 L 740.8 405.1 L 743.8 401.6 L 746.6 398.0 L 749.3 394.3 L 751.8 390.4 L 756.9 379.2 L 759.3 369.8 L 759.3 361.8 L 757.5 354.9 L 754.2 349.1 L 749.7 344.0 L 744.5 339.3 L 738.9 334.9 L 733.4 330.4 L 728.3 325.7 L 724.0 320.5 L 720.9 314.5 L 720.4 309.7 L 720.4 305.0 L 720.8 300.2 L 721.5 295.5 L 722.5 290.7 L 723.7 286.0 L 725.0 281.2 L 726.3 276.4 L 727.5 271.7 L 728.6 266.9 L 729.5 262.2 L 730.1 257.4 L 731.4 247.6 L 732.1 237.7 L 732.1 227.8 L 731.6 217.8 L 730.5 208.0 L 728.9 198.2 L 726.7 188.4 L 724.0 178.9 L 720.8 169.4 L 717.2 160.2 L 713.1 151.1 L 708.6 142.3 L 708.6 142.1 L 708.5 142.3 Z"/>
	<path id="ShapeB" style="opacity:0.2;fill:#2E3192;stroke:#000000;stroke-width:2;stroke-miterlimit:10;" d="M 848.5 422.9 L 855.9 399.9 L 859.2 377.5 L 858.7 355.9 L 854.6 335.4 L 847.2 316.0 L 836.9 297.9 L 823.9 281.3 L 808.5 266.4 L 791.0 253.3 L 771.7 242.3 L 751.0 233.3 L 729.0 226.7 L 722.4 225.3 L 715.8 224.2 L 709.1 223.2 L 702.3 222.5 L 695.6 222.0 L 688.8 221.6 L 682.1 221.5 L 675.3 221.5 L 668.5 221.7 L 661.8 222.0 L 655.0 222.5 L 648.3 223.1 L 646.0 223.3 L 643.7 223.6 L 641.4 223.8 L 639.0 224.0 L 636.6 224.2 L 634.2 224.4 L 631.9 224.5 L 629.5 224.5 L 627.2 224.4 L 625.0 224.3 L 622.8 223.9 L 620.7 223.5 L 617.8 222.7 L 615.2 221.4 L 612.9 219.8 L 610.8 217.9 L 608.9 215.8 L 607.2 213.4 L 605.6 211.0 L 604.0 208.5 L 602.4 206.0 L 600.7 203.6 L 598.9 201.3 L 597.0 199.3 L 591.8 196.3 L 586.5 194.8 L 581.2 194.6 L 575.8 195.5 L 570.3 197.1 L 564.9 199.4 L 559.4 201.9 L 553.9 204.7 L 548.5 207.3 L 543.1 209.6 L 537.7 211.3 L 532.4 212.3 L 525.0 212.8 L 517.8 211.4 L 510.9 208.3 L 504.3 203.8 L 497.8 198.3 L 491.5 192.0 L 485.4 185.2 L 479.3 178.3 L 473.2 171.4 L 467.2 165.0 L 461.2 159.4 L 455.1 154.7 L 440.9 144.2 L 426.4 136.0 L 411.7 130.1 L 397.0 126.6 L 382.6 125.5 L 368.6 126.9 L 355.3 130.8 L 342.9 137.3 L 331.6 146.4 L 321.6 158.2 L 313.1 172.7 L 306.4 190.0 L 302.8 201.9 L 300.7 214.5 L 299.8 227.7 L 299.7 241.1 L 300.2 254.7 L 300.9 268.2 L 301.5 281.4 L 301.7 294.1 L 301.1 306.1 L 299.6 317.3 L 296.7 327.4 L 292.1 336.2 L 288.0 340.9 L 283.7 345.2 L 279.0 349.2 L 274.1 353.0 L 269.1 356.5 L 263.8 359.9 L 258.5 363.1 L 253.1 366.2 L 247.7 369.4 L 242.4 372.5 L 237.1 375.8 L 231.9 379.1 L 226.2 382.8 L 220.5 386.5 L 214.7 390.4 L 209.0 394.3 L 203.4 398.5 L 198.0 402.8 L 192.9 407.3 L 188.0 412.2 L 183.6 417.3 L 179.6 422.8 L 176.2 428.7 L 173.4 435.0 L 171.3 446.6 L 172.0 456.6 L 174.9 465.0 L 179.7 472.3 L 185.8 478.7 L 192.7 484.3 L 200.1 489.6 L 207.3 494.7 L 214.0 499.8 L 219.6 505.4 L 223.7 511.5 L 225.8 518.5 L 225.6 523.8 L 225.4 528.8 L 225.2 533.6 L 225.3 538.1 L 225.7 542.3 L 226.5 546.1 L 228.0 549.7 L 230.1 552.9 L 233.0 555.7 L 236.9 558.2 L 241.8 560.2 L 247.9 561.8 L 255.1 563.3 L 262.3 564.5 L 269.5 565.5 L 276.8 566.3 L 284.2 566.8 L 291.5 567.1 L 298.8 567.2 L 306.2 567.1 L 313.6 566.8 L 320.9 566.3 L 328.3 565.6 L 335.6 564.8 L 340.3 564.3 L 345.0 563.7 L 349.7 563.1 L 354.4 562.4 L 359.1 561.7 L 363.8 561.0 L 368.5 560.2 L 373.2 559.4 L 377.9 558.5 L 382.6 557.6 L 387.2 556.7 L 391.9 555.8 L 397.3 554.6 L 402.8 553.7 L 408.3 553.1 L 413.8 552.9 L 419.3 553.2 L 424.7 553.8 L 429.9 555.0 L 435.0 556.6 L 439.9 558.8 L 444.6 561.6 L 448.9 565.0 L 453.0 569.1 L 460.2 576.3 L 468.3 584.7 L 477.3 594.1 L 486.9 604.1 L 497.0 614.3 L 507.4 624.3 L 518.1 633.9 L 528.8 642.7 L 539.4 650.3 L 549.7 656.3 L 559.7 660.5 L 569.1 662.4 L 574.3 661.0 L 578.6 658.6 L 582.2 655.3 L 585.2 651.4 L 587.9 647.0 L 590.4 642.3 L 592.9 637.5 L 595.5 632.8 L 598.3 628.4 L 601.6 624.5 L 605.5 621.2 L 610.2 618.8 L 617.4 616.5 L 624.8 615.1 L 632.4 614.5 L 640.1 614.4 L 647.8 614.6 L 655.6 614.8 L 663.3 614.9 L 670.9 614.7 L 678.3 613.8 L 685.6 612.1 L 692.5 609.4 L 699.2 605.4 L 703.2 602.0 L 706.2 598.2 L 708.5 594.0 L 710.1 589.5 L 711.2 584.8 L 711.8 579.9 L 712.1 574.9 L 712.2 569.9 L 712.3 564.8 L 712.4 559.8 L 712.7 555.0 L 713.2 550.4 L 716.6 543.2 L 722.8 537.1 L 731.4 531.5 L 742.1 525.9 L 754.3 519.9 L 767.7 512.9 L 781.8 504.5 L 796.2 494.1 L 810.5 481.3 L 824.2 465.5 L 837.0 446.3 L 848.4 423.1 L 848.4 422.9 L 848.5 422.9 Z"/>
	<path id="ShapeC" style="opacity:0.2;fill:#ED1C24;stroke:#000000;stroke-width:2;stroke-miterlimit:10;" d="M 709.8 702.6 L 730.8 695.1 L 749.4 685.3 L 765.5 673.2 L 779.3 659.3 L 790.5 643.7 L 799.4 626.6 L 805.8 608.3 L 809.7 589.0 L 811.2 569.0 L 810.3 548.5 L 806.9 527.7 L 801.0 506.9 L 798.3 499.7 L 795.3 492.6 L 791.9 485.7 L 788.1 479.0 L 784.1 472.5 L 779.8 466.1 L 775.3 459.8 L 770.6 453.7 L 765.7 447.7 L 760.7 441.9 L 755.6 436.1 L 750.4 430.5 L 748.2 428.1 L 745.9 425.8 L 743.6 423.5 L 741.2 421.1 L 738.8 418.7 L 736.6 416.2 L 734.5 413.7 L 732.7 411.1 L 731.0 408.3 L 729.7 405.4 L 728.8 402.4 L 728.3 399.2 L 728.3 396.9 L 728.5 394.6 L 729.0 392.3 L 729.6 390.0 L 730.3 387.7 L 731.2 385.5 L 732.0 383.2 L 732.9 381.0 L 733.6 378.8 L 734.3 376.5 L 734.8 374.3 L 735.1 372.0 L 734.6 366.8 L 733.1 362.3 L 730.5 358.5 L 727.2 355.1 L 723.3 352.2 L 718.9 349.6 L 714.2 347.3 L 709.4 345.1 L 704.5 343.0 L 699.9 340.9 L 695.5 338.6 L 691.6 336.1 L 686.9 333.2 L 683.1 329.9 L 680.1 326.2 L 677.7 322.2 L 676.1 317.9 L 675.0 313.3 L 674.4 308.6 L 674.3 303.7 L 674.6 298.8 L 675.2 293.8 L 676.0 288.8 L 677.0 283.8 L 677.8 279.4 L 678.6 275.1 L 679.4 270.7 L 680.1 266.3 L 680.7 262.0 L 681.3 257.6 L 681.9 253.2 L 682.3 248.8 L 682.6 244.4 L 682.8 240.0 L 682.9 235.6 L 682.9 231.2 L 682.5 223.4 L 681.6 215.6 L 680.2 207.8 L 678.3 200.1 L 675.9 192.6 L 672.9 185.2 L 669.5 178.1 L 665.4 171.4 L 660.8 165.1 L 655.6 159.2 L 649.9 153.8 L 643.5 149.1 L 633.1 143.7 L 622.4 140.1 L 611.5 138.2 L 600.4 137.8 L 589.3 138.8 L 578.2 141.1 L 567.2 144.4 L 556.5 148.6 L 546.1 153.7 L 536.0 159.3 L 526.5 165.5 L 517.6 172.0 L 511.2 176.6 L 504.7 181.9 L 498.2 187.5 L 491.5 193.4 L 484.8 199.2 L 477.9 205.0 L 470.9 210.4 L 463.8 215.4 L 456.5 219.6 L 449.1 223.1 L 441.6 225.4 L 433.9 226.6 L 427.8 226.4 L 421.8 225.8 L 415.8 224.7 L 409.9 223.4 L 404.0 221.7 L 398.1 219.8 L 392.3 217.8 L 386.5 215.7 L 380.7 213.5 L 374.9 211.4 L 369.2 209.4 L 363.5 207.5 L 356.5 205.3 L 349.5 203.0 L 342.3 200.9 L 335.1 198.9 L 327.9 197.1 L 320.6 195.6 L 313.3 194.5 L 305.9 193.8 L 298.6 193.7 L 291.3 194.2 L 284.1 195.3 L 276.9 197.2 L 268.9 201.1 L 262.8 205.8 L 258.2 211.3 L 255.0 217.4 L 252.9 224.2 L 251.8 231.3 L 251.4 238.8 L 251.4 246.5 L 251.7 254.2 L 252.0 262.0 L 252.2 269.7 L 251.9 277.1 L 249.9 282.9 L 246.7 287.6 L 242.8 291.4 L 238.3 294.7 L 233.7 297.6 L 229.2 300.5 L 225.1 303.6 L 221.8 307.2 L 219.6 311.6 L 218.7 317.0 L 219.6 323.8 L 222.5 332.2 L 227.3 341.4 L 232.5 350.3 L 238.2 358.9 L 244.4 367.2 L 250.8 375.3 L 257.6 383.1 L 264.7 390.7 L 272.0 398.1 L 279.5 405.4 L 287.2 412.4 L 294.9 419.4 L 302.7 426.2 L 308.3 431.0 L 314.0 435.7 L 319.6 440.6 L 325.0 445.5 L 330.1 450.6 L 334.7 456.0 L 338.7 461.6 L 342.0 467.6 L 344.4 474.0 L 345.8 481.0 L 346.1 488.4 L 345.2 496.5 L 343.8 505.8 L 342.0 516.7 L 340.0 528.9 L 338.0 542.0 L 336.1 555.7 L 334.6 569.6 L 333.7 583.3 L 333.4 596.6 L 334.0 609.1 L 335.7 620.3 L 338.6 630.1 L 343.0 638.0 L 347.4 641.0 L 352.1 642.7 L 357.1 643.4 L 362.4 643.2 L 367.9 642.5 L 373.5 641.5 L 379.1 640.4 L 384.8 639.5 L 390.4 639.1 L 395.9 639.4 L 401.3 640.6 L 406.4 643.1 L 410.7 646.0 L 414.6 649.2 L 418.3 652.7 L 421.8 656.5 L 425.0 660.4 L 428.2 664.5 L 431.4 668.6 L 434.5 672.7 L 437.7 676.8 L 441.1 680.8 L 444.6 684.6 L 448.4 688.1 L 451.7 691.0 L 455.2 693.6 L 459.0 695.8 L 462.9 697.5 L 467.0 698.9 L 471.2 699.8 L 475.4 700.3 L 479.7 700.4 L 483.9 699.9 L 488.1 698.9 L 492.2 697.4 L 496.2 695.4 L 498.5 694.1 L 500.8 692.6 L 503.1 691.1 L 505.2 689.5 L 507.4 687.8 L 509.6 686.1 L 511.7 684.4 L 513.9 682.7 L 516.0 681.2 L 518.2 679.7 L 520.4 678.4 L 522.7 677.2 L 531.3 675.2 L 540.0 676.0 L 549.2 678.8 L 559.2 683.2 L 570.4 688.6 L 583.0 694.3 L 597.5 699.8 L 614.2 704.4 L 633.4 707.6 L 655.4 708.8 L 680.7 707.3 L 709.5 702.7 L 709.6 702.7 L 709.8 702.6 Z"/>
	<path id="ShapeD" style="opacity:0.2;fill:#808285;stroke:#000000;stroke-width:2;stroke-miterlimit:10;" d="M 393.9 772.9 L 399.2 777.3 L 404.9 781.3 L 410.8 784.8 L 417.0 787.9 L 423.4 790.5 L 430.0 792.8 L 436.8 794.7 L 443.6 796.2 L 450.5 797.5 L 457.5 798.4 L 464.4 799.0 L 471.2 799.4 L 482.7 799.2 L 494.1 798.0 L 505.3 795.8 L 516.3 792.7 L 527.0 788.8 L 537.4 784.0 L 547.5 778.6 L 557.2 772.5 L 566.5 765.7 L 575.4 758.4 L 583.9 750.7 L 591.8 742.5 L 599.2 734.2 L 606.0 725.4 L 612.1 716.3 L 617.7 706.7 L 622.6 696.9 L 626.9 686.8 L 630.8 676.5 L 634.0 665.9 L 636.8 655.2 L 639.1 644.4 L 640.9 633.5 L 642.3 622.5 L 643.5 612.4 L 646.3 604.9 L 650.3 599.5 L 655.2 595.7 L 660.7 593.0 L 666.4 591.0 L 672.0 589.1 L 677.2 586.9 L 681.7 583.9 L 685.1 579.5 L 687.0 573.4 L 687.3 564.9 L 686.8 561.6 L 686.2 558.3 L 685.5 555.0 L 684.7 551.8 L 683.9 548.5 L 683.0 545.3 L 682.2 542.0 L 681.4 538.8 L 680.7 535.5 L 680.1 532.3 L 679.7 529.0 L 679.4 525.7 L 679.3 520.4 L 680.1 515.6 L 681.7 511.3 L 684.1 507.3 L 687.0 503.6 L 690.5 500.3 L 694.3 497.3 L 698.5 494.5 L 702.8 491.9 L 707.2 489.5 L 711.6 487.2 L 715.8 485.1 L 720.1 482.8 L 724.4 480.5 L 728.6 478.1 L 732.9 475.7 L 737.0 473.2 L 741.2 470.6 L 745.3 467.9 L 749.3 465.2 L 753.3 462.4 L 757.2 459.5 L 761.0 456.4 L 764.7 453.3 L 776.3 441.6 L 785.7 429.6 L 792.8 417.2 L 797.7 404.7 L 800.2 392.1 L 800.4 379.6 L 798.3 367.3 L 793.9 355.4 L 787.1 343.9 L 778.0 333.0 L 766.5 322.8 L 752.6 313.5 L 746.7 310.3 L 740.6 307.4 L 734.4 304.8 L 728.1 302.5 L 721.7 300.4 L 715.2 298.5 L 708.6 296.8 L 702.0 295.2 L 695.4 293.8 L 688.8 292.4 L 682.2 291.2 L 675.7 290.0 L 669.9 288.8 L 664.0 287.8 L 658.0 286.8 L 652.0 285.8 L 646.0 284.7 L 640.1 283.4 L 634.2 282.0 L 628.5 280.2 L 623.0 278.0 L 617.7 275.4 L 612.6 272.2 L 607.9 268.5 L 604.9 265.4 L 602.3 262.1 L 599.9 258.6 L 597.6 255.0 L 595.6 251.2 L 593.8 247.4 L 592.0 243.5 L 590.4 239.5 L 588.8 235.5 L 587.3 231.5 L 585.8 227.5 L 584.2 223.5 L 581.1 215.2 L 578.0 206.8 L 574.8 198.3 L 571.6 189.7 L 568.2 181.3 L 564.5 173.0 L 560.5 164.9 L 556.0 157.1 L 551.1 149.7 L 545.5 142.7 L 539.3 136.2 L 532.4 130.4 L 527.0 127.3 L 521.4 125.3 L 515.7 124.1 L 509.9 123.9 L 504.1 124.5 L 498.4 125.8 L 492.8 127.7 L 487.4 130.2 L 482.1 133.2 L 477.1 136.6 L 472.4 140.3 L 468.0 144.3 L 465.6 146.5 L 463.2 148.7 L 460.8 150.9 L 458.2 153.1 L 455.6 155.1 L 452.9 157.0 L 450.1 158.6 L 447.2 160.0 L 444.2 161.0 L 441.0 161.7 L 437.8 161.9 L 434.4 161.7 L 430.7 160.9 L 426.8 159.9 L 422.9 158.9 L 419.0 158.0 L 415.1 157.2 L 411.2 156.7 L 407.4 156.6 L 403.7 156.9 L 400.2 157.9 L 396.9 159.6 L 393.7 162.2 L 390.9 165.6 L 386.8 172.3 L 383.1 179.3 L 379.7 186.5 L 376.7 193.8 L 374.1 201.3 L 371.7 208.9 L 369.7 216.5 L 367.9 224.3 L 366.3 232.1 L 364.9 239.9 L 363.7 247.7 L 362.7 255.5 L 362.2 259.9 L 361.7 264.4 L 361.2 268.9 L 360.8 273.4 L 360.4 277.9 L 360.1 282.4 L 359.8 286.9 L 359.5 291.5 L 359.3 296.0 L 359.1 300.5 L 358.9 305.1 L 358.7 309.6 L 358.7 315.2 L 358.3 320.8 L 357.5 326.3 L 356.3 331.6 L 354.8 336.8 L 352.8 341.7 L 350.3 346.5 L 347.4 350.9 L 344.0 355.0 L 340.1 358.8 L 335.6 362.1 L 330.6 365.1 L 322.0 370.2 L 311.9 376.0 L 300.7 382.2 L 288.8 389.0 L 276.6 396.2 L 264.5 403.7 L 252.8 411.6 L 241.8 419.7 L 232.1 428.1 L 223.9 436.6 L 217.7 445.2 L 213.8 453.9 L 214.1 459.4 L 215.7 464.3 L 218.4 468.7 L 221.9 472.7 L 225.9 476.5 L 230.2 480.2 L 234.6 484.0 L 238.7 487.9 L 242.2 492.2 L 245.1 496.8 L 246.9 502.1 L 247.5 508.0 L 247.1 515.9 L 245.7 524.3 L 243.8 532.9 L 241.6 541.7 L 239.5 550.5 L 237.9 559.3 L 237.0 567.7 L 237.3 575.9 L 238.9 583.5 L 242.4 590.5 L 247.9 596.8 L 255.9 602.2 L 258.9 603.6 L 262.0 604.7 L 265.2 605.6 L 268.5 606.4 L 271.9 607.1 L 275.2 607.7 L 278.6 608.4 L 281.9 609.0 L 285.1 609.8 L 288.3 610.7 L 291.3 611.8 L 294.1 613.2 L 296.8 615.0 L 299.0 617.0 L 301.0 619.3 L 302.7 621.8 L 304.1 624.5 L 305.3 627.4 L 306.3 630.3 L 307.2 633.4 L 308.0 636.5 L 308.7 639.5 L 309.4 642.6 L 310.1 645.6 L 310.9 649.0 L 311.7 652.4 L 312.6 655.8 L 313.5 659.2 L 314.4 662.6 L 315.4 666.0 L 316.4 669.3 L 317.5 672.7 L 318.6 676.0 L 319.8 679.3 L 321.0 682.6 L 322.3 685.9 L 326.1 694.6 L 330.5 703.0 L 335.5 710.9 L 340.9 718.6 L 346.7 725.9 L 352.9 733.0 L 359.4 739.9 L 366.0 746.6 L 372.8 753.2 L 379.7 759.7 L 386.6 766.2 L 393.4 772.6 L 393.5 772.6 L 393.9 772.9 Z"/>
	<path id="ShapeE" style="opacity:0.2;fill:#3C2415;stroke:#000000;stroke-width:2;stroke-miterlimit:10;" d="M 140.5 580.3 L 144.1 603.3 L 150.8 624.1 L 160.4 642.7 L 172.5 659.0 L 186.8 673.2 L 203.2 685.1 L 221.2 694.7 L 240.6 702.0 L 261.1 707.1 L 282.4 709.8 L 304.3 710.2 L 326.4 708.3 L 333.8 707.1 L 341.2 705.5 L 348.4 703.6 L 355.6 701.3 L 362.7 698.8 L 369.6 696.0 L 376.5 693.0 L 383.4 689.8 L 390.1 686.4 L 396.7 682.9 L 403.3 679.2 L 409.8 675.5 L 411.7 674.4 L 413.7 673.2 L 415.6 672.1 L 417.7 670.9 L 419.7 669.8 L 421.7 668.7 L 423.8 667.6 L 425.8 666.7 L 427.9 665.8 L 430.0 665.1 L 432.0 664.5 L 434.1 664.0 L 437.2 663.5 L 440.3 663.6 L 443.2 664.1 L 446.0 665.0 L 448.8 666.2 L 451.5 667.6 L 454.2 669.1 L 456.9 670.7 L 459.6 672.2 L 462.2 673.7 L 465.0 675.0 L 467.7 676.0 L 474.1 676.5 L 479.9 675.4 L 485.0 673.0 L 489.7 669.6 L 494.0 665.4 L 498.1 660.6 L 502.0 655.5 L 506.0 650.4 L 510.1 645.4 L 514.4 640.9 L 519.1 637.1 L 524.3 634.3 L 531.8 631.9 L 540.1 631.7 L 549.3 633.2 L 559.1 636.0 L 569.7 639.9 L 580.9 644.2 L 592.6 648.8 L 604.9 653.1 L 617.6 656.8 L 630.7 659.4 L 644.2 660.7 L 658.0 660.1 L 671.4 658.6 L 683.7 655.4 L 694.7 650.8 L 704.6 644.7 L 713.1 637.4 L 720.3 629.0 L 726.2 619.4 L 730.6 609.0 L 733.6 597.6 L 735.0 585.6 L 735.0 573.0 L 733.3 559.8 L 731.5 551.2 L 729.1 542.7 L 726.3 534.4 L 723.1 526.3 L 719.5 518.3 L 715.6 510.4 L 711.5 502.5 L 707.2 494.8 L 702.9 487.1 L 698.5 479.4 L 694.3 471.7 L 690.1 464.0 L 687.3 459.1 L 684.8 454.1 L 682.7 449.0 L 681.0 443.7 L 679.8 438.4 L 679.0 433.1 L 678.7 427.8 L 679.0 422.4 L 679.9 417.1 L 681.3 411.9 L 683.4 406.7 L 686.2 401.7 L 691.5 391.9 L 698.0 381.5 L 705.1 370.6 L 712.6 359.3 L 720.1 347.6 L 727.1 335.8 L 733.3 323.8 L 738.2 311.7 L 741.5 299.8 L 742.9 288.0 L 741.8 276.5 L 737.9 265.4 L 732.5 258.4 L 726.2 253.2 L 719.3 249.4 L 711.9 246.8 L 704.2 245.1 L 696.4 243.8 L 688.6 242.8 L 681.1 241.6 L 674.1 240.0 L 667.6 237.6 L 662.0 234.1 L 657.3 229.2 L 656.2 227.4 L 655.2 225.5 L 654.3 223.5 L 653.5 221.5 L 652.7 219.5 L 652.0 217.5 L 651.2 215.5 L 650.3 213.5 L 649.4 211.6 L 648.4 209.7 L 647.2 208.0 L 645.9 206.4 L 639.6 202.2 L 631.8 200.3 L 622.6 200.4 L 612.4 202.1 L 601.5 205.2 L 590.4 209.4 L 579.2 214.2 L 568.3 219.5 L 558.1 224.9 L 548.8 230.1 L 540.8 234.8 L 534.5 238.6 L 527.2 242.8 L 519.8 247.6 L 512.4 253.0 L 504.9 258.5 L 497.4 264.1 L 489.7 269.4 L 481.9 274.3 L 474.0 278.4 L 466.0 281.6 L 457.8 283.7 L 449.4 284.3 L 440.8 283.3 L 429.7 279.7 L 418.6 275.8 L 407.5 271.7 L 396.5 267.6 L 385.4 263.5 L 374.3 259.4 L 363.2 255.6 L 351.9 252.1 L 340.6 249.0 L 329.2 246.4 L 317.6 244.3 L 305.9 243.0 L 297.0 242.7 L 290.0 243.5 L 284.5 245.3 L 280.4 248.1 L 277.5 251.7 L 275.5 256.0 L 274.2 261.0 L 273.4 266.5 L 272.9 272.5 L 272.4 278.8 L 271.8 285.4 L 270.7 292.1 L 267.4 299.1 L 263.0 305.0 L 257.6 309.8 L 251.4 313.8 L 244.7 317.3 L 237.6 320.4 L 230.4 323.4 L 223.2 326.4 L 216.2 329.7 L 209.7 333.5 L 203.8 338.1 L 198.8 343.5 L 195.1 348.7 L 192.6 353.9 L 191.4 359.1 L 191.1 364.3 L 191.6 369.5 L 192.8 374.6 L 194.6 379.8 L 196.7 385.0 L 198.9 390.1 L 201.2 395.3 L 203.3 400.4 L 205.2 405.5 L 205.4 411.0 L 204.6 416.4 L 202.7 421.5 L 200.1 426.5 L 196.9 431.4 L 193.3 436.1 L 189.3 440.8 L 185.3 445.4 L 181.3 450.0 L 177.5 454.6 L 174.1 459.2 L 171.2 463.8 L 165.7 472.3 L 160.6 481.2 L 156.0 490.4 L 152.0 499.8 L 148.4 509.4 L 145.4 519.2 L 143.0 529.2 L 141.2 539.3 L 140.1 549.5 L 139.6 559.7 L 139.7 569.9 L 140.6 580.1 L 140.6 580.3 L 140.5 580.3 Z"/>
	<path id="ShapeF" style="opacity:0.2;fill:#9E1F63;stroke:#000000;stroke-width:2;stroke-miterlimit:10;" d="M 139.2 267.8 L 137.7 270.0 L 136.1 272.2 L 134.5 274.3 L 132.8 276.5 L 131.1 278.5 L 129.4 280.6 L 127.6 282.7 L 125.9 284.8 L 124.1 286.9 L 122.4 289.0 L 120.7 291.1 L 119.0 293.3 L 116.4 296.9 L 114.0 300.6 L 111.6 304.3 L 109.4 308.2 L 107.3 312.1 L 105.3 316.1 L 103.4 320.1 L 101.7 324.2 L 100.1 328.4 L 98.7 332.6 L 97.4 336.8 L 96.3 341.1 L 93.8 355.1 L 92.9 369.1 L 93.6 383.0 L 95.8 396.8 L 99.4 410.2 L 104.3 423.3 L 110.3 436.0 L 117.3 448.2 L 125.3 459.9 L 134.2 470.9 L 143.8 481.2 L 154.0 490.7 L 159.9 495.5 L 166.0 500.1 L 172.2 504.5 L 178.6 508.6 L 185.2 512.5 L 191.9 516.2 L 198.7 519.7 L 205.5 523.0 L 212.5 526.1 L 219.5 529.1 L 226.6 531.9 L 233.7 534.5 L 236.6 535.5 L 239.4 536.6 L 242.3 537.7 L 245.2 538.9 L 247.9 540.2 L 250.6 541.6 L 253.0 543.2 L 255.3 545.0 L 257.3 547.1 L 259.0 549.4 L 260.4 552.0 L 261.4 555.0 L 261.9 556.8 L 262.2 558.6 L 262.5 560.5 L 262.7 562.4 L 262.9 564.3 L 263.1 566.3 L 263.3 568.2 L 263.5 570.1 L 263.8 572.0 L 264.2 573.8 L 264.7 575.6 L 265.3 577.3 L 268.5 582.5 L 273.0 586.0 L 278.5 588.4 L 284.8 589.7 L 291.8 590.2 L 299.1 590.3 L 306.6 590.2 L 314.1 590.2 L 321.4 590.6 L 328.3 591.6 L 334.5 593.5 L 339.8 596.6 L 342.8 599.1 L 345.4 601.9 L 347.7 605.0 L 349.6 608.2 L 351.4 611.7 L 352.9 615.3 L 354.3 619.1 L 355.5 622.9 L 356.7 626.7 L 357.8 630.5 L 358.9 634.2 L 360.1 637.9 L 362.1 644.6 L 364.3 651.2 L 366.6 657.8 L 369.2 664.4 L 371.9 670.8 L 374.9 677.1 L 378.1 683.3 L 381.6 689.3 L 385.4 695.2 L 389.4 700.8 L 393.9 706.2 L 398.6 711.4 L 408.5 720.9 L 418.8 728.5 L 429.2 734.1 L 439.8 737.9 L 450.5 739.8 L 461.3 740.0 L 472.0 738.5 L 482.7 735.4 L 493.2 730.7 L 503.5 724.4 L 513.6 716.8 L 523.4 707.7 L 529.7 700.7 L 535.4 693.3 L 540.6 685.5 L 545.5 677.6 L 550.0 669.3 L 554.2 660.9 L 558.2 652.4 L 562.0 643.8 L 565.8 635.1 L 569.5 626.5 L 573.3 617.9 L 577.2 609.5 L 580.2 603.3 L 583.4 597.7 L 586.8 592.8 L 590.5 588.6 L 594.5 584.9 L 598.8 581.7 L 603.4 579.0 L 608.3 576.7 L 613.7 574.9 L 619.4 573.3 L 625.6 572.1 L 632.3 571.2 L 642.6 569.8 L 654.6 568.4 L 667.7 567.0 L 681.7 565.4 L 695.9 563.2 L 709.9 560.4 L 723.4 556.8 L 735.8 552.1 L 746.6 546.2 L 755.5 538.8 L 761.9 529.8 L 765.4 519.0 L 765.8 511.1 L 764.8 503.6 L 762.6 496.5 L 759.7 489.8 L 756.2 483.3 L 752.5 477.1 L 748.8 471.1 L 745.6 465.2 L 743.1 459.4 L 741.5 453.6 L 741.3 447.7 L 742.6 441.8 L 743.3 440.0 L 744.2 438.1 L 745.1 436.3 L 746.1 434.6 L 747.2 432.8 L 748.2 431.0 L 749.3 429.2 L 750.3 427.5 L 751.3 425.7 L 752.2 423.9 L 753.0 422.1 L 753.6 420.3 L 754.3 417.7 L 754.6 415.1 L 754.5 412.6 L 754.0 410.1 L 753.3 407.7 L 752.3 405.4 L 751.0 403.2 L 749.5 401.0 L 747.9 399.0 L 746.1 397.0 L 744.2 395.2 L 742.2 393.5 L 736.5 389.0 L 730.7 384.8 L 724.7 380.8 L 718.6 376.9 L 712.4 373.3 L 706.0 369.9 L 699.5 366.7 L 693.0 363.6 L 686.3 360.8 L 679.6 358.2 L 672.8 355.7 L 666.0 353.4 L 659.7 351.2 L 653.3 349.2 L 646.9 347.2 L 640.4 345.4 L 634.0 343.7 L 627.5 341.9 L 621.0 340.2 L 614.6 338.4 L 608.2 336.5 L 601.8 334.6 L 595.5 332.4 L 589.2 330.1 L 585.0 328.2 L 581.1 325.8 L 577.5 323.2 L 574.3 320.1 L 571.3 316.9 L 568.7 313.3 L 566.2 309.6 L 564.1 305.6 L 562.1 301.5 L 560.4 297.4 L 558.9 293.1 L 557.5 288.8 L 555.0 280.9 L 551.7 270.4 L 547.7 258.0 L 542.9 244.4 L 537.6 230.0 L 531.6 215.6 L 525.2 201.9 L 518.3 189.4 L 511.1 178.8 L 503.7 170.7 L 495.9 165.8 L 488.1 164.7 L 483.5 165.8 L 479.2 167.4 L 475.0 169.6 L 471.1 172.1 L 467.2 174.8 L 463.2 177.5 L 459.2 180.1 L 455.1 182.4 L 450.7 184.4 L 446.1 185.8 L 441.1 186.5 L 435.6 186.3 L 430.2 185.4 L 424.9 184.0 L 419.7 182.1 L 414.7 179.9 L 409.7 177.4 L 404.8 174.9 L 399.9 172.2 L 394.9 169.7 L 389.9 167.3 L 384.9 165.1 L 379.7 163.3 L 374.4 162.0 L 370.7 161.3 L 367.0 160.9 L 363.3 160.8 L 359.5 161.0 L 355.9 161.6 L 352.3 162.5 L 348.8 163.7 L 345.5 165.3 L 342.3 167.2 L 339.4 169.4 L 336.8 172.1 L 334.4 175.1 L 332.3 178.1 L 330.4 181.4 L 328.7 184.8 L 327.2 188.4 L 325.7 191.9 L 324.1 195.5 L 322.4 198.9 L 320.6 202.2 L 318.4 205.2 L 315.9 207.9 L 313.0 210.2 L 309.6 212.1 L 307.0 213.1 L 304.3 213.8 L 301.6 214.4 L 298.8 214.7 L 296.0 215.0 L 293.2 215.1 L 290.3 215.2 L 287.4 215.2 L 284.5 215.2 L 281.7 215.1 L 278.9 215.1 L 276.1 215.1 L 272.7 215.1 L 269.2 215.1 L 265.8 215.2 L 262.4 215.3 L 258.9 215.4 L 255.5 215.6 L 252.0 215.8 L 248.6 216.1 L 245.1 216.4 L 241.7 216.8 L 238.3 217.2 L 234.9 217.7 L 227.2 219.1 L 218.9 221.2 L 210.0 223.8 L 200.8 227.1 L 191.5 230.9 L 182.3 235.1 L 173.3 239.8 L 164.8 244.8 L 156.9 250.2 L 149.9 255.8 L 143.9 261.7 L 139.1 267.8 L 139.1 267.8 L 139.2 267.8 Z"/>
	<path id="ShapeG" style="opacity:0.2;fill:#CA4B9B;stroke:#000000;stroke-width:2;stroke-miterlimit:10;" d="M 390.8 73.8 L 367.7 71.8 L 345.6 73.4 L 324.8 78.5 L 305.5 86.6 L 287.7 97.6 L 271.6 111.0 L 257.4 126.7 L 245.2 144.2 L 235.2 163.4 L 227.5 183.9 L 222.3 205.4 L 219.8 227.7 L 219.7 234.5 L 219.8 241.2 L 220.3 247.9 L 221.0 254.5 L 221.9 261.1 L 223.0 267.6 L 224.4 274.2 L 225.9 280.6 L 227.7 287.1 L 229.5 293.5 L 231.6 299.9 L 233.7 306.3 L 234.5 308.5 L 235.3 310.7 L 236.1 313.0 L 236.9 315.3 L 237.7 317.6 L 238.4 319.9 L 239.1 322.2 L 239.7 324.5 L 240.2 326.8 L 240.5 329.0 L 240.7 331.2 L 240.7 333.4 L 240.5 336.3 L 239.8 339.0 L 238.7 341.5 L 237.3 343.8 L 235.7 345.9 L 233.8 348.0 L 231.8 350.0 L 229.8 351.9 L 227.7 353.8 L 225.6 355.7 L 223.7 357.7 L 221.9 359.8 L 219.0 365.3 L 217.9 370.7 L 218.4 375.9 L 220.2 381.1 L 223.0 386.1 L 226.5 391.0 L 230.5 395.9 L 234.6 400.7 L 238.6 405.5 L 242.3 410.4 L 245.4 415.2 L 247.5 420.1 L 249.2 424.9 L 249.9 429.6 L 249.8 434.3 L 249.0 438.9 L 247.6 443.5 L 245.7 447.9 L 243.4 452.3 L 240.8 456.6 L 238.0 460.7 L 235.1 464.8 L 232.2 468.8 L 229.4 472.6 L 225.7 477.8 L 222.0 483.0 L 218.4 488.4 L 214.9 493.8 L 211.6 499.3 L 208.4 505.0 L 205.4 510.7 L 202.7 516.5 L 200.2 522.4 L 198.0 528.5 L 196.1 534.6 L 194.6 540.8 L 192.5 553.4 L 192.1 565.5 L 193.3 577.0 L 196.2 587.7 L 200.5 597.7 L 206.3 606.8 L 213.4 615.0 L 221.7 622.1 L 231.1 628.2 L 241.7 633.1 L 253.2 636.8 L 265.6 639.2 L 274.2 640.2 L 282.7 640.6 L 291.3 640.4 L 299.8 639.8 L 308.3 638.8 L 316.8 637.4 L 325.3 635.7 L 333.7 633.7 L 342.0 631.6 L 350.3 629.3 L 358.5 627.0 L 366.7 624.6 L 372.7 622.9 L 378.8 621.1 L 385.1 619.5 L 391.4 618.1 L 397.7 617.0 L 404.0 616.4 L 410.3 616.2 L 416.5 616.6 L 422.5 617.8 L 428.4 619.7 L 434.1 622.5 L 439.5 626.3 L 448.6 633.8 L 458.1 642.7 L 468.0 652.6 L 478.1 662.9 L 488.6 673.2 L 499.5 683.2 L 510.6 692.4 L 522.0 700.2 L 533.7 706.4 L 545.6 710.4 L 557.8 711.8 L 570.3 710.2 L 578.6 706.4 L 585.2 701.5 L 590.6 695.5 L 594.8 688.9 L 598.4 681.8 L 601.4 674.5 L 604.2 667.4 L 607.2 660.5 L 610.4 654.3 L 614.4 648.8 L 619.2 644.5 L 625.3 641.6 L 628.0 640.9 L 630.9 640.3 L 633.7 639.9 L 636.7 639.5 L 639.6 639.1 L 642.5 638.7 L 645.3 638.2 L 648.1 637.4 L 650.7 636.5 L 653.2 635.2 L 655.6 633.6 L 657.7 631.6 L 660.6 626.9 L 662.6 621.3 L 663.9 615.1 L 664.4 608.4 L 664.4 601.3 L 663.9 594.0 L 663.0 586.6 L 661.8 579.3 L 660.5 572.3 L 659.0 565.6 L 657.7 559.5 L 656.4 554.1 L 654.6 548.1 L 652.7 542.2 L 650.7 536.2 L 648.7 530.3 L 646.5 524.5 L 644.3 518.6 L 642.1 512.8 L 639.7 507.0 L 637.3 501.2 L 634.9 495.4 L 632.4 489.7 L 629.8 484.0 L 626.9 477.9 L 624.1 471.9 L 621.6 465.9 L 619.5 460.0 L 617.8 454.1 L 616.6 448.3 L 616.1 442.4 L 616.3 436.5 L 617.3 430.6 L 619.1 424.7 L 622.0 418.6 L 625.9 412.5 L 631.6 404.2 L 638.3 394.7 L 645.6 384.4 L 653.2 373.3 L 660.9 361.7 L 668.4 349.8 L 675.4 337.8 L 681.6 325.8 L 686.7 314.1 L 690.5 302.9 L 692.6 292.3 L 692.8 282.5 L 690.7 277.7 L 687.7 274.0 L 683.9 271.2 L 679.4 269.1 L 674.5 267.5 L 669.3 266.2 L 663.9 264.9 L 658.6 263.6 L 653.4 261.9 L 648.6 259.8 L 644.3 256.9 L 640.7 253.2 L 636.9 247.8 L 633.9 242.1 L 631.6 236.0 L 629.8 229.8 L 628.3 223.4 L 626.9 216.9 L 625.6 210.4 L 624.1 203.9 L 622.2 197.6 L 619.9 191.6 L 617.0 185.8 L 613.2 180.3 L 608.2 175.1 L 603.1 171.4 L 597.8 169.0 L 592.3 167.7 L 586.6 167.4 L 580.9 167.8 L 575.1 168.6 L 569.2 169.8 L 563.2 171.0 L 557.2 172.1 L 551.3 172.8 L 545.3 173.0 L 540.8 171.9 L 536.6 170.1 L 532.7 167.8 L 529.2 165.0 L 525.8 161.8 L 522.7 158.3 L 519.6 154.6 L 516.7 150.8 L 513.8 147.1 L 510.8 143.4 L 507.8 139.8 L 504.7 136.6 L 497.3 128.3 L 489.4 120.6 L 481.0 113.5 L 472.1 107.0 L 462.9 101.1 L 453.2 95.6 L 443.3 90.8 L 433.2 86.4 L 422.8 82.6 L 412.3 79.2 L 401.7 76.3 L 391.0 73.9 L 390.9 73.9 L 390.8 73.8 Z"/>
</g>
<g id="Texts">
	<g id="Header">
		<text id="Title" transform="matrix(1 0 0 1 322.1 30.3)" style="fill:#262262;font-family:'Tahoma';font-size:18">Venn 7-set Palmerston North diagram</text>
	</g>
	<g id="Group_Names">
		<text id="NameA" transform="matrix(1 0 0 1 758.1 85.6)" style="fill:#262262;stroke:#000000;stroke-width:0.5;stroke-miterlimit:10;font-family:'Tahoma';font-size:20">NameA</text>
		<text id="NameB" transform="matrix(1 0 0 1 834.5 231.4)" style="fill:#262262;stroke:#000000;stroke-width:0.5;stroke-miterlimit:10;font-family:'Tahoma';font-size:20">NameB</text>
		<text id="NameC" transform="matrix(1 0 0 1 815.1 678.3)" style="fill:#262262;stroke:#000000;stroke-width:0.5;stroke-miterlimit:10;font-family:'Tahoma';font-size:20">NameC</text>
		<text id="NameD" transform="matrix(1 0 0 1 464.6 821.1)" style="fill:#262262;stroke:#000000;stroke-width:0.5;stroke-miterlimit:10;font-family:'Tahoma';font-size:20">NameD</text>
		<text id="NameE" transform="matrix(1 0 0 1 67.8 684.6)" style="fill:#262262;stroke:#000000;stroke-width:0.5;stroke-miterlimit:10;font-family:'Tahoma';font-size:20">NameE</text>
		<text id="NameF" transform="matrix(1 0 0 1 40.6 242.4)" style="fill:#262262;stroke:#000000;stroke-width:0.5;stroke-miterlimit:10;font-family:'Tahoma';font-size:20">NameF</text>
		<text id="NameG" transform="matrix(1 0 0 1 171.9 85.4)" style="fill:#262262;stroke:#000000;stroke-width:0.5;stroke-miterlimit:10;font-family:'Tahoma';font-size:20">NameG</text>
	</g>
	<g id="Group_Values">
		<text id="Count_A" transform="matrix(1 0 0 1 610.6 115.8)" style="fill:#262262;font-family:'Tahoma';font-size:24;text-anchor:middle">A</text>
		<text id="Count_B" transform="matrix(1 0 0 1 822 347.7)" style="fill:#262262;font-family:'Tahoma';font-size:24;text-anchor:middle">B</text>
		<text id="Count_C" transform="matrix(1 0 0 1 766.2 619.1)" style="fill:#262262;font-family:'Tahoma';font-size:24;text-anchor:middle">C</text>
		<text id="Count_D" transform="matrix(1 0 0 1 476.7 772.7)" style="fill:#262262;font-family:'Tahoma';font-size:24;text-anchor:middle">D</text>
		<text id="Count_E" transform="matrix(1 0 0 1 203.9 648.6)" style="fill:#262262;font-family:'Tahoma';font-size:24;text-anchor:middle">E</text>
		<text id="Count_F" transform="matrix(1 0 0 1 127.8 354.9)" style="fill:#262262;font-family:'Tahoma';font-size:24;text-anchor:middle">F</text>
		<text id="Count_G" transform="matrix(1 0 0 1 311 128.5)" style="fill:#262262;font-family:'Tahoma';font-size:24;text-anchor:middle">G</text>
		<text id="Count_AB" transform="matrix(1 0 0 1 708.5 237.8)" style="fill:#262262;font-family:'Tahoma';font-size:7;text-anchor:middle;">AB</text>
		<text id="Count_AC" transform="matrix(1 0 0 1 628.2 176.6)" style="fill:#262262;font-family:'Tahoma';font-size:12;text-anchor:middle">AC</text>
		<text id="Count_AD" transform="matrix(1 0 0 1 525 144.1)" style="fill:#262262;font-family:'Tahoma';font-size:7;text-anchor:middle;">AD</text>
		<text id="Count_AE" transform="matrix(1 0 0 1 303.3 659.7)" style="fill:#262262;font-family:'Tahoma';font-size:6;text-anchor:middle;">AE</text>
		<text id="Count_AF" transform="matrix(1 0 0 1 190.1 331.3)" style="fill:#262262;font-family:'Tahoma';font-size:12;text-anchor:middle">AF</text>
		<text id="Count_AG" transform="matrix(1 0 0 1 466.8 134.5)" style="fill:#262262;font-family:'Tahoma';font-size:7;text-anchor:middle;">AG</text>
		<text id="Count_BC" transform="matrix(1 0 0 1 771.3 484.1)" style="fill:#262262;font-family:'Tahoma';font-size:7;text-anchor:middle;">BC</text>
		<text id="Count_BD" transform="matrix(1 0 0 1 775.5 393.9)" style="fill:#262262;font-family:'Tahoma';font-size:12;text-anchor:middle">BD</text>
		<text id="Count_BE" transform="matrix(1 0 0 1 733 287.2)" style="fill:#262262;font-family:'Tahoma';font-size:6;text-anchor:middle;">BE</text>
		<text id="Count_BF" transform="matrix(1 0 0 1 182.5 438.2)" style="fill:#262262;font-family:'Tahoma';font-size:6;text-anchor:middle;">BF</text>
		<text id="Count_BG" transform="matrix(1 0 0 1 373.1 149.6)" style="fill:#262262;font-family:'Tahoma';font-size:12;text-anchor:middle">BG</text>
		<text id="Count_CD" transform="matrix(1 0 0 1 614 682.7)" style="fill:#262262;font-family:'Tahoma';font-size:7;text-anchor:middle;">CD</text>
		<text id="Count_CE" transform="matrix(1 0 0 1 691.3 631.8)" style="fill:#262262;font-family:'Tahoma';font-size:12;text-anchor:middle">CE</text>
		<text id="Count_CF" transform="matrix(1 0 0 1 745.6 536.4)" style="fill:#262262;font-family:'Tahoma';font-size:6;text-anchor:middle;">CF</text>
		<text id="Count_CG" transform="matrix(1 0 0 1 283.5 207.9)" style="fill:#262262;font-family:'Tahoma';font-size:6;text-anchor:middle;">CG</text>
		<text id="Count_DE" transform="matrix(1 0 0 1 351.3 691.9)" style="fill:#262262;font-family:'Tahoma';font-size:7;text-anchor:middle;">DE</text>
		<text id="Count_DF" transform="matrix(1 0 0 1 455.4 718.6)" style="fill:#262262;font-family:'Tahoma';font-size:12;text-anchor:middle">DF</text>
		<text id="Count_DG" transform="matrix(1 0 0 1 556.7 699.9)" style="fill:#262262;font-family:'Tahoma';font-size:7;text-anchor:middle;">DG</text>
		<text id="Count_EF" transform="matrix(1 0 0 1 183.1 495.9)" style="fill:#262262;font-family:'Tahoma';font-size:7;text-anchor:middle;">EF</text>
		<text id="Count_EG" transform="matrix(1 0 0 1 219.6 594.3)" style="fill:#262262;font-family:'Tahoma';font-size:12;text-anchor:middle">EG</text>
		<text id="Count_FG" transform="matrix(1 0 0 1 236.6 248.2)" style="fill:#262262;font-family:'Tahoma';font-size:12;text-anchor:middle">FG</text>
		<text id="Count_ABC" transform="matrix(1 0 0 1 671.2 232)" style="fill:#262262;font-family:'Tahoma';font-size:6;text-anchor:middle;">ABC</text>
		<text id="Count_ABD" transform="matrix(1 0 0 1 741.9 364.6)" style="fill:#262262;font-family:'Tahoma';font-size:7;text-anchor:middle;">ABD</text>
		<text id="Count_ABE" transform="matrix(1 0 0 1 705.4 271.6)" style="fill:#262262;font-family:'Tahoma';font-size:8;text-anchor:middle;">ABE</text>
		<text id="Count_ABF" transform="matrix(1 0 0 1 197.1 416.5)" style="fill:#262262;font-family:'Tahoma';font-size:6;text-anchor:middle;">ABF</text>
		<text id="Count_ABG" transform="matrix(1 0 0 1 441.2 156.3)" style="fill:#262262;font-family:'Tahoma';font-size:5;text-anchor:middle;">ABG</text>
		<text id="Count_ACD" transform="matrix(1 0 0 1 547.1 166)" style="fill:#262262;font-family:'Tahoma';font-size:6;text-anchor:middle;">ACD</text>
		<text id="Count_ACE" transform="matrix(1 0 0 1 637.3 215.2)" style="fill:#262262;font-family:'Tahoma';font-size:6;text-anchor:middle;">ACE</text>
		<text id="Count_ACF" transform="matrix(1 0 0 1 227.7 316.4)" style="fill:#262262;font-family:'Tahoma';font-size:6;text-anchor:middle;">ACF</text>
		<text id="Count_ACG" transform="matrix(1 0 0 1 593.5 187.1)" style="fill:#262262;font-family:'Tahoma';font-size:7;text-anchor:middle;">ACG</text>
		<text id="Count_ADE" transform="matrix(1 0 0 1 338.3 661.1)" style="fill:#262262;font-family:'Tahoma';font-size:8;text-anchor:middle;">ADE</text>
		<text id="Count_ADF" transform="matrix(1 0 0 1 424.1 682)" style="fill:#262262;font-family:'Tahoma';font-size:6;text-anchor:middle;">ADF</text>
		<text id="Count_ADG" transform="matrix(1 0 0 1 492.6 155.4)" style="fill:#262262;font-family:'Tahoma';font-size:7;text-anchor:middle;">ADG</text>
		<text id="Count_AEF" transform="matrix(1 0 0 1 209.4 364.1)" style="fill:#262262;font-family:'Tahoma';font-size:7;text-anchor:middle;">AEF</text>
		<text id="Count_AEG" transform="matrix(1 0 0 1 294.4 629.4)" style="fill:#262262;font-family:'Tahoma';font-size:6;text-anchor:middle;">AEG</text>
		<text id="Count_AFG" transform="matrix(1 0 0 1 238.3 286.4)" style="fill:#262262;font-family:'Tahoma';font-size:6;text-anchor:middle;">AFG</text>
		<text id="Count_BCD" transform="matrix(1 0 0 1 752 450.9)" style="fill:#262262;font-family:'Tahoma';font-size:6;text-anchor:middle;">BCD</text>
		<text id="Count_BCE" transform="matrix(1 0 0 1 690.1 592.1)" style="fill:#262262;font-family:'Tahoma';font-size:7;text-anchor:middle;">BCE</text>
		<text id="Count_BCF" transform="matrix(1 0 0 1 741 504.6)" style="fill:#262262;font-family:'Tahoma';font-size:7;text-anchor:middle;">BCF</text>
		<text id="Count_BCG" transform="matrix(1 0 0 1 310.7 204.8)" style="fill:#262262;font-family:'Tahoma';font-size:5;text-anchor:middle;">BCG</text>
		<text id="Count_BDE" transform="matrix(1 0 0 1 728.9 314.8)" style="fill:#262262;font-family:'Tahoma';font-size:6;text-anchor:middle;">BDE</text>
		<text id="Count_BDF" transform="matrix(1 0 0 1 746 415.5)" style="fill:#262262;font-family:'Tahoma';font-size:6;text-anchor:middle;">BDF</text>
		<text id="Count_BDG" transform="matrix(1 0 0 1 409.2 168.2)" style="fill:#262262;font-family:'Tahoma';font-size:6;text-anchor:middle;">BDG</text>
		<text id="Count_BEF" transform="matrix(1 0 0 1 200.2 467.1)" style="fill:#262262;font-family:'Tahoma';font-size:7;text-anchor:middle;">BEF</text>
		<text id="Count_BEG" transform="matrix(1 0 0 1 233.4 545.8)" style="fill:#262262;font-family:'Tahoma';font-size:5;text-anchor:middle;">BEG</text>
		<text id="Count_BFG" transform="matrix(1 0 0 1 356.5 183.4)" style="fill:#262262;font-family:'Tahoma';font-size:7;text-anchor:middle;">BFG</text>
		<text id="Count_CDE" transform="matrix(1 0 0 1 627.2 652)" style="fill:#262262;font-family:'Tahoma';font-size:6;text-anchor:middle;">CDE</text>
		<text id="Count_CDF" transform="matrix(1 0 0 1 474.8 689)" style="fill:#262262;font-family:'Tahoma';font-size:7;text-anchor:middle;">CDF</text>
		<text id="Count_CDG" transform="matrix(1 0 0 1 580.2 674.2)" style="fill:#262262;font-family:'Tahoma';font-size:7;text-anchor:middle;">CDG</text>
		<text id="Count_CEF" transform="matrix(1 0 0 1 722.1 550.4)" style="fill:#262262;font-family:'Tahoma';font-size:5;text-anchor:middle;">CEF</text>
		<text id="Count_CEG" transform="matrix(1 0 0 1 650.9 627.4)" style="fill:#262262;font-family:'Tahoma';font-size:6;text-anchor:middle;">CEG</text>
		<text id="Count_CFG" transform="matrix(1 0 0 1 272.2 241.6)" style="fill:#262262;font-family:'Tahoma';font-size:8;text-anchor:middle;">CFG</text>
		<text id="Count_DEF" transform="matrix(1 0 0 1 386.2 681)" style="fill:#262262;font-family:'Tahoma';font-size:6;text-anchor:middle;">DEF</text>
		<text id="Count_DEG" transform="matrix(1 0 0 1 259.2 588.1)" style="fill:#262262;font-family:'Tahoma';font-size:7;text-anchor:middle;">DEG</text>
		<text id="Count_DFG" transform="matrix(1 0 0 1 526.3 689.4)" style="fill:#262262;font-family:'Tahoma';font-size:6;text-anchor:middle;">DFG</text>
		<text id="Count_EFG" transform="matrix(1 0 0 1 214.9 518.1)" style="fill:#262262;font-family:'Tahoma';font-size:6;text-anchor:middle;">EFG</text>
		<text id="Count_ABCD" transform="matrix(1 0 0 1 722.6 369.4)" style="fill:#262262;font-family:'Tahoma';font-size:6;text-anchor:middle;">ABCD</text>
		<text id="Count_ABCE" transform="matrix(1 0 0 1 656.6 247.6)" style="fill:#262262;font-family:'Tahoma';font-size:7;text-anchor:middle;">ABCE</text>
		<text id="Count_ABCF" transform="matrix(1 0 0 1 718.1 495.7)" style="fill:#262262;font-family:'Tahoma';font-size:6;text-anchor:middle;">ABCF</text>
		<text id="Count_ABCG" transform="matrix(1 0 0 1 586.5 204.9)" style="fill:#262262;font-family:'Tahoma';font-size:6;text-anchor:middle;">ABCG</text>
		<text id="Count_ABDE" transform="matrix(1 0 0 1 706 323.6)" style="fill:#262262;font-family:'Tahoma';font-size:7;text-anchor:middle;">ABDE</text>
		<text id="Count_ABDF" transform="matrix(1 0 0 1 735.7 400.6)" style="fill:#262262;font-family:'Tahoma';font-size:5;text-anchor:middle;">ABDF</text>
		<text id="Count_ABDG" transform="matrix(1 0 0 1 443.4 174.8)" style="fill:#262262;font-family:'Tahoma';font-size:7;text-anchor:middle;">ABDG</text>
		<text id="Count_ABEF" transform="matrix(1 0 0 1 220.1 417.8)" style="fill:#262262;font-family:'Tahoma';font-size:7;text-anchor:middle;">ABEF</text>
		<text id="Count_ABEG" transform="matrix(1 0 0 1 684.6 284.4)" style="fill:#262262;font-family:'Tahoma';font-size:5;text-anchor:middle;">ABEG</text>
		<text id="Count_ABFG" transform="matrix(1 0 0 1 366.2 202.8)" style="fill:#262262;font-family:'Tahoma';font-size:5;text-anchor:middle;">ABFG</text>
		<text id="Count_ACDE" transform="matrix(1 0 0 1 351.7 637.6)" style="fill:#262262;font-family:'Tahoma';font-size:5;text-anchor:middle;">ACDE</text>
		<text id="Count_ACDF" transform="matrix(1 0 0 1 443.4 673.9)" style="fill:#262262;font-family:'Tahoma';font-size:6;text-anchor:middle;">ACDF</text>
		<text id="Count_ACDG" transform="matrix(1 0 0 1 541.8 190.4)" style="fill:#262262;font-family:'Tahoma';font-size:7;text-anchor:middle;">ACDG</text>
		<text id="Count_ACEF" transform="matrix(1 0 0 1 232.3 335.6)" style="fill:#262262;font-family:'Tahoma';font-size:6;text-anchor:middle;">ACEF</text>
		<text id="Count_ACEG" transform="matrix(1 0 0 1 616.9 214)" style="fill:#262262;font-family:'Tahoma';font-size:6;text-anchor:middle;">ACEG</text>
		<text id="Count_ACFG" transform="matrix(1 0 0 1 253.7 297.1)" style="fill:#262262;font-family:'Tahoma';font-size:7;text-anchor:middle;">ACFG</text>
		<text id="Count_ADEF" transform="matrix(1 0 0 1 393.8 660)" style="fill:#262262;font-family:'Tahoma';font-size:7;text-anchor:middle;">ADEF</text>
		<text id="Count_ADEG" transform="matrix(1 0 0 1 313.5 613.6)" style="fill:#262262;font-family:'Tahoma';font-size:7;text-anchor:middle;">ADEG</text>
		<text id="Count_ADFG" transform="matrix(1 0 0 1 491.7 178.6)" style="fill:#262262;font-family:'Tahoma';font-size:6;text-anchor:middle;">ADFG</text>
		<text id="Count_AEFG" transform="matrix(1 0 0 1 230 370.1)" style="fill:#262262;font-family:'Tahoma';font-size:6;text-anchor:middle;">AEFG</text>
		<text id="Count_BCDE" transform="matrix(1 0 0 1 673.2 578.7)" style="fill:#262262;font-family:'Tahoma';font-size:6;text-anchor:middle;">BCDE</text>
		<text id="Count_BCDF" transform="matrix(1 0 0 1 731.7 449.1)" style="fill:#262262;font-family:'Tahoma';font-size:7;text-anchor:middle;">BCDF</text>
		<text id="Count_BCDG" transform="matrix(1 0 0 1 570.6 653.3)" style="fill:#262262;font-family:'Tahoma';font-size:6;text-anchor:middle;">BCDG</text>
		<text id="Count_BCEF" transform="matrix(1 0 0 1 701.1 538.5)" style="fill:#262262;font-family:'Tahoma';font-size:7;text-anchor:middle;">BCEF</text>
		<text id="Count_BCEG" transform="matrix(1 0 0 1 655.7 607.7)" style="fill:#262262;font-family:'Tahoma';font-size:6;text-anchor:middle;">BCEG</text>
		<text id="Count_BCFG" transform="matrix(1 0 0 1 325.8 225.8)" style="fill:#262262;font-family:'Tahoma';font-size:7;text-anchor:middle;">BCFG</text>
		<text id="Count_BDEF" transform="matrix(1 0 0 1 224 463.7)" style="fill:#262262;font-family:'Tahoma';font-size:6;text-anchor:middle;">BDEF</text>
		<text id="Count_BDEG" transform="matrix(1 0 0 1 250 554.8)" style="fill:#262262;font-family:'Tahoma';font-size:6;text-anchor:middle;">BDEG</text>
		<text id="Count_BDFG" transform="matrix(1 0 0 1 394.4 185.2)" style="fill:#262262;font-family:'Tahoma';font-size:6;text-anchor:middle;">BDFG</text>
		<text id="Count_BEFG" transform="matrix(1 0 0 1 232.6 509.6)" style="fill:#262262;font-family:'Tahoma';font-size:7;text-anchor:middle;">BEFG</text>
		<text id="Count_CDEF" transform="matrix(1 0 0 1 472.6 670.5)" style="fill:#262262;font-family:'Tahoma';font-size:5;text-anchor:middle;">CDEF</text>
		<text id="Count_CDEG" transform="matrix(1 0 0 1 617 635.2)" style="fill:#262262;font-family:'Tahoma';font-size:7;text-anchor:middle;">CDEG</text>
		<text id="Count_CDFG" transform="matrix(1 0 0 1 520.7 665.9)" style="fill:#262262;font-family:'Tahoma';font-size:7;text-anchor:middle;">CDFG</text>
		<text id="Count_CEFG" transform="matrix(1 0 0 1 288.2 260)" style="fill:#262262;font-family:'Tahoma';font-size:6;text-anchor:middle;">CEFG</text>
		<text id="Count_DEFG" transform="matrix(1 0 0 1 276.6 578.1)" style="fill:#262262;font-family:'Tahoma';font-size:6;text-anchor:middle;">DEFG</text>
		<text id="Count_ABCDE" transform="matrix(1 0 0 1 692.2 352.2)" style="fill:#262262;font-family:'Tahoma';font-size:6;text-anchor:middle;">ABCDE</text>
		<text id="Count_ABCDF" transform="matrix(1 0 0 1 705.2 424.3)" style="fill:#262262;font-family:'Tahoma';font-size:12;text-anchor:middle">ABCDF</text>
		<text id="Count_ABCDG" transform="matrix(1 0 0 1 555.5 217)" style="fill:#262262;font-family:'Tahoma';font-size:6;text-anchor:middle;">ABCDG</text>
		<text id="Count_ABCEF" transform="matrix(1 0 0 1 697.2 508.3)" style="fill:#262262;font-family:'Tahoma';font-size:6;text-anchor:middle;">ABCEF</text>
		<text id="Count_ABCEG" transform="matrix(1 0 0 1 614.1 250.7)" style="fill:#262262;font-family:'Tahoma';font-size:12;text-anchor:middle">ABCEG</text>
		<text id="Count_ABCFG" transform="matrix(1 0 0 1 356.3 232.1)" style="fill:#262262;font-family:'Tahoma';font-size:6;text-anchor:middle;">ABCFG</text>
		<text id="Count_ABDEF" transform="matrix(1 0 0 1 236.3 442.1)" style="fill:#262262;font-family:'Tahoma';font-size:6;text-anchor:middle;">ABDEF</text>
		<text id="Count_ABDEG" transform="matrix(1 0 0 1 682 307.5)" style="fill:#262262;font-family:'Tahoma';font-size:6;text-anchor:middle;">ABDEG</text>
		<text id="Count_ABDFG" transform="matrix(1 0 0 1 433.5 204)" style="fill:#262262;font-family:'Tahoma';font-size:6;text-anchor:middle;">ABDFG</text>
		<text id="Count_ABEFG" transform="matrix(1 0 0 1 246.9 394.9)" style="fill:#262262;font-family:'Tahoma';font-size:6;text-anchor:middle;">ABEFG</text>
		<text id="Count_ACDEF" transform="matrix(1 0 0 1 421.5 638.2)" style="fill:#262262;font-family:'Tahoma';font-size:12;text-anchor:middle">ACDEF</text>
		<text id="Count_ACDEG" transform="matrix(1 0 0 1 343.3 616.9)" style="fill:#262262;font-family:'Tahoma';font-size:6;text-anchor:middle;">ACDEG</text>
		<text id="Count_ACDFG" transform="matrix(1 0 0 1 511.4 198.7)" style="fill:#262262;font-family:'Tahoma';font-size:6;text-anchor:middle;">ACDFG</text>
		<text id="Count_ACEFG" transform="matrix(1 0 0 1 267 330.5)" style="fill:#262262;font-family:'Tahoma';font-size:12;text-anchor:middle">ACEFG</text>
		<text id="Count_ADEFG" transform="matrix(1 0 0 1 311.3 580.7)" style="fill:#262262;font-family:'Tahoma';font-size:6;text-anchor:middle;">ADEFG</text>
		<text id="Count_BCDEF" transform="matrix(1 0 0 1 668.2 546.1)" style="fill:#262262;font-family:'Tahoma';font-size:6;text-anchor:middle;">BCDEF</text>
		<text id="Count_BCDEG" transform="matrix(1 0 0 1 614.9 600.4)" style="fill:#262262;font-family:'Tahoma';font-size:12;text-anchor:middle">BCDEG</text>
		<text id="Count_BCDFG" transform="matrix(1 0 0 1 545 644.6)" style="fill:#262262;font-family:'Tahoma';font-size:6;text-anchor:middle;">BCDFG</text>
		<text id="Count_BCEFG" transform="matrix(1 0 0 1 316 257)" style="fill:#262262;font-family:'Tahoma';font-size:6;text-anchor:middle;">BCEFG</text>
		<text id="Count_BDEFG" transform="matrix(1 0 0 1 268.7 524)" style="fill:#262262;font-family:'Tahoma';font-size:12;text-anchor:middle">BDEFG</text>
		<text id="Count_CDEFG" transform="matrix(1 0 0 1 495.8 647.6)" style="fill:#262262;font-family:'Tahoma';font-size:6;text-anchor:middle;">CDEFG</text>
		<text id="Count_ABCDEF" transform="matrix(1 0 0 1 649.6 441.3)" style="fill:#262262;font-family:'Tahoma';font-size:14;text-anchor:middle">ABCDEF</text>
		<text id="Count_ABCDEG" transform="matrix(1 0 0 1 610.6 303.6)" style="fill:#262262;font-family:'Tahoma';font-size:14;text-anchor:middle">ABCDEG</text>
		<text id="Count_ABCDFG" transform="matrix(1 0 0 1 450.8 255.4)" style="fill:#262262;font-family:'Tahoma';font-size:14;text-anchor:middle">ABCDFG</text>
		<text id="Count_ABCEFG" transform="matrix(1 0 0 1 325.4 326.5)" style="fill:#262262;font-family:'Tahoma';font-size:14;text-anchor:middle">ABCEFG</text>
		<text id="Count_ABDEFG" transform="matrix(1 0 0 1 304 481.5)" style="fill:#262262;font-family:'Tahoma';font-size:14;text-anchor:middle">ABDEFG</text>
		<text id="Count_ACDEFG" transform="matrix(1 0 0 1 409.5 590.4)" style="fill:#262262;font-family:'Tahoma';font-size:14;text-anchor:middle">ACDEFG</text>
		<text id="Count_BCDEFG" transform="matrix(1 0 0 1 572.5 568.6)" style="fill:#262262;font-family:'Tahoma';font-size:14;text-anchor:middle">BCDEFG</text>
		<text id="Count_ABCDEFG" transform="matrix(1 0 0 1 474.7 425.7)" style="fill:#FFFFFF;font-family:'Tahoma';font-size:30;text-anchor:middle">ABCDEFG</text>
	</g>
	<g id="Group_CountSums">
		<text id="CountSUM_A" transform="matrix(1 0 0 1 787.6 108.5)" style="fill:#262262;font-family:'Tahoma';font-size:16;text-anchor:middle;">CountSUM_A</text>
		<text id="CountSUM_B" transform="matrix(1 0 0 1 863.2 249.8)" style="fill:#262262;font-family:'Tahoma';font-size:16;text-anchor:middle;">CountSUM_B</text>
		<text id="CountSUM_C" transform="matrix(1 0 0 1 841.7 697.6)" style="fill:#262262;font-family:'Tahoma';font-size:16;text-anchor:middle;">CountSUM_C</text>
		<text id="CountSUM_D" transform="matrix(1 0 0 1 497.2 839.8)" style="fill:#262262;font-family:'Tahoma';font-size:16;text-anchor:middle;">CountSUM_D</text>
		<text id="CountSUM_E" transform="matrix(1 0 0 1 103 704.3)" style="fill:#262262;font-family:'Tahoma';font-size:16;text-anchor:middle;">CountSUM_E</text>
		<text id="CountSUM_F" transform="matrix(1 0 0 1 75.9 260.9)" style="fill:#262262;font-family:'Tahoma';font-size:16;text-anchor:middle;">CountSUM_F</text>
		<text id="CountSUM_G" transform="matrix(1 0 0 1 207 103.8)" style="fill:#262262;font-family:'Tahoma';font-size:16;text-anchor:middle;">CountSUM_G</text>
	</g>
</g>
<g id="Group_Bullets" style="display:none;">
	<circle id="BulletA" style="opacity:0.2;fill:#FFF200;stroke:#010101;stroke-width:2;" cx="59.2" cy="25" r="6.9"/>
	<circle id="BulletB" style="opacity:0.2;fill:#2E3192;stroke:#010101;stroke-width:2;" cx="59.2" cy="43.7" r="6.9"/>
	<circle id="BulletC" style="opacity:0.2;fill:#ED1C24;stroke:#010101;stroke-width:2;" cx="59.2" cy="62.4" r="6.9"/>
	<circle id="BulletD" style="opacity:0.2;fill:#808285;stroke:#010101;stroke-width:2;" cx="59.2" cy="81.1" r="6.9"/>
	<circle id="BulletE" style="opacity:0.2;fill:#3C2415;stroke:#010101;stroke-width:2;" cx="59.2" cy="99.8" r="6.9"/>
	<circle id="BulletF" style="opacity:0.2;fill:#9E1F63;stroke:#010101;stroke-width:2;" cx="59.2" cy="118.5" r="6.9"/>
	<circle id="BulletG" style="opacity:0.2;fill:#CA4B9B;stroke:#010101;stroke-width:2;" cx="59.2" cy="137.2" r="6.9"/>
</g>
</svg>
