<?xml version="1.0" encoding="utf-8"?>
<!-- Created by Zoltan Dul in 2026 - free to use with MIT license. Part of React Venn Diagram Lab Module - https://github.com/ZoliQua/React-Venn-Diagram-Lab - SVG Version: 3.0.0 -->
<svg xmlns="http://www.w3.org/2000/svg"
	 xmlns:xlink="http://www.w3.org/1999/xlink"
	 version="1.1"
	 x="0px"
	 y="0px"
	 style="enable-background:new 0 0 700 700;"
	 xml:space="preserve" viewBox="0 0 700 700">
<g id="Shapes">
	<path id="ShapeA" style="opacity:0.2;fill:#FFF200;stroke:#000000;stroke-width:2;stroke-linecap:round;stroke-linejoin:round;stroke-miterlimit:10;" d="   M 522.5 167.3 L 523.0 161.8 L 523.2 156.4 L 523.2 151.2 L 523.0 146.0 L 522.5 141.0 L 521.8 136.1 L 520.9 131.3 L 519.9 126.7 L 518.6 122.2 L 517.1 117.8 L 515.4 113.5 L 513.5 109.3 L 511.5 105.3 L 509.3 101.4 L 507.0 97.6 L 504.4 94.0 L 501.8 90.5 L 499.0 87.1 L 496.0 83.9 L 492.9 80.8 L 489.7 77.9 L 486.4 75.1 L 483.0 72.4 L 479.4 69.9 L 475.8 67.5 L 472.0 65.3 L 468.2 63.2 L 464.3 61.2 L 460.3 59.5 L 456.3 57.8 L 452.2 56.3 L 448.0 55.0 L 443.8 53.8 L 439.5 52.8 L 435.2 51.9 L 430.8 51.2 L 426.5 50.7 L 422.1 50.3 L 417.7 50.0 L 413.3 50.0 L 408.9 50.1 L 404.5 50.4 L 400.1 50.8 L 395.7 51.4 L 391.3 52.2 L 387.0 53.1 L 382.7 54.2 L 378.5 55.5 L 374.3 57.0 L 370.1 58.6 L 366.0 60.4 L 362.0 62.4 L 358.1 64.6 L 354.2 67.0 L 350.4 69.5 L 346.7 72.2 L 343.2 75.2 L 339.7 78.3 L 336.3 81.5 L 333.0 85.0 L 329.9 88.7 L 326.9 92.5 L 324.0 96.6 L 321.3 100.8 L 317.5 106.9 L 313.8 113.1 L 311.9 116.5 L 310.0 120.3 L 308.0 124.7 L 305.9 129.6 L 303.1 137.0 L 300.2 144.9 L 297.6 153.3 L 295.1 162.2 L 293.3 169.3 L 291.9 175.9 L 289.3 189.6 L 288.6 192.9 L 287.8 195.9 L 287.0 198.6 L 286.2 201.0 L 285.2 203.0 L 284.2 204.8 L 283.0 206.2 L 281.6 207.4 L 280.1 208.2 L 278.4 208.8 L 276.4 209.2 L 274.2 209.2 L 271.7 209.0 L 269.0 208.6 L 265.9 207.8 L 262.5 206.9 L 258.4 205.7 L 254.6 204.5 L 247.8 202.2 L 241.4 200.0 L 235.0 197.9 L 231.1 196.8 L 227.4 196.0 L 224.1 195.6 L 221.0 195.5 L 218.3 195.8 L 217.0 196.0 L 215.8 196.4 L 214.7 196.8 L 213.7 197.3 L 212.7 197.9 L 211.8 198.6 L 211.0 199.3 L 210.3 200.2 L 209.7 201.1 L 209.1 202.1 L 208.6 203.2 L 208.2 204.4 L 207.9 205.6 L 207.7 206.9 L 207.5 209.8 L 207.6 213.0 L 208.0 216.5 L 208.8 220.3 L 210.9 226.8 L 213.0 232.3 L 219.0 247.1 L 220.2 250.1 L 221.1 252.8 L 221.8 255.3 L 222.2 257.6 L 222.3 259.7 L 222.2 261.5 L 221.8 263.2 L 221.1 264.8 L 220.2 266.2 L 219.0 267.5 L 217.6 268.6 L 216.0 269.7 L 214.1 270.7 L 211.9 271.6 L 209.5 272.5 L 206.9 273.3 L 198.6 275.4 L 191.5 277.0 L 184.7 278.4 L 177.5 279.7 L 173.5 280.5 L 169.9 281.5 L 166.7 282.7 L 164.0 284.0 L 161.6 285.5 L 160.6 286.3 L 159.6 287.2 L 158.8 288.1 L 158.1 289.0 L 157.4 290.0 L 156.9 291.0 L 156.5 292.0 L 156.1 293.1 L 155.9 294.3 L 155.8 295.4 L 155.8 296.6 L 155.8 297.9 L 156.3 300.5 L 157.2 303.2 L 158.4 306.1 L 160.1 309.1 L 162.2 312.3 L 164.0 314.7 L 166.3 317.2 L 168.9 319.7 L 171.8 322.2 L 174.9 324.7 L 178.2 327.2 L 181.6 329.7 L 185.2 332.1 L 188.3 334.2 L 191.3 336.0 L 194.3 337.7 L 197.2 339.2 L 203.0 342.1 L 208.8 344.9 L 216.0 348.3 L 222.9 351.8 L 235.6 358.3 L 241.9 361.7 L 247.8 365.2 L 253.5 368.7 L 258.9 372.5 L 261.4 374.5 L 263.9 376.5 L 266.3 378.5 L 268.6 380.7 L 270.8 382.9 L 272.9 385.1 L 274.9 387.5 L 276.8 389.9 L 278.6 392.5 L 280.2 395.1 L 281.8 397.8 L 283.3 400.6 L 284.6 403.6 L 285.8 406.6 L 286.9 409.8 L 287.8 413.1 L 288.7 416.5 L 289.4 420.1 L 289.9 423.8 L 290.3 427.6 L 290.6 431.6 L 290.8 435.8 L 290.7 440.1 L 290.6 444.6 L 289.6 457.4 L 288.7 472.7 L 288.6 478.4 L 288.7 484.1 L 288.9 487.3 L 289.2 491.1 L 289.8 495.5 L 290.6 500.8 L 291.7 508.0 L 293.0 515.1 L 294.5 522.1 L 296.3 528.9 L 298.6 536.0 L 301.0 542.5 L 303.5 548.9 L 306.6 555.7 L 308.2 558.9 L 310.0 561.9 L 311.9 564.7 L 314.0 567.4 L 316.2 569.9 L 318.5 572.2 L 320.9 574.3 L 323.5 576.3 L 326.1 578.1 L 328.8 579.7 L 331.5 581.1 L 334.3 582.3 L 337.2 583.3 L 340.1 584.2 L 343.1 584.8 L 346.0 585.2 L 349.0 585.4 L 351.9 585.4 L 354.9 585.2 L 357.9 584.8 L 360.8 584.1 L 363.7 583.2 L 366.5 582.1 L 369.3 580.8 L 372.0 579.2 L 374.6 577.4 L 377.2 575.4 L 379.6 573.1 L 382.0 570.6 L 384.2 567.8 L 386.3 564.8 L 388.3 561.5 L 390.4 557.9 L 392.2 554.4 L 393.9 550.9 L 395.4 547.5 L 398.0 540.7 L 400.5 534.0 L 403.2 526.0 L 405.0 519.9 L 406.5 513.9 L 408.1 505.9 L 411.4 488.7 L 412.5 481.9 L 413.0 478.8 L 413.2 475.9 L 413.6 473.5 L 414.0 471.2 L 414.5 469.0 L 415.1 467.0 L 415.8 465.0 L 416.5 463.2 L 417.3 461.4 L 418.2 459.8 L 419.2 458.3 L 420.2 456.9 L 421.3 455.6 L 422.5 454.3 L 423.7 453.2 L 425.0 452.2 L 426.3 451.3 L 427.7 450.5 L 429.2 449.7 L 430.7 449.1 L 432.2 448.5 L 433.8 448.1 L 437.1 447.4 L 440.7 447.1 L 444.3 447.1 L 448.1 447.5 L 452.0 448.1 L 456.1 449.0 L 459.5 449.8 L 462.9 450.6 L 469.2 452.3 L 475.7 454.2 L 482.9 456.1 L 485.6 456.7 L 488.8 457.4 L 492.5 457.9 L 496.5 458.4 L 500.6 458.7 L 504.8 459.0 L 509.0 459.2 L 512.9 459.3 L 520.8 459.1 L 527.8 458.7 L 534.7 457.9 L 542.3 456.7 L 546.7 455.8 L 550.8 454.7 L 554.7 453.5 L 558.4 452.2 L 561.8 450.8 L 565.0 449.2 L 568.0 447.5 L 570.8 445.7 L 573.3 443.8 L 575.6 441.8 L 577.6 439.7 L 579.5 437.5 L 581.1 435.3 L 582.5 432.9 L 583.6 430.5 L 584.6 427.9 L 585.3 425.4 L 585.8 422.7 L 586.0 420.0 L 586.1 417.3 L 585.9 414.5 L 585.5 411.6 L 584.9 408.8 L 584.1 405.8 L 583.0 402.9 L 581.8 399.9 L 580.3 397.0 L 578.6 394.0 L 576.7 391.0 L 574.6 388.0 L 572.3 384.9 L 569.8 381.9 L 563.0 374.9 L 560.4 372.3 L 558.0 370.2 L 555.9 368.3 L 553.7 366.6 L 548.7 362.8 L 545.0 359.8 L 541.6 357.2 L 538.3 354.9 L 535.2 352.7 L 532.2 350.8 L 529.2 348.9 L 523.1 345.5 L 516.6 342.4 L 510.8 339.4 L 505.1 336.3 L 498.9 332.7 L 494.9 330.5 L 491.3 328.1 L 488.1 325.8 L 485.3 323.4 L 483.0 320.9 L 481.9 319.6 L 481.0 318.3 L 480.2 317.0 L 479.5 315.6 L 478.9 314.2 L 478.3 312.8 L 477.9 311.3 L 477.6 309.8 L 477.4 308.3 L 477.3 306.7 L 477.3 305.1 L 477.4 303.5 L 477.9 300.0 L 478.9 296.4 L 480.2 292.6 L 482.0 288.5 L 484.2 284.2 L 488.5 276.6 L 491.4 271.0 L 496.3 261.2 L 499.6 254.4 L 502.9 247.5 L 505.8 240.5 L 508.4 233.7 L 511.1 226.3 L 513.4 219.2 L 515.5 211.8 L 517.4 203.7 L 519.1 194.4 L 520.4 186.0 L 521.5 177.3 L 522.5 167.3 Z"/>
	<path id="ShapeB" style="opacity:0.2;fill:#2E3192;stroke:#000000;stroke-width:2;stroke-linecap:round;stroke-linejoin:round;stroke-miterlimit:10;" d="   M 595.3 366.6 L 600.2 363.2 L 604.8 359.8 L 609.1 356.2 L 613.2 352.5 L 617.2 348.8 L 620.8 344.9 L 624.3 341.0 L 627.6 337.1 L 630.6 333.0 L 633.4 328.9 L 636.0 324.8 L 638.4 320.6 L 640.6 316.3 L 642.5 312.0 L 644.3 307.7 L 645.9 303.4 L 647.2 299.0 L 648.4 294.7 L 649.3 290.3 L 650.1 285.9 L 650.7 281.5 L 651.1 277.1 L 651.3 272.7 L 651.3 268.3 L 651.1 264.0 L 650.8 259.7 L 650.2 255.4 L 649.5 251.1 L 648.6 246.9 L 647.6 242.8 L 646.3 238.7 L 644.9 234.6 L 643.4 230.6 L 641.6 226.7 L 639.7 222.8 L 637.6 219.1 L 635.4 215.4 L 633.0 211.8 L 630.5 208.3 L 627.8 204.9 L 625.0 201.6 L 622.0 198.4 L 618.8 195.4 L 615.5 192.4 L 612.1 189.6 L 608.6 186.9 L 604.8 184.4 L 601.0 182.0 L 597.0 179.7 L 592.9 177.6 L 588.7 175.7 L 584.3 173.9 L 579.8 172.3 L 575.2 170.9 L 570.4 169.6 L 565.5 168.5 L 560.6 167.7 L 555.4 167.0 L 550.2 166.5 L 544.9 166.2 L 539.5 166.1 L 533.9 166.3 L 528.3 166.7 L 522.5 167.3 L 518.5 167.8 L 514.6 168.6 L 510.7 169.4 L 506.9 170.3 L 499.4 172.3 L 491.8 174.3 L 483.9 176.3 L 476.3 178.6 L 469.0 181.1 L 461.8 183.9 L 448.5 190.2 L 442.1 193.1 L 435.6 196.0 L 432.7 197.2 L 430.1 198.2 L 427.7 198.9 L 425.5 199.4 L 423.4 199.6 L 421.6 199.6 L 419.9 199.3 L 418.3 198.7 L 416.8 198.0 L 415.4 196.9 L 414.1 195.6 L 412.9 194.0 L 411.7 192.2 L 410.5 190.1 L 409.3 187.8 L 408.1 185.2 L 402.8 170.2 L 400.3 163.7 L 397.9 157.7 L 396.6 154.7 L 395.1 152.1 L 393.4 149.7 L 391.5 147.6 L 389.5 145.9 L 387.4 144.5 L 385.2 143.5 L 382.8 142.8 L 381.6 142.6 L 380.4 142.6 L 379.2 142.6 L 378.0 142.6 L 376.7 142.8 L 375.5 143.1 L 374.3 143.5 L 373.0 144.0 L 371.8 144.6 L 370.6 145.4 L 368.1 147.1 L 365.7 149.3 L 363.4 151.9 L 358.9 158.3 L 355.3 163.8 L 346.8 177.5 L 345.3 179.6 L 343.7 181.5 L 342.2 183.2 L 340.7 184.6 L 339.2 185.7 L 337.7 186.6 L 336.1 187.3 L 334.5 187.7 L 332.9 187.9 L 331.2 187.8 L 329.4 187.5 L 327.6 187.0 L 325.7 186.3 L 323.7 185.3 L 321.5 184.1 L 319.3 182.6 L 305.5 171.4 L 299.8 166.6 L 297.3 164.4 L 295.1 162.2 L 293.6 160.8 L 292.2 159.5 L 290.7 158.4 L 289.2 157.4 L 287.8 156.5 L 286.3 155.8 L 284.8 155.1 L 283.4 154.6 L 281.9 154.2 L 280.5 153.9 L 279.1 153.7 L 277.8 153.6 L 276.4 153.6 L 275.1 153.7 L 273.8 153.9 L 272.6 154.3 L 271.4 154.7 L 270.3 155.2 L 269.2 155.8 L 268.1 156.5 L 267.2 157.3 L 266.2 158.2 L 265.4 159.2 L 264.6 160.3 L 263.9 161.4 L 263.2 162.7 L 262.7 164.0 L 262.2 165.4 L 261.8 166.9 L 261.5 168.4 L 261.3 170.0 L 261.2 171.8 L 260.9 178.7 L 260.8 181.7 L 260.9 185.0 L 261.4 193.5 L 262.5 206.9 L 263.8 214.8 L 265.0 221.2 L 267.6 233.1 L 270.0 243.3 L 273.3 259.3 L 274.5 264.1 L 275.5 268.7 L 276.3 273.2 L 277.0 277.4 L 277.6 281.6 L 278.0 285.5 L 278.3 289.3 L 278.4 293.0 L 278.4 296.5 L 278.2 299.9 L 277.9 303.2 L 277.5 306.4 L 276.9 309.5 L 276.1 312.4 L 275.2 315.3 L 274.1 318.1 L 272.9 320.9 L 271.5 323.5 L 270.0 326.2 L 268.3 328.7 L 266.5 331.2 L 264.5 333.7 L 262.4 336.2 L 260.0 338.6 L 257.6 341.0 L 254.9 343.5 L 252.1 345.9 L 249.2 348.3 L 242.7 353.2 L 235.6 358.3 L 230.5 361.9 L 225.5 365.3 L 220.6 368.7 L 215.8 372.4 L 211.6 375.8 L 206.5 380.3 L 200.8 385.6 L 194.7 391.5 L 191.4 394.9 L 188.6 398.1 L 186.2 401.0 L 184.1 403.7 L 180.5 408.8 L 176.9 413.9 L 174.9 416.5 L 172.8 419.3 L 170.7 422.5 L 168.6 425.9 L 164.3 433.1 L 162.2 436.9 L 160.2 440.7 L 158.7 443.8 L 157.5 447.0 L 156.4 450.0 L 155.5 453.1 L 154.9 456.2 L 154.4 459.2 L 154.2 462.2 L 154.1 465.1 L 154.2 468.0 L 154.6 470.9 L 155.1 473.6 L 155.8 476.3 L 156.7 478.9 L 157.8 481.4 L 159.0 483.8 L 160.4 486.2 L 162.0 488.4 L 163.7 490.5 L 165.6 492.4 L 167.7 494.2 L 169.9 495.9 L 172.3 497.5 L 174.8 498.9 L 177.5 500.1 L 180.3 501.2 L 183.3 502.1 L 186.3 502.8 L 189.6 503.3 L 192.9 503.6 L 196.4 503.7 L 200.0 503.6 L 203.7 503.3 L 211.7 502.2 L 215.6 501.6 L 219.5 500.8 L 223.5 499.9 L 227.6 498.8 L 231.8 497.7 L 236.3 496.3 L 243.6 493.9 L 250.5 491.4 L 257.1 488.9 L 263.7 486.1 L 270.2 482.7 L 276.4 479.4 L 288.7 472.7 L 292.2 470.6 L 295.8 468.8 L 299.4 467.4 L 303.0 466.4 L 306.6 465.7 L 310.2 465.4 L 313.7 465.4 L 315.5 465.6 L 317.2 465.9 L 318.9 466.2 L 320.5 466.7 L 322.1 467.3 L 323.7 467.9 L 325.2 468.7 L 326.7 469.5 L 328.2 470.5 L 329.5 471.5 L 330.9 472.6 L 332.2 473.9 L 333.4 475.2 L 334.5 476.7 L 335.6 478.2 L 336.7 479.9 L 337.6 481.7 L 338.5 483.5 L 341.8 491.2 L 344.4 497.7 L 349.4 511.0 L 350.3 513.3 L 351.6 516.2 L 353.2 519.5 L 355.2 523.2 L 357.4 527.0 L 359.9 530.9 L 362.5 534.5 L 365.3 537.8 L 371.5 545.5 L 374.1 548.5 L 376.6 551.1 L 379.1 553.5 L 381.8 556.0 L 388.3 561.5 L 391.2 563.7 L 394.1 565.8 L 397.0 567.7 L 399.9 569.4 L 402.8 570.9 L 405.7 572.2 L 408.6 573.4 L 411.5 574.3 L 414.3 575.1 L 417.1 575.7 L 419.9 576.1 L 422.6 576.3 L 425.3 576.3 L 427.9 576.1 L 430.5 575.8 L 433.0 575.2 L 435.4 574.5 L 437.8 573.5 L 440.0 572.4 L 442.2 571.0 L 444.3 569.5 L 446.4 567.7 L 448.3 565.8 L 450.1 563.6 L 451.7 561.3 L 453.3 558.7 L 454.7 556.0 L 456.1 553.0 L 457.2 549.9 L 458.3 546.5 L 459.2 542.9 L 459.9 539.1 L 461.1 531.1 L 462.0 523.8 L 462.6 516.5 L 463.1 508.4 L 463.3 504.4 L 463.3 500.3 L 463.3 496.2 L 463.1 492.2 L 462.8 488.1 L 462.4 484.0 L 461.8 479.9 L 461.2 475.9 L 460.2 468.9 L 459.1 462.2 L 457.8 455.6 L 456.1 449.0 L 455.1 444.8 L 454.5 440.8 L 454.2 437.1 L 454.2 433.5 L 454.6 430.2 L 455.2 427.1 L 455.7 425.6 L 456.3 424.2 L 456.9 422.8 L 457.7 421.5 L 458.5 420.2 L 459.4 419.0 L 460.4 417.8 L 461.5 416.7 L 462.7 415.6 L 464.0 414.6 L 466.8 412.6 L 470.1 410.9 L 473.7 409.4 L 477.8 408.0 L 482.2 406.9 L 489.8 405.5 L 497.1 404.4 L 511.0 402.4 L 514.6 401.9 L 518.1 401.2 L 521.6 400.4 L 525.1 399.6 L 532.0 397.6 L 539.1 395.4 L 543.0 394.0 L 547.0 392.5 L 550.9 390.9 L 554.9 389.1 L 562.7 385.5 L 569.8 381.9 L 582.8 374.5 L 589.1 370.7 L 595.3 366.6 Z"/>
	<path id="ShapeC" style="opacity:0.2;fill:#ED1C24;stroke:#000000;stroke-width:2;stroke-linecap:round;stroke-linejoin:round;stroke-miterlimit:10;" d="   M 488.6 549.3 L 493.9 550.9 L 499.1 552.3 L 504.3 553.5 L 509.5 554.4 L 514.5 555.1 L 519.5 555.6 L 524.5 555.8 L 529.4 555.9 L 534.2 555.7 L 538.9 555.4 L 543.6 554.9 L 548.1 554.1 L 552.6 553.2 L 557.0 552.1 L 561.4 550.8 L 565.6 549.4 L 569.7 547.7 L 573.8 545.9 L 577.7 544.0 L 581.5 541.9 L 585.2 539.7 L 588.8 537.3 L 592.3 534.7 L 595.7 532.1 L 598.9 529.3 L 602.0 526.3 L 605.0 523.3 L 607.9 520.1 L 610.6 516.8 L 613.2 513.4 L 615.6 510.0 L 617.9 506.4 L 620.1 502.7 L 622.1 498.9 L 623.9 495.0 L 625.6 491.1 L 627.1 487.1 L 628.5 483.0 L 629.7 478.8 L 630.7 474.6 L 631.5 470.4 L 632.2 466.0 L 632.7 461.6 L 633.0 457.2 L 633.1 452.8 L 633.0 448.3 L 632.8 443.7 L 632.3 439.2 L 631.6 434.6 L 630.8 430.0 L 629.7 425.4 L 628.4 420.8 L 626.9 416.2 L 625.2 411.6 L 623.2 407.0 L 621.1 402.4 L 618.7 397.8 L 616.1 393.3 L 613.2 388.7 L 610.1 384.2 L 606.8 379.8 L 603.2 375.3 L 599.4 370.9 L 595.3 366.6 L 589.9 361.4 L 584.7 356.5 L 579.4 351.6 L 576.6 349.2 L 573.6 346.8 L 570.0 344.3 L 566.5 341.9 L 559.6 337.4 L 552.6 333.1 L 545.5 328.9 L 533.4 322.5 L 527.6 319.4 L 521.9 316.1 L 519.8 314.6 L 518.0 313.0 L 516.4 311.4 L 515.0 309.8 L 513.9 308.2 L 512.9 306.5 L 512.2 304.8 L 511.7 303.0 L 511.4 301.1 L 511.4 299.2 L 511.5 297.1 L 511.9 295.0 L 512.5 292.8 L 513.3 290.5 L 514.3 288.0 L 515.5 285.5 L 518.8 279.5 L 522.1 273.8 L 525.3 268.4 L 528.2 263.1 L 530.0 259.7 L 530.7 258.1 L 531.3 256.5 L 531.8 254.9 L 532.2 253.4 L 532.4 251.9 L 532.5 250.5 L 532.5 249.1 L 532.5 247.8 L 532.3 246.6 L 532.0 245.3 L 531.6 244.2 L 531.1 243.1 L 530.5 242.0 L 529.8 241.0 L 529.1 240.0 L 528.2 239.2 L 527.3 238.3 L 526.3 237.6 L 524.0 236.2 L 521.4 235.2 L 518.6 234.4 L 515.4 233.9 L 512.0 233.6 L 508.4 233.7 L 501.7 234.3 L 495.0 234.9 L 488.3 235.4 L 485.0 235.6 L 481.6 235.6 L 479.1 235.7 L 476.7 235.6 L 474.5 235.4 L 472.5 235.0 L 470.6 234.4 L 469.0 233.7 L 467.5 232.9 L 466.1 231.8 L 464.9 230.6 L 463.9 229.2 L 463.1 227.6 L 462.4 225.8 L 461.8 223.8 L 461.5 221.5 L 461.2 219.1 L 461.2 216.5 L 461.6 207.1 L 462.0 199.2 L 462.1 191.9 L 462.0 188.0 L 461.8 183.9 L 461.5 180.2 L 461.0 176.9 L 460.3 173.8 L 459.5 171.1 L 458.4 168.8 L 457.2 166.7 L 455.8 165.0 L 455.0 164.3 L 454.1 163.7 L 453.2 163.1 L 452.3 162.7 L 451.3 162.3 L 450.2 162.1 L 449.1 161.9 L 448.0 161.8 L 445.5 161.9 L 442.7 162.3 L 439.7 163.2 L 436.5 164.4 L 433.1 166.0 L 429.7 168.0 L 426.4 170.2 L 423.1 172.5 L 419.9 174.9 L 416.8 177.4 L 413.7 179.9 L 410.9 182.5 L 408.1 185.2 L 401.8 192.0 L 397.4 196.8 L 389.6 205.6 L 380.1 218.0 L 371.1 229.9 L 368.7 233.0 L 366.4 235.9 L 364.0 238.8 L 361.5 241.4 L 359.1 243.9 L 356.6 246.3 L 354.1 248.6 L 351.5 250.7 L 348.9 252.6 L 346.3 254.4 L 343.6 256.1 L 340.8 257.6 L 338.0 259.0 L 335.2 260.2 L 332.3 261.3 L 329.4 262.3 L 326.4 263.1 L 323.4 263.8 L 320.2 264.4 L 317.1 264.8 L 313.8 265.1 L 310.5 265.2 L 307.1 265.2 L 303.7 265.1 L 300.2 264.8 L 296.6 264.4 L 292.9 263.9 L 289.2 263.3 L 285.3 262.5 L 281.4 261.5 L 277.4 260.5 L 273.3 259.3 L 266.4 257.0 L 259.4 255.0 L 252.4 253.2 L 245.9 251.6 L 239.8 250.3 L 233.6 249.1 L 226.9 248.1 L 219.0 247.1 L 212.7 246.7 L 205.5 246.3 L 198.3 246.2 L 194.8 246.3 L 191.6 246.5 L 183.1 247.1 L 174.9 247.9 L 167.0 249.0 L 159.6 250.3 L 155.6 251.3 L 151.9 252.5 L 148.3 253.8 L 144.9 255.2 L 141.8 256.8 L 138.8 258.5 L 136.1 260.4 L 133.6 262.4 L 131.2 264.5 L 129.1 266.6 L 127.2 268.9 L 125.5 271.3 L 124.0 273.7 L 122.8 276.3 L 121.7 278.8 L 120.9 281.5 L 120.3 284.2 L 119.8 286.9 L 119.7 289.7 L 119.7 292.4 L 119.9 295.3 L 120.4 298.1 L 121.1 300.9 L 122.0 303.7 L 123.1 306.5 L 124.4 309.3 L 126.0 312.0 L 127.8 314.7 L 129.8 317.4 L 132.1 320.0 L 134.5 322.6 L 137.3 325.1 L 143.1 330.3 L 145.8 332.7 L 148.7 335.1 L 151.7 337.4 L 155.1 339.9 L 159.0 342.6 L 163.4 345.5 L 168.1 348.4 L 174.1 352.1 L 180.9 356.0 L 187.7 359.6 L 193.2 362.2 L 199.9 365.3 L 215.8 372.4 L 219.6 374.2 L 223.1 376.3 L 226.2 378.5 L 229.0 380.9 L 231.5 383.5 L 233.5 386.1 L 234.4 387.5 L 235.2 389.0 L 235.9 390.4 L 236.5 391.9 L 237.0 393.5 L 237.4 395.0 L 237.7 396.6 L 237.9 398.2 L 238.0 399.9 L 238.0 401.5 L 237.9 403.2 L 237.7 405.0 L 237.3 406.7 L 236.9 408.5 L 236.3 410.3 L 235.6 412.1 L 234.9 414.0 L 234.0 415.8 L 231.8 419.6 L 227.8 426.3 L 224.3 432.6 L 222.6 435.7 L 221.0 439.0 L 219.4 442.6 L 217.8 446.5 L 215.1 453.5 L 212.9 460.1 L 211.0 466.1 L 209.4 471.4 L 208.3 475.4 L 207.3 479.4 L 206.4 483.4 L 205.6 487.4 L 205.0 491.3 L 204.4 495.3 L 204.0 499.3 L 203.7 503.3 L 203.6 507.2 L 203.6 511.0 L 203.8 514.6 L 204.2 518.1 L 204.8 521.5 L 205.6 524.7 L 206.5 527.8 L 207.6 530.7 L 208.8 533.5 L 210.2 536.1 L 211.8 538.5 L 213.5 540.8 L 215.3 543.0 L 217.2 544.9 L 219.3 546.7 L 221.5 548.3 L 223.8 549.7 L 226.3 550.9 L 228.8 552.0 L 231.4 552.9 L 234.2 553.5 L 237.0 554.0 L 239.9 554.2 L 243.0 554.3 L 246.0 554.1 L 249.2 553.7 L 252.4 553.1 L 255.7 552.3 L 259.1 551.3 L 262.5 550.0 L 266.0 548.5 L 269.5 546.8 L 274.7 544.1 L 279.1 541.6 L 282.7 539.4 L 285.8 537.4 L 288.5 535.3 L 291.1 533.3 L 296.3 528.9 L 299.5 526.3 L 302.7 523.5 L 305.8 520.6 L 308.8 517.7 L 313.9 512.4 L 317.4 508.4 L 322.7 501.9 L 328.0 495.5 L 333.2 489.4 L 338.5 483.5 L 341.3 481.0 L 344.2 478.8 L 347.2 477.0 L 350.3 475.6 L 353.5 474.5 L 356.6 473.9 L 359.9 473.6 L 363.1 473.6 L 366.3 474.0 L 369.5 474.8 L 372.7 475.9 L 375.9 477.4 L 379.0 479.2 L 382.0 481.4 L 384.9 483.9 L 387.7 486.7 L 392.9 492.1 L 397.9 497.0 L 403.0 501.5 L 408.1 505.9 L 410.6 508.1 L 413.3 510.3 L 419.0 514.7 L 424.7 518.8 L 429.9 522.5 L 433.4 525.0 L 437.0 527.3 L 440.5 529.5 L 444.2 531.5 L 447.9 533.5 L 451.7 535.3 L 459.9 539.1 L 466.9 542.0 L 474.3 544.7 L 481.6 547.2 L 488.6 549.3 Z"/>
	<path id="ShapeD" style="opacity:0.2;fill:#808285;stroke:#000000;stroke-width:2;stroke-linecap:round;stroke-linejoin:round;stroke-miterlimit:10;" d="   M 278.4 575.5 L 280.3 580.3 L 282.4 585.0 L 284.6 589.5 L 287.0 593.8 L 289.5 598.0 L 292.1 602.0 L 294.9 605.9 L 297.8 609.6 L 300.8 613.1 L 303.9 616.5 L 307.1 619.8 L 310.5 622.8 L 313.9 625.8 L 317.4 628.5 L 321.0 631.1 L 324.7 633.5 L 328.4 635.8 L 332.3 637.9 L 336.1 639.8 L 340.1 641.6 L 344.1 643.2 L 348.1 644.6 L 352.2 645.9 L 356.3 647.0 L 360.5 648.0 L 364.7 648.8 L 368.9 649.4 L 373.1 649.8 L 377.3 650.1 L 381.6 650.2 L 385.8 650.1 L 390.0 649.9 L 394.2 649.5 L 398.4 648.9 L 402.6 648.1 L 406.7 647.2 L 410.8 646.1 L 414.9 644.9 L 418.9 643.4 L 422.9 641.8 L 426.8 640.0 L 430.6 638.0 L 434.4 635.9 L 438.1 633.6 L 441.7 631.1 L 445.3 628.4 L 448.7 625.5 L 452.1 622.5 L 455.4 619.3 L 458.5 615.9 L 461.6 612.3 L 464.5 608.6 L 467.3 604.7 L 470.0 600.6 L 472.6 596.3 L 475.0 591.8 L 477.2 587.1 L 479.4 582.3 L 481.3 577.3 L 483.1 572.0 L 484.8 566.6 L 486.2 561.1 L 487.5 555.3 L 488.6 549.3 L 489.3 545.2 L 489.7 541.0 L 490.1 536.7 L 490.3 532.5 L 490.5 524.1 L 490.6 516.1 L 490.4 507.7 L 490.0 499.6 L 489.6 495.6 L 489.2 491.6 L 488.7 487.6 L 488.0 483.5 L 486.8 476.4 L 485.7 469.8 L 484.5 463.2 L 483.8 459.7 L 482.9 456.1 L 482.6 453.5 L 482.4 451.1 L 482.5 448.9 L 482.6 446.8 L 483.0 444.8 L 483.5 443.0 L 484.2 441.4 L 485.0 439.8 L 486.1 438.4 L 487.4 437.2 L 489.0 436.0 L 490.7 434.9 L 492.7 434.0 L 494.9 433.2 L 497.4 432.4 L 500.1 431.8 L 503.9 431.1 L 507.5 430.6 L 514.5 429.9 L 521.5 429.4 L 528.9 428.6 L 532.7 427.9 L 536.1 426.9 L 539.1 425.6 L 540.4 425.0 L 541.6 424.2 L 542.7 423.4 L 543.7 422.6 L 544.6 421.7 L 545.4 420.7 L 546.0 419.7 L 546.6 418.7 L 547.1 417.6 L 547.4 416.5 L 547.7 415.4 L 547.8 414.2 L 547.8 413.0 L 547.8 411.8 L 547.6 410.5 L 547.3 409.2 L 546.5 406.6 L 545.2 403.8 L 543.6 401.1 L 541.6 398.2 L 539.1 395.4 L 536.9 392.8 L 534.5 390.3 L 529.6 385.5 L 527.2 383.1 L 524.8 380.6 L 522.6 378.1 L 520.6 375.6 L 519.2 373.3 L 518.1 371.2 L 517.1 369.1 L 516.4 367.1 L 515.8 365.1 L 515.5 363.2 L 515.3 361.4 L 515.4 359.6 L 515.6 357.8 L 516.1 356.0 L 516.8 354.3 L 517.6 352.6 L 518.7 350.8 L 520.0 349.1 L 521.4 347.3 L 523.1 345.5 L 525.8 343.2 L 528.6 341.0 L 534.3 337.0 L 540.0 333.0 L 542.8 331.0 L 545.5 328.9 L 548.8 326.1 L 551.5 323.3 L 553.6 320.6 L 554.5 319.3 L 555.3 318.0 L 555.9 316.8 L 556.4 315.5 L 556.8 314.3 L 557.0 313.1 L 557.2 311.9 L 557.2 310.8 L 557.2 309.7 L 557.0 308.6 L 556.7 307.5 L 556.4 306.4 L 555.4 304.4 L 554.1 302.4 L 552.5 300.6 L 550.6 298.9 L 548.5 297.3 L 546.1 295.8 L 543.6 294.4 L 540.3 292.8 L 537.0 291.4 L 533.8 290.1 L 530.5 289.0 L 527.1 288.0 L 523.5 287.0 L 519.6 286.2 L 515.5 285.5 L 506.5 284.7 L 498.6 284.4 L 491.3 284.2 L 484.2 284.2 L 476.5 284.6 L 469.5 284.8 L 463.0 285.1 L 456.7 285.5 L 452.8 285.6 L 449.0 285.6 L 445.3 285.5 L 441.7 285.3 L 438.1 285.0 L 434.6 284.6 L 431.1 284.1 L 427.8 283.4 L 424.5 282.7 L 421.3 281.8 L 418.1 280.8 L 415.1 279.7 L 412.1 278.4 L 409.2 277.1 L 406.3 275.6 L 403.6 274.0 L 400.9 272.2 L 398.3 270.4 L 395.8 268.4 L 393.4 266.2 L 391.1 264.0 L 388.8 261.6 L 386.6 259.0 L 384.5 256.4 L 382.6 253.6 L 380.6 250.6 L 378.8 247.5 L 377.1 244.3 L 375.5 240.9 L 373.9 237.4 L 372.5 233.7 L 371.1 229.9 L 368.4 222.4 L 365.9 215.7 L 363.3 209.2 L 360.2 202.4 L 357.0 195.9 L 353.8 189.7 L 350.4 183.6 L 346.8 177.5 L 343.1 171.4 L 339.4 165.5 L 335.6 159.9 L 333.6 157.2 L 331.5 154.5 L 325.8 147.9 L 322.9 144.7 L 319.9 141.6 L 316.8 138.5 L 313.4 135.5 L 309.8 132.5 L 305.9 129.6 L 303.2 127.8 L 300.5 126.1 L 297.7 124.7 L 294.9 123.4 L 292.1 122.3 L 289.2 121.4 L 286.4 120.7 L 283.6 120.1 L 280.8 119.7 L 278.0 119.6 L 275.3 119.6 L 272.6 119.8 L 269.9 120.1 L 267.2 120.7 L 264.7 121.4 L 262.2 122.3 L 259.7 123.4 L 257.3 124.7 L 255.0 126.1 L 252.8 127.8 L 250.7 129.6 L 248.7 131.6 L 246.8 133.8 L 245.0 136.1 L 243.3 138.7 L 241.8 141.4 L 240.4 144.3 L 239.1 147.4 L 238.0 150.7 L 237.1 154.1 L 236.3 157.7 L 235.6 161.5 L 234.9 170.9 L 234.6 179.5 L 234.7 188.2 L 235.0 197.9 L 235.6 205.3 L 236.4 212.2 L 237.5 219.1 L 238.8 226.1 L 242.3 239.1 L 245.9 251.6 L 247.1 256.0 L 248.0 260.2 L 248.8 264.1 L 249.2 267.8 L 249.3 271.3 L 249.2 274.5 L 248.9 276.1 L 248.6 277.6 L 248.2 279.0 L 247.7 280.4 L 247.1 281.7 L 246.4 283.0 L 245.6 284.2 L 244.7 285.3 L 243.6 286.5 L 242.5 287.5 L 241.2 288.6 L 239.8 289.5 L 238.3 290.5 L 236.7 291.3 L 233.1 293.0 L 228.9 294.4 L 224.1 295.7 L 208.9 298.6 L 201.4 300.3 L 194.1 302.1 L 186.2 304.2 L 177.9 306.7 L 169.8 309.5 L 162.2 312.3 L 155.8 315.0 L 149.9 317.7 L 147.0 319.2 L 143.9 320.9 L 140.7 322.9 L 137.3 325.1 L 134.2 327.1 L 131.4 329.3 L 128.8 331.5 L 126.4 333.9 L 124.2 336.4 L 122.2 338.9 L 120.4 341.5 L 118.9 344.2 L 117.5 346.9 L 116.3 349.7 L 115.3 352.5 L 114.6 355.3 L 114.1 358.2 L 113.7 361.1 L 113.6 363.9 L 113.7 366.8 L 114.0 369.6 L 114.5 372.4 L 115.2 375.2 L 116.2 377.9 L 117.3 380.6 L 118.7 383.2 L 120.3 385.7 L 122.1 388.2 L 124.1 390.5 L 126.3 392.8 L 128.8 394.9 L 131.4 396.9 L 134.3 398.8 L 137.4 400.6 L 140.7 402.2 L 144.3 403.7 L 148.5 405.4 L 152.7 407.0 L 156.8 408.3 L 160.8 409.5 L 168.8 411.7 L 176.9 413.9 L 183.8 415.6 L 190.5 416.8 L 197.1 417.8 L 203.7 418.4 L 210.7 418.7 L 217.0 419.0 L 231.8 419.6 L 235.9 419.9 L 239.7 420.4 L 243.3 421.3 L 246.6 422.4 L 249.7 423.8 L 252.5 425.4 L 253.8 426.4 L 255.0 427.4 L 256.2 428.5 L 257.3 429.6 L 258.3 430.8 L 259.3 432.1 L 260.2 433.5 L 261.0 434.9 L 262.4 438.0 L 263.5 441.3 L 264.4 444.9 L 264.9 448.8 L 265.1 452.9 L 265.0 457.3 L 264.1 472.2 L 263.9 479.1 L 263.7 486.1 L 263.8 501.6 L 264.0 508.9 L 264.4 516.1 L 264.7 520.0 L 265.1 523.9 L 265.6 527.8 L 266.2 531.7 L 267.7 539.4 L 269.5 546.8 L 271.4 554.7 L 273.5 561.6 L 275.8 568.3 L 278.4 575.5 Z"/>
	<path id="ShapeE" style="opacity:0.2;fill:#3C2415;stroke:#000000;stroke-width:2;stroke-linecap:round;stroke-linejoin:round;stroke-miterlimit:10;" d="   M 125.7 431.1 L 122.9 435.9 L 120.2 440.6 L 117.9 445.4 L 115.7 450.1 L 113.8 454.9 L 112.1 459.6 L 110.6 464.4 L 109.4 469.1 L 108.4 473.8 L 107.5 478.5 L 106.9 483.1 L 106.5 487.7 L 106.3 492.3 L 106.3 496.9 L 106.5 501.4 L 106.9 505.8 L 107.5 510.2 L 108.3 514.5 L 109.2 518.8 L 110.3 523.0 L 111.6 527.1 L 113.1 531.2 L 114.7 535.2 L 116.5 539.0 L 118.5 542.8 L 120.6 546.5 L 122.8 550.2 L 125.2 553.7 L 127.8 557.1 L 130.4 560.4 L 133.3 563.5 L 136.2 566.6 L 139.3 569.5 L 142.5 572.3 L 145.8 575.0 L 149.3 577.5 L 152.8 579.9 L 156.5 582.2 L 160.3 584.3 L 164.1 586.2 L 168.1 588.0 L 172.2 589.6 L 176.4 591.1 L 180.6 592.4 L 185.0 593.5 L 189.4 594.4 L 193.9 595.2 L 198.4 595.7 L 203.1 596.1 L 207.8 596.3 L 212.5 596.2 L 217.4 596.0 L 222.2 595.6 L 227.2 594.9 L 232.1 594.0 L 237.2 592.9 L 242.2 591.6 L 247.3 590.0 L 252.4 588.2 L 257.6 586.2 L 262.8 583.9 L 268.0 581.4 L 273.2 578.6 L 278.4 575.5 L 285.8 570.8 L 292.7 566.1 L 299.6 561.2 L 306.6 555.7 L 318.0 545.4 L 323.5 540.2 L 326.3 537.5 L 328.9 534.6 L 338.9 522.8 L 343.9 517.0 L 349.4 511.0 L 351.2 509.2 L 353.0 507.6 L 354.8 506.3 L 356.6 505.3 L 358.4 504.5 L 360.2 503.9 L 362.0 503.7 L 363.9 503.7 L 365.8 503.9 L 367.6 504.4 L 369.5 505.2 L 371.5 506.3 L 373.4 507.7 L 375.4 509.4 L 377.4 511.3 L 379.4 513.6 L 384.8 519.5 L 389.9 525.0 L 392.5 527.5 L 395.0 529.8 L 397.7 532.0 L 400.5 534.0 L 402.9 535.5 L 405.2 536.8 L 407.6 537.7 L 409.9 538.4 L 412.2 538.8 L 414.4 538.8 L 416.5 538.6 L 418.5 538.1 L 420.4 537.2 L 422.2 536.1 L 423.9 534.6 L 425.5 532.8 L 426.8 530.7 L 428.0 528.3 L 429.0 525.6 L 429.9 522.5 L 430.7 519.0 L 431.3 515.6 L 431.7 512.2 L 432.0 508.7 L 432.6 501.2 L 433.1 497.0 L 433.7 492.5 L 434.2 489.8 L 434.8 487.4 L 435.7 485.1 L 436.8 483.1 L 438.1 481.2 L 439.5 479.6 L 441.1 478.2 L 442.9 477.0 L 444.8 476.0 L 446.8 475.3 L 449.0 474.8 L 451.2 474.5 L 453.6 474.5 L 456.0 474.7 L 458.6 475.2 L 461.2 475.9 L 464.3 476.7 L 467.6 477.6 L 474.3 479.7 L 481.2 481.8 L 484.6 482.7 L 488.0 483.5 L 492.2 484.3 L 496.0 484.6 L 499.5 484.6 L 501.0 484.5 L 502.5 484.2 L 503.9 483.9 L 505.2 483.5 L 506.3 483.0 L 507.4 482.5 L 508.5 481.8 L 509.4 481.1 L 510.2 480.4 L 511.0 479.5 L 511.7 478.6 L 512.3 477.7 L 513.2 475.6 L 513.9 473.3 L 514.2 470.8 L 514.3 468.1 L 514.1 465.3 L 513.6 462.3 L 512.9 459.3 L 511.6 454.8 L 510.2 450.6 L 508.6 446.7 L 507.0 443.1 L 505.3 439.8 L 503.6 436.8 L 501.8 434.1 L 500.1 431.8 L 494.7 423.9 L 490.5 417.9 L 486.6 412.5 L 482.2 406.9 L 474.9 397.8 L 471.5 393.5 L 467.6 388.3 L 463.4 382.2 L 459.7 376.1 L 458.0 373.0 L 456.4 369.9 L 454.9 366.8 L 453.5 363.6 L 452.3 360.5 L 451.1 357.4 L 450.1 354.2 L 449.1 351.1 L 448.3 347.9 L 447.6 344.7 L 447.0 341.5 L 446.5 338.3 L 446.2 335.1 L 446.0 331.9 L 445.9 328.7 L 445.9 325.4 L 446.1 322.2 L 446.4 318.9 L 446.8 315.6 L 447.3 312.3 L 448.0 309.0 L 448.8 305.7 L 449.8 302.4 L 450.9 299.0 L 452.1 295.6 L 453.5 292.3 L 455.0 288.9 L 456.7 285.5 L 463.4 273.7 L 470.1 261.8 L 471.9 258.5 L 473.6 255.2 L 475.2 252.0 L 476.6 248.7 L 479.2 242.2 L 481.6 235.6 L 483.1 231.3 L 484.4 227.2 L 485.5 223.5 L 486.3 220.0 L 487.6 213.7 L 488.6 208.2 L 489.5 203.5 L 490.1 199.2 L 490.6 195.0 L 491.0 191.0 L 491.4 182.9 L 491.8 174.3 L 491.9 170.5 L 491.7 166.9 L 491.4 163.4 L 490.8 160.0 L 490.0 156.7 L 489.1 153.6 L 487.9 150.6 L 486.6 147.8 L 485.2 145.2 L 483.5 142.7 L 481.7 140.3 L 479.8 138.1 L 477.7 136.1 L 475.6 134.3 L 473.2 132.6 L 470.8 131.2 L 468.3 129.9 L 465.7 128.8 L 463.0 127.9 L 460.2 127.2 L 457.4 126.7 L 454.4 126.4 L 451.5 126.4 L 448.4 126.5 L 445.4 126.9 L 442.3 127.5 L 439.2 128.3 L 436.0 129.3 L 432.9 130.6 L 429.7 132.2 L 426.6 133.9 L 423.5 136.0 L 418.0 140.1 L 411.9 144.9 L 408.6 147.7 L 405.2 150.7 L 401.7 154.0 L 397.9 157.7 L 392.7 163.0 L 387.5 168.2 L 382.6 173.5 L 378.1 178.8 L 375.6 181.8 L 373.2 184.8 L 368.9 190.6 L 364.7 196.4 L 360.2 202.4 L 357.5 206.0 L 354.7 209.2 L 351.9 211.9 L 349.0 214.1 L 347.6 215.0 L 346.2 215.9 L 344.7 216.6 L 343.3 217.3 L 341.8 217.8 L 340.4 218.2 L 338.9 218.5 L 337.4 218.7 L 335.9 218.8 L 334.4 218.8 L 332.8 218.7 L 331.3 218.5 L 328.2 217.7 L 325.0 216.6 L 321.8 215.1 L 318.5 213.2 L 315.1 210.9 L 311.7 208.2 L 303.5 200.9 L 298.6 196.7 L 294.6 193.7 L 289.3 189.6 L 282.8 185.0 L 275.5 180.0 L 271.7 177.6 L 268.0 175.4 L 264.5 173.4 L 261.2 171.8 L 254.0 168.4 L 247.9 165.9 L 242.1 163.8 L 235.6 161.5 L 231.6 160.4 L 227.6 159.4 L 223.7 158.7 L 220.0 158.2 L 216.4 157.9 L 212.9 157.8 L 209.5 157.9 L 206.3 158.2 L 203.2 158.7 L 200.3 159.4 L 197.5 160.3 L 194.8 161.3 L 192.4 162.6 L 190.0 164.0 L 187.9 165.6 L 185.9 167.4 L 184.1 169.4 L 182.4 171.6 L 181.0 173.9 L 179.7 176.4 L 178.6 179.0 L 177.8 181.8 L 177.1 184.8 L 176.6 187.9 L 176.3 191.2 L 176.3 194.7 L 176.5 198.3 L 176.8 202.0 L 177.5 205.9 L 178.3 209.9 L 179.4 214.1 L 180.7 218.4 L 183.1 225.3 L 185.6 232.0 L 191.6 246.5 L 192.6 249.0 L 193.9 251.8 L 195.3 254.8 L 197.1 258.0 L 199.1 261.5 L 201.4 265.2 L 203.9 269.1 L 206.9 273.3 L 211.6 279.3 L 216.0 284.8 L 220.2 290.1 L 222.2 292.9 L 224.1 295.7 L 226.8 299.9 L 228.9 303.7 L 230.6 307.4 L 231.3 309.1 L 231.8 310.7 L 232.2 312.4 L 232.5 313.9 L 232.7 315.5 L 232.8 317.0 L 232.7 318.5 L 232.5 319.9 L 232.2 321.3 L 231.8 322.7 L 231.3 324.1 L 230.6 325.4 L 229.8 326.8 L 228.9 328.1 L 226.8 330.8 L 224.1 333.4 L 221.0 336.1 L 217.4 338.9 L 213.4 341.9 L 208.8 344.9 L 203.5 348.3 L 198.3 351.8 L 193.0 355.5 L 187.7 359.6 L 182.1 364.5 L 176.6 369.5 L 166.0 379.4 L 159.4 386.1 L 153.7 392.2 L 148.8 398.0 L 144.3 403.7 L 139.5 410.3 L 134.8 416.9 L 130.2 423.8 L 127.9 427.4 L 125.7 431.1 Z"/>
	<path id="ShapeF" style="opacity:0.2;fill:#9E1F63;stroke:#000000;stroke-width:2;stroke-linecap:round;stroke-linejoin:round;stroke-miterlimit:10;" d="   M 148.1 221.6 L 142.4 222.7 L 136.8 224.0 L 131.5 225.5 L 126.3 227.1 L 121.2 228.9 L 116.4 230.9 L 111.7 233.0 L 107.2 235.3 L 102.9 237.7 L 98.7 240.3 L 94.7 242.9 L 90.9 245.8 L 87.3 248.7 L 83.8 251.8 L 80.5 254.9 L 77.4 258.2 L 74.5 261.6 L 71.7 265.0 L 69.1 268.6 L 66.6 272.2 L 64.4 275.9 L 62.3 279.7 L 60.4 283.6 L 58.6 287.5 L 57.0 291.5 L 55.6 295.5 L 54.4 299.6 L 53.3 303.7 L 52.4 307.8 L 51.6 312.0 L 51.1 316.2 L 50.7 320.4 L 50.5 324.6 L 50.4 328.8 L 50.5 333.0 L 50.8 337.3 L 51.2 341.5 L 51.8 345.7 L 52.6 349.8 L 53.5 354.0 L 54.6 358.1 L 55.9 362.2 L 57.4 366.2 L 59.0 370.2 L 60.8 374.1 L 62.7 378.0 L 64.8 381.8 L 67.1 385.5 L 69.5 389.2 L 72.1 392.8 L 74.9 396.3 L 77.8 399.7 L 80.9 403.0 L 84.2 406.2 L 87.6 409.2 L 91.2 412.2 L 94.9 415.0 L 98.8 417.8 L 102.9 420.4 L 107.2 422.8 L 111.6 425.1 L 116.1 427.3 L 120.9 429.3 L 125.7 431.1 L 130.0 432.7 L 134.3 434.2 L 138.5 435.5 L 142.8 436.6 L 151.4 438.8 L 160.2 440.7 L 164.1 441.6 L 167.8 442.4 L 175.3 443.7 L 182.7 444.6 L 190.3 445.2 L 197.4 445.6 L 204.3 445.8 L 211.0 446.1 L 217.8 446.5 L 220.4 446.6 L 222.9 446.9 L 225.2 447.3 L 227.2 447.9 L 229.2 448.5 L 230.9 449.3 L 232.4 450.3 L 233.8 451.4 L 235.0 452.7 L 236.0 454.2 L 236.9 455.8 L 237.6 457.6 L 238.1 459.6 L 238.5 461.8 L 238.8 464.3 L 238.8 466.9 L 238.7 470.9 L 238.5 474.7 L 237.8 481.9 L 236.9 488.9 L 236.6 492.6 L 236.3 496.3 L 236.2 500.0 L 236.4 503.4 L 237.0 506.5 L 237.8 509.3 L 238.9 511.8 L 239.5 512.9 L 240.2 513.9 L 241.0 514.9 L 241.8 515.7 L 242.7 516.5 L 243.6 517.2 L 244.6 517.8 L 245.6 518.4 L 246.7 518.8 L 247.9 519.2 L 249.0 519.4 L 250.2 519.6 L 252.8 519.7 L 255.5 519.4 L 258.4 518.7 L 261.3 517.6 L 264.4 516.1 L 278.2 508.0 L 290.6 500.8 L 292.8 499.6 L 295.0 498.6 L 297.1 497.8 L 299.1 497.2 L 301.0 496.9 L 302.9 496.7 L 304.7 496.8 L 306.4 497.2 L 308.0 497.7 L 309.6 498.6 L 311.1 499.6 L 312.5 500.9 L 313.8 502.4 L 315.1 504.2 L 316.3 506.2 L 317.4 508.4 L 319.9 514.3 L 322.7 521.1 L 325.7 528.0 L 327.3 531.4 L 328.9 534.6 L 330.6 537.7 L 332.5 540.4 L 334.4 542.8 L 336.4 544.8 L 338.5 546.5 L 340.7 547.8 L 341.8 548.3 L 342.9 548.7 L 344.0 549.0 L 345.2 549.2 L 346.4 549.3 L 347.6 549.3 L 348.8 549.2 L 350.0 549.0 L 351.2 548.6 L 352.5 548.2 L 355.0 547.0 L 357.5 545.4 L 360.1 543.4 L 362.7 540.8 L 365.3 537.8 L 369.1 533.1 L 370.8 530.5 L 372.6 527.8 L 374.3 524.9 L 376.0 521.6 L 377.7 517.8 L 379.4 513.6 L 382.3 506.0 L 384.5 499.4 L 386.2 493.2 L 387.7 486.7 L 389.0 479.2 L 390.3 471.5 L 391.5 463.8 L 392.8 456.7 L 393.6 453.0 L 394.6 449.4 L 395.6 445.9 L 396.8 442.5 L 398.1 439.2 L 399.4 436.0 L 400.9 433.0 L 402.5 430.0 L 404.2 427.2 L 406.0 424.4 L 407.9 421.8 L 409.8 419.2 L 411.9 416.8 L 414.1 414.4 L 416.3 412.2 L 418.7 410.1 L 421.1 408.0 L 423.6 406.1 L 426.3 404.2 L 429.0 402.4 L 431.8 400.8 L 434.6 399.2 L 437.6 397.7 L 440.6 396.3 L 443.7 395.0 L 446.9 393.8 L 450.2 392.7 L 453.5 391.6 L 456.9 390.7 L 460.4 389.8 L 463.9 389.0 L 467.6 388.3 L 482.2 385.5 L 496.3 382.6 L 502.9 381.1 L 508.7 379.5 L 514.4 377.7 L 520.6 375.6 L 528.3 372.3 L 535.4 369.2 L 542.1 366.0 L 548.7 362.8 L 552.4 360.9 L 555.7 359.0 L 558.9 357.2 L 561.9 355.3 L 567.7 351.3 L 573.6 346.8 L 576.7 344.3 L 579.6 341.7 L 582.2 339.0 L 584.6 336.3 L 586.7 333.6 L 588.6 330.9 L 590.3 328.1 L 591.7 325.3 L 593.0 322.5 L 593.9 319.7 L 594.7 316.9 L 595.2 314.2 L 595.5 311.4 L 595.6 308.7 L 595.4 306.0 L 595.1 303.3 L 594.5 300.7 L 593.7 298.1 L 592.7 295.6 L 591.5 293.1 L 590.1 290.7 L 588.5 288.4 L 586.7 286.1 L 584.7 284.0 L 582.4 282.0 L 580.0 280.0 L 577.4 278.2 L 574.6 276.4 L 571.6 274.8 L 568.4 273.3 L 565.0 272.0 L 561.5 270.8 L 553.5 268.2 L 549.8 267.2 L 546.1 266.2 L 542.2 265.4 L 538.0 264.6 L 533.4 263.8 L 528.2 263.1 L 517.8 262.0 L 510.1 261.4 L 503.5 261.2 L 496.3 261.2 L 489.7 261.3 L 483.2 261.5 L 476.7 261.7 L 470.1 261.8 L 465.0 261.9 L 460.4 261.7 L 456.2 261.1 L 454.2 260.8 L 452.3 260.3 L 450.5 259.8 L 448.8 259.1 L 447.3 258.4 L 445.8 257.7 L 444.4 256.8 L 443.1 255.9 L 441.8 254.9 L 440.7 253.8 L 439.7 252.7 L 438.7 251.5 L 437.9 250.2 L 437.1 248.8 L 436.4 247.4 L 435.8 245.9 L 435.3 244.3 L 434.9 242.6 L 434.3 239.1 L 434.0 235.2 L 434.0 231.1 L 434.3 226.7 L 435.1 218.5 L 435.4 210.9 L 435.6 203.5 L 435.6 196.0 L 435.5 187.7 L 435.1 180.1 L 434.7 176.4 L 434.3 172.8 L 433.7 169.4 L 433.1 166.0 L 431.9 160.6 L 430.7 155.9 L 429.5 151.8 L 428.3 148.1 L 427.1 144.8 L 425.9 141.7 L 423.5 136.0 L 422.1 132.6 L 420.6 129.5 L 418.9 126.6 L 417.2 123.8 L 415.3 121.2 L 413.3 118.8 L 411.2 116.7 L 409.1 114.6 L 406.8 112.8 L 404.5 111.2 L 402.1 109.8 L 399.6 108.6 L 397.1 107.6 L 394.5 106.8 L 391.9 106.2 L 389.2 105.8 L 386.5 105.6 L 383.8 105.6 L 381.1 105.8 L 378.3 106.2 L 375.6 106.9 L 372.8 107.7 L 370.1 108.8 L 367.3 110.1 L 364.6 111.6 L 361.9 113.3 L 359.3 115.3 L 356.7 117.4 L 354.1 119.8 L 351.6 122.4 L 349.2 125.2 L 346.8 128.3 L 342.7 134.1 L 341.0 136.6 L 339.4 139.2 L 337.7 142.1 L 335.9 145.5 L 331.5 154.5 L 326.1 165.9 L 322.9 173.3 L 321.2 177.7 L 319.3 182.6 L 317.2 189.2 L 315.5 195.1 L 313.8 201.2 L 311.7 208.2 L 310.2 212.9 L 308.8 217.2 L 307.2 221.0 L 305.6 224.4 L 303.8 227.3 L 302.9 228.5 L 301.9 229.7 L 300.9 230.8 L 299.8 231.7 L 298.7 232.6 L 297.5 233.3 L 296.3 234.0 L 295.0 234.5 L 293.6 235.0 L 292.1 235.4 L 290.6 235.6 L 289.0 235.8 L 285.5 235.9 L 281.7 235.7 L 277.4 235.1 L 272.7 234.3 L 267.6 233.1 L 252.7 229.6 L 245.8 227.9 L 238.8 226.1 L 231.3 224.3 L 223.8 222.7 L 216.4 221.4 L 208.8 220.3 L 201.6 219.5 L 194.5 218.9 L 187.5 218.5 L 180.7 218.4 L 172.6 218.9 L 164.6 219.5 L 156.5 220.4 L 148.1 221.6 Z"/>
	<path id="ShapeG" style="opacity:0.2;fill:#CA4B9B;stroke:#000000;stroke-width:2;stroke-linecap:round;stroke-linejoin:round;stroke-miterlimit:10;" d="   M 321.3 100.8 L 317.5 97.3 L 313.6 94.1 L 309.7 91.0 L 305.7 88.2 L 301.6 85.5 L 297.5 83.1 L 293.4 80.9 L 289.2 78.8 L 285.0 77.0 L 280.7 75.4 L 276.4 73.9 L 272.1 72.7 L 267.8 71.6 L 263.4 70.7 L 259.1 70.1 L 254.8 69.6 L 250.4 69.3 L 246.1 69.1 L 241.8 69.2 L 237.5 69.4 L 233.2 69.8 L 229.0 70.4 L 224.8 71.1 L 220.6 72.0 L 216.5 73.1 L 212.4 74.3 L 208.4 75.7 L 204.5 77.3 L 200.6 79.0 L 196.8 80.8 L 193.0 82.9 L 189.4 85.0 L 185.8 87.3 L 182.4 89.8 L 179.0 92.4 L 175.8 95.2 L 172.6 98.1 L 169.6 101.1 L 166.7 104.3 L 163.9 107.6 L 161.2 111.0 L 158.7 114.6 L 156.3 118.3 L 154.1 122.1 L 152.0 126.0 L 150.0 130.1 L 148.3 134.3 L 146.7 138.6 L 145.3 143.0 L 144.0 147.5 L 142.9 152.1 L 142.1 156.9 L 141.4 161.8 L 140.9 166.7 L 140.6 171.8 L 140.5 176.9 L 140.7 182.2 L 141.0 187.5 L 141.6 193.0 L 142.4 198.5 L 143.5 204.2 L 144.8 209.9 L 146.3 215.7 L 148.1 221.6 L 150.6 228.9 L 153.4 236.4 L 154.9 240.1 L 156.4 243.7 L 158.0 247.1 L 159.6 250.3 L 163.8 257.9 L 167.8 264.8 L 172.3 271.8 L 177.5 279.7 L 181.4 285.4 L 185.6 290.9 L 194.1 302.1 L 195.8 304.5 L 197.1 306.9 L 198.2 309.1 L 199.0 311.2 L 199.5 313.2 L 199.7 315.1 L 199.6 317.0 L 199.2 318.8 L 198.5 320.5 L 197.5 322.2 L 196.3 323.9 L 194.7 325.5 L 192.7 327.2 L 190.5 328.8 L 188.0 330.4 L 185.2 332.1 L 174.1 338.6 L 168.7 341.9 L 163.4 345.5 L 160.7 347.6 L 158.4 349.7 L 156.5 351.8 L 154.9 354.0 L 153.6 356.1 L 152.8 358.3 L 152.3 360.5 L 152.3 361.6 L 152.3 362.7 L 152.4 363.8 L 152.6 364.9 L 153.3 367.0 L 154.4 369.2 L 155.9 371.3 L 157.8 373.4 L 160.1 375.4 L 162.9 377.4 L 166.0 379.4 L 169.9 381.4 L 173.5 383.1 L 177.0 384.6 L 180.4 385.9 L 187.2 388.6 L 194.7 391.5 L 197.5 392.7 L 199.8 394.0 L 201.8 395.2 L 203.5 396.5 L 204.9 397.9 L 206.0 399.3 L 206.8 400.8 L 207.4 402.3 L 207.7 403.9 L 207.7 405.7 L 207.5 407.5 L 207.2 409.4 L 206.6 411.5 L 205.8 413.6 L 204.8 415.9 L 203.7 418.4 L 200.0 425.3 L 196.5 432.0 L 193.3 438.6 L 190.3 445.2 L 189.2 448.2 L 188.5 451.1 L 188.0 453.8 L 187.9 456.3 L 188.0 458.6 L 188.5 460.8 L 189.2 462.7 L 190.3 464.5 L 191.6 466.1 L 193.3 467.5 L 195.2 468.7 L 197.5 469.6 L 200.0 470.4 L 202.9 470.9 L 206.0 471.3 L 209.4 471.4 L 213.1 471.3 L 217.0 471.0 L 220.9 470.5 L 224.9 469.9 L 232.4 468.4 L 238.8 466.9 L 245.5 464.9 L 252.2 462.6 L 258.7 460.1 L 265.0 457.3 L 267.6 455.9 L 270.6 454.4 L 277.3 451.2 L 284.3 447.9 L 287.5 446.2 L 290.6 444.6 L 294.0 442.9 L 297.4 441.4 L 300.9 440.1 L 304.3 438.8 L 307.7 437.7 L 311.2 436.7 L 314.6 435.9 L 318.1 435.1 L 321.5 434.5 L 324.9 434.0 L 328.3 433.7 L 331.7 433.5 L 335.1 433.4 L 338.4 433.4 L 341.7 433.6 L 345.0 433.9 L 348.3 434.3 L 351.6 434.8 L 354.8 435.5 L 358.0 436.3 L 361.1 437.3 L 364.3 438.4 L 367.3 439.6 L 370.4 441.0 L 373.4 442.5 L 376.3 444.1 L 379.2 445.8 L 382.0 447.7 L 384.8 449.8 L 387.5 451.9 L 390.2 454.2 L 392.8 456.7 L 398.2 462.0 L 403.3 466.8 L 413.2 475.9 L 423.2 484.2 L 428.3 488.3 L 433.7 492.5 L 437.3 494.8 L 441.1 497.1 L 444.8 499.3 L 448.6 501.4 L 456.1 505.2 L 463.1 508.4 L 469.8 510.7 L 476.6 512.8 L 483.5 514.6 L 490.6 516.1 L 494.2 516.7 L 497.7 517.1 L 501.2 517.2 L 504.5 517.3 L 507.8 517.1 L 511.0 516.7 L 514.0 516.2 L 517.0 515.5 L 519.8 514.7 L 522.5 513.7 L 525.1 512.5 L 527.6 511.2 L 529.9 509.7 L 532.1 508.1 L 534.2 506.3 L 536.1 504.4 L 537.8 502.3 L 539.4 500.1 L 540.8 497.8 L 542.1 495.3 L 543.2 492.7 L 544.1 490.0 L 544.8 487.2 L 545.4 484.2 L 545.7 481.1 L 545.8 478.0 L 545.8 474.7 L 545.5 471.3 L 545.1 467.8 L 544.4 464.2 L 543.4 460.5 L 542.3 456.7 L 540.8 452.3 L 539.2 448.3 L 537.6 444.5 L 535.8 441.0 L 534.1 437.6 L 532.3 434.5 L 528.9 428.6 L 526.3 424.4 L 523.8 420.5 L 519.0 413.6 L 511.0 402.4 L 507.6 397.3 L 504.1 392.5 L 500.4 387.7 L 496.3 382.6 L 493.5 379.0 L 491.1 375.5 L 489.0 372.0 L 487.4 368.6 L 486.1 365.2 L 485.2 361.9 L 484.9 360.3 L 484.7 358.7 L 484.6 357.1 L 484.6 355.5 L 484.8 353.9 L 485.0 352.4 L 485.3 350.9 L 485.7 349.4 L 486.2 347.9 L 486.8 346.4 L 487.6 344.9 L 488.4 343.5 L 489.3 342.1 L 490.4 340.7 L 492.8 338.0 L 495.6 335.3 L 498.9 332.7 L 510.4 324.9 L 515.9 320.9 L 518.8 318.6 L 521.9 316.1 L 528.3 310.4 L 533.7 305.3 L 538.6 300.1 L 543.6 294.4 L 546.3 291.4 L 548.7 288.6 L 550.9 285.8 L 553.0 283.1 L 557.1 277.3 L 561.5 270.8 L 563.6 267.4 L 565.5 264.1 L 567.2 260.8 L 568.6 257.5 L 569.8 254.2 L 570.7 251.0 L 571.5 247.8 L 571.9 244.7 L 572.2 241.6 L 572.2 238.6 L 572.0 235.7 L 571.5 232.8 L 570.8 230.1 L 569.9 227.4 L 568.8 224.8 L 567.5 222.4 L 565.9 220.0 L 564.1 217.8 L 562.1 215.7 L 559.9 213.8 L 557.5 212.0 L 554.9 210.3 L 552.0 208.9 L 549.0 207.5 L 545.7 206.4 L 542.3 205.4 L 538.6 204.6 L 534.8 204.0 L 530.7 203.6 L 526.5 203.4 L 522.0 203.5 L 517.4 203.7 L 510.6 204.5 L 504.2 205.2 L 500.8 205.7 L 497.2 206.3 L 493.1 207.1 L 488.6 208.2 L 485.1 208.9 L 481.6 209.8 L 474.7 211.8 L 467.9 214.1 L 461.2 216.5 L 447.5 221.3 L 440.8 223.9 L 434.3 226.7 L 430.5 228.2 L 426.9 229.5 L 423.5 230.4 L 420.2 230.9 L 417.2 231.2 L 415.7 231.1 L 414.3 231.0 L 412.9 230.8 L 411.5 230.5 L 410.2 230.1 L 408.9 229.6 L 407.6 228.9 L 406.3 228.2 L 405.1 227.4 L 403.8 226.4 L 401.4 224.2 L 399.0 221.5 L 396.7 218.3 L 394.3 214.6 L 392.0 210.4 L 389.6 205.6 L 385.4 195.8 L 382.7 189.3 L 380.5 184.2 L 378.1 178.8 L 374.2 171.2 L 370.3 163.9 L 366.6 157.4 L 363.4 151.9 L 357.8 143.5 L 353.7 137.5 L 350.3 132.8 L 346.8 128.3 L 338.2 118.5 L 331.9 111.5 L 326.6 105.9 L 321.3 100.8 Z"/>
</g>
<g id="Texts">
	<g id="Header">
		<text id="Title" transform="matrix(1 0 0 1 277 26.7)" style="fill:#262262;stroke:#000000;stroke-width:0.5;stroke-miterlimit:10;font-family:'Tahoma';font-size:14;">Venn 7-set diagram</text>
	</g>
	<g id="Group_Names">
		<text id="NameA" transform="matrix(1 0 0 1 505.3 39.3)" style="fill:#262262;stroke:#000000;stroke-width:0.5;stroke-miterlimit:10;font-family:'Tahoma';font-size:24">NameA</text>
		<text id="NameB" transform="matrix(1 0 0 1 611 154.2)" style="fill:#262262;stroke:#000000;stroke-width:0.5;stroke-miterlimit:10;font-family:'Tahoma';font-size:24">NameB</text>
		<text id="NameC" transform="matrix(1 0 0 1 600.3 558.6)" style="fill:#262262;stroke:#000000;stroke-width:0.5;stroke-miterlimit:10;font-family:'Tahoma';font-size:24">NameC</text>
		<text id="NameD" transform="matrix(1 0 0 1 434.1 661.8)" style="fill:#262262;stroke:#000000;stroke-width:0.5;stroke-miterlimit:10;font-family:'Tahoma';font-size:24">NameD</text>
		<text id="NameE" transform="matrix(1 0 0 1 60.4 600.1)" style="fill:#262262;stroke:#000000;stroke-width:0.5;stroke-miterlimit:10;font-family:'Tahoma';font-size:24">NameE</text>
		<text id="NameF" transform="matrix(1 0 0 1 26 207.1)" style="fill:#262262;stroke:#000000;stroke-width:0.5;stroke-miterlimit:10;font-family:'Tahoma';font-size:24">NameF</text>
		<text id="NameG" transform="matrix(1 0 0 1 93.9 61.8)" style="fill:#262262;stroke:#000000;stroke-width:0.5;stroke-miterlimit:10;font-family:'Tahoma';font-size:24">NameG</text>
	</g>
	<g id="Group_Values">
		<text id="Count_A" transform="matrix(1 0 0 1 433.2 109)" style="fill:#262262;font-family:'Tahoma';font-size:28;text-anchor:middle;">A</text>
		<text id="Count_B" transform="matrix(1 0 0 1 597.7 261.2)" style="fill:#262262;font-family:'Tahoma';font-size:28;text-anchor:middle;">B</text>
		<text id="Count_C" transform="matrix(1 0 0 1 576 490)" style="fill:#262262;font-family:'Tahoma';font-size:28;text-anchor:middle;">C</text>
		<text id="Count_D" transform="matrix(1 0 0 1 387 611.2)" style="fill:#262262;font-family:'Tahoma';font-size:28;text-anchor:middle;">D</text>
		<text id="Count_E" transform="matrix(1 0 0 1 172.6 540.8)" style="fill:#262262;font-family:'Tahoma';font-size:28;text-anchor:middle;">E</text>
		<text id="Count_F" transform="matrix(1 0 0 1 98.1 332.9)" style="fill:#262262;font-family:'Tahoma';font-size:28;text-anchor:middle;">F</text>
		<text id="Count_G" transform="matrix(1 0 0 1 213.8 137.3)" style="fill:#262262;font-family:'Tahoma';font-size:28;text-anchor:middle;">G</text>
		<text id="Count_AB" transform="matrix(1 0 0 1 505.7 191.2)" style="fill:#262262;font-family:'Tahoma';font-size:10;text-anchor:middle;">AB</text>
		<text id="Count_AC" transform="matrix(1 0 0 1 560.7 425.5)" style="fill:#262262;font-family:'Tahoma';font-size:14;text-anchor:middle;">AC</text>
		<text id="Count_AD" transform="matrix(1 0 0 1 347.1 567.4)" style="fill:#262262;font-family:'Tahoma';font-size:14;text-anchor:middle;">AD</text>
		<text id="Count_AE" transform="matrix(1 0 0 1 460 156.5)" style="fill:#262262;font-family:'Tahoma';font-size:14;text-anchor:middle;">AE</text>
		<text id="Count_AF" transform="matrix(1 0 0 1 385.7 133.7)" style="fill:#262262;font-family:'Tahoma';font-size:14;text-anchor:middle;">AF</text>
		<text id="Count_AG" transform="matrix(1 0 0 1 326.2 130.7)" style="fill:#262262;font-family:'Tahoma';font-size:10;text-anchor:middle;">AG</text>
		<text id="Count_BC" transform="matrix(1 0 0 1 572.5 368)" style="fill:#262262;font-family:'Tahoma';font-size:10;text-anchor:middle;">BC</text>
		<text id="Count_BD" transform="matrix(1 0 0 1 425.4 557.6)" style="fill:#262262;font-family:'Tahoma';font-size:14;text-anchor:middle;">BD</text>
		<text id="Count_BE" transform="matrix(1 0 0 1 179.3 478.7)" style="fill:#262262;font-family:'Tahoma';font-size:14;text-anchor:middle;">BE</text>
		<text id="Count_BF" transform="matrix(1 0 0 1 571.5 313.3)" style="fill:#262262;font-family:'Tahoma';font-size:14;text-anchor:middle;">BF</text>
		<text id="Count_BG" transform="matrix(1 0 0 1 544 239.3)" style="fill:#262262;font-family:'Tahoma';font-size:14;text-anchor:middle;">BG</text>
		<text id="Count_CD" transform="matrix(1 0 0 1 476 532.4)" style="fill:#262262;font-family:'Tahoma';font-size:10;text-anchor:middle;">CD</text>
		<text id="Count_CE" transform="matrix(1 0 0 1 234.5 533.2)" style="fill:#262262;font-family:'Tahoma';font-size:14;text-anchor:middle;">CE</text>
		<text id="Count_CF" transform="matrix(1 0 0 1 144.4 291.1)" style="fill:#262262;font-family:'Tahoma';font-size:14;text-anchor:middle;">CF</text>
		<text id="Count_CG" transform="matrix(1 0 0 1 519.2 494.1)" style="fill:#262262;font-family:'Tahoma';font-size:14;text-anchor:middle;">CG</text>
		<text id="Count_DE" transform="matrix(1 0 0 1 287.6 556.1)" style="fill:#262262;font-family:'Tahoma';font-size:10;text-anchor:middle;">DE</text>
		<text id="Count_DF" transform="matrix(1 0 0 1 137.5 369.8)" style="fill:#262262;font-family:'Tahoma';font-size:14;text-anchor:middle;">DF</text>
		<text id="Count_DG" transform="matrix(1 0 0 1 270.1 147.4)" style="fill:#262262;font-family:'Tahoma';font-size:14;text-anchor:middle;">DG</text>
		<text id="Count_EF" transform="matrix(1 0 0 1 151 426.2)" style="fill:#262262;font-family:'Tahoma';font-size:10;text-anchor:middle;">EF</text>
		<text id="Count_EG" transform="matrix(1 0 0 1 204.2 191)" style="fill:#262262;font-family:'Tahoma';font-size:14;text-anchor:middle;">EG</text>
		<text id="Count_FG" transform="matrix(1 0 0 1 169.5 237.4)" style="fill:#262262;font-family:'Tahoma';font-size:10;text-anchor:middle;">FG</text>
		<text id="Count_ABC" transform="matrix(1 0 0 1 545.1 382.6)" style="fill:#262262;font-family:'Tahoma';font-size:10;text-anchor:middle;">ABC</text>
		<text id="Count_ABD" transform="matrix(1 0 0 1 383.5 541.6)" style="fill:#262262;font-family:'Tahoma';font-size:10;text-anchor:middle;">ABD</text>
		<text id="Count_ABE" transform="matrix(1 0 0 1 476.3 198.5)" style="fill:#262262;font-family:'Tahoma';font-size:10;text-anchor:middle;">ABE</text>
		<text id="Count_ABF" transform="matrix(1 0 0 1 380.5 160.8)" style="fill:#262262;font-family:'Tahoma';font-size:10;text-anchor:middle;">ABF</text>
		<text id="Count_ABG" transform="matrix(1 0 0 1 499.7 223.5)" style="fill:#262262;font-family:'Tahoma';font-size:10;text-anchor:middle;">ABG</text>
		<text id="Count_ACD" transform="matrix(1 0 0 1 532.3 414.7)" style="fill:#262262;font-family:'Tahoma';font-size:10;text-anchor:middle;">ACD</text>
		<text id="Count_ACE" transform="matrix(1 0 0 1 446.5 180.6)" style="fill:#262262;font-family:'Tahoma';font-size:10;text-anchor:middle;">ACE</text>
		<text id="Count_ACF" transform="matrix(1 0 0 1 172.1 299.7)" style="fill:#262262;font-family:'Tahoma';font-size:10;text-anchor:middle;">ACF</text>
		<text id="Count_ACG" transform="matrix(1 0 0 1 522 447.7)" style="fill:#262262;font-family:'Tahoma';font-size:10;text-anchor:middle;">ACG</text>
		<text id="Count_ADE" transform="matrix(1 0 0 1 312.3 536)" style="fill:#262262;font-family:'Tahoma';font-size:10;text-anchor:middle;">ADE</text>
		<text id="Count_ADF" transform="matrix(1 0 0 1 347 537.2)" style="fill:#262262;font-family:'Tahoma';font-size:10;text-anchor:middle;">ADF</text>
		<text id="Count_ADG" transform="matrix(1 0 0 1 312.7 159.8)" style="fill:#262262;font-family:'Tahoma';font-size:10;text-anchor:middle;">ADG</text>
		<text id="Count_AEF" transform="matrix(1 0 0 1 415.8 163.7)" style="fill:#262262;font-family:'Tahoma';font-size:10;text-anchor:middle;">AEF</text>
		<text id="Count_AEG" transform="matrix(1 0 0 1 223 213.6)" style="fill:#262262;font-family:'Tahoma';font-size:10;text-anchor:middle;">AEG</text>
		<text id="Count_AFG" transform="matrix(1 0 0 1 347.1 155.9)" style="fill:#262262;font-family:'Tahoma';font-size:10;text-anchor:middle;">AFG</text>
		<text id="Count_BCD" transform="matrix(1 0 0 1 446.8 519.9)" style="fill:#262262;font-family:'Tahoma';font-size:10;text-anchor:middle;">BCD</text>
		<text id="Count_BCE" transform="matrix(1 0 0 1 221.6 488.8)" style="fill:#262262;font-family:'Tahoma';font-size:10;text-anchor:middle;">BCE</text>
		<text id="Count_BCF" transform="matrix(1 0 0 1 548.4 349.4)" style="fill:#262262;font-family:'Tahoma';font-size:10;text-anchor:middle;">BCF</text>
		<text id="Count_BCG" transform="matrix(1 0 0 1 516.4 253)" style="fill:#262262;font-family:'Tahoma';font-size:10;text-anchor:middle;">BCG</text>
		<text id="Count_BDE" transform="matrix(1 0 0 1 414.4 528.8)" style="fill:#262262;font-family:'Tahoma';font-size:10;text-anchor:middle;">BDE</text>
		<text id="Count_BDF" transform="matrix(1 0 0 1 542.5 315.9)" style="fill:#262262;font-family:'Tahoma';font-size:10;text-anchor:middle;">BDF</text>
		<text id="Count_BDG" transform="matrix(1 0 0 1 279.3 172.1)" style="fill:#262262;font-family:'Tahoma';font-size:10;text-anchor:middle;">BDG</text>
		<text id="Count_BEF" transform="matrix(1 0 0 1 182 433.6)" style="fill:#262262;font-family:'Tahoma';font-size:10;text-anchor:middle;">BEF</text>
		<text id="Count_BEG" transform="matrix(1 0 0 1 201.7 460.5)" style="fill:#262262;font-family:'Tahoma';font-size:10;text-anchor:middle;">BEG</text>
		<text id="Count_BFG" transform="matrix(1 0 0 1 538.2 281.3)" style="fill:#262262;font-family:'Tahoma';font-size:10;text-anchor:middle;">BFG</text>
		<text id="Count_CDE" transform="matrix(1 0 0 1 279.8 527.4)" style="fill:#262262;font-family:'Tahoma';font-size:10;text-anchor:middle;">CDE</text>
		<text id="Count_CDF" transform="matrix(1 0 0 1 160.9 332.4)" style="fill:#262262;font-family:'Tahoma';font-size:10;text-anchor:middle;">CDF</text>
		<text id="Count_CDG" transform="matrix(1 0 0 1 476.2 499.9)" style="fill:#262262;font-family:'Tahoma';font-size:10;text-anchor:middle;">CDG</text>
		<text id="Count_CEF" transform="matrix(1 0 0 1 251.7 507.8)" style="fill:#262262;font-family:'Tahoma';font-size:10;text-anchor:middle;">CEF</text>
		<text id="Count_CEG" transform="matrix(1 0 0 1 499 473.9)" style="fill:#262262;font-family:'Tahoma';font-size:10;text-anchor:middle;">CEG</text>
		<text id="Count_CFG" transform="matrix(1 0 0 1 183.1 265.9)" style="fill:#262262;font-family:'Tahoma';font-size:10;text-anchor:middle;">CFG</text>
		<text id="Count_DEF" transform="matrix(1 0 0 1 169.4 400.8)" style="fill:#262262;font-family:'Tahoma';font-size:10;text-anchor:middle;">DEF</text>
		<text id="Count_DEG" transform="matrix(1 0 0 1 248 187.9)" style="fill:#262262;font-family:'Tahoma';font-size:10;text-anchor:middle;">DEG</text>
		<text id="Count_DFG" transform="matrix(1 0 0 1 167 365.5)" style="fill:#262262;font-family:'Tahoma';font-size:10;text-anchor:middle;">DFG</text>
		<text id="Count_EFG" transform="matrix(1 0 0 1 199.6 236.3)" style="fill:#262262;font-family:'Tahoma';font-size:10;text-anchor:middle;">EFG</text>
		<text id="Count_ABCD" transform="matrix(1 0 0 1 517.4 393)" style="fill:#262262;font-family:'Tahoma';font-size:10;text-anchor:middle;">ABCD</text>
		<text id="Count_ABCE" transform="matrix(1 0 0 1 448.7 209.1)" style="fill:#262262;font-family:'Tahoma';font-size:10;text-anchor:middle;">ABCE</text>
		<text id="Count_ABCF" transform="matrix(1 0 0 1 528.3 364.4)" style="fill:#262262;font-family:'Tahoma';font-size:10;text-anchor:middle;">ABCF</text>
		<text id="Count_ABCG" transform="matrix(1 0 0 1 489.6 251.6)" style="fill:#262262;font-family:'Tahoma';font-size:10;text-anchor:middle;">ABCG</text>
		<text id="Count_ABDE" transform="matrix(1 0 0 1 394.2 514.5)" style="fill:#262262;font-family:'Tahoma';font-size:10;text-anchor:middle;">ABDE</text>
		<text id="Count_ABDF" transform="matrix(1 0 0 1 364.6 521.3)" style="fill:#262262;font-family:'Tahoma';font-size:10;text-anchor:middle;">ABDF</text>
		<text id="Count_ABDG" transform="matrix(1 0 0 1 303.8 188.9)" style="fill:#262262;font-family:'Tahoma';font-size:10;text-anchor:middle;">ABDG</text>
		<text id="Count_ABEF" transform="matrix(1 0 0 1 393.3 185)" style="fill:#262262;font-family:'Tahoma';font-size:10;text-anchor:middle;">ABEF</text>
		<text id="Count_ABEG" transform="matrix(1 0 0 1 475.1 225.8)" style="fill:#262262;font-family:'Tahoma';font-size:10;text-anchor:middle;">ABEG</text>
		<text id="Count_ABFG" transform="matrix(1 0 0 1 362.3 180.7)" style="fill:#262262;font-family:'Tahoma';font-size:10;text-anchor:middle;">ABFG</text>
		<text id="Count_ACDE" transform="matrix(1 0 0 1 302.4 513.4)" style="fill:#262262;font-family:'Tahoma';font-size:10;text-anchor:middle;">ACDE</text>
		<text id="Count_ACDF" transform="matrix(1 0 0 1 184 319.8)" style="fill:#262262;font-family:'Tahoma';font-size:10;text-anchor:middle;">ACDF</text>
		<text id="Count_ACDG" transform="matrix(1 0 0 1 505.8 420.7)" style="fill:#262262;font-family:'Tahoma';font-size:10;text-anchor:middle;">ACDG</text>
		<text id="Count_ACEF" transform="matrix(1 0 0 1 424.3 188.8)" style="fill:#262262;font-family:'Tahoma';font-size:10;text-anchor:middle;">ACEF</text>
		<text id="Count_ACEG" transform="matrix(1 0 0 1 496.6 450.9)" style="fill:#262262;font-family:'Tahoma';font-size:10;text-anchor:middle;">ACEG</text>
		<text id="Count_ACFG" transform="matrix(1 0 0 1 200.7 291.3)" style="fill:#262262;font-family:'Tahoma';font-size:10;text-anchor:middle;">ACFG</text>
		<text id="Count_ADEF" transform="matrix(1 0 0 1 333.5 512.7)" style="fill:#262262;font-family:'Tahoma';font-size:10;text-anchor:middle;">ADEF</text>
		<text id="Count_ADEG" transform="matrix(1 0 0 1 250.5 219.6)" style="fill:#262262;font-family:'Tahoma';font-size:10;text-anchor:middle;">ADEG</text>
		<text id="Count_ADFG" transform="matrix(1 0 0 1 332.8 178.1)" style="fill:#262262;font-family:'Tahoma';font-size:10;text-anchor:middle;">ADFG</text>
		<text id="Count_AEFG" transform="matrix(1 0 0 1 227.7 239.2)" style="fill:#262262;font-family:'Tahoma';font-size:10;text-anchor:middle;">AEFG</text>
		<text id="Count_BCDE" transform="matrix(1 0 0 1 421.3 503.2)" style="fill:#262262;font-family:'Tahoma';font-size:10;text-anchor:middle;">BCDE</text>
		<text id="Count_BCDF" transform="matrix(1 0 0 1 522.2 334.5)" style="fill:#262262;font-family:'Tahoma';font-size:10;text-anchor:middle;">BCDF</text>
		<text id="Count_BCDG" transform="matrix(1 0 0 1 450.9 493)" style="fill:#262262;font-family:'Tahoma';font-size:10;text-anchor:middle;">BCDG</text>
		<text id="Count_BCEF" transform="matrix(1 0 0 1 250.9 480.6)" style="fill:#262262;font-family:'Tahoma';font-size:10;text-anchor:middle;">BCEF</text>
		<text id="Count_BCEG" transform="matrix(1 0 0 1 224.4 463.4)" style="fill:#262262;font-family:'Tahoma';font-size:10;text-anchor:middle;">BCEG</text>
		<text id="Count_BCFG" transform="matrix(1 0 0 1 506.3 276.6)" style="fill:#262262;font-family:'Tahoma';font-size:10;text-anchor:middle;">BCFG</text>
		<text id="Count_BDEF" transform="matrix(1 0 0 1 194.8 410.2)" style="fill:#262262;font-family:'Tahoma';font-size:10;text-anchor:middle;">BDEF</text>
		<text id="Count_BDEG" transform="matrix(1 0 0 1 272.9 196.4)" style="fill:#262262;font-family:'Tahoma';font-size:10;text-anchor:middle;">BDEG</text>
		<text id="Count_BDFG" transform="matrix(1 0 0 1 524.4 302.7)" style="fill:#262262;font-family:'Tahoma';font-size:10;text-anchor:middle;">BDFG</text>
		<text id="Count_BEFG" transform="matrix(1 0 0 1 210.6 435.9)" style="fill:#262262;font-family:'Tahoma';font-size:10;text-anchor:middle;">BEFG</text>
		<text id="Count_CDEF" transform="matrix(1 0 0 1 276.5 497.8)" style="fill:#262262;font-family:'Tahoma';font-size:10;text-anchor:middle;">CDEF</text>
		<text id="Count_CDEG" transform="matrix(1 0 0 1 472.3 469.7)" style="fill:#262262;font-family:'Tahoma';font-size:10;text-anchor:middle;">CDEG</text>
		<text id="Count_CDFG" transform="matrix(1 0 0 1 185.8 349.2)" style="fill:#262262;font-family:'Tahoma';font-size:10;text-anchor:middle;">CDFG</text>
		<text id="Count_CEFG" transform="matrix(1 0 0 1 208.8 261)" style="fill:#262262;font-family:'Tahoma';font-size:10;text-anchor:middle;">CEFG</text>
		<text id="Count_DEFG" transform="matrix(1 0 0 1 190.6 379.2)" style="fill:#262262;font-family:'Tahoma';font-size:10;text-anchor:middle;">DEFG</text>
		<text id="Count_ABCDE" transform="matrix(1 0 0 1 400.5 485.1)" style="fill:#262262;font-family:'Tahoma';font-size:10;text-anchor:middle;">ABCDE</text>
		<text id="Count_ABCDF" transform="matrix(1 0 0 1 502.2 361.7)" style="fill:#262262;font-family:'Tahoma';font-size:10;text-anchor:middle;">ABCDF</text>
		<text id="Count_ABCDG" transform="matrix(1 0 0 1 489.4 398.4)" style="fill:#262262;font-family:'Tahoma';font-size:10;text-anchor:middle;">ABCDG</text>
		<text id="Count_ABCEF" transform="matrix(1 0 0 1 414.4 214.7)" style="fill:#262262;font-family:'Tahoma';font-size:10;text-anchor:middle;">ABCEF</text>
		<text id="Count_ABCEG" transform="matrix(1 0 0 1 455.5 244.7)" style="fill:#262262;font-family:'Tahoma';font-size:10;text-anchor:middle;">ABCEG</text>
		<text id="Count_ABCFG" transform="matrix(1 0 0 1 476.8 276.7)" style="fill:#262262;font-family:'Tahoma';font-size:10;text-anchor:middle;">ABCFG</text>
		<text id="Count_ABDEF" transform="matrix(1 0 0 1 363.7 494.6)" style="fill:#262262;font-family:'Tahoma';font-size:10;text-anchor:middle;">ABDEF</text>
		<text id="Count_ABDEG" transform="matrix(1 0 0 1 287.7 220.4)" style="fill:#262262;font-family:'Tahoma';font-size:10;text-anchor:middle;">ABDEG</text>
		<text id="Count_ABDFG" transform="matrix(1 0 0 1 335.7 204.2)" style="fill:#262262;font-family:'Tahoma';font-size:10;text-anchor:middle;">ABDFG</text>
		<text id="Count_ABEFG" transform="matrix(1 0 0 1 374.9 207.5)" style="fill:#262262;font-family:'Tahoma';font-size:10;text-anchor:middle;">ABEFG</text>
		<text id="Count_ACDEF" transform="matrix(1 0 0 1 311.5 487.1)" style="fill:#262262;font-family:'Tahoma';font-size:10;text-anchor:middle;">ACDEF</text>
		<text id="Count_ACDEG" transform="matrix(1 0 0 1 473.9 434.6)" style="fill:#262262;font-family:'Tahoma';font-size:10;text-anchor:middle;">ACDEG</text>
		<text id="Count_ACDFG" transform="matrix(1 0 0 1 212.1 323.2)" style="fill:#262262;font-family:'Tahoma';font-size:10;text-anchor:middle;">ACDFG</text>
		<text id="Count_ACEFG" transform="matrix(1 0 0 1 231.5 274.8)" style="fill:#262262;font-family:'Tahoma';font-size:10;text-anchor:middle;">ACEFG</text>
		<text id="Count_ADEFG" transform="matrix(1 0 0 1 256.5 245.8)" style="fill:#262262;font-family:'Tahoma';font-size:10;text-anchor:middle;">ADEFG</text>
		<text id="Count_BCDEF" transform="matrix(1 0 0 1 276.8 468.7)" style="fill:#262262;font-family:'Tahoma';font-size:10;text-anchor:middle;">BCDEF</text>
		<text id="Count_BCDEG" transform="matrix(1 0 0 1 436.8 469.6)" style="fill:#262262;font-family:'Tahoma';font-size:10;text-anchor:middle;">BCDEG</text>
		<text id="Count_BCDFG" transform="matrix(1 0 0 1 497.3 310)" style="fill:#262262;font-family:'Tahoma';font-size:10;text-anchor:middle;">BCDFG</text>
		<text id="Count_BCEFG" transform="matrix(1 0 0 1 243.8 445.6)" style="fill:#262262;font-family:'Tahoma';font-size:10;text-anchor:middle;">BCEFG</text>
		<text id="Count_BDEFG" transform="matrix(1 0 0 1 219.4 401.2)" style="fill:#262262;font-family:'Tahoma';font-size:10;text-anchor:middle;">BDEFG</text>
		<text id="Count_CDEFG" transform="matrix(1 0 0 1 211.7 362.2)" style="fill:#262262;font-family:'Tahoma';font-size:10;text-anchor:middle;">CDEFG</text>
		<text id="Count_ABCDEF" transform="matrix(1 0 0 1 342.1 460.4)" style="fill:#262262;font-family:'Tahoma';font-size:12;text-anchor:middle;">ABCDEF</text>
		<text id="Count_ABCDEG" transform="matrix(1 0 0 1 433 431.3)" style="fill:#262262;font-family:'Tahoma';font-size:12;text-anchor:middle;">ABCDEG</text>
		<text id="Count_ABCDFG" transform="matrix(1 0 0 1 468.6 340.7)" style="fill:#262262;font-family:'Tahoma';font-size:12;text-anchor:middle;">ABCDFG</text>
		<text id="Count_ABCEFG" transform="matrix(1 0 0 1 415.6 256.9)" style="fill:#262262;font-family:'Tahoma';font-size:12;text-anchor:middle;">ABCEFG</text>
		<text id="Count_ABDEFG" transform="matrix(1 0 0 1 321.7 243.4)" style="fill:#262262;font-family:'Tahoma';font-size:12;text-anchor:middle;">ABDEFG</text>
		<text id="Count_ACDEFG" transform="matrix(1 0 0 1 251.3 311.9)" style="fill:#262262;font-family:'Tahoma';font-size:12;text-anchor:middle;">ACDEFG</text>
		<text id="Count_BCDEFG" transform="matrix(1 0 0 1 259.5 409.5)" style="fill:#262262;font-family:'Tahoma';font-size:12;text-anchor:middle;">BCDEFG</text>
		<text id="Count_ABCDEFG" transform="matrix(1 0 0 1 356 356.6)" style="fill:#FFFFFF;font-family:'Tahoma';font-size:28;text-anchor:middle;">ABCDEFG</text>
	</g>
	<g id="Group_CountSums">
		<text id="CountSUM_A" transform="matrix(1 0 0 1 544.4 60.7)" style="fill:#262262;font-family:'Tahoma';font-size:18;text-anchor:middle;">CountSUM_A</text>
		<text id="CountSUM_B" transform="matrix(1 0 0 1 645.8 175.5)" style="fill:#262262;font-family:'Tahoma';font-size:18;text-anchor:middle;">CountSUM_B</text>
		<text id="CountSUM_C" transform="matrix(1 0 0 1 636.2 579.8)" style="fill:#262262;font-family:'Tahoma';font-size:18;text-anchor:middle;">CountSUM_C</text>
		<text id="CountSUM_D" transform="matrix(1 0 0 1 471.1 681.8)" style="fill:#262262;font-family:'Tahoma';font-size:18;text-anchor:middle;">CountSUM_D</text>
		<text id="CountSUM_E" transform="matrix(1 0 0 1 100.5 620.8)" style="fill:#262262;font-family:'Tahoma';font-size:18;text-anchor:middle;">CountSUM_E</text>
		<text id="CountSUM_F" transform="matrix(1 0 0 1 64.2 229.7)" style="fill:#262262;font-family:'Tahoma';font-size:18;text-anchor:middle;">CountSUM_F</text>
		<text id="CountSUM_G" transform="matrix(1 0 0 1 126.9 82.2)" style="fill:#262262;font-family:'Tahoma';font-size:18;text-anchor:middle;">CountSUM_G</text>
	</g>
</g>
<g id="Group_Bullets" style="display:none;">
	<circle id="BulletA" style="opacity:0.2;fill:#FFF200;stroke:#010101;stroke-width:2;" cx="59.2" cy="28.8" r="6.9"/>
	<circle id="BulletB" style="opacity:0.2;fill:#2E3192;stroke:#010101;stroke-width:2;" cx="59.2" cy="47.5" r="6.9"/>
	<circle id="BulletC" style="opacity:0.2;fill:#ED1C24;stroke:#010101;stroke-width:2;" cx="59.2" cy="66.2" r="6.9"/>
	<circle id="BulletD" style="opacity:0.2;fill:#808285;stroke:#010101;stroke-width:2;" cx="59.2" cy="84.9" r="6.9"/>
	<circle id="BulletE" style="opacity:0.2;fill:#3C2415;stroke:#010101;stroke-width:2;" cx="59.2" cy="103.6" r="6.9"/>
	<circle id="BulletF" style="opacity:0.2;fill:#9E1F63;stroke:#010101;stroke-width:2;" cx="59.2" cy="122.3" r="6.9"/>
	<circle id="BulletG" style="opacity:0.2;fill:#CA4B9B;stroke:#010101;stroke-width:2;" cx="59.2" cy="141" r="6.9"/>
</g>
</svg>
