<?xml version="1.0" encoding="utf-8"?>
<!-- Created by Zoltan Dul in 2026 - free to use with MIT license. Part of React Venn Diagram Lab Module - https://github.com/ZoliQua/React-Venn-Diagram-Lab - SVG Version: 3.0.0 -->
<svg xmlns="http://www.w3.org/2000/svg"
	 id="Layer_1"
	 version="1.1" viewBox="0 0 700 700">
<g id="Shapes">
	<polygon id="ShapeD" style="fill: #808285; opacity: .2; stroke: #000; stroke-linecap: round; stroke-linejoin: round; stroke-width: 3px;" points="465.5 636.8 210.2 319.6 465.5 208.4 465.5 636.8" transform="translate(5.6,-8.2) translate(-25.8,49.3) translate(-7.6,-6) translate(10.6,-10.3) rotate(7.3,210.6,401.2) translate(-93,10.7) translate(0,0) translate(-37.4,-24.4) translate(-0.1,0) rotate(-4.7,341.1,414.9) rotate(45.6,341.1,414.9) translate(-2.8,-4.4) translate(0,0) translate(6.1,-3.3)"/>
	<polygon id="ShapeC" style="fill: #ed1c24; opacity: .2; stroke: #000; stroke-linecap: round; stroke-linejoin: round; stroke-width: 3px;" points="647.9 418.9 208.7 367.1 319.9 188.1 647.9 418.9" transform="translate(12.3,-0.7) translate(0,0) translate(-7.3,49.2) translate(0,0) translate(0,2.6) rotate(-0.9,404.1,328.7) rotate(1.3,404.1,328.7) translate(1.2,9.9) translate(0,0) translate(0.5,12.1) translate(0,0.1) translate(-6.2,-11.8) rotate(-0.9,408.6,318.4) translate(0,0.1) translate(-20.6,16.7) translate(0,0) translate(-0.3,-0.7) translate(0.6,1.2) translate(0,0) translate(-1.6,-4) translate(0,0) translate(3.6,-0.5) translate(0.1,0.1) translate(0,0) translate(-1.6,1.9) translate(0.1,0.1) translate(0,0)"/>
	<polygon id="ShapeB" style="fill: #2e3192; opacity: .2; stroke: #000; stroke-linecap: round; stroke-linejoin: round; stroke-width: 3px;" points="244.1 560.9 283.1 229.4 676.3 161.9 244.1 560.9" transform="translate(-2.2,-1.3) translate(-22.3,46.6) translate(0,0) translate(-5.2,-33.6) translate(0,0) translate(-24.3,-4.3) translate(-0.3,0.1) rotate(0.6,451.8,364.1) translate(0.1,0) translate(-0.1,-3) translate(0,0) rotate(0.7,451.8,367.1) translate(-8.4,5.7) rotate(2.6,460.2,361.4)"/>
	<polygon id="ShapeA" style="fill: #fff200; opacity: .2; stroke: #000; stroke-linecap: round; stroke-linejoin: round; stroke-width: 3px;" points="452.3 503.8 145.8 241.8 444.3 72.5 452.3 503.8" transform="translate(-11.6,48.7) translate(0,0) translate(-0.1,0) rotate(-4.9,213.5,334.5) rotate(-5.1,213.5,334.5) translate(10.1,9.9) rotate(-18,203.4,324.7) translate(0,0) translate(0,0) translate(0,0) translate(2.3,0) rotate(-6.3,201.2,324.7) translate(-91.5,53.2) translate(0,0) translate(-3,-17.1) translate(0,-0.1) translate(0.1,0) translate(0,0) translate(-3.5,0.5) translate(0,0) translate(0,0)"/>
</g>
<g id="Texts">
	<g id="Header">
		<text id="Title" transform="matrix(1 0 0 1 397.9 66)" style="fill:#262262;stroke:#000000;stroke-width:0.5;stroke-miterlimit:10; font-family:'Tahoma'; font-size:14;">Carroll Venn 4-set diagram</text>
	</g>
	<g id="Group_Names">
		<text id="NameA" transform="matrix(1 0 0 1 386 96)" style="fill:#262262;stroke:#000000;stroke-width:0.5;stroke-miterlimit:10; font-family:'Tahoma'; font-size:14;">NameA</text>
		<text id="NameB" transform="matrix(1 0 0 1 385.9 117.9)" style="fill:#262262;stroke:#000000;stroke-width:0.5;stroke-miterlimit:10; font-family:'Tahoma'; font-size:14;">NameB</text>
		<text id="NameC" transform="matrix(1 0 0 1 385.8 140)" style="fill:#262262;stroke:#000000;stroke-width:0.5;stroke-miterlimit:10; font-family:'Tahoma'; font-size:14;">NameC</text>
		<text id="NameD" transform="matrix(1 0 0 1 386 162)" style="fill:#262262;stroke:#000000;stroke-width:0.5;stroke-miterlimit:10; font-family:'Tahoma'; font-size:14;">NameD</text>
	</g>
	<g id="Group_Values">
		<text id="Count_A" transform="matrix(1 0 0 1 197.5 221.6)" style="fill:#262262;stroke:#000000;stroke-width:0.5;stroke-miterlimit:10;font-family:'Tahoma';font-size:36;text-anchor:middle">A</text>
		<text id="Count_B" transform="matrix(1 0 0 1 446.1 268.4)" style="fill:#262262;stroke:#000000;stroke-width:0.5;stroke-miterlimit:10;font-family:'Tahoma';font-size:36;text-anchor:middle">B</text>
		<text id="Count_C" transform="matrix(1 0 0 1 479.3 451.5)" style="fill:#262262;stroke:#000000;stroke-width:0.5;stroke-miterlimit:10;font-family:'Tahoma';font-size:32;text-anchor:middle">C</text>
		<text id="Count_D" transform="matrix(1 0 0 1 164.4 594.9)" style="fill:#262262;stroke:#000000;stroke-width:0.5;stroke-miterlimit:10;font-family:'Tahoma';font-size:30;text-anchor:middle">D</text>
		<text id="Count_AB" transform="matrix(1 0 0 1 251.6 266.5)" style="text-anchor:middle;fill:#262262;stroke:#000000;stroke-width:0.5;stroke-miterlimit:10;font-family:'Tahoma';font-size:16">AB</text>
		<text id="Count_AC" transform="matrix(1 0 0 1 395.6 450.7)" style="text-anchor:middle;fill:#262262;stroke:#000000;stroke-width:0.5;stroke-miterlimit:10;font-family:'Tahoma';font-size:16">AC</text>
		<text id="Count_AD" transform="matrix(1 0 0 1 187 363.4)" style="text-anchor:middle;fill:#262262;stroke:#000000;stroke-width:0.5;stroke-miterlimit:10;font-family:'Tahoma';font-size:16">AD</text>
		<text id="Count_BC" transform="matrix(1 0 0 1 365.9 333.9)" style="text-anchor:middle;fill:#262262;stroke:#000000;stroke-width:0.5;stroke-miterlimit:10;font-family:'Tahoma';font-size:14">BC</text>
		<text id="Count_BD" transform="matrix(1 0 0 1 217.9 488.4)" style="text-anchor:middle;fill:#262262;stroke:#000000;stroke-width:0.5;stroke-miterlimit:10;font-family:'Tahoma';font-size:20">BD</text>
		<text id="Count_CD" transform="matrix(1 0 0 1 407.6 389.8)" style="text-anchor:middle;fill:#262262;stroke:#000000;stroke-width:0.5;stroke-miterlimit:10;font-family:'Tahoma';font-size:16">CD</text>
		<text id="Count_ABC" transform="matrix(1 0 0 1 302.8 305.1)" style="text-anchor:middle;fill:#262262;stroke:#000000;stroke-width:0.5;stroke-miterlimit:10;font-family:'Tahoma';font-size:16">ABC</text>
		<text id="Count_ABD" transform="matrix(1 0 0 1 234.8 325.9)" style="text-anchor:middle;fill:#262262;stroke:#000000;stroke-width:0.5;stroke-miterlimit:10;font-family:'Tahoma';font-size:16">ABD</text>
		<text id="Count_ACD" transform="matrix(1 0 0 1 353.4 435.4)" style="text-anchor:middle;fill:#262262;stroke:#000000;stroke-width:0.5;stroke-miterlimit:10;font-family:'Tahoma';font-size:12">ACD</text>
		<text id="Count_BCD" transform="matrix(1 0 0 1 385.7 370.9)" style="text-anchor:middle;fill:#262262;stroke:#000000;stroke-width:0.5;stroke-miterlimit:10;font-family:'Tahoma';font-size:13">BCD</text>
		<text id="Count_ABCD" transform="matrix(1 0 0 1 297.5 386)" style="text-anchor:middle;fill:#FFFFFF;stroke:#000000;stroke-width:0.5;stroke-miterlimit:10;font-family:'Tahoma';font-size:28">ABCD</text>
	</g>
	<g id="Group_CountSums">
		<text id="CountSUM_A" transform="matrix(1 0 0 1 570 95.9)" style="fill:#262262;font-family:'Tahoma';font-size:14;text-anchor:middle">CountSUM_A</text>
		<text id="CountSUM_B" transform="matrix(1 0 0 1 570 118)" style="fill:#262262;font-family:'Tahoma';font-size:14;text-anchor:middle">CountSUM_B</text>
		<text id="CountSUM_C" transform="matrix(1 0 0 1 570 140)" style="fill:#262262;font-family:'Tahoma';font-size:14;text-anchor:middle">CountSUM_C</text>
		<text id="CountSUM_D" transform="matrix(1 0 0 1 570 162)" style="fill:#262262;font-family:'Tahoma';font-size:14;text-anchor:middle">CountSUM_D</text>
	</g>
</g>
<g id="Group_Bullets">
	<circle id="BulletA" style="opacity:0.2;fill:#FFF200;stroke:#010101;stroke-width:2;" cx="372" cy="90" r="6.9"/>
	<circle id="BulletB" style="opacity:0.2;fill:#2E3192;stroke:#010101;stroke-width:2;" cx="372.1" cy="112" r="6.9"/>
	<circle id="BulletC" style="opacity:0.2;fill:#ED1C24;stroke:#010101;stroke-width:2;" cx="372" cy="134" r="6.9"/>
	<circle id="BulletD" style="opacity:0.2;fill:#808285;stroke:#010101;stroke-width:2;" cx="372" cy="156" r="6.9"/>
</g>
</svg>
