<?xml version="1.0" encoding="utf-8"?>
<!-- Created by Zoltan Dul in 2026 - free to use with MIT license. Part of React Venn Diagram Lab Module - https://github.com/ZoliQua/React-Venn-Diagram-Lab - SVG Version: 3.0.0 -->
<svg xmlns="http://www.w3.org/2000/svg"
	 xmlns:xlink="http://www.w3.org/1999/xlink"
	 version="1.1"
	 x="0px"
	 y="0px"
	 style="enable-background:new 0 0 700 700;"
	 xml:space="preserve" viewBox="0 0 700 700">
<g id="Shapes">
	<path id="ShapeA" style="fill: #fff200; isolation: isolate; opacity: .2; stroke: #000; stroke-miterlimit: 10; stroke-width: 3px;" d="M628.1,340.5l-272.6,272.6c-3.9,3.9-10.1,3.9-13.9,0l-103.3-103.3c-3.9-3.9-3.9-10.1,0-13.9L510.9,223.3c3.9-3.9,10.1-3.9,13.9,0l103.2,103.2c3.9,3.9,3.9,10.2,0,14Z" transform="translate(2.2,50.3) translate(0,-0.1)"/>
	<path id="ShapeB" style="fill: #2e3192; isolation: isolate; opacity: .2; stroke: #000; stroke-miterlimit: 10; stroke-width: 3px;" d="M187.1,222.4l272.5,272.6c3.9,3.9,3.9,10.1,0,13.9l-103.2,103.2c-3.9,3.9-10.1,3.9-13.9,0L69.9,339.6c-3.9-3.9-3.9-10.1,0-13.9l103.2-103.3c3.9-3.8,10.1-3.8,14,0Z" transform="translate(0,0) translate(0.5,51.8) translate(0,0.1)"/>
	<path id="ShapeC" style="fill: #ed1c24; isolation: isolate; opacity: .2; stroke: #000; stroke-miterlimit: 10; stroke-width: 3px;" d="M572.8,285.5l-272.5,272.6c-3.9,3.9-10.1,3.9-13.9,0l-103.3-103.3c-3.9-3.9-3.9-10.1,0-13.9L455.7,168.3c3.9-3.9,10.1-3.9,13.9,0l103.2,103.2c3.9,3.9,3.9,10.1,0,14Z" transform="translate(-9.1,-8.4) translate(7,55.6)"/>
	<path id="ShapeD" style="fill: #808285; isolation: isolate; opacity: .2; stroke: #000; stroke-miterlimit: 10; stroke-width: 3px;" d="M247.5,163.2l272.5,272.5c3.9,3.9,3.9,10.1,0,13.9l-103.2,103.3c-3.9,3.9-10.1,3.9-13.9,0L130.3,280.3c-3.9-3.9-3.9-10.1,0-13.9l103.2-103.2c3.9-3.9,10.1-3.9,14,0Z" transform="translate(0,-1.1) translate(1.9,-2.9) translate(-0.1,0) translate(0,0) translate(-3.9,56.5)"/>
</g>
<g id="Texts">
	<g id="Header">
		<text id="Title" transform="matrix(1 0 0 1 288.2 71.4)" style="fill:#262262;stroke:#000000;stroke-width:0.5;stroke-miterlimit:10;font-family:'Tahoma';font-size:14;">Venn 4-set diagram</text>
	</g>
	<g id="Group_Names">
		<text id="NameA" transform="matrix(1 0 0 1 34 255)" style="fill:#262262;stroke:#000000;stroke-width:0.5;stroke-miterlimit:10;font-family:'Tahoma';font-size:24;">NameA</text>
		<text id="NameB" transform="matrix(1 0 0 1 561.2 247.4)" style="fill:#262262;stroke:#000000;stroke-width:0.5;stroke-miterlimit:10;font-family:'Tahoma';font-size:24;">NameB</text>
		<text id="NameC" transform="matrix(1 0 0 1 205.7 161.2)" style="fill:#262262;stroke:#000000;stroke-width:0.5;stroke-miterlimit:10;font-family:'Tahoma';font-size:24;">NameC</text>
		<text id="NameD" transform="matrix(1 0 0 1 419 162.7)" style="fill:#262262;stroke:#000000;stroke-width:0.5;stroke-miterlimit:10;font-family:'Tahoma';font-size:24;">NameD</text>
	</g>
	<g id="Group_Values">
		<text id="Count_A" transform="matrix(1 0 0 1 552.3 429.5)" style="fill:#262262;stroke:#000000;stroke-width:0.5;stroke-miterlimit:10;font-family:'Tahoma';font-size:48;text-anchor:middle;">A</text>
		<text id="Count_B" transform="matrix(1 0 0 1 143.5 429.8)" style="fill:#262262;stroke:#000000;stroke-width:0.5;stroke-miterlimit:10;font-family:'Tahoma';font-size:48;text-anchor:middle;">B</text>
		<text id="Count_C" transform="matrix(1 0 0 1 437.3 308.8)" style="fill:#262262;stroke:#000000;stroke-width:0.5;stroke-miterlimit:10;font-family:'Tahoma';font-size:48;text-anchor:middle;">C</text>
		<text id="Count_D" transform="matrix(1 0 0 1 266 310.7)" style="fill:#262262;stroke:#000000;stroke-width:0.5;stroke-miterlimit:10;font-family:'Tahoma';font-size:48;text-anchor:middle;">D</text>
		<text id="Count_AB" transform="matrix(1 0 0 1 354.3 630.5)" style="fill:#262262;stroke:#000000;stroke-width:0.5;stroke-miterlimit:10;font-family:'Tahoma';font-size:40;text-anchor:middle">AB</text>
		<text id="Count_AC" transform="matrix(1 0 0 1 497.1 366.2)" style="fill:#262262;stroke:#000000;stroke-width:0.5;stroke-miterlimit:10;font-family:'Tahoma';font-size:40;text-anchor:middle">AC</text>
		<text id="Count_AD" transform="matrix(1 0 0 1 469.1 506.3)" style="fill:#262262;stroke:#000000;stroke-width:0.5;stroke-miterlimit:10;font-family:'Tahoma';font-size:40;text-anchor:middle">AD</text>
		<text id="Count_BC" transform="matrix(1 0 0 1 234.7 510.5)" style="fill:#262262;stroke:#000000;stroke-width:0.5;stroke-miterlimit:10;font-family:'Tahoma';font-size:40;text-anchor:middle">BC</text>
		<text id="Count_BD" transform="matrix(1 0 0 1 209.3 368.9)" style="fill:#262262;stroke:#000000;stroke-width:0.5;stroke-miterlimit:10;font-family:'Tahoma';font-size:40;text-anchor:middle">BD</text>
		<text id="Count_CD" transform="matrix(1 0 0 1 352.3 393)" style="fill:#262262;stroke:#000000;stroke-width:0.5;stroke-miterlimit:10;font-family:'Tahoma';font-size:40;text-anchor:middle">CD</text>
		<text id="Count_ABC" transform="matrix(1 0 0 1 291 560.1)" style="fill:#262262;stroke:#000000;stroke-width:0.5;stroke-miterlimit:10;font-family:'Tahoma';font-size:26;text-anchor:middle">ABC</text>
		<text id="Count_ABD" transform="matrix(1 0 0 1 410.3 559.3)" style="fill:#262262;stroke:#000000;stroke-width:0.5;stroke-miterlimit:10;font-family:'Tahoma';font-size:26;text-anchor:middle">ABD</text>
		<text id="Count_ACD" transform="matrix(1 0 0 1 409.2 443.4)" style="fill:#262262;stroke:#000000;stroke-width:0.5;stroke-miterlimit:10;font-family:'Tahoma';font-size:26;text-anchor:middle">ACD</text>
		<text id="Count_BCD" transform="matrix(1 0 0 1 293.2 443.8)" style="fill:#262262;stroke:#000000;stroke-width:0.5;stroke-miterlimit:10;font-family:'Tahoma';font-size:26;text-anchor:middle">BCD</text>
		<text id="Count_ABCD" transform="matrix(1 0 0 1 353.8 505.8)" style="fill:#FFFFFF;stroke:#000000;stroke-width:0.5;stroke-miterlimit:10;font-family:'Tahoma';font-size:34;text-anchor:middle">ABCD</text>
	</g>
	<g id="Group_CountSums">
		<text id="CountSUM_A" transform="matrix(1 0 0 1 75.4 279.2)" style="fill:#262262;font-family:'Tahoma';font-size:18;text-anchor:middle;">CountSUM_A</text>
		<text id="CountSUM_B" transform="matrix(1 0 0 1 601.2 269.9)" style="fill:#262262;font-family:'Tahoma';font-size:18;text-anchor:middle;">CountSUM_B</text>
		<text id="CountSUM_C" transform="matrix(1 0 0 1 243.1 183.2)" style="fill:#262262;font-family:'Tahoma';font-size:18;text-anchor:middle;">CountSUM_C</text>
		<text id="CountSUM_D" transform="matrix(1 0 0 1 461 187.1)" style="fill:#262262;font-family:'Tahoma';font-size:18;text-anchor:middle;">CountSUM_D</text>
	</g>
</g>
<g id="Group_Bullets" style="display:none;">
	<circle id="BulletA" style="opacity:0.2;fill:#FFF200;stroke:#010101;stroke-width:2;" cx="59.2" cy="120.5" r="6.9"/>
	<circle id="BulletB" style="opacity:0.2;fill:#2E3192;stroke:#010101;stroke-width:2;" cx="59.2" cy="139.2" r="6.9"/>
	<circle id="BulletC" style="opacity:0.2;fill:#ED1C24;stroke:#010101;stroke-width:2;" cx="59.2" cy="157.9" r="6.9"/>
	<circle id="BulletD" style="opacity:0.2;fill:#808285;stroke:#010101;stroke-width:2;" cx="59.2" cy="176.6" r="6.9"/>
</g>
</svg>
