<?xml version="1.0" encoding="utf-8"?>
<!-- Created by Zoltan Dul in 2026 - free to use with MIT license. Part of React Venn Diagram Lab Module - https://github.com/ZoliQua/React-Venn-Diagram-Lab - SVG Version: 3.0.0 -->
<svg xmlns="http://www.w3.org/2000/svg"
	 xmlns:xlink="http://www.w3.org/1999/xlink"
	 version="1.1"
	 x="0px"
	 y="0px"
	 style="enable-background:new 0 0 930 850;"
	 xml:space="preserve" viewBox="0 0 930 850">
<g id="Shapes">
	<path id="ShapeA" style="opacity:0.2;fill:#FFF200;stroke:#000000;stroke-width:2;stroke-miterlimit:10;" d="M 677.7 150.2 L 664.6 133.5 L 649.9 119.5 L 633.8 108.1 L 616.5 99.2 L 598.2 92.8 L 579.3 88.8 L 560.0 87.3 L 540.4 88.2 L 520.8 91.4 L 501.5 96.9 L 482.7 104.6 L 464.6 114.6 L 461.0 116.9 L 457.5 119.3 L 454.0 121.8 L 450.6 124.4 L 447.2 127.0 L 443.9 129.7 L 440.7 132.5 L 437.5 135.3 L 434.3 138.2 L 431.2 141.2 L 428.1 144.2 L 425.1 147.2 L 421.5 150.7 L 418.1 154.4 L 414.8 158.3 L 411.6 162.2 L 408.4 166.3 L 405.3 170.3 L 402.2 174.3 L 399.1 178.3 L 395.9 182.2 L 392.5 186.0 L 389.0 189.5 L 385.4 192.9 L 379.0 196.5 L 372.3 198.3 L 365.4 198.8 L 358.4 198.3 L 351.3 197.0 L 344.1 195.4 L 336.8 193.7 L 329.6 192.2 L 322.5 191.3 L 315.4 191.3 L 308.5 192.5 L 301.8 195.2 L 295.2 200.3 L 290.6 206.6 L 287.4 213.8 L 285.4 221.6 L 284.1 229.8 L 283.1 238.2 L 282.0 246.6 L 280.5 254.6 L 278.0 262.1 L 274.3 268.8 L 268.9 274.5 L 261.4 278.9 L 256.4 281.1 L 251.0 283.1 L 245.4 284.9 L 239.6 286.7 L 233.9 288.6 L 228.3 290.6 L 223.0 293.0 L 218.2 295.8 L 213.8 299.2 L 210.1 303.3 L 207.3 308.1 L 205.3 313.9 L 206.6 328.0 L 210.7 341.9 L 217.0 355.4 L 225.3 368.6 L 235.0 381.4 L 245.9 394.0 L 257.5 406.1 L 269.3 417.9 L 281.1 429.4 L 292.4 440.5 L 302.7 451.2 L 311.8 461.5 L 315.5 466.9 L 318.6 472.5 L 320.9 478.4 L 322.7 484.4 L 324.1 490.5 L 325.0 496.8 L 325.5 503.1 L 325.8 509.5 L 325.9 515.9 L 325.9 522.4 L 325.9 528.8 L 325.9 535.1 L 326.1 542.4 L 326.3 549.7 L 326.6 556.9 L 327.1 564.2 L 327.7 571.5 L 328.4 578.7 L 329.3 585.9 L 330.4 593.1 L 331.7 600.2 L 333.1 607.3 L 334.9 614.4 L 336.8 621.4 L 347.6 652.8 L 360.3 677.2 L 374.6 695.0 L 390.2 706.6 L 406.9 712.5 L 424.4 712.9 L 442.4 708.3 L 460.6 699.1 L 478.7 685.6 L 496.4 668.3 L 513.5 647.6 L 529.6 623.9 L 533.5 617.8 L 537.7 612.6 L 542.3 608.1 L 547.2 604.3 L 552.4 601.2 L 557.9 598.8 L 563.6 597.0 L 569.7 595.8 L 576.0 595.1 L 582.5 595.0 L 589.2 595.4 L 596.1 596.2 L 602.0 596.8 L 607.9 597.2 L 613.8 597.7 L 619.7 598.0 L 625.7 598.3 L 631.7 598.4 L 637.7 598.4 L 643.6 598.3 L 649.6 598.0 L 655.5 597.6 L 661.5 597.0 L 667.4 596.2 L 691.5 591.4 L 710.4 583.8 L 724.5 573.9 L 734.2 561.8 L 739.8 548.1 L 741.7 533.1 L 740.3 517.0 L 735.9 500.3 L 729.0 483.2 L 719.8 466.2 L 708.7 449.6 L 696.1 433.7 L 687.9 423.9 L 681.3 415.0 L 676.3 406.8 L 672.7 399.1 L 670.6 391.7 L 669.7 384.4 L 670.1 377.0 L 671.5 369.2 L 674.0 360.9 L 677.4 351.9 L 681.6 341.9 L 686.5 330.8 L 692.1 316.3 L 696.7 301.3 L 700.5 285.9 L 703.2 270.4 L 704.7 254.6 L 705.1 238.9 L 704.2 223.3 L 702.0 207.8 L 698.3 192.7 L 693.1 178.0 L 686.3 163.9 L 677.9 150.4 L 677.9 150.4 L 677.7 150.2 Z"/>
	<path id="ShapeB" style="opacity:0.2;fill:#2E3192;stroke:#000000;stroke-width:2;stroke-miterlimit:10;" d="M 809.4 416.3 L 812.8 404.5 L 815.3 392.6 L 816.9 380.7 L 817.4 368.8 L 817.0 357.0 L 815.5 345.4 L 813.1 334.0 L 809.6 322.8 L 805.0 311.9 L 799.4 301.4 L 792.7 291.2 L 784.9 281.5 L 778.7 275.0 L 772.1 268.7 L 765.3 262.7 L 758.1 257.1 L 750.7 251.8 L 743.1 246.8 L 735.2 242.3 L 727.1 238.1 L 718.8 234.3 L 710.4 231.0 L 701.8 228.2 L 693.1 225.8 L 687.4 224.5 L 681.7 223.4 L 675.9 222.4 L 670.1 221.6 L 664.4 220.9 L 658.6 220.4 L 652.8 220.0 L 647.0 219.7 L 641.1 219.5 L 635.3 219.4 L 629.4 219.5 L 623.6 219.6 L 621.2 219.7 L 618.8 219.7 L 616.4 219.8 L 613.9 219.8 L 611.5 219.9 L 609.1 219.9 L 606.7 219.8 L 604.3 219.7 L 601.9 219.5 L 599.6 219.2 L 597.3 218.9 L 595.1 218.4 L 588.9 216.3 L 583.7 213.1 L 579.3 209.2 L 575.5 204.5 L 572.1 199.3 L 569.1 193.8 L 566.3 188.0 L 563.5 182.3 L 560.6 176.6 L 557.4 171.2 L 553.8 166.3 L 549.5 161.9 L 542.9 157.6 L 536.3 155.4 L 529.7 154.9 L 523.1 155.9 L 516.6 158.2 L 510.1 161.3 L 503.7 165.0 L 497.3 169.1 L 490.9 173.1 L 484.6 176.9 L 478.3 180.1 L 472.0 182.4 L 469.3 183.0 L 466.7 183.3 L 464.0 183.3 L 461.4 183.0 L 458.9 182.5 L 456.3 181.9 L 453.8 181.0 L 451.3 180.0 L 448.9 178.8 L 446.5 177.6 L 444.2 176.2 L 441.9 174.8 L 436.6 171.4 L 431.1 167.8 L 425.5 164.4 L 419.8 161.2 L 414.0 158.5 L 408.2 156.5 L 402.4 155.2 L 396.7 155.0 L 391.0 155.9 L 385.5 158.2 L 380.2 162.0 L 375.1 167.6 L 372.4 171.6 L 369.9 175.7 L 367.6 180.0 L 365.4 184.3 L 363.4 188.8 L 361.6 193.3 L 359.8 197.8 L 358.2 202.4 L 356.6 207.1 L 355.2 211.7 L 353.8 216.3 L 352.4 220.9 L 350.6 228.0 L 348.9 235.1 L 347.3 242.3 L 345.9 249.5 L 344.6 256.7 L 343.4 263.9 L 342.3 271.1 L 341.3 278.4 L 340.3 285.6 L 339.5 292.9 L 338.7 300.1 L 337.9 307.4 L 337.3 313.1 L 336.5 318.7 L 335.4 324.2 L 334.0 329.6 L 332.3 334.9 L 330.3 340.1 L 328.0 345.1 L 325.3 349.9 L 322.2 354.5 L 318.7 358.8 L 314.8 363.0 L 310.5 366.9 L 303.5 372.8 L 296.4 378.6 L 289.3 384.4 L 282.1 390.2 L 275.0 396.0 L 267.9 401.9 L 261.0 407.8 L 254.1 413.9 L 247.3 420.1 L 240.8 426.5 L 234.4 433.2 L 228.3 440.0 L 223.5 446.0 L 218.8 452.2 L 214.3 458.5 L 210.1 464.9 L 206.0 471.5 L 202.3 478.2 L 198.8 485.1 L 195.6 492.1 L 192.7 499.2 L 190.2 506.4 L 188.1 513.8 L 186.3 521.3 L 185.3 537.1 L 187.3 550.7 L 192.1 562.4 L 199.1 572.2 L 208.2 580.3 L 218.9 586.8 L 230.9 591.9 L 243.9 595.7 L 257.5 598.4 L 271.3 600.1 L 285.1 600.9 L 298.4 601.0 L 301.9 600.9 L 305.5 600.8 L 309.0 600.6 L 312.5 600.4 L 316.0 600.1 L 319.5 599.8 L 323.1 599.5 L 326.6 599.2 L 330.1 598.9 L 333.6 598.6 L 337.2 598.3 L 340.7 598.1 L 343.3 598.0 L 345.9 597.9 L 348.5 597.8 L 351.1 597.8 L 353.7 597.9 L 356.3 598.0 L 358.9 598.3 L 361.5 598.6 L 364.0 599.1 L 366.5 599.7 L 369.0 600.5 L 371.4 601.4 L 374.6 602.9 L 377.6 604.6 L 380.4 606.6 L 383.1 608.8 L 385.6 611.2 L 388.0 613.7 L 390.3 616.4 L 392.5 619.1 L 394.6 622.0 L 396.7 624.8 L 398.7 627.7 L 400.6 630.6 L 406.5 639.3 L 412.8 648.2 L 419.6 657.2 L 426.8 666.0 L 434.3 674.7 L 442.3 682.9 L 450.7 690.6 L 459.5 697.6 L 468.7 703.8 L 478.3 709.0 L 488.3 713.1 L 498.7 715.9 L 509.0 717.0 L 518.7 716.4 L 527.8 714.2 L 536.2 710.6 L 544.0 705.8 L 551.2 699.9 L 557.8 693.1 L 563.7 685.6 L 569.1 677.4 L 573.9 668.9 L 578.1 660.1 L 581.7 651.3 L 584.3 644.7 L 586.7 638.0 L 588.8 631.3 L 590.7 624.5 L 592.5 617.6 L 594.2 610.7 L 596.0 603.9 L 597.8 597.0 L 599.8 590.2 L 601.9 583.5 L 604.3 576.8 L 607.0 570.3 L 609.5 565.7 L 612.5 561.6 L 615.9 558.0 L 619.8 554.9 L 623.9 552.1 L 628.4 549.7 L 633.0 547.6 L 637.8 545.7 L 642.7 544.1 L 647.6 542.5 L 652.5 541.1 L 657.3 539.7 L 673.6 535.3 L 689.8 529.9 L 705.7 523.4 L 721.1 515.8 L 735.9 507.1 L 749.9 497.3 L 763.0 486.5 L 775.1 474.6 L 785.9 461.6 L 795.3 447.6 L 803.2 432.5 L 809.4 416.3 L 809.4 416.1 L 809.4 416.3 Z"/>
	<path id="ShapeC" style="opacity:0.2;fill:#ED1C24;stroke:#000000;stroke-width:2;stroke-miterlimit:10;" d="M 679.5 681.8 L 707.1 669.0 L 729.7 652.5 L 747.6 633.0 L 760.8 611.0 L 769.6 587.1 L 774.0 561.8 L 774.2 535.7 L 770.3 509.4 L 762.5 483.5 L 750.9 458.5 L 735.6 434.9 L 716.8 413.5 L 712.0 408.3 L 708.0 403.4 L 704.9 398.6 L 702.6 394.0 L 701.0 389.4 L 700.2 384.8 L 700.2 380.1 L 700.8 375.3 L 702.1 370.2 L 704.1 364.9 L 706.6 359.1 L 709.8 353.0 L 716.5 337.2 L 719.3 324.6 L 718.8 314.7 L 715.4 307.0 L 709.8 301.2 L 702.4 296.7 L 693.7 293.1 L 684.3 289.8 L 674.8 286.5 L 665.5 282.7 L 657.1 277.9 L 650.1 271.6 L 646.8 265.9 L 644.5 259.7 L 642.9 253.0 L 641.9 246.2 L 641.1 239.2 L 640.3 232.2 L 639.3 225.4 L 637.8 218.8 L 635.6 212.6 L 632.5 207.0 L 628.2 202.0 L 622.5 197.7 L 612.3 194.9 L 601.0 194.3 L 588.7 195.7 L 575.8 198.8 L 562.5 203.2 L 549.1 208.6 L 535.8 214.9 L 522.8 221.6 L 510.5 228.4 L 499.1 235.2 L 488.8 241.5 L 479.9 247.1 L 474.6 250.6 L 469.2 254.0 L 463.6 257.2 L 457.9 260.2 L 452.1 262.8 L 446.2 265.1 L 440.2 267.0 L 434.1 268.4 L 427.9 269.2 L 421.6 269.5 L 415.2 269.2 L 408.7 268.1 L 399.7 266.3 L 390.7 264.4 L 381.7 262.5 L 372.6 260.6 L 363.6 258.7 L 354.5 256.9 L 345.4 255.2 L 336.3 253.7 L 327.2 252.5 L 318.0 251.5 L 308.8 250.8 L 299.6 250.4 L 291.6 250.6 L 283.6 250.9 L 275.6 251.5 L 267.5 252.2 L 259.5 253.3 L 251.5 254.6 L 243.6 256.2 L 235.8 258.1 L 228.1 260.4 L 220.6 263.0 L 213.1 266.0 L 205.9 269.4 L 193.7 277.9 L 184.7 287.6 L 178.7 298.2 L 175.4 309.5 L 174.5 321.3 L 175.7 333.4 L 178.8 345.6 L 183.5 357.8 L 189.5 369.7 L 196.5 381.1 L 204.2 391.8 L 212.4 401.7 L 219.2 409.3 L 226.1 416.6 L 233.0 423.6 L 239.6 430.5 L 245.8 437.5 L 251.2 444.6 L 255.6 452.1 L 258.9 460.0 L 260.7 468.5 L 260.9 477.7 L 259.3 487.8 L 255.5 498.9 L 245.2 530.8 L 239.0 559.7 L 236.9 585.6 L 238.8 608.0 L 244.7 626.9 L 254.5 641.8 L 268.2 652.7 L 285.8 659.2 L 307.2 661.2 L 332.3 658.3 L 361.2 650.4 L 393.8 637.1 L 400.0 634.2 L 406.2 631.4 L 412.5 628.8 L 418.7 626.6 L 424.9 624.7 L 431.2 623.4 L 437.5 622.7 L 443.7 622.7 L 450.0 623.5 L 456.3 625.2 L 462.6 627.9 L 468.9 631.8 L 475.1 635.8 L 481.2 639.9 L 487.2 644.1 L 493.3 648.3 L 499.4 652.4 L 505.5 656.5 L 511.7 660.5 L 518.0 664.3 L 524.4 667.9 L 531.0 671.3 L 537.7 674.4 L 544.6 677.2 L 555.3 681.3 L 566.3 684.8 L 577.5 687.6 L 588.8 689.8 L 600.2 691.3 L 611.6 692.1 L 623.1 692.2 L 634.6 691.6 L 646.0 690.3 L 657.3 688.2 L 668.4 685.3 L 679.3 681.6 L 679.5 681.6 L 679.5 681.8 Z"/>
	<path id="ShapeD" style="opacity:0.2;fill:#808285;stroke:#000000;stroke-width:2;stroke-miterlimit:10;" d="M 387.4 749.1 L 407.5 758.8 L 427.8 765.3 L 447.9 768.8 L 467.9 769.4 L 487.4 767.1 L 506.4 762.3 L 524.7 754.9 L 542.1 745.1 L 558.4 733.1 L 573.6 718.9 L 587.4 702.7 L 599.6 684.7 L 603.2 678.0 L 606.4 671.3 L 609.3 664.3 L 612.0 657.3 L 614.4 650.2 L 616.6 643.0 L 618.6 635.7 L 620.5 628.4 L 622.3 621.1 L 624.0 613.8 L 625.6 606.4 L 627.2 599.1 L 629.1 591.9 L 631.8 585.9 L 635.4 581.0 L 639.6 576.9 L 644.4 573.7 L 649.8 571.0 L 655.5 568.8 L 661.5 567.0 L 667.7 565.3 L 674.0 563.7 L 680.3 562.1 L 686.5 560.2 L 698.3 554.3 L 705.8 547.5 L 709.8 539.9 L 710.9 531.8 L 709.9 523.1 L 707.4 514.1 L 704.2 504.9 L 700.8 495.6 L 698.1 486.4 L 696.7 477.4 L 697.2 468.7 L 700.5 460.5 L 704.0 455.6 L 708.1 450.8 L 712.7 446.3 L 717.5 441.8 L 722.3 437.3 L 727.0 432.7 L 731.3 427.9 L 735.0 423.0 L 737.9 417.7 L 739.8 412.0 L 740.5 405.9 L 739.8 399.3 L 735.3 390.6 L 728.8 382.3 L 720.6 374.5 L 711.0 367.1 L 700.3 360.1 L 688.8 353.7 L 676.9 347.7 L 664.9 342.3 L 653.1 337.4 L 641.8 333.1 L 631.4 329.3 L 622.1 326.2 L 615.3 324.2 L 608.3 322.1 L 601.4 319.9 L 594.5 317.5 L 587.7 314.8 L 581.2 311.9 L 575.0 308.5 L 569.1 304.6 L 563.6 300.2 L 558.7 295.1 L 554.3 289.3 L 550.6 282.8 L 544.2 270.0 L 537.7 257.3 L 531.0 244.6 L 524.0 232.0 L 516.7 219.7 L 509.0 207.6 L 500.9 195.9 L 492.1 184.7 L 482.8 174.0 L 472.8 163.9 L 462.0 154.5 L 450.3 145.8 L 446.5 143.1 L 442.6 140.5 L 438.6 138.0 L 434.5 135.7 L 430.3 133.6 L 426.0 131.7 L 421.6 130.0 L 417.2 128.5 L 412.7 127.2 L 408.1 126.2 L 403.5 125.4 L 398.8 125.0 L 381.9 126.9 L 367.6 132.2 L 355.6 140.5 L 345.7 151.3 L 337.5 164.1 L 330.9 178.6 L 325.5 194.1 L 321.2 210.4 L 317.6 226.7 L 314.4 242.8 L 311.5 258.2 L 308.6 272.3 L 306.6 279.4 L 303.7 285.5 L 299.9 290.9 L 295.4 295.6 L 290.3 299.6 L 284.6 303.1 L 278.6 306.2 L 272.3 308.9 L 265.9 311.4 L 259.4 313.7 L 252.9 316.0 L 246.6 318.2 L 214.9 332.5 L 190.0 347.9 L 171.7 364.1 L 159.7 380.9 L 153.7 398.1 L 153.5 415.4 L 158.9 432.7 L 169.4 449.7 L 185.0 466.2 L 205.2 482.0 L 229.9 496.8 L 258.7 510.4 L 265.8 513.6 L 272.0 517.1 L 277.4 520.9 L 282.0 524.9 L 285.9 529.3 L 289.0 534.1 L 291.6 539.3 L 293.6 544.9 L 295.2 550.9 L 296.3 557.4 L 297.0 564.4 L 297.4 572.0 L 298.4 589.2 L 300.3 606.5 L 303.3 623.7 L 307.5 640.7 L 312.8 657.3 L 319.3 673.3 L 327.1 688.6 L 336.2 703.1 L 346.7 716.5 L 358.8 728.7 L 372.3 739.6 L 387.4 748.9 L 387.5 748.9 L 387.4 749.1 Z"/>
	<path id="ShapeE" style="opacity:0.2;fill:#3C2415;stroke:#000000;stroke-width:2;stroke-miterlimit:10;" d="M 150.1 566.7 L 155.2 587.8 L 162.6 607.1 L 172.1 624.4 L 183.5 639.7 L 196.8 653.1 L 211.6 664.5 L 227.9 673.9 L 245.6 681.2 L 264.3 686.5 L 284.1 689.6 L 304.7 690.7 L 326.0 689.6 L 330.5 689.0 L 335.0 688.3 L 339.5 687.5 L 343.9 686.6 L 348.4 685.6 L 352.8 684.5 L 357.1 683.3 L 361.5 682.0 L 365.8 680.6 L 370.1 679.1 L 374.4 677.6 L 378.6 675.9 L 383.1 674.2 L 387.5 672.2 L 391.9 670.2 L 396.3 668.0 L 400.6 665.7 L 404.9 663.5 L 409.2 661.2 L 413.6 659.1 L 417.9 657.0 L 422.3 655.1 L 426.8 653.4 L 431.3 652.0 L 437.7 651.4 L 443.7 652.0 L 449.4 653.7 L 454.8 656.3 L 460.0 659.5 L 465.2 663.2 L 470.2 667.1 L 475.2 671.0 L 480.4 674.9 L 485.6 678.3 L 491.0 681.2 L 496.6 683.4 L 505.9 685.0 L 513.9 683.9 L 520.7 680.5 L 526.6 675.5 L 531.9 669.1 L 536.8 661.9 L 541.6 654.3 L 546.5 646.8 L 551.8 639.9 L 557.7 634.0 L 564.5 629.6 L 572.4 627.2 L 577.0 626.8 L 581.5 626.8 L 586.1 627.0 L 590.7 627.5 L 595.3 628.1 L 599.9 628.8 L 604.5 629.4 L 609.1 630.0 L 613.7 630.3 L 618.3 630.5 L 622.9 630.2 L 627.4 629.6 L 636.6 626.2 L 643.5 620.6 L 648.4 613.3 L 651.5 604.6 L 653.2 594.8 L 653.6 584.3 L 652.9 573.3 L 651.6 562.2 L 649.6 551.5 L 647.5 541.3 L 645.3 532.0 L 643.3 524.0 L 642.3 520.6 L 641.3 517.1 L 640.3 513.7 L 639.3 510.3 L 638.3 506.9 L 637.2 503.4 L 636.1 500.1 L 635.0 496.7 L 633.9 493.3 L 632.8 489.9 L 631.7 486.6 L 630.5 483.2 L 628.8 478.2 L 626.9 473.2 L 625.0 468.2 L 623.1 463.2 L 621.3 458.2 L 619.5 453.1 L 618.0 448.0 L 616.7 442.9 L 615.7 437.7 L 615.1 432.5 L 614.9 427.2 L 615.3 421.8 L 616.1 417.3 L 617.2 412.9 L 618.5 408.6 L 620.0 404.3 L 621.6 400.0 L 623.4 395.8 L 625.3 391.7 L 627.3 387.5 L 629.2 383.4 L 631.2 379.2 L 633.1 375.1 L 635.0 371.0 L 638.6 362.7 L 642.2 354.3 L 645.7 345.8 L 649.0 337.3 L 652.2 328.7 L 655.1 320.1 L 657.9 311.4 L 660.4 302.7 L 662.5 293.9 L 664.4 285.0 L 666.0 276.0 L 667.1 267.0 L 668.4 251.3 L 668.2 236.2 L 666.4 221.9 L 663.1 208.6 L 658.1 196.6 L 651.5 186.0 L 643.3 177.2 L 633.3 170.3 L 621.6 165.5 L 608.1 163.1 L 592.8 163.3 L 575.6 166.3 L 566.8 168.4 L 558.3 171.0 L 549.9 174.0 L 541.7 177.5 L 533.6 181.2 L 525.6 185.2 L 517.6 189.3 L 509.7 193.6 L 501.9 197.8 L 494.0 202.0 L 486.0 206.0 L 478.0 209.8 L 471.8 212.2 L 465.6 213.5 L 459.5 213.8 L 453.4 213.4 L 447.3 212.2 L 441.3 210.4 L 435.4 208.2 L 429.6 205.5 L 423.8 202.6 L 418.2 199.5 L 412.7 196.4 L 407.3 193.3 L 402.8 190.7 L 398.2 188.2 L 393.6 185.8 L 389.0 183.4 L 384.3 181.2 L 379.5 179.1 L 374.7 177.0 L 369.9 175.1 L 365.0 173.3 L 360.1 171.6 L 355.1 170.0 L 350.1 168.5 L 324.1 163.6 L 302.5 164.0 L 285.1 169.0 L 271.5 178.1 L 261.4 190.7 L 254.5 206.1 L 250.5 223.8 L 248.9 243.2 L 249.6 263.6 L 252.1 284.5 L 256.1 305.3 L 261.4 325.4 L 262.6 330.2 L 263.3 335.1 L 263.6 339.9 L 263.4 344.7 L 262.9 349.5 L 261.8 354.1 L 260.4 358.6 L 258.5 363.0 L 256.2 367.1 L 253.4 371.1 L 250.2 374.8 L 246.6 378.3 L 242.2 382.5 L 237.7 386.6 L 233.1 390.7 L 228.5 394.7 L 223.9 398.7 L 219.3 402.8 L 214.8 406.9 L 210.3 411.0 L 205.9 415.3 L 201.6 419.6 L 197.4 424.1 L 193.4 428.7 L 185.7 438.2 L 178.4 448.3 L 171.8 458.9 L 165.8 469.9 L 160.5 481.3 L 156.0 493.0 L 152.4 505.0 L 149.7 517.1 L 148.0 529.4 L 147.5 541.7 L 148.1 554.0 L 150.0 566.3 L 150.0 566.5 L 150.1 566.7 Z"/>
	<path id="ShapeF" style="opacity:0.2;fill:#9E1F63;stroke:#000000;stroke-width:2;stroke-miterlimit:10;" d="M 146.9 272.1 L 142.5 277.7 L 138.4 283.2 L 134.4 288.6 L 130.6 294.0 L 127.1 299.4 L 123.8 304.9 L 120.8 310.6 L 118.0 316.5 L 115.5 322.6 L 113.3 329.0 L 111.4 335.7 L 109.8 342.9 L 107.8 357.0 L 107.4 371.1 L 108.5 385.1 L 110.9 399.0 L 114.7 412.6 L 119.7 425.8 L 125.8 438.6 L 133.0 450.9 L 141.2 462.5 L 150.3 473.4 L 160.1 483.6 L 170.7 492.8 L 175.3 496.4 L 179.9 499.8 L 184.7 503.1 L 189.5 506.3 L 194.4 509.4 L 199.4 512.4 L 204.5 515.3 L 209.6 518.0 L 214.8 520.7 L 220.0 523.2 L 225.3 525.6 L 230.6 527.9 L 232.7 528.8 L 234.9 529.8 L 237.1 530.7 L 239.2 531.7 L 241.4 532.7 L 243.6 533.7 L 245.7 534.7 L 247.7 535.8 L 249.7 536.9 L 251.7 538.1 L 253.5 539.4 L 255.3 540.7 L 260.5 546.2 L 264.0 552.6 L 266.0 559.7 L 267.0 567.2 L 267.3 575.1 L 267.3 583.1 L 267.5 591.1 L 268.1 598.9 L 269.5 606.4 L 272.2 613.2 L 276.4 619.4 L 282.7 624.7 L 286.1 626.5 L 289.6 627.8 L 293.2 628.7 L 296.8 629.3 L 300.6 629.6 L 304.3 629.6 L 308.1 629.4 L 311.9 629.0 L 315.6 628.5 L 319.4 628.0 L 323.1 627.5 L 326.8 627.0 L 334.4 626.0 L 341.2 625.8 L 347.1 626.2 L 352.3 627.3 L 356.9 629.0 L 361.0 631.5 L 364.8 634.5 L 368.4 638.3 L 371.8 642.6 L 375.1 647.5 L 378.6 653.1 L 382.3 659.2 L 385.7 664.5 L 389.3 669.4 L 393.0 673.6 L 397.0 677.2 L 401.1 680.2 L 405.5 682.4 L 410.1 683.7 L 414.9 684.3 L 420.0 683.9 L 425.3 682.5 L 430.9 680.0 L 436.7 676.5 L 445.2 670.4 L 453.3 663.9 L 461.1 657.0 L 468.5 649.8 L 475.7 642.2 L 482.6 634.3 L 489.2 626.2 L 495.5 617.9 L 501.6 609.4 L 507.6 600.8 L 513.3 592.1 L 518.8 583.4 L 521.4 579.3 L 523.9 575.2 L 526.5 571.0 L 529.1 566.8 L 531.8 562.7 L 534.6 558.7 L 537.6 554.8 L 540.7 551.0 L 544.0 547.5 L 547.5 544.2 L 551.3 541.2 L 555.4 538.5 L 558.0 537.0 L 560.7 535.7 L 563.5 534.5 L 566.3 533.3 L 569.2 532.3 L 572.1 531.3 L 575.0 530.4 L 578.0 529.5 L 580.9 528.7 L 583.9 527.9 L 586.9 527.2 L 589.8 526.4 L 601.4 523.6 L 613.0 520.8 L 624.7 517.8 L 636.3 514.7 L 647.9 511.3 L 659.3 507.5 L 670.6 503.4 L 681.7 498.8 L 692.4 493.7 L 702.9 488.0 L 713.1 481.6 L 722.8 474.5 L 727.5 471.0 L 732.1 467.3 L 736.6 463.5 L 740.9 459.5 L 745.1 455.4 L 749.0 451.0 L 752.6 446.5 L 756.0 441.7 L 759.0 436.8 L 761.7 431.6 L 764.0 426.2 L 765.8 420.6 L 767.2 414.6 L 767.9 408.6 L 767.9 402.7 L 767.2 396.8 L 765.8 391.0 L 763.9 385.3 L 761.5 379.7 L 758.6 374.4 L 755.3 369.3 L 751.6 364.4 L 747.7 359.9 L 743.4 355.7 L 738.4 351.5 L 733.3 347.5 L 728.0 343.6 L 722.6 339.9 L 717.0 336.4 L 711.4 333.0 L 705.6 329.8 L 699.8 326.8 L 693.9 323.9 L 687.9 321.2 L 681.9 318.6 L 675.9 316.2 L 667.9 313.2 L 660.2 310.5 L 652.9 307.9 L 646.0 305.2 L 639.6 302.3 L 633.7 299.0 L 628.3 295.1 L 623.5 290.5 L 619.3 285.0 L 615.7 278.4 L 612.9 270.6 L 610.8 261.4 L 609.5 254.0 L 608.2 246.6 L 606.9 239.2 L 605.6 231.8 L 604.1 224.4 L 602.6 217.0 L 600.9 209.7 L 599.1 202.4 L 597.0 195.1 L 594.8 188.0 L 592.3 180.9 L 589.5 173.9 L 588.3 171.0 L 587.0 168.1 L 585.7 165.3 L 584.3 162.5 L 582.9 159.7 L 581.3 157.0 L 579.7 154.3 L 578.0 151.7 L 576.2 149.2 L 574.3 146.7 L 572.4 144.2 L 570.3 141.9 L 562.1 134.2 L 553.4 128.5 L 544.4 124.6 L 535.1 122.5 L 525.7 121.9 L 516.1 122.7 L 506.6 124.8 L 497.1 128.0 L 487.9 132.3 L 479.0 137.5 L 470.4 143.3 L 462.3 149.8 L 458.7 152.8 L 455.1 155.8 L 451.6 158.9 L 448.2 162.1 L 444.8 165.3 L 441.4 168.6 L 438.1 171.9 L 434.9 175.3 L 431.7 178.7 L 428.6 182.2 L 425.6 185.7 L 422.6 189.3 L 420.5 191.7 L 418.5 194.2 L 416.4 196.7 L 414.4 199.2 L 412.3 201.7 L 410.2 204.2 L 408.1 206.6 L 405.9 209.0 L 403.7 211.3 L 401.5 213.6 L 399.1 215.8 L 396.7 217.9 L 392.7 221.0 L 388.4 223.4 L 384.0 225.2 L 379.4 226.5 L 374.7 227.3 L 369.9 227.7 L 365.0 227.8 L 360.1 227.5 L 355.2 227.0 L 350.3 226.3 L 345.5 225.5 L 340.7 224.6 L 326.8 222.0 L 312.8 220.0 L 298.6 218.7 L 284.4 218.2 L 270.2 218.4 L 256.0 219.5 L 242.0 221.4 L 228.2 224.4 L 214.7 228.3 L 201.5 233.3 L 188.7 239.3 L 176.4 246.6 L 173.7 248.3 L 171.0 250.1 L 168.2 251.9 L 165.6 253.8 L 163.0 255.8 L 160.4 257.9 L 157.9 260.0 L 155.5 262.2 L 153.2 264.5 L 151.0 266.9 L 148.9 269.3 L 147.0 271.8 L 146.9 271.8 L 146.9 272.1 Z"/>
	<path id="ShapeG" style="opacity:0.2;fill:#CA4B9B;stroke:#000000;stroke-width:2;stroke-miterlimit:10;" d="M 384.6 87.9 L 354.8 87.1 L 327.6 91.7 L 303.0 101.0 L 281.3 114.6 L 262.6 131.8 L 247.1 152.1 L 234.9 174.9 L 226.2 199.8 L 221.2 226.1 L 220.0 253.3 L 222.9 280.9 L 229.9 308.2 L 231.1 312.3 L 232.3 316.6 L 233.4 320.9 L 234.3 325.2 L 235.0 329.6 L 235.4 333.9 L 235.4 338.2 L 235.0 342.3 L 233.9 346.4 L 232.3 350.2 L 229.9 353.9 L 226.8 357.3 L 222.2 361.5 L 217.0 365.9 L 211.5 370.3 L 205.9 374.8 L 200.5 379.6 L 195.5 384.5 L 191.2 389.7 L 187.8 395.2 L 185.7 401.0 L 184.9 407.2 L 185.9 413.8 L 188.9 420.8 L 191.3 424.6 L 194.0 428.3 L 197.0 431.7 L 200.2 435.0 L 203.5 438.2 L 206.9 441.4 L 210.3 444.6 L 213.7 447.7 L 217.0 451.0 L 220.1 454.4 L 223.0 457.9 L 225.6 461.7 L 228.1 467.6 L 229.3 473.5 L 229.4 479.4 L 228.5 485.3 L 227.0 491.2 L 224.9 497.1 L 222.7 503.1 L 220.4 509.1 L 218.3 515.0 L 216.6 521.0 L 215.6 527.1 L 215.4 533.1 L 218.2 544.1 L 225.2 552.7 L 235.5 559.3 L 248.5 564.1 L 263.5 567.3 L 279.9 569.1 L 296.9 569.8 L 313.9 569.6 L 330.2 568.8 L 345.0 567.6 L 357.8 566.2 L 367.7 564.8 L 374.4 563.7 L 381.2 562.7 L 388.0 562.0 L 394.8 561.6 L 401.6 561.6 L 408.4 562.0 L 415.0 562.8 L 421.5 564.2 L 427.9 566.1 L 434.2 568.7 L 440.2 571.9 L 446.0 575.9 L 452.9 580.9 L 459.8 586.0 L 466.6 591.1 L 473.5 596.3 L 480.3 601.4 L 487.2 606.5 L 494.1 611.5 L 501.2 616.4 L 508.3 621.1 L 515.5 625.7 L 522.8 630.1 L 530.3 634.2 L 537.9 637.9 L 545.7 641.4 L 553.6 644.7 L 561.6 647.7 L 569.7 650.5 L 577.9 652.9 L 586.2 654.9 L 594.5 656.6 L 602.9 657.9 L 611.4 658.8 L 619.9 659.2 L 628.4 659.1 L 643.8 656.6 L 656.5 651.7 L 666.9 644.5 L 675.0 635.6 L 681.1 625.1 L 685.2 613.3 L 687.7 600.6 L 688.7 587.2 L 688.3 573.5 L 686.8 559.8 L 684.4 546.3 L 681.1 533.4 L 677.7 521.6 L 674.3 511.0 L 671.0 501.2 L 668.2 492.1 L 666.0 483.6 L 664.8 475.4 L 664.8 467.4 L 666.2 459.4 L 669.4 451.2 L 674.4 442.6 L 681.7 433.4 L 691.5 423.4 L 701.4 413.4 L 711.6 402.2 L 721.6 389.8 L 730.8 376.6 L 738.9 362.8 L 745.4 348.6 L 749.7 334.4 L 751.5 320.3 L 750.3 306.6 L 745.6 293.6 L 736.9 281.5 L 723.8 270.5 L 714.6 265.7 L 705.1 261.6 L 695.3 258.3 L 685.3 255.6 L 675.1 253.5 L 664.8 251.9 L 654.4 250.7 L 643.9 249.9 L 633.4 249.3 L 623.0 249.0 L 612.6 248.9 L 602.3 248.8 L 597.4 248.8 L 592.5 248.4 L 587.7 247.8 L 583.0 246.7 L 578.4 245.4 L 574.0 243.6 L 569.8 241.5 L 565.8 239.0 L 562.1 236.0 L 558.7 232.7 L 555.6 228.9 L 552.9 224.6 L 543.7 207.6 L 533.8 191.1 L 523.2 175.4 L 511.7 160.5 L 499.4 146.5 L 486.2 133.7 L 472.0 122.1 L 456.9 111.9 L 440.6 103.2 L 423.2 96.3 L 404.7 91.2 L 384.9 88.0 L 384.7 88.0 L 384.6 87.9 Z"/>
</g>
<g id="Texts">
	<g id="Header">
		<text id="Title" transform="matrix(1 0 0 1 344.7 36.6)" style="fill:#262262;font-family:'Tahoma';font-size:18">Venn 7-set Adelaide diagram</text>
	</g>
	<g id="Group_Names">
		<text id="NameA" transform="matrix(1 0 0 1 690.4 95.4)" style="fill:#262262;stroke:#000000;stroke-width:0.5;stroke-miterlimit:10;font-family:'Tahoma';font-size:20">NameA</text>
		<text id="NameB" transform="matrix(1 0 0 1 828.7 288.1)" style="fill:#262262;stroke:#000000;stroke-width:0.5;stroke-miterlimit:10;font-family:'Tahoma';font-size:20">NameB</text>
		<text id="NameC" transform="matrix(1 0 0 1 779.1 657.1)" style="fill:#262262;stroke:#000000;stroke-width:0.5;stroke-miterlimit:10;font-family:'Tahoma';font-size:20">NameC</text>
		<text id="NameD" transform="matrix(1 0 0 1 430.7 796.3)" style="fill:#262262;stroke:#000000;stroke-width:0.5;stroke-miterlimit:10;font-family:'Tahoma';font-size:20">NameD</text>
		<text id="NameE" transform="matrix(1 0 0 1 78.3 646.8)" style="fill:#262262;stroke:#000000;stroke-width:0.5;stroke-miterlimit:10;font-family:'Tahoma';font-size:20">NameE</text>
		<text id="NameF" transform="matrix(1 0 0 1 39.4 271.3)" style="fill:#262262;stroke:#000000;stroke-width:0.5;stroke-miterlimit:10;font-family:'Tahoma';font-size:20">NameF</text>
		<text id="NameG" transform="matrix(1 0 0 1 183.1 94.7)" style="fill:#262262;stroke:#000000;stroke-width:0.5;stroke-miterlimit:10;font-family:'Tahoma';font-size:20">NameG</text>
	</g>
	<g id="Group_Values">
		<text id="Count_A" transform="matrix(1 0 0 1 604.6 144.8)" style="fill:#262262;font-family:'Tahoma';font-size:26;text-anchor:middle">A</text>
		<text id="Count_B" transform="matrix(1 0 0 1 772.7 355.9)" style="fill:#262262;font-family:'Tahoma';font-size:26;text-anchor:middle">B</text>
		<text id="Count_C" transform="matrix(1 0 0 1 718.6 621.2)" style="fill:#262262;font-family:'Tahoma';font-size:26;text-anchor:middle">C</text>
		<text id="Count_D" transform="matrix(1 0 0 1 458.7 749.6)" style="fill:#262262;font-family:'Tahoma';font-size:26;text-anchor:middle">D</text>
		<text id="Count_E" transform="matrix(1 0 0 1 209.6 626)" style="fill:#262262;font-family:'Tahoma';font-size:26;text-anchor:middle">E</text>
		<text id="Count_F" transform="matrix(1 0 0 1 146.5 349)" style="fill:#262262;font-family:'Tahoma';font-size:26;text-anchor:middle">F</text>
		<text id="Count_G" transform="matrix(1 0 0 1 326.4 141.1)" style="fill:#262262;font-family:'Tahoma';font-size:26;text-anchor:middle">G</text>
		<text id="Count_AB" transform="matrix(1 0 0 1 686.4 242.8)" style="fill:#262262;font-family:'Tahoma';font-size:7;text-anchor:middle;">AB</text>
		<text id="Count_AC" transform="matrix(1 0 0 1 716.7 554)" style="fill:#262262;font-family:'Tahoma';font-size:8;text-anchor:middle;">AC</text>
		<text id="Count_AD" transform="matrix(1 0 0 1 411.5 696.7)" style="fill:#262262;font-family:'Tahoma';font-size:8;text-anchor:middle;">AD</text>
		<text id="Count_AE" transform="matrix(1 0 0 1 627.4 192)" style="fill:#262262;font-family:'Tahoma';font-size:8;text-anchor:middle;">AE</text>
		<text id="Count_AF" transform="matrix(1 0 0 1 536.8 146.8)" style="fill:#262262;font-family:'Tahoma';font-size:8;text-anchor:middle;">AF</text>
		<text id="Count_AG" transform="matrix(1 0 0 1 460.8 136.3)" style="fill:#262262;font-family:'Tahoma';font-size:7;text-anchor:middle;">AG</text>
		<text id="Count_BC" transform="matrix(1 0 0 1 743.9 482.1)" style="fill:#262262;font-family:'Tahoma';font-size:7;text-anchor:middle;">BC</text>
		<text id="Count_BD" transform="matrix(1 0 0 1 514 698.8)" style="fill:#262262;font-family:'Tahoma';font-size:8;text-anchor:middle;">BD</text>
		<text id="Count_BE" transform="matrix(1 0 0 1 209.9 555.2)" style="fill:#262262;font-family:'Tahoma';font-size:8;text-anchor:middle;">BE</text>
		<text id="Count_BF" transform="matrix(1 0 0 1 749.3 406.5)" style="fill:#262262;font-family:'Tahoma';font-size:8;text-anchor:middle;">BF</text>
		<text id="Count_BG" transform="matrix(1 0 0 1 727.8 308.8)" style="fill:#262262;font-family:'Tahoma';font-size:8;text-anchor:middle;">BG</text>
		<text id="Count_CD" transform="matrix(1 0 0 1 588.7 675)" style="fill:#262262;font-family:'Tahoma';font-size:7;text-anchor:middle;">CD</text>
		<text id="Count_CE" transform="matrix(1 0 0 1 272.9 633.8)" style="fill:#262262;font-family:'Tahoma';font-size:8;text-anchor:middle;">CE</text>
		<text id="Count_CF" transform="matrix(1 0 0 1 197 309.7)" style="fill:#262262;font-family:'Tahoma';font-size:8;text-anchor:middle;">CF</text>
		<text id="Count_CG" transform="matrix(1 0 0 1 653.1 631.2)" style="fill:#262262;font-family:'Tahoma';font-size:8;text-anchor:middle;">CG</text>
		<text id="Count_DE" transform="matrix(1 0 0 1 338.1 674.6)" style="fill:#262262;font-family:'Tahoma';font-size:7;text-anchor:middle;">DE</text>
		<text id="Count_DF" transform="matrix(1 0 0 1 173.9 407.2)" style="fill:#262262;font-family:'Tahoma';font-size:8;text-anchor:middle;">DF</text>
		<text id="Count_DG" transform="matrix(1 0 0 1 384.5 149.8)" style="fill:#262262;font-family:'Tahoma';font-size:8;text-anchor:middle;">DG</text>
		<text id="Count_EF" transform="matrix(1 0 0 1 180.6 483.8)" style="fill:#262262;font-family:'Tahoma';font-size:7;text-anchor:middle;">EF</text>
		<text id="Count_EG" transform="matrix(1 0 0 1 291.3 191.9)" style="fill:#262262;font-family:'Tahoma';font-size:8;text-anchor:middle;">EG</text>
		<text id="Count_FG" transform="matrix(1 0 0 1 235 243.1)" style="fill:#262262;font-family:'Tahoma';font-size:7;text-anchor:middle;">FG</text>
		<text id="Count_ABC" transform="matrix(1 0 0 1 718.2 500.6)" style="fill:#262262;font-family:'Tahoma';font-size:7;text-anchor:middle;">ABC</text>
		<text id="Count_ABD" transform="matrix(1 0 0 1 460.9 681.2)" style="fill:#262262;font-family:'Tahoma';font-size:7;text-anchor:middle;">ABD</text>
		<text id="Count_ABE" transform="matrix(1 0 0 1 654.1 237.8)" style="fill:#262262;font-family:'Tahoma';font-size:7;text-anchor:middle;">ABE</text>
		<text id="Count_ABF" transform="matrix(1 0 0 1 533.9 169.4)" style="fill:#262262;font-family:'Tahoma';font-size:6;text-anchor:middle;">ABF</text>
		<text id="Count_ABG" transform="matrix(1 0 0 1 684.6 275.1)" style="fill:#262262;font-family:'Tahoma';font-size:7;text-anchor:middle;">ABG</text>
		<text id="Count_ACD" transform="matrix(1 0 0 1 696.4 542)" style="fill:#262262;font-family:'Tahoma';font-size:6;text-anchor:middle;">ACD</text>
		<text id="Count_ACE" transform="matrix(1 0 0 1 615.9 210.3)" style="fill:#262262;font-family:'Tahoma';font-size:6;text-anchor:middle;">ACE</text>
		<text id="Count_ACF" transform="matrix(1 0 0 1 218.7 316.8)" style="fill:#262262;font-family:'Tahoma';font-size:6;text-anchor:middle;">ACF</text>
		<text id="Count_ACG" transform="matrix(1 0 0 1 671 582.5)" style="fill:#262262;font-family:'Tahoma';font-size:7;text-anchor:middle;">ACG</text>
		<text id="Count_ADE" transform="matrix(1 0 0 1 368.8 666)" style="fill:#262262;font-family:'Tahoma';font-size:7;text-anchor:middle;">ADE</text>
		<text id="Count_ADF" transform="matrix(1 0 0 1 414.1 674.4)" style="fill:#262262;font-family:'Tahoma';font-size:6;text-anchor:middle;">ADF</text>
		<text id="Count_ADG" transform="matrix(1 0 0 1 436.8 156.8)" style="fill:#262262;font-family:'Tahoma';font-size:7;text-anchor:middle;">ADG</text>
		<text id="Count_AEF" transform="matrix(1 0 0 1 578 184.2)" style="fill:#262262;font-family:'Tahoma';font-size:7;text-anchor:middle;">AEF</text>
		<text id="Count_AEG" transform="matrix(1 0 0 1 307.7 208.9)" style="fill:#262262;font-family:'Tahoma';font-size:7;text-anchor:middle;">AEG</text>
		<text id="Count_AFG" transform="matrix(1 0 0 1 485.6 157.4)" style="fill:#262262;font-family:'Tahoma';font-size:7;text-anchor:middle;">AFG</text>
		<text id="Count_BCD" transform="matrix(1 0 0 1 556.3 666.2)" style="fill:#262262;font-family:'Tahoma';font-size:7;text-anchor:middle;">BCD</text>
		<text id="Count_BCE" transform="matrix(1 0 0 1 252.5 583.7)" style="fill:#262262;font-family:'Tahoma';font-size:7;text-anchor:middle;">BCE</text>
		<text id="Count_BCF" transform="matrix(1 0 0 1 728.2 453.8)" style="fill:#262262;font-family:'Tahoma';font-size:7;text-anchor:middle;">BCF</text>
		<text id="Count_BCG" transform="matrix(1 0 0 1 706 317.9)" style="fill:#262262;font-family:'Tahoma';font-size:6;text-anchor:middle;">BCG</text>
		<text id="Count_BDE" transform="matrix(1 0 0 1 508.2 675.2)" style="fill:#262262;font-family:'Tahoma';font-size:6;text-anchor:middle;">BDE</text>
		<text id="Count_BDF" transform="matrix(1 0 0 1 727.3 407.6)" style="fill:#262262;font-family:'Tahoma';font-size:7;text-anchor:middle;">BDF</text>
		<text id="Count_BDG" transform="matrix(1 0 0 1 392 170.6)" style="fill:#262262;font-family:'Tahoma';font-size:6;text-anchor:middle;">BDG</text>
		<text id="Count_BEF" transform="matrix(1 0 0 1 208 503.1)" style="fill:#262262;font-family:'Tahoma';font-size:7;text-anchor:middle;">BEF</text>
		<text id="Count_BEG" transform="matrix(1 0 0 1 229.6 542.5)" style="fill:#262262;font-family:'Tahoma';font-size:6;text-anchor:middle;">BEG</text>
		<text id="Count_BFG" transform="matrix(1 0 0 1 723.6 360.9)" style="fill:#262262;font-family:'Tahoma';font-size:7;text-anchor:middle;">BFG</text>
		<text id="Count_CDE" transform="matrix(1 0 0 1 326 645.4)" style="fill:#262262;font-family:'Tahoma';font-size:7;text-anchor:middle;">CDE</text>
		<text id="Count_CDF" transform="matrix(1 0 0 1 201.6 361.3)" style="fill:#262262;font-family:'Tahoma';font-size:7;text-anchor:middle;">CDF</text>
		<text id="Count_CDG" transform="matrix(1 0 0 1 600.8 645.6)" style="fill:#262262;font-family:'Tahoma';font-size:7;text-anchor:middle;">CDG</text>
		<text id="Count_CEF" transform="matrix(1 0 0 1 287.8 615.6)" style="fill:#262262;font-family:'Tahoma';font-size:6;text-anchor:middle;">CEF</text>
		<text id="Count_CEG" transform="matrix(1 0 0 1 635.6 614.5)" style="fill:#262262;font-family:'Tahoma';font-size:6;text-anchor:middle;">CEG</text>
		<text id="Count_CFG" transform="matrix(1 0 0 1 236.4 275.2)" style="fill:#262262;font-family:'Tahoma';font-size:7;text-anchor:middle;">CFG</text>
		<text id="Count_DEF" transform="matrix(1 0 0 1 196.3 456.3)" style="fill:#262262;font-family:'Tahoma';font-size:7;text-anchor:middle;">DEF</text>
		<text id="Count_DEG" transform="matrix(1 0 0 1 347.8 184.8)" style="fill:#262262;font-family:'Tahoma';font-size:7;text-anchor:middle;">DEG</text>
		<text id="Count_DFG" transform="matrix(1 0 0 1 197.8 407.4)" style="fill:#262262;font-family:'Tahoma';font-size:6;text-anchor:middle;">DFG</text>
		<text id="Count_EFG" transform="matrix(1 0 0 1 266.5 237.9)" style="fill:#262262;font-family:'Tahoma';font-size:7;text-anchor:middle;">EFG</text>
		<text id="Count_ABCD" transform="matrix(1 0 0 1 690.7 514.6)" style="fill:#262262;font-family:'Tahoma';font-size:7;text-anchor:middle;">ABCD</text>
		<text id="Count_ABCE" transform="matrix(1 0 0 1 623.3 236.8)" style="fill:#262262;font-family:'Tahoma';font-size:7;text-anchor:middle;">ABCE</text>
		<text id="Count_ABCF" transform="matrix(1 0 0 1 708.1 472.9)" style="fill:#262262;font-family:'Tahoma';font-size:6;text-anchor:middle;">ABCF</text>
		<text id="Count_ABCG" transform="matrix(1 0 0 1 678.2 304.8)" style="fill:#262262;font-family:'Tahoma';font-size:7;text-anchor:middle;">ABCG</text>
		<text id="Count_ABDE" transform="matrix(1 0 0 1 482.8 661)" style="fill:#262262;font-family:'Tahoma';font-size:7;text-anchor:middle;">ABDE</text>
		<text id="Count_ABDF" transform="matrix(1 0 0 1 438.5 663.7)" style="fill:#262262;font-family:'Tahoma';font-size:6;text-anchor:middle;">ABDF</text>
		<text id="Count_ABDG" transform="matrix(1 0 0 1 415.4 180.6)" style="fill:#262262;font-family:'Tahoma';font-size:7;text-anchor:middle;">ABDG</text>
		<text id="Count_ABEF" transform="matrix(1 0 0 1 550.9 193.1)" style="fill:#262262;font-family:'Tahoma';font-size:7;text-anchor:middle;">ABEF</text>
		<text id="Count_ABEG" transform="matrix(1 0 0 1 656.8 265.2)" style="fill:#262262;font-family:'Tahoma';font-size:6;text-anchor:middle;">ABEG</text>
		<text id="Count_ABFG" transform="matrix(1 0 0 1 507.2 181.8)" style="fill:#262262;font-family:'Tahoma';font-size:7;text-anchor:middle;">ABFG</text>
		<text id="Count_ACDE" transform="matrix(1 0 0 1 354.5 641.6)" style="fill:#262262;font-family:'Tahoma';font-size:6;text-anchor:middle;">ACDE</text>
		<text id="Count_ACDF" transform="matrix(1 0 0 1 223.8 344)" style="fill:#262262;font-family:'Tahoma';font-size:6;text-anchor:middle;">ACDF</text>
		<text id="Count_ACDG" transform="matrix(1 0 0 1 667.3 553.8)" style="fill:#262262;font-family:'Tahoma';font-size:7;text-anchor:middle;">ACDG</text>
		<text id="Count_ACEF" transform="matrix(1 0 0 1 589.7 208.5)" style="fill:#262262;font-family:'Tahoma';font-size:6;text-anchor:middle;">ACEF</text>
		<text id="Count_ACEG" transform="matrix(1 0 0 1 642.9 589.2)" style="fill:#262262;font-family:'Tahoma';font-size:6;text-anchor:middle;">ACEG</text>
		<text id="Count_ACFG" transform="matrix(1 0 0 1 242.2 305.2)" style="fill:#262262;font-family:'Tahoma';font-size:7;text-anchor:middle;">ACFG</text>
		<text id="Count_ADEF" transform="matrix(1 0 0 1 396.1 654.2)" style="fill:#262262;font-family:'Tahoma';font-size:7;text-anchor:middle;">ADEF</text>
		<text id="Count_ADEG" transform="matrix(1 0 0 1 338.7 211.6)" style="fill:#262262;font-family:'Tahoma';font-size:7;text-anchor:middle;">ADEG</text>
		<text id="Count_ADFG" transform="matrix(1 0 0 1 461.2 172.9)" style="fill:#262262;font-family:'Tahoma';font-size:7;text-anchor:middle;">ADFG</text>
		<text id="Count_AEFG" transform="matrix(1 0 0 1 299.6 237.2)" style="fill:#262262;font-family:'Tahoma';font-size:7;text-anchor:middle;">AEFG</text>
		<text id="Count_BCDE" transform="matrix(1 0 0 1 527.7 653.5)" style="fill:#262262;font-family:'Tahoma';font-size:7;text-anchor:middle;">BCDE</text>
		<text id="Count_BCDF" transform="matrix(1 0 0 1 709.7 429.9)" style="fill:#262262;font-family:'Tahoma';font-size:7;text-anchor:middle;">BCDF</text>
		<text id="Count_BCDG" transform="matrix(1 0 0 1 571.9 641.1)" style="fill:#262262;font-family:'Tahoma';font-size:6;text-anchor:middle;">BCDG</text>
		<text id="Count_BCEF" transform="matrix(1 0 0 1 282.8 587.5)" style="fill:#262262;font-family:'Tahoma';font-size:7;text-anchor:middle;">BCEF</text>
		<text id="Count_BCEG" transform="matrix(1 0 0 1 252.4 555.2)" style="fill:#262262;font-family:'Tahoma';font-size:6;text-anchor:middle;">BCEG</text>
		<text id="Count_BCFG" transform="matrix(1 0 0 1 697.9 344.8)" style="fill:#262262;font-family:'Tahoma';font-size:7;text-anchor:middle;">BCFG</text>
		<text id="Count_BDEF" transform="matrix(1 0 0 1 218 476.6)" style="fill:#262262;font-family:'Tahoma';font-size:6;text-anchor:middle;">BDEF</text>
		<text id="Count_BDEG" transform="matrix(1 0 0 1 374.9 190.3)" style="fill:#262262;font-family:'Tahoma';font-size:6;text-anchor:middle;">BDEG</text>
		<text id="Count_BDFG" transform="matrix(1 0 0 1 711.3 385.4)" style="fill:#262262;font-family:'Tahoma';font-size:6;text-anchor:middle;">BDFG</text>
		<text id="Count_BEFG" transform="matrix(1 0 0 1 234.6 517)" style="fill:#262262;font-family:'Tahoma';font-size:7;text-anchor:middle;">BEFG</text>
		<text id="Count_CDEF" transform="matrix(1 0 0 1 318.1 616.6)" style="fill:#262262;font-family:'Tahoma';font-size:7;text-anchor:middle;">CDEF</text>
		<text id="Count_CDEG" transform="matrix(1 0 0 1 608.9 616)" style="fill:#262262;font-family:'Tahoma';font-size:7;text-anchor:middle;">CDEG</text>
		<text id="Count_CDFG" transform="matrix(1 0 0 1 218 386.6)" style="fill:#262262;font-family:'Tahoma';font-size:7;text-anchor:middle;">CDFG</text>
		<text id="Count_CEFG" transform="matrix(1 0 0 1 263.1 266.6)" style="fill:#262262;font-family:'Tahoma';font-size:6;text-anchor:middle;">CEFG</text>
		<text id="Count_DEFG" transform="matrix(1 0 0 1 216.1 431.2)" style="fill:#262262;font-family:'Tahoma';font-size:7;text-anchor:middle;">DEFG</text>
		<text id="Count_ABCDE" transform="matrix(1 0 0 1 502.1 637.7)" style="fill:#262262;font-family:'Tahoma';font-size:6;text-anchor:middle;">ABCDE</text>
		<text id="Count_ABCDF" transform="matrix(1 0 0 1 684.1 467.3)" style="fill:#262262;font-family:'Tahoma';font-size:6;text-anchor:middle;">ABCDF</text>
		<text id="Count_ABCDG" transform="matrix(1 0 0 1 660.5 525.3)" style="fill:#262262;font-family:'Tahoma';font-size:6;text-anchor:middle;">ABCDG</text>
		<text id="Count_ABCEF" transform="matrix(1 0 0 1 578.3 228.3)" style="fill:#262262;font-family:'Tahoma';font-size:6;text-anchor:middle;">ABCEF</text>
		<text id="Count_ABCEG" transform="matrix(1 0 0 1 636.5 279.1)" style="fill:#262262;font-family:'Tahoma';font-size:6;text-anchor:middle;">ABCEG</text>
		<text id="Count_ABCFG" transform="matrix(1 0 0 1 669.5 331)" style="fill:#262262;font-family:'Tahoma';font-size:6;text-anchor:middle;">ABCFG</text>
		<text id="Count_ABDEF" transform="matrix(1 0 0 1 440.6 641.4)" style="fill:#262262;font-family:'Tahoma';font-size:6;text-anchor:middle;">ABDEF</text>
		<text id="Count_ABDEG" transform="matrix(1 0 0 1 381.5 210.9)" style="fill:#262262;font-family:'Tahoma';font-size:6;text-anchor:middle;">ABDEG</text>
		<text id="Count_ABDFG" transform="matrix(1 0 0 1 458.2 197)" style="fill:#262262;font-family:'Tahoma';font-size:6;text-anchor:middle;">ABDFG</text>
		<text id="Count_ABEFG" transform="matrix(1 0 0 1 523.9 205.6)" style="fill:#262262;font-family:'Tahoma';font-size:6;text-anchor:middle;">ABEFG</text>
		<text id="Count_ACDEF" transform="matrix(1 0 0 1 365.6 620.8)" style="fill:#262262;font-family:'Tahoma';font-size:6;text-anchor:middle;">ACDEF</text>
		<text id="Count_ACDEG" transform="matrix(1 0 0 1 626 574.1)" style="fill:#262262;font-family:'Tahoma';font-size:6;text-anchor:middle;">ACDEG</text>
		<text id="Count_ACDFG" transform="matrix(1 0 0 1 245.5 351.5)" style="fill:#262262;font-family:'Tahoma';font-size:6;text-anchor:middle;">ACDFG</text>
		<text id="Count_ACEFG" transform="matrix(1 0 0 1 282.8 282.5)" style="fill:#262262;font-family:'Tahoma';font-size:6;text-anchor:middle;">ACEFG</text>
		<text id="Count_ADEFG" transform="matrix(1 0 0 1 331.7 240.2)" style="fill:#262262;font-family:'Tahoma';font-size:6;text-anchor:middle;">ADEFG</text>
		<text id="Count_BCDEF" transform="matrix(1 0 0 1 313.7 587.1)" style="fill:#262262;font-family:'Tahoma';font-size:6;text-anchor:middle;">BCDEF</text>
		<text id="Count_BCDEG" transform="matrix(1 0 0 1 562.7 618.5)" style="fill:#262262;font-family:'Tahoma';font-size:6;text-anchor:middle;">BCDEG</text>
		<text id="Count_BCDFG" transform="matrix(1 0 0 1 687.7 388.4)" style="fill:#262262;font-family:'Tahoma';font-size:6;text-anchor:middle;">BCDFG</text>
		<text id="Count_BCEFG" transform="matrix(1 0 0 1 272.3 542.9)" style="fill:#262262;font-family:'Tahoma';font-size:6;text-anchor:middle;">BCEFG</text>
		<text id="Count_BDEFG" transform="matrix(1 0 0 1 242 471.2)" style="fill:#262262;font-family:'Tahoma';font-size:6;text-anchor:middle;">BDEFG</text>
		<text id="Count_CDEFG" transform="matrix(1 0 0 1 238 409.4)" style="fill:#262262;font-family:'Tahoma';font-size:6;text-anchor:middle;">CDEFG</text>
		<text id="Count_ABCDEF" transform="matrix(1 0 0 1 412.4 597.1)" style="fill:#262262;font-family:'Tahoma';font-size:16;text-anchor:middle">ABCDEF</text>
		<text id="Count_ABCDEG" transform="matrix(1 0 0 1 572 568.6)" style="fill:#262262;font-family:'Tahoma';font-size:16;text-anchor:middle">ABCDEG</text>
		<text id="Count_ABCDFG" transform="matrix(1 0 0 1 649.4 427.1)" style="fill:#262262;font-family:'Tahoma';font-size:16;text-anchor:middle">ABCDFG</text>
		<text id="Count_ABCEFG" transform="matrix(1 0 0 1 583.6 279.4)" style="fill:#262262;font-family:'Tahoma';font-size:16;text-anchor:middle">ABCEFG</text>
		<text id="Count_ABDEFG" transform="matrix(1 0 0 1 428.8 244.9)" style="fill:#262262;font-family:'Tahoma';font-size:16;text-anchor:middle">ABDEFG</text>
		<text id="Count_ACDEFG" transform="matrix(1 0 0 1 297.5 332.1)" style="fill:#262262;font-family:'Tahoma';font-size:16;text-anchor:middle">ACDEFG</text>
		<text id="Count_BCDEFG" transform="matrix(1 0 0 1 289.8 491.9)" style="fill:#262262;font-family:'Tahoma';font-size:16;text-anchor:middle">BCDEFG</text>
		<text id="Count_ABCDEFG" transform="matrix(1 0 0 1 462.9 421.3)" style="fill:#FFFFFF;font-family:'Tahoma';font-size:30;text-anchor:middle;font-weight:bold">ABCDEFG</text>
	</g>
	<g id="Group_CountSums">
		<text id="CountSUM_A" transform="matrix(1 0 0 1 723.4 114.6)" style="fill:#262262;font-family:'Tahoma';font-size:16;text-anchor:middle;">CountSUM_A</text>
		<text id="CountSUM_B" transform="matrix(1 0 0 1 860.9 305.9)" style="fill:#262262;font-family:'Tahoma';font-size:16;text-anchor:middle;">CountSUM_B</text>
		<text id="CountSUM_C" transform="matrix(1 0 0 1 810.2 676.5)" style="fill:#262262;font-family:'Tahoma';font-size:16;text-anchor:middle;">CountSUM_C</text>
		<text id="CountSUM_D" transform="matrix(1 0 0 1 461.4 819.8)" style="fill:#262262;font-family:'Tahoma';font-size:16;text-anchor:middle;">CountSUM_D</text>
		<text id="CountSUM_E" transform="matrix(1 0 0 1 112.8 667.1)" style="fill:#262262;font-family:'Tahoma';font-size:16;text-anchor:middle;">CountSUM_E</text>
		<text id="CountSUM_F" transform="matrix(1 0 0 1 69.5 291.4)" style="fill:#262262;font-family:'Tahoma';font-size:16;text-anchor:middle;">CountSUM_F</text>
		<text id="CountSUM_G" transform="matrix(1 0 0 1 218.7 114.7)" style="fill:#262262;font-family:'Tahoma';font-size:16;text-anchor:middle;">CountSUM_G</text>
	</g>
</g>
<g id="Group_Bullets" style="display:none;">
	<circle id="BulletA" style="opacity:0.2;fill:#FFF200;stroke:#010101;stroke-width:2;" cx="59.2" cy="25" r="6.9"/>
	<circle id="BulletB" style="opacity:0.2;fill:#2E3192;stroke:#010101;stroke-width:2;" cx="59.2" cy="43.7" r="6.9"/>
	<circle id="BulletC" style="opacity:0.2;fill:#ED1C24;stroke:#010101;stroke-width:2;" cx="59.2" cy="62.4" r="6.9"/>
	<circle id="BulletD" style="opacity:0.2;fill:#808285;stroke:#010101;stroke-width:2;" cx="59.2" cy="81.1" r="6.9"/>
	<circle id="BulletE" style="opacity:0.2;fill:#3C2415;stroke:#010101;stroke-width:2;" cx="59.2" cy="99.8" r="6.9"/>
	<circle id="BulletF" style="opacity:0.2;fill:#9E1F63;stroke:#010101;stroke-width:2;" cx="59.2" cy="118.5" r="6.9"/>
	<circle id="BulletG" style="opacity:0.2;fill:#CA4B9B;stroke:#010101;stroke-width:2;" cx="59.2" cy="137.2" r="6.9"/>
</g>
</svg>
