<?xml version="1.0" encoding="utf-8"?>
<!-- Created by Zoltan Dul in 2026 - free to use with MIT license. Part of React Venn Diagram Lab Module - https://github.com/ZoliQua/React-Venn-Diagram-Lab - SVG Version: 3.0.0 -->
<svg xmlns="http://www.w3.org/2000/svg"
	 xmlns:xlink="http://www.w3.org/1999/xlink"
	 version="1.1"
	 x="0px"
	 y="0px"
	 style="enable-background:new 0 0 700 700;"
	 xml:space="preserve" viewBox="0 0 700 700">
<g id="Shapes">
	<rect id="ShapeA" style="opacity:0.2;fill:#FFF200;stroke:#000000;stroke-width:2;stroke-miterlimit:10;" x="360.9" y="181.5" width="285.1" height="427.6" rx="12.5" ry="12.5"/>
	<rect id="ShapeB" style="opacity:0.2;fill:#2E3192;stroke:#000000;stroke-width:2;stroke-miterlimit:10;" x="75.8" y="395.3" width="570.2" height="213.8" rx="12.5" ry="12.5"/>
	<rect id="ShapeC" style="opacity:0.2;fill:#ED1C24;stroke:#000000;stroke-width:2;stroke-miterlimit:10;" x="218.4" y="181.5" width="285.1" height="427.6" rx="12.5" ry="12.5"/>
	<rect id="ShapeD" style="opacity:0.2;fill:#808285;stroke:#000000;stroke-width:2;stroke-miterlimit:10;" x="75.8" y="288.4" width="570.2" height="213.8" rx="12.5" ry="12.5"/>
	<path id="ShapeE" style="opacity:0.2;fill:#3C2415;stroke:#000000;stroke-width:2;stroke-miterlimit:10;" d="M147.1,229.7v366.9c0,6.9,5.6,12.5,12.5,12.5h402.6c6.9,0,12.5-5.6,12.5-12.5V229.7c0-6.9-5.6-12.5-12.5-12.5h-117.5c-6.9,0-12.5,5.6-12.5,12.5v331.3c0,6.9-5.6,12.5-12.5,12.5h-117.5c-6.9,0-12.5-5.6-12.5-12.5V229.7c0-6.9-5.6-12.5-12.5-12.5h-117.5c-6.9,0-12.5,5.6-12.5,12.5Z"/>
	<path id="ShapeF" style="opacity:0.2;fill:#9E1F63;stroke:#000000;stroke-width:2;stroke-miterlimit:10;" d="M111.5,265.3v331.3c0,6.9,5.6,12.5,12.5,12.5h473.8c6.9,0,12.5-5.6,12.5-12.5v-331.3c0-6.9-5.6-12.5-12.5-12.5h-46.2c-6.9,0-12.5,5.6-12.5,12.5v295.7c0,6.9-5.6,12.5-12.5,12.5h-46.2c-6.9,0-12.5-5.6-12.5-12.5v-295.7c0-6.9-5.6-12.5-12.5-12.5h-46.2c-6.9,0-12.5,5.6-12.5,12.5v260c0,6.9-5.6,12.5-12.5,12.5h-46.2c-6.9,0-12.5-5.6-12.5-12.5v-260c0-6.9-5.6-12.5-12.5-12.5h-46.2c-6.9,0-12.5,5.6-12.5,12.5v295.7c0,6.9-5.6,12.5-12.5,12.5h-46.2c-6.9,0-12.5-5.6-12.5-12.5v-295.7c0-6.9-5.6-12.5-12.5-12.5h-46.2c-6.9,0-12.5,5.6-12.5,12.5Z"/>
</g>
<g id="Texts">
	<g id="Header">
		<text id="Title" transform="matrix(1 0 0 1 272.7 82.7)" style="fill:#262262;stroke:#000000;stroke-width:0.5;stroke-miterlimit:10;font-family:'Tahoma';font-size:14;">Anderson-Venn 6-set diagram</text>
	</g>
	<g id="Group_Names">
		<text id="NameA" transform="matrix(1 0 0 1 536.1 135.4)" style="fill:#262262;stroke:#000000;stroke-width:0.5;stroke-miterlimit:10; font-family:'Tahoma'; font-size:24;">NameA</text>
		<text id="NameB" transform="matrix(1 0 0 1 43.7 639.7)" style="fill:#262262;stroke:#000000;stroke-width:0.5;stroke-miterlimit:10; font-family:'Tahoma'; font-size:24;">NameB</text>
		<text id="NameC" transform="matrix(1 0 0 1 294.4 141.4)" style="fill:#262262;stroke:#000000;stroke-width:0.5;stroke-miterlimit:10; font-family:'Tahoma'; font-size:24;">NameC</text>
		<text id="NameD" transform="matrix(1 0 0 1 19.3 255.9)" style="fill:#262262;stroke:#000000;stroke-width:0.5;stroke-miterlimit:10; font-family:'Tahoma'; font-size:24;">NameD</text>
		<text id="NameE" transform="matrix(1 0 0 1 133.7 144.6)" style="fill:#262262;stroke:#000000;stroke-width:0.5;stroke-miterlimit:10; font-family:'Tahoma'; font-size:24;">NameE</text>
		<text id="NameF" transform="matrix(1 0 0 1 63.7 199.2)" style="fill:#262262;stroke:#000000;stroke-width:0.5;stroke-miterlimit:10; font-family:'Tahoma'; font-size:24;">NameF</text>
	</g>
	<g id="Group_Values">
		<text id="Count_A" transform="matrix(1 0 0 1 610.9 214.8)" style="fill:#262262;font-family:'Tahoma';font-size:22;text-anchor:middle">A</text>
		<text id="Count_B" transform="matrix(1 0 0 1 93.6 559.1)" style="fill:#262262;font-family:'Tahoma';font-size:18;text-anchor:middle;">B</text>
		<text id="Count_C" transform="matrix(1 0 0 1 318.5 215)" style="fill:#262262;font-family:'Tahoma';font-size:22;text-anchor:middle">C</text>
		<text id="Count_D" transform="matrix(1 0 0 1 93.6 345.3)" style="fill:#262262;font-family:'Tahoma';font-size:18;text-anchor:middle;">D</text>
		<text id="Count_E" transform="matrix(1 0 0 1 188.5 244.9)" style="fill:#262262;font-family:'Tahoma';font-size:22;text-anchor:middle">E</text>
		<text id="Count_F" transform="matrix(1 0 0 1 129.3 273.4)" style="fill:#262262;font-family:'Tahoma';font-size:18;text-anchor:middle;">F</text>
		<text id="Count_AB" transform="matrix(1 0 0 1 628.1 558.5)" style="fill:#262262;font-family:'Tahoma';font-size:14;text-anchor:middle;">AB</text>
		<text id="Count_AC" transform="matrix(1 0 0 1 402.9 216)" style="fill:#262262;font-family:'Tahoma';font-size:22;text-anchor:middle">AC</text>
		<text id="Count_AD" transform="matrix(1 0 0 1 628.1 344.6)" style="fill:#262262;font-family:'Tahoma';font-size:14;text-anchor:middle;">AD</text>
		<text id="Count_AE" transform="matrix(1 0 0 1 533.2 249.7)" style="fill:#262262;font-family:'Tahoma';font-size:14;text-anchor:middle;">AE</text>
		<text id="Count_AF" transform="matrix(1 0 0 1 592.5 273.1)" style="fill:#262262;font-family:'Tahoma';font-size:14;text-anchor:middle;">AF</text>
		<text id="Count_BC" transform="matrix(1 0 0 1 343.2 522.5)" style="fill:#262262;font-family:'Tahoma';font-size:14;text-anchor:middle;">BC</text>
		<text id="Count_BD" transform="matrix(1 0 0 1 93.6 451.6)" style="fill:#262262;font-family:'Tahoma';font-size:14;text-anchor:middle;">BD</text>
		<text id="Count_BE" transform="matrix(1 0 0 1 200.8 540.7)" style="fill:#262262;font-family:'Tahoma';font-size:14;text-anchor:middle;">BE</text>
		<text id="Count_BF" transform="matrix(1 0 0 1 129.3 558.4)" style="fill:#262262;font-family:'Tahoma';font-size:14;text-anchor:middle;">BF</text>
		<text id="Count_CD" transform="matrix(1 0 0 1 343.2 344.6)" style="fill:#262262;font-family:'Tahoma';font-size:14;text-anchor:middle;">CD</text>
		<text id="Count_CE" transform="matrix(1 0 0 1 248.1 249.7)" style="fill:#262262;font-family:'Tahoma';font-size:14;text-anchor:middle;">CE</text>
		<text id="Count_CF" transform="matrix(1 0 0 1 307.6 273.1)" style="fill:#262262;font-family:'Tahoma';font-size:14;text-anchor:middle;">CF</text>
		<text id="Count_DE" transform="matrix(1 0 0 1 200.8 344.7)" style="fill:#262262;font-family:'Tahoma';font-size:14;text-anchor:middle;">DE</text>
		<text id="Count_DF" transform="matrix(1 0 0 1 129.3 344.6)" style="fill:#262262;font-family:'Tahoma';font-size:14;text-anchor:middle;">DF</text>
		<text id="Count_EF" transform="matrix(1 0 0 1 165.1 273.1)" style="fill:#262262;font-family:'Tahoma';font-size:14;text-anchor:middle;">EF</text>
		<text id="Count_ABC" transform="matrix(1 0 0 1 378.8 522.5)" style="fill:#262262;font-family:'Tahoma';font-size:14;text-anchor:middle;">ABC</text>
		<text id="Count_ABD" transform="matrix(1 0 0 1 628.2 451.5)" style="fill:#262262;font-family:'Tahoma';font-size:14;text-anchor:middle;">ABD</text>
		<text id="Count_ABE" transform="matrix(1 0 0 1 521.3 540.7)" style="fill:#262262;font-family:'Tahoma';font-size:14;text-anchor:middle;">ABE</text>
		<text id="Count_ABF" transform="matrix(1 0 0 1 592.5 558.4)" style="fill:#262262;font-family:'Tahoma';font-size:14;text-anchor:middle;">ABF</text>
		<text id="Count_ACD" transform="matrix(1 0 0 1 378.8 344.6)" style="fill:#262262;font-family:'Tahoma';font-size:14;text-anchor:middle;">ACD</text>
		<text id="Count_ACE" transform="matrix(1 0 0 1 473.8 249.7)" style="fill:#262262;font-family:'Tahoma';font-size:14;text-anchor:middle;">ACE</text>
		<text id="Count_ACF" transform="matrix(1 0 0 1 414.4 273.1)" style="fill:#262262;font-family:'Tahoma';font-size:14;text-anchor:middle;">ACF</text>
		<text id="Count_ADE" transform="matrix(1 0 0 1 521.3 344.6)" style="fill:#262262;font-family:'Tahoma';font-size:14;text-anchor:middle;">ADE</text>
		<text id="Count_ADF" transform="matrix(1 0 0 1 592.5 344.7)" style="fill:#262262;font-family:'Tahoma';font-size:14;text-anchor:middle;">ADF</text>
		<text id="Count_AEF" transform="matrix(1 0 0 1 556.9 273.1)" style="fill:#262262;font-family:'Tahoma';font-size:14;text-anchor:middle;">AEF</text>
		<text id="Count_BCD" transform="matrix(1 0 0 1 343.2 451.5)" style="fill:#262262;font-family:'Tahoma';font-size:14;text-anchor:middle;">BCD</text>
		<text id="Count_BCE" transform="matrix(1 0 0 1 236.4 540.7)" style="fill:#262262;font-family:'Tahoma';font-size:14;text-anchor:middle;">BCE</text>
		<text id="Count_BCF" transform="matrix(1 0 0 1 319.4 546.5)" style="fill:#262262;font-family:'Tahoma';font-size:14;text-anchor:middle;">BCF</text>
		<text id="Count_BDE" transform="matrix(1 0 0 1 200.8 451.6)" style="fill:#262262;font-family:'Tahoma';font-size:14;text-anchor:middle;">BDE</text>
		<text id="Count_BDF" transform="matrix(1 0 0 1 129.3 451.6)" style="fill:#262262;font-family:'Tahoma';font-size:14;text-anchor:middle;">BDF</text>
		<text id="Count_BEF" transform="matrix(1 0 0 1 177.6 592.9)" style="fill:#262262;font-family:'Tahoma';font-size:14;text-anchor:middle;">BEF</text>
		<text id="Count_CDE" transform="matrix(1 0 0 1 236.3 344.7)" style="fill:#262262;font-family:'Tahoma';font-size:14;text-anchor:middle;">CDE</text>
		<text id="Count_CDF" transform="matrix(1 0 0 1 307.6 344.6)" style="fill:#262262;font-family:'Tahoma';font-size:14;text-anchor:middle;">CDF</text>
		<text id="Count_CEF" transform="matrix(1 0 0 1 272 273.1)" style="fill:#262262;font-family:'Tahoma';font-size:14;text-anchor:middle;">CEF</text>
		<text id="Count_DEF" transform="matrix(1 0 0 1 165.1 344.7)" style="fill:#262262;font-family:'Tahoma';font-size:14;text-anchor:middle;">DEF</text>
		<text id="Count_ABCD" transform="matrix(1 0 0 1 378.8 451.2)" style="fill:#262262;font-family:'Tahoma';font-size:14;text-anchor:middle;">ABCD</text>
		<text id="Count_ABCE" transform="matrix(1 0 0 1 485.7 540.4)" style="fill:#262262;font-family:'Tahoma';font-size:14;text-anchor:middle;">ABCE</text>
		<text id="Count_ABCF" transform="matrix(1 0 0 1 402.5 546.2)" style="fill:#262262;font-family:'Tahoma';font-size:14;text-anchor:middle;">ABCF</text>
		<text id="Count_ABDE" transform="matrix(1 0 0 1 521.3 451.2)" style="fill:#262262;font-family:'Tahoma';font-size:14;text-anchor:middle;">ABDE</text>
		<text id="Count_ABDF" transform="matrix(1 0 0 1 592.5 451.2)" style="fill:#262262;font-family:'Tahoma';font-size:14;text-anchor:middle;">ABDF</text>
		<text id="Count_ABEF" transform="matrix(1 0 0 1 541.2 591.1)" style="fill:#262262;font-family:'Tahoma';font-size:14;text-anchor:middle;">ABEF</text>
		<text id="Count_ACDE" transform="matrix(1 0 0 1 485.7 344.2)" style="fill:#262262;font-family:'Tahoma';font-size:14;text-anchor:middle;">ACDE</text>
		<text id="Count_ACDF" transform="matrix(1 0 0 1 414.4 344.3)" style="fill:#262262;font-family:'Tahoma';font-size:14;text-anchor:middle;">ACDF</text>
		<text id="Count_ACEF" transform="matrix(1 0 0 1 450 273.1)" style="fill:#262262;font-family:'Tahoma';font-size:14;text-anchor:middle;">ACEF</text>
		<text id="Count_ADEF" transform="matrix(1 0 0 1 556.9 344.2)" style="fill:#262262;font-family:'Tahoma';font-size:14;text-anchor:middle;">ADEF</text>
		<text id="Count_BCDE" transform="matrix(1 0 0 1 236.3 451.2)" style="fill:#262262;font-family:'Tahoma';font-size:14;text-anchor:middle;">BCDE</text>
		<text id="Count_BCDF" transform="matrix(1 0 0 1 307.6 451.2)" style="fill:#262262;font-family:'Tahoma';font-size:14;text-anchor:middle;">BCDF</text>
		<text id="Count_BCEF" transform="matrix(1 0 0 1 278.6 591.9)" style="fill:#262262;font-family:'Tahoma';font-size:14;text-anchor:middle;">BCEF</text>
		<text id="Count_BDEF" transform="matrix(1 0 0 1 165.1 451.1)" style="fill:#262262;font-family:'Tahoma';font-size:14;text-anchor:middle;">BDEF</text>
		<text id="Count_CDEF" transform="matrix(1 0 0 1 272 344.2)" style="fill:#262262;font-family:'Tahoma';font-size:14;text-anchor:middle;">CDEF</text>
		<text id="Count_ABCDE" transform="matrix(1 0 0 1 485.7 450.9)" style="fill:#262262;font-family:'Tahoma';font-size:14;text-anchor:middle;">ABCDE</text>
		<text id="Count_ABCDF" transform="matrix(1 0 0 1 414.4 450.9)" style="fill:#262262;font-family:'Tahoma';font-size:14;text-anchor:middle;">ABCDF</text>
		<text id="Count_ABCEF" transform="matrix(1 0 0 1 437.7 590.1)" style="fill:#262262;font-family:'Tahoma';font-size:14;text-anchor:middle;">ABCEF</text>
		<text id="Count_ABDEF" transform="matrix(1 0 0 1 556.9 450.9)" style="fill:#262262;font-family:'Tahoma';font-size:14;text-anchor:middle;">ABDEF</text>
		<text id="Count_ACDEF" transform="matrix(1 0 0 1 450.1 344)" style="fill:#262262;font-family:'Tahoma';font-size:14;text-anchor:middle;">ACDEF</text>
		<text id="Count_BCDEF" transform="matrix(1 0 0 1 272 450.8)" style="fill:#262262;font-family:'Tahoma';font-size:14;text-anchor:middle;">BCDEF</text>
		<text id="Count_ABCDEF" transform="matrix(1 0 0 1 450 453)" style="fill:#FFFFFF;font-family:'Tahoma';font-size:12;text-anchor:middle;">ABCDEF</text>
	</g>
	<g id="Group_CountSums">
		<text id="CountSUM_A" transform="matrix(1 0 0 1 574.6 158.8)" style="fill:#262262;font-family:'Tahoma';font-size:18;text-anchor:middle;">CountSUM_A</text>
		<text id="CountSUM_B" transform="matrix(1 0 0 1 80.7 664.4)" style="fill:#262262;font-family:'Tahoma';font-size:18;text-anchor:middle;">CountSUM_B</text>
		<text id="CountSUM_C" transform="matrix(1 0 0 1 332.5 164.4)" style="fill:#262262;font-family:'Tahoma';font-size:18;text-anchor:middle;">CountSUM_C</text>
		<text id="CountSUM_D" transform="matrix(1 0 0 1 57.5 279)" style="fill:#262262;font-family:'Tahoma';font-size:18;text-anchor:middle;">CountSUM_D</text>
		<text id="CountSUM_E" transform="matrix(1 0 0 1 171.1 166.3)" style="fill:#262262;font-family:'Tahoma';font-size:18;text-anchor:middle;">CountSUM_E</text>
		<text id="CountSUM_F" transform="matrix(1 0 0 1 98.5 220)" style="fill:#262262;font-family:'Tahoma';font-size:18;text-anchor:middle;">CountSUM_F</text>
	</g>
</g>
<g id="Group_Bullets" style="display:none;">
	<circle id="BulletA" style="opacity:0.2;fill:#FFF200;stroke:#010101;stroke-width:2;" cx="59.2" cy="120" r="6.9"/>
	<circle id="BulletB" style="opacity:0.2;fill:#2E3192;stroke:#010101;stroke-width:2;" cx="59.2" cy="138.7" r="6.9"/>
	<circle id="BulletC" style="opacity:0.2;fill:#ED1C24;stroke:#010101;stroke-width:2;" cx="59.2" cy="157.4" r="6.9"/>
	<circle id="BulletD" style="opacity:0.2;fill:#808285;stroke:#010101;stroke-width:2;" cx="59.2" cy="176.1" r="6.9"/>
	<circle id="BulletE" style="opacity:0.2;fill:#3C2415;stroke:#010101;stroke-width:2;" cx="59.2" cy="194.8" r="6.9"/>
	<circle id="BulletF" style="opacity:0.2;fill:#9E1F63;stroke:#010101;stroke-width:2;" cx="59.2" cy="213.5" r="6.9"/>
</g>
</svg>
