<?xml version="1.0" encoding="utf-8"?>
<!-- Created by Zoltan Dul in 2026 - free to use with MIT license. Part of React Venn Diagram Lab Module - https://github.com/ZoliQua/React-Venn-Diagram-Lab - SVG Version: 3.0.0 -->
<svg xmlns="http://www.w3.org/2000/svg"
	 id="Layer_1"
	 version="1.1" viewBox="0 0 700 700">
<g id="Shapes">
	<polygon id="ShapeF" style="fill: #9e1f63; opacity: .2; stroke: #000; stroke-linecap: round; stroke-linejoin: round; stroke-width: 3px;" points="368.4 478.9 504.6 223.1 31 265.7 368.4 478.9"/>
	<polygon id="ShapeE" style="fill: #3C2415; opacity: .2; stroke: #000; stroke-linecap: round; stroke-linejoin: round; stroke-width: 3px;" points="225.8 634.2 496.1 361.9 273.2 207.5 225.8 634.2"/>
	<polygon id="ShapeD" style="fill: #808285; opacity: .2; stroke: #000; stroke-linecap: round; stroke-linejoin: round; stroke-width: 3px;" points="465.5 636.8 210.2 319.6 465.5 208.4 465.5 636.8"/>
	<polygon id="ShapeC" style="fill: #ed1c24; opacity: .2; stroke: #000; stroke-linecap: round; stroke-linejoin: round; stroke-width: 3px;" points="647.9 418.9 208.7 367.1 319.9 188.1 647.9 418.9"/>
	<polygon id="ShapeB" style="fill: #2e3192; opacity: .2; stroke: #000; stroke-linecap: round; stroke-linejoin: round; stroke-width: 3px;" points="244.1 560.9 283.1 229.4 676.3 161.9 244.1 560.9"/>
	<polygon id="ShapeA" style="fill: #fff200; opacity: .2; stroke: #000; stroke-linecap: round; stroke-linejoin: round; stroke-width: 3px;" points="452.3 503.8 145.8 241.8 444.3 72.5 452.3 503.8"/>
</g>
<g id="Texts">
	<g id="Header">
		<text id="Title" transform="matrix(1 0 0 1 87.9 55)" style="fill:#262262;stroke:#000000;stroke-width:0.5;stroke-miterlimit:10; font-family:'Tahoma'; font-size:14;">Carroll Venn 6-set diagram</text>
	</g>
	<g id="Group_Names">
		<text id="NameA" transform="matrix(1 0 0 1 70.9 75.5)" style="fill:#262262;stroke:#000000;stroke-width:0.5;stroke-miterlimit:10; font-family:'Tahoma'; font-size:14;">NameA</text>
		<text id="NameB" transform="matrix(1 0 0 1 70.9 95.5)" style="fill:#262262;stroke:#000000;stroke-width:0.5;stroke-miterlimit:10; font-family:'Tahoma'; font-size:14;">NameB</text>
		<text id="NameC" transform="matrix(1 0 0 1 70.9 115.5)" style="fill:#262262;stroke:#000000;stroke-width:0.5;stroke-miterlimit:10; font-family:'Tahoma'; font-size:14;">NameC</text>
		<text id="NameD" transform="matrix(1 0 0 1 70.9 135.5)" style="fill:#262262;stroke:#000000;stroke-width:0.5;stroke-miterlimit:10; font-family:'Tahoma'; font-size:14;">NameD</text>
		<text id="NameE" transform="matrix(1 0 0 1 70.9 155.5)" style="fill:#262262;stroke:#000000;stroke-width:0.5;stroke-miterlimit:10; font-family:'Tahoma'; font-size:14;">NameE</text>
		<text id="NameF" transform="matrix(1 0 0 1 70.9 175.5)" style="fill:#262262;stroke:#000000;stroke-width:0.5;stroke-miterlimit:10; font-family:'Tahoma'; font-size:14;">NameF</text>
	</g>
	<g id="Group_Values">
		<text id="Count_A" transform="matrix(1 0 0 1 405.7 150.9)" style="fill:#262262;stroke:#000000;stroke-width:0.5;stroke-miterlimit:10;font-family:'Tahoma';font-size:36;text-anchor:middle">A</text>
		<text id="Count_B" transform="matrix(1 0 0 1 571.2 222)" style="fill:#262262;stroke:#000000;stroke-width:0.5;stroke-miterlimit:10;font-family:'Tahoma';font-size:36;text-anchor:middle">B</text>
		<text id="Count_C" transform="matrix(1 0 0 1 542.8 396.4)" style="fill:#262262;stroke:#000000;stroke-width:0.5;stroke-miterlimit:10;font-family:'Tahoma';font-size:32;text-anchor:middle">C</text>
		<text id="Count_D" transform="matrix(1 0 0 1 430.5 557.9)" style="fill:#262262;stroke:#000000;stroke-width:0.5;stroke-miterlimit:10;font-family:'Tahoma';font-size:30;text-anchor:middle">D</text>
		<text id="Count_E" transform="matrix(1 0 0 1 251.1 586.1)" style="fill:#262262;stroke:#000000;stroke-width:0.5;stroke-miterlimit:10;font-family:'Tahoma';font-size:22;text-anchor:middle">E</text>
		<text id="Count_F" transform="matrix(1 0 0 1 134.2 305.8)" style="fill:#262262;stroke:#000000;stroke-width:0.5;stroke-miterlimit:10;font-family:'Tahoma';font-size:36;text-anchor:middle">F</text>
		<text id="Count_ABCDEF" transform="matrix(1 0 0 1 359.8 342.4)" style="text-anchor:middle;fill:#FFFFFF;stroke:#000000;stroke-width:0.5;stroke-miterlimit:10;font-family:'Tahoma';font-size:32">ABCDEF</text>
		<text id="Count_ABCDE" transform="matrix(1 0 0 1 425.4 370.5)" style="text-anchor:middle;fill:#262262;stroke:#000000;stroke-width:0.5;stroke-miterlimit:10;font-family:'Tahoma';font-size:8">ABCDE</text>
		<text id="Count_ABCDF" transform="matrix(1 0 0 1 408.5 278)" style="text-anchor:middle;fill:#262262;stroke:#000000;stroke-width:0.5;stroke-miterlimit:10;font-family:'Tahoma';font-size:8">ABCDF</text>
		<text id="Count_ABCEF" transform="matrix(1 0 0 1 307.4 264.8)" style="text-anchor:middle;fill:#262262;stroke:#000000;stroke-width:0.5;stroke-miterlimit:10;font-family:'Tahoma';font-size:8">ABCEF</text>
		<text id="Count_ABDEF" transform="matrix(1 0 0 1 368.9 407.1)" style="text-anchor:middle;fill:#262262;stroke:#000000;stroke-width:0.5;stroke-miterlimit:10;font-family:'Tahoma';font-size:8">ABDEF</text>
		<text id="Count_ACDEF" transform="matrix(1 0 0 1 267.4 320)" style="text-anchor:middle;fill:#262262;stroke:#000000;stroke-width:0.5;stroke-miterlimit:10;font-family:'Tahoma';font-size:6">ACDEF</text>
		<text id="Count_BCDEF" transform="matrix(1 0 0 1 280.5 371.2)" style="text-anchor:middle;fill:#262262;stroke:#000000;stroke-width:0.5;stroke-miterlimit:10;font-family:'Tahoma';font-size:7">BCDEF</text>
		<text id="Count_ABCD" transform="matrix(1 0 0 1 448.1 332.7)" style="text-anchor:middle;fill:#262262;stroke:#000000;stroke-width:0.5;stroke-miterlimit:10;font-family:'Tahoma';font-size:3">ABCD</text>
		<text id="Count_ABCE" transform="matrix(1 0 0 1 300.5 237.5)" style="text-anchor:middle;fill:#262262;stroke:#000000;stroke-width:0.5;stroke-miterlimit:10;font-family:'Tahoma';font-size:6">ABCE</text>
		<text id="Count_ABCF" transform="matrix(1 0 0 1 349.1 249)" style="text-anchor:middle;fill:#262262;stroke:#000000;stroke-width:0.5;stroke-miterlimit:10;font-family:'Tahoma';font-size:6">ABCF</text>
		<text id="Count_ABDE" transform="matrix(1 0 0 1 416.6 398)" style="text-anchor:middle;fill:#262262;stroke:#000000;stroke-width:0.5;stroke-miterlimit:10;font-family:'Tahoma';font-size:3">ABDE</text>
		<text id="Count_ABDF" transform="matrix(1 0 0 1 428.6 246.1)" style="text-anchor:middle;fill:#262262;stroke:#000000;stroke-width:0.5;stroke-miterlimit:10;font-family:'Tahoma';font-size:6">ABDF</text>
		<text id="Count_ABEF" transform="matrix(1 0 0 1 279.9 245.8)" style="text-anchor:middle;fill:#262262;stroke:#000000;stroke-width:0.5;stroke-miterlimit:10;font-family:'Tahoma';font-size:3">ABEF</text>
		<text id="Count_ACDE" transform="matrix(1 0 0 1 441.9 390.4)" style="text-anchor:middle;fill:#262262;stroke:#000000;stroke-width:0.5;stroke-miterlimit:10;font-family:'Tahoma';font-size:6">ACDE</text>
		<text id="Count_ACDF" transform="matrix(1 0 0 1 251 320.9)" style="text-anchor:middle;fill:#262262;stroke:#000000;stroke-width:0.5;stroke-miterlimit:10;font-family:'Tahoma';font-size:6">ACDF</text>
		<text id="Count_ACEF" transform="matrix(1 0 0 1 270.1 282.9)" style="text-anchor:middle;fill:#262262;stroke:#000000;stroke-width:0.5;stroke-miterlimit:10;font-family:'Tahoma';font-size:4">ACEF</text>
		<text id="Count_ADEF" transform="matrix(1 0 0 1 383.7 440.1)" style="text-anchor:middle;fill:#262262;stroke:#000000;stroke-width:0.5;stroke-miterlimit:10;font-family:'Tahoma';font-size:6">ADEF</text>
		<text id="Count_BCDE" transform="matrix(1 0 0 1 457.7 349.8)" style="text-anchor:middle;fill:#262262;stroke:#000000;stroke-width:0.5;stroke-miterlimit:10;font-family:'Tahoma';font-size:6">BCDE</text>
		<text id="Count_BCDF" transform="matrix(1 0 0 1 457.4 298.4)" style="text-anchor:middle;fill:#262262;stroke:#000000;stroke-width:0.5;stroke-miterlimit:10;font-family:'Tahoma';font-size:6">BCDF</text>
		<text id="Count_BCEF" transform="matrix(1 0 0 1 446 279.9)" style="text-anchor:middle;fill:#262262;stroke:#000000;stroke-width:0.5;stroke-miterlimit:10;font-family:'Tahoma';font-size:5">BCEF</text>
		<text id="Count_BDEF" transform="matrix(1 0 0 1 321.9 415.6)" style="text-anchor:middle;fill:#262262;stroke:#000000;stroke-width:0.5;stroke-miterlimit:10;font-family:'Tahoma';font-size:10">BDEF</text>
		<text id="Count_CDEF" transform="matrix(1 0 0 1 261.8 358.1)" style="text-anchor:middle;fill:#262262;stroke:#000000;stroke-width:0.5;stroke-miterlimit:10;font-family:'Tahoma';font-size:7">CDEF</text>
		<text id="Count_AB" transform="matrix(1 0 0 1 402.9 224.9)" style="text-anchor:middle;fill:#262262;stroke:#000000;stroke-width:0.5;stroke-miterlimit:10;font-family:'Tahoma';font-size:14">AB</text>
		<text id="Count_AC" transform="matrix(1 0 0 1 323.5 216)" style="text-anchor:middle;fill:#262262;stroke:#000000;stroke-width:0.5;stroke-miterlimit:10;font-family:'Tahoma';font-size:14">AC</text>
		<text id="Count_AD" transform="matrix(1 0 0 1 433.5 464.4)" style="text-anchor:middle;fill:#262262;stroke:#000000;stroke-width:0.5;stroke-miterlimit:10;font-family:'Tahoma';font-size:14">AD</text>
		<text id="Count_AE" transform="matrix(1 0 0 1 279.1 226.1)" style="text-anchor:middle;fill:#262262;stroke:#000000;stroke-width:0.5;stroke-miterlimit:10;font-family:'Tahoma';font-size:10">AE</text>
		<text id="Count_AF" transform="matrix(1 0 0 1 230.6 276.7)" style="text-anchor:middle;fill:#262262;stroke:#000000;stroke-width:0.5;stroke-miterlimit:10;font-family:'Tahoma';font-size:14">AF</text>
		<text id="Count_BC" transform="matrix(1 0 0 1 479.8 326.8)" style="text-anchor:middle;fill:#262262;stroke:#000000;stroke-width:0.5;stroke-miterlimit:10;font-family:'Tahoma';font-size:14">BC</text>
		<text id="Count_BD" transform="matrix(1 0 0 1 457.7 224.4)" style="text-anchor:middle;fill:#262262;stroke:#000000;stroke-width:0.5;stroke-miterlimit:10;font-family:'Tahoma';font-size:10">BD</text>
		<text id="Count_BE" transform="matrix(1 0 0 1 268.4 505.5)" style="text-anchor:middle;fill:#262262;stroke:#000000;stroke-width:0.5;stroke-miterlimit:10;font-family:'Tahoma';font-size:14">BE</text>
		<text id="Count_BF" transform="matrix(1 0 0 1 478.4 247.8)" style="text-anchor:middle;fill:#262262;stroke:#000000;stroke-width:0.5;stroke-miterlimit:10;font-family:'Tahoma';font-size:14">BF</text>
		<text id="Count_CD" transform="matrix(1 0 0 1 466.1 396.5)" style="text-anchor:middle;fill:#262262;stroke:#000000;stroke-width:0.5;stroke-miterlimit:10;font-family:'Tahoma';font-size:5">CD</text>
		<text id="Count_CE" transform="matrix(1 0 0 1 476.3 370.8)" style="text-anchor:middle;fill:#262262;stroke:#000000;stroke-width:0.5;stroke-miterlimit:10;font-family:'Tahoma';font-size:12">CE</text>
		<text id="Count_CF" transform="matrix(1 0 0 1 227.7 363.4)" style="text-anchor:middle;fill:#262262;stroke:#000000;stroke-width:0.5;stroke-miterlimit:10;font-family:'Tahoma';font-size:11">CF</text>
		<text id="Count_DE" transform="matrix(1 0 0 1 358.1 489.1)" style="text-anchor:middle;fill:#262262;stroke:#000000;stroke-width:0.5;stroke-miterlimit:10;font-family:'Tahoma';font-size:12">DE</text>
		<text id="Count_DF" transform="matrix(1 0 0 1 224.7 327.4)" style="text-anchor:middle;fill:#262262;stroke:#000000;stroke-width:0.5;stroke-miterlimit:10;font-family:'Tahoma';font-size:10">DF</text>
		<text id="Count_EF" transform="matrix(1 0 0 1 257.4 400.3)" style="text-anchor:middle;fill:#262262;stroke:#000000;stroke-width:0.5;stroke-miterlimit:10;font-family:'Tahoma';font-size:8">EF</text>
		<text id="Count_ABC" transform="matrix(1 0 0 1 346.4 230.6)" style="text-anchor:middle;fill:#262262;stroke:#000000;stroke-width:0.5;stroke-miterlimit:10;font-family:'Tahoma';font-size:8">ABC</text>
		<text id="Count_ABD" transform="matrix(1 0 0 1 436.6 226.2)" style="text-anchor:middle;fill:#262262;stroke:#000000;stroke-width:0.5;stroke-miterlimit:10;font-family:'Tahoma';font-size:4">ABD</text>
		<text id="Count_ABE" transform="matrix(1 0 0 1 282.4 235.5)" style="text-anchor:middle;fill:#262262;stroke:#000000;stroke-width:0.5;stroke-miterlimit:10;font-family:'Tahoma';font-size:4">ABE</text>
		<text id="Count_ABF" transform="matrix(1 0 0 1 393.9 237.4)" style="text-anchor:middle;fill:#262262;stroke:#000000;stroke-width:0.5;stroke-miterlimit:10;font-family:'Tahoma';font-size:4">ABF</text>
		<text id="Count_ACD" transform="matrix(1 0 0 1 455 401.9)" style="text-anchor:middle;fill:#262262;stroke:#000000;stroke-width:0.5;stroke-miterlimit:10;font-family:'Tahoma';font-size:5">ACD</text>
		<text id="Count_ACE" transform="matrix(1 0 0 1 295.5 225.7)" style="text-anchor:middle;fill:#262262;stroke:#000000;stroke-width:0.5;stroke-miterlimit:10;font-family:'Tahoma';font-size:4">ACE</text>
		<text id="Count_ACF" transform="matrix(1 0 0 1 259 295.1)" style="text-anchor:middle;fill:#262262;stroke:#000000;stroke-width:0.5;stroke-miterlimit:10;font-family:'Tahoma';font-size:4">ACF</text>
		<text id="Count_ADE" transform="matrix(1 0 0 1 416.2 426)" style="text-anchor:middle;fill:#262262;stroke:#000000;stroke-width:0.5;stroke-miterlimit:10;font-family:'Tahoma';font-size:10">ADE</text>
		<text id="Count_ADF" transform="matrix(1 0 0 1 236.9 314.6)" style="text-anchor:middle;fill:#262262;stroke:#000000;stroke-width:0.5;stroke-miterlimit:10;font-family:'Tahoma';font-size:4">ADF</text>
		<text id="Count_AEF" transform="matrix(1 0 0 1 273.7 253.4)" style="text-anchor:middle;fill:#262262;stroke:#000000;stroke-width:0.5;stroke-miterlimit:10;font-family:'Tahoma';font-size:5">AEF</text>
		<text id="Count_BCD" transform="matrix(1 0 0 1 458.3 326.6)" style="text-anchor:middle;fill:#262262;stroke:#000000;stroke-width:0.5;stroke-miterlimit:10;font-family:'Tahoma';font-size:6">BCD</text>
		<text id="Count_BCE" transform="matrix(1 0 0 1 469.8 349)" style="text-anchor:middle;fill:#262262;stroke:#000000;stroke-width:0.5;stroke-miterlimit:10;font-family:'Tahoma';font-size:4">BCE</text>
		<text id="Count_BCF" transform="matrix(1 0 0 1 467.8 293.9)" style="text-anchor:middle;fill:#262262;stroke:#000000;stroke-width:0.5;stroke-miterlimit:10;font-family:'Tahoma';font-size:4">BCF</text>
		<text id="Count_BDE" transform="matrix(1 0 0 1 327.9 467.5)" style="text-anchor:middle;fill:#262262;stroke:#000000;stroke-width:0.5;stroke-miterlimit:10;font-family:'Tahoma';font-size:7">BDE</text>
		<text id="Count_BDF" transform="matrix(1 0 0 1 456.3 260.3)" style="text-anchor:middle;fill:#262262;stroke:#000000;stroke-width:0.5;stroke-miterlimit:10;font-family:'Tahoma';font-size:7">BDF</text>
		<text id="Count_BEF" transform="matrix(1 0 0 1 272.2 411)" style="text-anchor:middle;fill:#262262;stroke:#000000;stroke-width:0.5;stroke-miterlimit:10;font-family:'Tahoma';font-size:7">BEF</text>
		<text id="Count_CDE" transform="matrix(1 0 0 1 457.4 382)" style="text-anchor:middle;fill:#262262;stroke:#000000;stroke-width:0.5;stroke-miterlimit:10;font-family:'Tahoma';font-size:6">CDE</text>
		<text id="Count_CDF" transform="matrix(1 0 0 1 243.9 346.1)" style="text-anchor:middle;fill:#262262;stroke:#000000;stroke-width:0.5;stroke-miterlimit:10;font-family:'Tahoma';font-size:10">CDF</text>
		<text id="Count_CEF" transform="matrix(1 0 0 1 250.3 373.7)" style="text-anchor:middle;fill:#262262;stroke:#000000;stroke-width:0.5;stroke-miterlimit:10;font-family:'Tahoma';font-size:5">CEF</text>
		<text id="Count_DEF" transform="matrix(1 0 0 1 364.9 466.9)" style="text-anchor:middle;fill:#262262;stroke:#000000;stroke-width:0.5;stroke-miterlimit:10;font-family:'Tahoma';font-size:10">DEF</text>
	</g>
	<g id="Group_CountSums">
		<text id="CountSUM_A" transform="matrix(1 0 0 1 231.9 75.5)" style="fill:#262262;font-family:'Tahoma';font-size:14;text-anchor:middle">CountSUM_A</text>
		<text id="CountSUM_B" transform="matrix(1 0 0 1 231.7 95.5)" style="fill:#262262;font-family:'Tahoma';font-size:14;text-anchor:middle">CountSUM_B</text>
		<text id="CountSUM_C" transform="matrix(1 0 0 1 231.9 115.5)" style="fill:#262262;font-family:'Tahoma';font-size:14;text-anchor:middle">CountSUM_C</text>
		<text id="CountSUM_D" transform="matrix(1 0 0 1 231.9 135.5)" style="fill:#262262;font-family:'Tahoma';font-size:14;text-anchor:middle">CountSUM_D</text>
		<text id="CountSUM_E" transform="matrix(1 0 0 1 231.9 155.5)" style="fill:#262262;font-family:'Tahoma';font-size:14;text-anchor:middle">CountSUM_E</text>
		<text id="CountSUM_F" transform="matrix(1 0 0 1 231.9 175.5)" style="fill:#262262;font-family:'Tahoma';font-size:14;text-anchor:middle">CountSUM_F</text>
	</g>
</g>
<g id="Group_Bullets">
	<circle id="BulletA" style="opacity:0.2;fill:#FFF200;stroke:#010101;stroke-width:2;" cx="59.2" cy="71.5" r="6.9"/>
	<circle id="BulletB" style="opacity:0.2;fill:#2E3192;stroke:#010101;stroke-width:2;" cx="59.2" cy="91.5" r="6.9"/>
	<circle id="BulletC" style="opacity:0.2;fill:#ED1C24;stroke:#010101;stroke-width:2;" cx="59.2" cy="111.5" r="6.9"/>
	<circle id="BulletD" style="opacity:0.2;fill:#808285;stroke:#010101;stroke-width:2;" cx="59.2" cy="131.5" r="6.9"/>
	<circle id="BulletE" style="opacity:0.2;fill:#3C2415;stroke:#010101;stroke-width:2;" cx="59.2" cy="151.5" r="6.9"/>
	<circle id="BulletF" style="opacity:0.2;fill:#9E1F63;stroke:#010101;stroke-width:2;" cx="59.2" cy="171.5" r="6.9"/>
</g>
</svg>
