<?xml version="1.0" encoding="utf-8"?>
<!-- Created by Zoltan Dul in 2026 - free to use with MIT license. Part of React Venn Diagram Lab Module - https://github.com/ZoliQua/React-Venn-Diagram-Lab - SVG Version: 3.0.0 -->
<svg xmlns="http://www.w3.org/2000/svg"
	 xmlns:xlink="http://www.w3.org/1999/xlink"
	 version="1.1"
	 x="0px"
	 y="0px"
	 style="enable-background:new 0 0 700 700;"
	 xml:space="preserve" viewBox="0 0 700 700">
<g id="Shapes">
	<rect id="ShapeA" style="opacity:0.2;fill:#FFF200;stroke:#000000;stroke-width:3;stroke-miterlimit:10;" x="391.8" y="137.4" width="253.2" height="485.2" rx="13.3" ry="13.3"/>
	<rect id="ShapeB" style="opacity:0.2;fill:#2E3192;stroke:#000000;stroke-width:3;stroke-miterlimit:10;" x="138.7" y="390.5" width="485.2" height="253.2" rx="13.3" ry="13.3"/>
	<rect id="ShapeC" style="opacity:0.2;fill:#ED1C24;stroke:#000000;stroke-width:3;stroke-miterlimit:10;" x="307.5" y="179.6" width="168.8" height="421.9" rx="13.3" ry="13.3"/>
	<rect id="ShapeD" style="opacity:0.2;fill:#808285;stroke:#000000;stroke-width:3;stroke-miterlimit:10;" x="180.9" y="306.1" width="421.9" height="168.8" rx="13.3" ry="13.3"/>
	<path id="ShapeE" style="opacity:0.2;fill:#3C2415;stroke:#000000;stroke-width:3;stroke-miterlimit:10;" d="M265.3,235.1v310.9c0,7.4,6,13.3,13.3,13.3h226.5c7.4,0,13.3-6,13.3-13.3V235.1c0-7.4-6-13.3-13.3-13.3h-57.7c-7.4,0-13.3,6-13.3,13.3v247.6c0,7.4-6,13.3-13.3,13.3h-57.7c-7.4,0-13.3-6-13.3-13.3v-247.6c0-7.4-6-13.3-13.3-13.3h-57.7c-7.4,0-13.3,6-13.3,13.3Z"/>
	<path id="ShapeF" style="opacity:0.2;fill:#9E1F63;stroke:#000000;stroke-width:3;stroke-miterlimit:10;" d="M223.1,277.3v57.7c0,7.4,6,13.3,13.3,13.3h247.6c7.4,0,13.3,6,13.3,13.3v57.7c0,7.4-6,13.3-13.3,13.3h-247.6c-7.4,0-13.3,6-13.3,13.3v57.7c0,7.4,6,13.3,13.3,13.3h310.9c7.4,0,13.3-6,13.3-13.3v-226.5c0-7.4-6-13.3-13.3-13.3H236.4c-7.4,0-13.3,6-13.3,13.3Z"/>
</g>
<g id="Texts">
	<g id="Header">
		<text id="Title" transform="matrix(1 0 0 1 296.4 53)" style="fill:#262262;stroke:#000000;stroke-width:0.5;stroke-miterlimit:10;font-family:'Tahoma';font-size:14;">Venn 6d-set diagram</text>
	</g>
	<g id="Group_Names">
		<text id="NameA" transform="matrix(1 0 0 1 474.8 102.6)" style="fill:#262262;stroke:#000000;stroke-width:0.5;stroke-miterlimit:10;font-family:'Tahoma';font-size:24;">NameA</text>
		<text id="NameB" transform="matrix(1 0 0 1 36.7 497.9)" style="fill:#262262;stroke:#000000;stroke-width:0.5;stroke-miterlimit:10;font-family:'Tahoma';font-size:24;">NameB</text>
		<text id="NameC" transform="matrix(1 0 0 1 284 136)" style="fill:#262262;stroke:#000000;stroke-width:0.5;stroke-miterlimit:10;font-family:'Tahoma';font-size:24;">NameC</text>
		<text id="NameD" transform="matrix(1 0 0 1 35.8 354.2)" style="fill:#262262;stroke:#000000;stroke-width:0.5;stroke-miterlimit:10;font-family:'Tahoma';font-size:24;">NameD</text>
		<text id="NameE" transform="matrix(1 0 0 1 185.4 194.1)" style="fill:#262262;stroke:#000000;stroke-width:0.5;stroke-miterlimit:10;font-family:'Tahoma';font-size:24;">NameE</text>
		<text id="NameF" transform="matrix(1 0 0 1 108.5 267.9)" style="fill:#262262;stroke:#000000;stroke-width:0.5;stroke-miterlimit:10;font-family:'Tahoma';font-size:24;">NameF</text>
	</g>
	<g id="Group_Values">
		<text id="Count_A" transform="matrix(1 0 0 1 591.4 199.4)" style="fill:#262262;stroke:#000000;stroke-width:0.5;stroke-miterlimit:10;font-family:'Tahoma';font-size:32;text-anchor:middle">A</text>
		<text id="Count_B" transform="matrix(1 0 0 1 177.4 613.3)" style="fill:#262262;stroke:#000000;stroke-width:0.5;stroke-miterlimit:10;font-family:'Tahoma';font-size:32;text-anchor:middle;">B</text>
		<text id="Count_C" transform="matrix(1 0 0 1 356.5 218.3)" style="fill:#262262;stroke:#000000;stroke-width:0.5;stroke-miterlimit:10;font-family:'Tahoma';font-size:32;text-anchor:middle;">C</text>
		<text id="Count_D" transform="matrix(1 0 0 1 209.3 370.7)" style="fill:#262262;stroke:#000000;stroke-width:0.5;stroke-miterlimit:10;font-family:'Tahoma';font-size:32;text-anchor:middle;">D</text>
		<text id="Count_E" transform="matrix(1 0 0 1 286.4 254.1)" style="fill:#262262;stroke:#000000;stroke-width:0.5;stroke-miterlimit:10;font-family:'Tahoma';font-size:32;text-anchor:middle;">E</text>
		<text id="Count_F" transform="matrix(1 0 0 1 244.2 296.3)" style="fill:#262262;stroke:#000000;stroke-width:0.5;stroke-miterlimit:10;font-family:'Tahoma';font-size:32;text-anchor:middle;">F</text>
		<text id="Count_AB" transform="matrix(1 0 0 1 576.9 597.8)" style="fill:#262262;stroke:#000000;stroke-width:0.5;stroke-miterlimit:10;font-family:'Tahoma';font-size:28;text-anchor:middle">AB</text>
		<text id="Count_AC" transform="matrix(1 0 0 1 429.5 213.8)" style="fill:#262262;stroke:#000000;stroke-width:0.5;stroke-miterlimit:10;font-family:'Tahoma';font-size:24;text-anchor:middle;">AC</text>
		<text id="Count_AD" transform="matrix(1 0 0 1 581.7 354.6)" style="fill:#262262;stroke:#000000;stroke-width:0.5;stroke-miterlimit:10;font-family:'Tahoma';font-size:18;text-anchor:middle;">AD</text>
		<text id="Count_AE" transform="matrix(1 0 0 1 497.3 247.8)" style="fill:#262262;stroke:#000000;stroke-width:0.5;stroke-miterlimit:10;font-family:'Tahoma';font-size:14;text-anchor:middle;">AE</text>
		<text id="Count_AF" transform="matrix(1 0 0 1 539.5 290)" style="fill:#262262;stroke:#000000;stroke-width:0.5;stroke-miterlimit:10;font-family:'Tahoma';font-size:14;text-anchor:middle;">AF</text>
		<text id="Count_BC" transform="matrix(1 0 0 1 349.6 586.7)" style="fill:#262262;stroke:#000000;stroke-width:0.5;stroke-miterlimit:10;font-family:'Tahoma';font-size:18;text-anchor:middle;">BC</text>
		<text id="Count_BD" transform="matrix(1 0 0 1 215.8 423.7)" style="fill:#262262;stroke:#000000;stroke-width:0.5;stroke-miterlimit:10;font-family:'Tahoma';font-size:24;text-anchor:middle;">BD</text>
		<text id="Count_BE" transform="matrix(1 0 0 1 286.4 543)" style="fill:#262262;stroke:#000000;stroke-width:0.5;stroke-miterlimit:10;font-family:'Tahoma';font-size:14;text-anchor:middle;">BE</text>
		<text id="Count_BF" transform="matrix(1 0 0 1 244.2 500.8)" style="fill:#262262;stroke:#000000;stroke-width:0.5;stroke-miterlimit:10;font-family:'Tahoma';font-size:14;text-anchor:middle;">BF</text>
		<text id="Count_CD" transform="matrix(1 0 0 1 370.8 374.3)" style="fill:#262262;stroke:#000000;stroke-width:0.5;stroke-miterlimit:10;font-family:'Tahoma';font-size:14;text-anchor:middle;">CD</text>
		<text id="Count_CE" transform="matrix(1 0 0 1 328.6 247.8)" style="fill:#262262;stroke:#000000;stroke-width:0.5;stroke-miterlimit:10;font-family:'Tahoma';font-size:14;text-anchor:middle;">CE</text>
		<text id="Count_CF" transform="matrix(1 0 0 1 370.8 290)" style="fill:#262262;stroke:#000000;stroke-width:0.5;stroke-miterlimit:10;font-family:'Tahoma';font-size:14;text-anchor:middle;">CF</text>
		<text id="Count_DE" transform="matrix(1 0 0 1 286.4 374.3)" style="fill:#262262;stroke:#000000;stroke-width:0.5;stroke-miterlimit:10;font-family:'Tahoma';font-size:14;text-anchor:middle;">DE</text>
		<text id="Count_DF" transform="matrix(1 0 0 1 244.2 332.1)" style="fill:#262262;stroke:#000000;stroke-width:0.5;stroke-miterlimit:10;font-family:'Tahoma';font-size:14;text-anchor:middle;">DF</text>
		<text id="Count_EF" transform="matrix(1 0 0 1 286.4 290)" style="fill:#262262;stroke:#000000;stroke-width:0.5;stroke-miterlimit:10;font-family:'Tahoma';font-size:14;text-anchor:middle;">EF</text>
		<text id="Count_ABC" transform="matrix(1 0 0 1 434.1 586.7)" style="fill:#262262;stroke:#000000;stroke-width:0.5;stroke-miterlimit:10;font-family:'Tahoma';font-size:18;text-anchor:middle;">ABC</text>
		<text id="Count_ABD" transform="matrix(1 0 0 1 581.7 439)" style="fill:#262262;stroke:#000000;stroke-width:0.5;stroke-miterlimit:10;font-family:'Tahoma';font-size:18;text-anchor:middle;">ABD</text>
		<text id="Count_ABE" transform="matrix(1 0 0 1 497.3 543)" style="fill:#262262;stroke:#000000;stroke-width:0.5;stroke-miterlimit:10;font-family:'Tahoma';font-size:14;text-anchor:middle;">ABE</text>
		<text id="Count_ABF" transform="matrix(1 0 0 1 539.5 500.8)" style="fill:#262262;stroke:#000000;stroke-width:0.5;stroke-miterlimit:10;font-family:'Tahoma';font-size:14;text-anchor:middle;">ABF</text>
		<text id="Count_ACD" transform="matrix(1 0 0 1 413 374.3)" style="fill:#262262;stroke:#000000;stroke-width:0.5;stroke-miterlimit:10;font-family:'Tahoma';font-size:14;text-anchor:middle;">ACD</text>
		<text id="Count_ACE" transform="matrix(1 0 0 1 455.2 247.8)" style="fill:#262262;stroke:#000000;stroke-width:0.5;stroke-miterlimit:10;font-family:'Tahoma';font-size:14;text-anchor:middle;">ACE</text>
		<text id="Count_ACF" transform="matrix(1 0 0 1 413 289.9)" style="fill:#262262;stroke:#000000;stroke-width:0.5;stroke-miterlimit:10;font-family:'Tahoma';font-size:14;text-anchor:middle;">ACF</text>
		<text id="Count_ADE" transform="matrix(1 0 0 1 486.8 374.3)" style="fill:#262262;stroke:#000000;stroke-width:0.5;stroke-miterlimit:10;font-family:'Tahoma';font-size:14;text-anchor:middle;">ADE</text>
		<text id="Count_ADF" transform="matrix(1 0 0 1 539.5 354.6)" style="fill:#262262;stroke:#000000;stroke-width:0.5;stroke-miterlimit:10;font-family:'Tahoma';font-size:18;text-anchor:middle;">ADF</text>
		<text id="Count_AEF" transform="matrix(1 0 0 1 497.3 290)" style="fill:#262262;stroke:#000000;stroke-width:0.5;stroke-miterlimit:10;font-family:'Tahoma';font-size:14;text-anchor:middle;">AEF</text>
		<text id="Count_BCD" transform="matrix(1 0 0 1 370.8 416.4)" style="fill:#262262;stroke:#000000;stroke-width:0.5;stroke-miterlimit:10;font-family:'Tahoma';font-size:14;text-anchor:middle;">BCD</text>
		<text id="Count_BCE" transform="matrix(1 0 0 1 349.6 544.4)" style="fill:#262262;stroke:#000000;stroke-width:0.5;stroke-miterlimit:10;font-family:'Tahoma';font-size:18;text-anchor:middle;">BCE</text>
		<text id="Count_BCF" transform="matrix(1 0 0 1 370.8 490.4)" style="fill:#262262;stroke:#000000;stroke-width:0.5;stroke-miterlimit:10;font-family:'Tahoma';font-size:14;text-anchor:middle;">BCF</text>
		<text id="Count_BDE" transform="matrix(1 0 0 1 286.4 416.4)" style="fill:#262262;stroke:#000000;stroke-width:0.5;stroke-miterlimit:10;font-family:'Tahoma';font-size:14;text-anchor:middle;">BDE</text>
		<text id="Count_BDF" transform="matrix(1 0 0 1 244.2 458.7)" style="fill:#262262;stroke:#000000;stroke-width:0.5;stroke-miterlimit:10;font-family:'Tahoma';font-size:14;text-anchor:middle;">BDF</text>
		<text id="Count_BEF" transform="matrix(1 0 0 1 286.4 500.8)" style="fill:#262262;stroke:#000000;stroke-width:0.5;stroke-miterlimit:10;font-family:'Tahoma';font-size:14;text-anchor:middle;">BEF</text>
		<text id="Count_CDE" transform="matrix(1 0 0 1 328.6 374.3)" style="fill:#262262;stroke:#000000;stroke-width:0.5;stroke-miterlimit:10;font-family:'Tahoma';font-size:14;text-anchor:middle;">CDE</text>
		<text id="Count_CDF" transform="matrix(1 0 0 1 370.8 332.1)" style="fill:#262262;stroke:#000000;stroke-width:0.5;stroke-miterlimit:10;font-family:'Tahoma';font-size:14;text-anchor:middle;">CDF</text>
		<text id="Count_CEF" transform="matrix(1 0 0 1 328.7 289.9)" style="fill:#262262;stroke:#000000;stroke-width:0.5;stroke-miterlimit:10;font-family:'Tahoma';font-size:14;text-anchor:middle;">CEF</text>
		<text id="Count_DEF" transform="matrix(1 0 0 1 286.4 332.1)" style="fill:#262262;stroke:#000000;stroke-width:0.5;stroke-miterlimit:10;font-family:'Tahoma';font-size:14;text-anchor:middle;">DEF</text>
		<text id="Count_ABCD" transform="matrix(1 0 0 1 413 416.4)" style="fill:#262262;stroke:#000000;stroke-width:0.5;stroke-miterlimit:10;font-family:'Tahoma';font-size:14;text-anchor:middle;">ABCD</text>
		<text id="Count_ABCE" transform="matrix(1 0 0 1 434.1 544.4)" style="fill:#262262;stroke:#000000;stroke-width:0.5;stroke-miterlimit:10;font-family:'Tahoma';font-size:18;text-anchor:middle;">ABCE</text>
		<text id="Count_ABCF" transform="matrix(1 0 0 1 412.9 490.4)" style="fill:#262262;stroke:#000000;stroke-width:0.5;stroke-miterlimit:10;font-family:'Tahoma';font-size:14;text-anchor:middle;">ABCF</text>
		<text id="Count_ABDE" transform="matrix(1 0 0 1 486.8 416.4)" style="fill:#262262;stroke:#000000;stroke-width:0.5;stroke-miterlimit:10;font-family:'Tahoma';font-size:14;text-anchor:middle;">ABDE</text>
		<text id="Count_ABDF" transform="matrix(1 0 0 1 539.5 439)" style="fill:#262262;stroke:#000000;stroke-width:0.5;stroke-miterlimit:10;font-family:'Tahoma';font-size:18;text-anchor:middle;">ABDF</text>
		<text id="Count_ABEF" transform="matrix(1 0 0 1 497.3 500.8)" style="fill:#262262;stroke:#000000;stroke-width:0.5;stroke-miterlimit:10;font-family:'Tahoma';font-size:14;text-anchor:middle;">ABEF</text>
		<text id="Count_ACDE" transform="matrix(1 0 0 1 455.2 374.3)" style="fill:#262262;stroke:#000000;stroke-width:0.5;stroke-miterlimit:10;font-family:'Tahoma';font-size:14;text-anchor:middle;">ACDE</text>
		<text id="Count_ACDF" transform="matrix(1 0 0 1 413 332.1)" style="fill:#262262;stroke:#000000;stroke-width:0.5;stroke-miterlimit:10;font-family:'Tahoma';font-size:14;text-anchor:middle;">ACDF</text>
		<text id="Count_ACEF" transform="matrix(1 0 0 1 455.2 290)" style="fill:#262262;stroke:#000000;stroke-width:0.5;stroke-miterlimit:10;font-family:'Tahoma';font-size:14;text-anchor:middle;">ACEF</text>
		<text id="Count_ADEF" transform="matrix(1 0 0 1 500.9 347.6)" style="fill:#262262;stroke:#000000;stroke-width:0.5;stroke-miterlimit:10;font-family:'Tahoma';font-size:18;text-anchor:middle;">ADEF</text>
		<text id="Count_BCDE" transform="matrix(1 0 0 1 328.7 416.4)" style="fill:#262262;stroke:#000000;stroke-width:0.5;stroke-miterlimit:10;font-family:'Tahoma';font-size:14;text-anchor:middle;">BCDE</text>
		<text id="Count_BCDF" transform="matrix(1 0 0 1 370.8 458.7)" style="fill:#262262;stroke:#000000;stroke-width:0.5;stroke-miterlimit:10;font-family:'Tahoma';font-size:14;text-anchor:middle;">BCDF</text>
		<text id="Count_BCEF" transform="matrix(1 0 0 1 342.6 505.7)" style="fill:#262262;stroke:#000000;stroke-width:0.5;stroke-miterlimit:10;font-family:'Tahoma';font-size:18;text-anchor:middle;">BCEF</text>
		<text id="Count_BDEF" transform="matrix(1 0 0 1 286.4 458.7)" style="fill:#262262;stroke:#000000;stroke-width:0.5;stroke-miterlimit:10;font-family:'Tahoma';font-size:14;text-anchor:middle;">BDEF</text>
		<text id="Count_CDEF" transform="matrix(1 0 0 1 328.6 332.1)" style="fill:#262262;stroke:#000000;stroke-width:0.5;stroke-miterlimit:10;font-family:'Tahoma';font-size:14;text-anchor:middle;">CDEF</text>
		<text id="Count_ABCDE" transform="matrix(1 0 0 1 455.2 416.4)" style="fill:#262262;stroke:#000000;stroke-width:0.5;stroke-miterlimit:10;font-family:'Tahoma';font-size:14;text-anchor:middle;">ABCDE</text>
		<text id="Count_ABCDF" transform="matrix(1 0 0 1 412.9 458.7)" style="fill:#262262;stroke:#000000;stroke-width:0.5;stroke-miterlimit:10;font-family:'Tahoma';font-size:14;text-anchor:middle;">ABCDF</text>
		<text id="Count_ABCEF" transform="matrix(1 0 0 1 441.1 505.7)" style="fill:#262262;stroke:#000000;stroke-width:0.5;stroke-miterlimit:10;font-family:'Tahoma';font-size:18;text-anchor:middle;">ABCEF</text>
		<text id="Count_ABDEF" transform="matrix(1 0 0 1 500.8 446)" style="fill:#262262;stroke:#000000;stroke-width:0.5;stroke-miterlimit:10;font-family:'Tahoma';font-size:18;text-anchor:middle;">ABDEF</text>
		<text id="Count_ACDEF" transform="matrix(1 0 0 1 455.2 332.1)" style="fill:#262262;stroke:#000000;stroke-width:0.5;stroke-miterlimit:10;font-family:'Tahoma';font-size:14;text-anchor:middle;">ACDEF</text>
		<text id="Count_BCDEF" transform="matrix(1 0 0 1 328.6 458.7)" style="fill:#262262;stroke:#000000;stroke-width:0.5;stroke-miterlimit:10;font-family:'Tahoma';font-size:14;text-anchor:middle;">BCDEF</text>
		<text id="Count_ABCDEF" transform="matrix(1 0 0 1 455.2 465)" style="fill:#FFFFFF;stroke:#000000;stroke-width:0.5;stroke-miterlimit:10;font-family:'Tahoma';font-size:32;text-anchor:middle;">ABCDEF</text>
	</g>
	<g id="Group_CountSums">
		<text id="CountSUM_A" transform="matrix(1 0 0 1 512.6 125.5)" style="fill:#262262;font-family:'Tahoma';font-size:18;text-anchor:middle;">CountSUM_A</text>
		<text id="CountSUM_B" transform="matrix(1 0 0 1 72 522)" style="fill:#262262;font-family:'Tahoma';font-size:18;text-anchor:middle;">CountSUM_B</text>
		<text id="CountSUM_C" transform="matrix(1 0 0 1 323.9 158.6)" style="fill:#262262;font-family:'Tahoma';font-size:18;text-anchor:middle;">CountSUM_C</text>
		<text id="CountSUM_D" transform="matrix(1 0 0 1 75.7 377.6)" style="fill:#262262;font-family:'Tahoma';font-size:18;text-anchor:middle;">CountSUM_D</text>
		<text id="CountSUM_E" transform="matrix(1 0 0 1 219.5 216.7)" style="fill:#262262;font-family:'Tahoma';font-size:18;text-anchor:middle;">CountSUM_E</text>
		<text id="CountSUM_F" transform="matrix(1 0 0 1 141.5 290.6)" style="fill:#262262;font-family:'Tahoma';font-size:18;text-anchor:middle;">CountSUM_F</text>
	</g>
</g>
<g id="Group_Bullets" style="display:none;">
	<circle id="BulletA" style="opacity:0.2;fill:#FFF200;stroke:#010101;stroke-width:2;" cx="59.2" cy="120" r="6.9"/>
	<circle id="BulletB" style="opacity:0.2;fill:#2E3192;stroke:#010101;stroke-width:2;" cx="59.2" cy="138.7" r="6.9"/>
	<circle id="BulletC" style="opacity:0.2;fill:#ED1C24;stroke:#010101;stroke-width:2;" cx="59.2" cy="157.4" r="6.9"/>
	<circle id="BulletD" style="opacity:0.2;fill:#808285;stroke:#010101;stroke-width:2;" cx="59.2" cy="176.1" r="6.9"/>
	<circle id="BulletE" style="opacity:0.2;fill:#3C2415;stroke:#010101;stroke-width:2;" cx="59.2" cy="194.8" r="6.9"/>
	<circle id="BulletF" style="opacity:0.2;fill:#9E1F63;stroke:#010101;stroke-width:2;" cx="59.2" cy="213.5" r="6.9"/>
</g>
</svg>
