<?xml version="1.0" encoding="utf-8"?>
<!-- Created by Zoltan Dul in 2026 - free to use with MIT license. Part of React Venn Diagram Lab Module - https://github.com/ZoliQua/React-Venn-Diagram-Lab - SVG Version: 3.0.0 -->
<svg xmlns="http://www.w3.org/2000/svg"
	 xmlns:xlink="http://www.w3.org/1999/xlink"
	 version="1.1"
	 x="0px"
	 y="0px"
	 style="enable-background:new 0 0 700 700;"
	 xml:space="preserve" viewBox="0 0 700 700">
<g id="Shapes">
	<rect id="ShapeA" style="opacity:0.2;fill:#FFF200;stroke:#000000;stroke-width:3;stroke-miterlimit:10;" x="385.6" y="131.8" width="251.7" height="503.3" rx="15.2" ry="15.2"/>
	<rect id="ShapeB" style="opacity:0.2;fill:#2E3192;stroke:#000000;stroke-width:3;stroke-miterlimit:10;" x="133.9" y="383.4" width="503.3" height="251.7" rx="15.2" ry="15.2"/>
	<rect id="ShapeC" style="opacity:0.2;fill:#ED1C24;stroke:#000000;stroke-width:3;stroke-miterlimit:10;" x="301.7" y="215.6" width="167.8" height="335.6" rx="15.2" ry="15.2"/>
	<rect id="ShapeD" style="opacity:0.2;fill:#808285;stroke:#000000;stroke-width:3;stroke-miterlimit:10;" x="217.8" y="299.5" width="335.6" height="167.8" rx="15.2" ry="15.2"/>
</g>
<g id="Texts">
	<g id="Header">
		<text id="Title" transform="matrix(1 0 0 1 134.5 110.7)" style="fill:#262262;stroke:#000000;stroke-width:0.5;stroke-miterlimit:10;font-family:'Tahoma';font-size:14;">Anderson-Venn 4-set diagram</text>
	</g>
	<g id="Group_Names">
		<text id="NameA" transform="matrix(1 0 0 1 476.2 96.1)" style="fill:#262262;stroke:#000000;stroke-width:0.5;stroke-miterlimit:10;font-family:'Tahoma';font-size:24;">NameA</text>
		<text id="NameB" transform="matrix(1 0 0 1 73.5 348.9)" style="fill:#262262;stroke:#000000;stroke-width:0.5;stroke-miterlimit:10;font-family:'Tahoma';font-size:24;">NameB</text>
		<text id="NameC" transform="matrix(1 0 0 1 259 176.1)" style="fill:#262262;stroke:#000000;stroke-width:0.5;stroke-miterlimit:10;font-family:'Tahoma';font-size:24;">NameC</text>
		<text id="NameD" transform="matrix(1 0 0 1 159.9 256)" style="fill:#262262;stroke:#000000;stroke-width:0.5;stroke-miterlimit:10;font-family:'Tahoma';font-size:24;">NameD</text>
	</g>
	<g id="Group_Values">
		<text id="Count_A" transform="matrix(1 0 0 1 539.5 242.4)" style="fill:#262262;stroke:#000000;stroke-width:0.5;stroke-miterlimit:10;font-family:'Tahoma';font-size:36;text-anchor:middle;">A</text>
		<text id="Count_B" transform="matrix(1 0 0 1 231.8 549.8)" style="fill:#262262;stroke:#000000;stroke-width:0.5;stroke-miterlimit:10;font-family:'Tahoma';font-size:36;text-anchor:middle;">B</text>
		<text id="Count_C" transform="matrix(1 0 0 1 343.7 270.2)" style="fill:#262262;stroke:#000000;stroke-width:0.5;stroke-miterlimit:10;font-family:'Tahoma';font-size:36;text-anchor:middle;">C</text>
		<text id="Count_D" transform="matrix(1 0 0 1 259.8 354)" style="fill:#262262;stroke:#000000;stroke-width:0.5;stroke-miterlimit:10;font-family:'Tahoma';font-size:36;text-anchor:middle;">D</text>
		<text id="Count_AB" transform="matrix(1 0 0 1 539.4 549.8)" style="fill:#262262;stroke:#000000;stroke-width:0.5;stroke-miterlimit:10;font-family:'Tahoma';font-size:36;text-anchor:middle;">AB</text>
		<text id="Count_AC" transform="matrix(1 0 0 1 427.5 266)" style="fill:#262262;stroke:#000000;stroke-width:0.5;stroke-miterlimit:10;font-family:'Tahoma';font-size:24;text-anchor:middle;">AC</text>
		<text id="Count_AD" transform="matrix(1 0 0 1 511.5 349.8)" style="fill:#262262;stroke:#000000;stroke-width:0.5;stroke-miterlimit:10;font-family:'Tahoma';font-size:24;text-anchor:middle;">AD</text>
		<text id="Count_BC" transform="matrix(1 0 0 1 343.6 517.6)" style="fill:#262262;stroke:#000000;stroke-width:0.5;stroke-miterlimit:10;font-family:'Tahoma';font-size:24;text-anchor:middle;">BC</text>
		<text id="Count_BD" transform="matrix(1 0 0 1 259.8 433.7)" style="fill:#262262;stroke:#000000;stroke-width:0.5;stroke-miterlimit:10;font-family:'Tahoma';font-size:24;text-anchor:middle;">BD</text>
		<text id="Count_CD" transform="matrix(1 0 0 1 343.7 349.8)" style="fill:#262262;stroke:#000000;stroke-width:0.5;stroke-miterlimit:10;font-family:'Tahoma';font-size:24;text-anchor:middle;">CD</text>
		<text id="Count_ABC" transform="matrix(1 0 0 1 427.6 517.6)" style="fill:#262262;stroke:#000000;stroke-width:0.5;stroke-miterlimit:10;font-family:'Tahoma';font-size:24;text-anchor:middle;">ABC</text>
		<text id="Count_ABD" transform="matrix(1 0 0 1 511.5 433.7)" style="fill:#262262;stroke:#000000;stroke-width:0.5;stroke-miterlimit:10;font-family:'Tahoma';font-size:24;text-anchor:middle;">ABD</text>
		<text id="Count_ACD" transform="matrix(1 0 0 1 427.5 349.8)" style="fill:#262262;stroke:#000000;stroke-width:0.5;stroke-miterlimit:10;font-family:'Tahoma';font-size:24;text-anchor:middle;">ACD</text>
		<text id="Count_BCD" transform="matrix(1 0 0 1 343.6 433.7)" style="fill:#262262;stroke:#000000;stroke-width:0.5;stroke-miterlimit:10;font-family:'Tahoma';font-size:24;text-anchor:middle;">BCD</text>
		<text id="Count_ABCD" transform="matrix(1 0 0 1 427.6 437.9)" style="fill:#FFFFFF;stroke:#000000;stroke-width:0.5;stroke-miterlimit:10;font-family:'Tahoma';font-size:36;text-anchor:middle;">ABCD</text>
	</g>
	<g id="Group_CountSums">
		<text id="CountSUM_A" transform="matrix(1 0 0 1 516.9 118.4)" style="fill:#262262;font-family:'Tahoma';font-size:18;text-anchor:middle;">CountSUM_A</text>
		<text id="CountSUM_B" transform="matrix(1 0 0 1 114.7 371.3)" style="fill:#262262;font-family:'Tahoma';font-size:18;text-anchor:middle;">CountSUM_B</text>
		<text id="CountSUM_C" transform="matrix(1 0 0 1 298.7 199.7)" style="fill:#262262;font-family:'Tahoma';font-size:18;text-anchor:middle;">CountSUM_C</text>
		<text id="CountSUM_D" transform="matrix(1 0 0 1 198.6 281.5)" style="fill:#262262;font-family:'Tahoma';font-size:18;text-anchor:middle;">CountSUM_D</text>
	</g>
</g>
<g id="Group_Bullets" style="display:none;">
	<circle id="BulletA" style="opacity:0.2;fill:#FFF200;stroke:#010101;stroke-width:2;" cx="59.2" cy="120" r="6.9"/>
	<circle id="BulletB" style="opacity:0.2;fill:#2E3192;stroke:#010101;stroke-width:2;" cx="59.2" cy="138.7" r="6.9"/>
	<circle id="BulletC" style="opacity:0.2;fill:#ED1C24;stroke:#010101;stroke-width:2;" cx="59.2" cy="157.4" r="6.9"/>
	<circle id="BulletD" style="opacity:0.2;fill:#808285;stroke:#010101;stroke-width:2;" cx="59.2" cy="176.1" r="6.9"/>
</g>
</svg>
