<?xml version="1.0" encoding="utf-8"?>
<!-- Created by Zoltan Dul in 2026 - free to use with MIT license. Part of React Venn Diagram Analyzer - https://github.com/ZoliQua/React-Venn-Diagram-Analyser - SVG Version: 3.0.0 -->
<svg xmlns="http://www.w3.org/2000/svg"
	 xmlns:xlink="http://www.w3.org/1999/xlink"
	 version="1.1"
	 x="0px"
	 y="0px"
	 style="enable-background:new 0 0 700 700;"
	 xml:space="preserve" viewBox="0 0 700 700">
<g id="Shapes">
	<path id="ShapeA" style="opacity:0.2;fill:#FFF200;stroke:#000000;stroke-width:2;stroke-linecap:round;stroke-linejoin:round;stroke-miterlimit:10;" d="   M 519.9 165.4 L 517.4 160.3 L 514.6 155.5 L 511.8 150.7 L 508.8 146.1 L 505.7 141.6 L 502.4 137.2 L 499.1 133.0 L 495.6 128.9 L 492.0 125.0 L 488.4 121.2 L 484.6 117.5 L 480.7 114.0 L 476.7 110.5 L 472.6 107.3 L 468.4 104.1 L 464.2 101.1 L 459.8 98.2 L 455.4 95.4 L 451.0 92.8 L 446.4 90.3 L 441.8 87.9 L 437.1 85.7 L 432.4 83.6 L 427.6 81.6 L 422.7 79.8 L 417.8 78.0 L 412.9 76.5 L 407.9 75.0 L 402.9 73.6 L 397.9 72.4 L 392.8 71.4 L 387.7 70.4 L 382.6 69.6 L 377.4 68.9 L 372.3 68.3 L 367.1 67.9 L 362.0 67.5 L 356.8 67.3 L 351.7 67.3 L 346.5 67.3 L 341.4 67.5 L 336.2 67.8 L 331.1 68.2 L 326.0 68.8 L 321.0 69.4 L 315.9 70.2 L 310.9 71.2 L 305.9 72.2 L 301.0 73.4 L 296.1 74.6 L 291.3 76.1 L 286.5 77.6 L 281.7 79.2 L 277.1 81.0 L 272.5 82.9 L 267.9 84.9 L 263.4 87.0 L 259.0 89.3 L 254.7 91.7 L 250.5 94.2 L 246.3 96.8 L 242.2 99.5 L 238.2 102.3 L 234.4 105.3 L 230.6 108.4 L 226.8 111.6 L 223.1 114.9 L 219.5 118.3 L 216.0 121.9 L 212.6 125.6 L 209.2 129.4 L 205.9 133.3 L 202.7 137.3 L 199.6 141.4 L 196.6 145.6 L 193.8 149.9 L 191.0 154.3 L 188.3 158.7 L 185.7 163.3 L 183.3 167.9 L 181.3 171.4 L 179.4 175.0 L 177.6 178.6 L 175.8 182.3 L 174.2 186.0 L 172.7 189.7 L 171.3 193.5 L 170.0 197.4 L 168.8 201.3 L 167.7 205.2 L 166.7 209.1 L 165.8 213.1 L 165.1 217.1 L 164.4 221.1 L 163.9 225.2 L 163.4 229.2 L 163.0 235.2 L 162.7 241.3 L 162.6 247.6 L 162.6 254.0 L 162.7 260.3 L 163.0 266.4 L 163.5 272.3 L 164.1 277.8 L 165.2 284.9 L 166.5 292.5 L 168.1 300.5 L 169.9 308.6 L 171.8 316.7 L 173.9 324.5 L 176.0 331.9 L 178.1 338.5 L 182.2 349.8 L 186.3 360.8 L 190.6 371.6 L 195.0 382.2 L 199.5 392.6 L 204.2 402.8 L 209.1 412.9 L 214.1 422.8 L 219.2 432.7 L 224.6 442.4 L 230.1 452.0 L 235.8 461.6 L 241.7 471.1 L 247.8 480.6 L 254.1 490.0 L 260.6 499.5 L 264.4 504.9 L 268.3 510.2 L 272.3 515.3 L 276.4 520.3 L 280.5 525.1 L 284.6 529.9 L 288.9 534.5 L 293.1 539.1 L 301.2 547.2 L 309.7 555.7 L 314.1 559.8 L 318.3 563.7 L 322.4 567.3 L 326.4 570.4 L 330.8 573.9 L 335.7 577.6 L 341.2 581.6 L 347.4 585.7 L 351.5 588.0 L 355.5 589.9 L 359.5 591.6 L 363.5 593.0 L 367.4 594.2 L 371.3 595.1 L 375.1 595.9 L 378.8 596.4 L 382.5 596.7 L 386.2 596.8 L 389.8 596.7 L 393.3 596.5 L 396.7 596.0 L 400.0 595.4 L 403.3 594.7 L 406.5 593.7 L 409.5 592.7 L 412.5 591.5 L 415.4 590.2 L 418.2 588.7 L 420.9 587.2 L 423.4 585.5 L 425.9 583.8 L 428.2 582.0 L 430.4 580.1 L 432.5 578.1 L 434.4 576.1 L 436.2 574.0 L 437.9 571.9 L 439.4 569.7 L 440.8 567.5 L 442.0 565.3 L 445.0 559.9 L 447.9 554.2 L 450.5 548.4 L 452.9 542.5 L 455.0 536.5 L 456.9 530.4 L 458.5 524.5 L 459.9 518.7 L 460.6 515.5 L 461.5 512.5 L 462.3 509.7 L 463.3 507.1 L 464.3 504.6 L 465.3 502.3 L 466.4 500.1 L 467.6 498.1 L 468.8 496.2 L 470.1 494.4 L 471.4 492.7 L 472.7 491.2 L 474.1 489.7 L 475.5 488.4 L 476.9 487.2 L 478.4 486.1 L 481.5 484.1 L 484.6 482.4 L 487.9 481.0 L 491.2 479.9 L 494.5 478.9 L 497.9 478.0 L 504.6 476.5 L 508.0 475.8 L 511.2 474.9 L 514.2 474.0 L 517.2 472.9 L 519.9 471.7 L 522.6 470.4 L 525.1 469.0 L 527.5 467.5 L 529.7 465.9 L 531.8 464.3 L 533.7 462.5 L 535.5 460.7 L 537.2 458.8 L 538.7 456.8 L 540.0 454.7 L 541.3 452.6 L 542.4 450.5 L 543.3 448.2 L 544.1 446.0 L 544.7 443.6 L 545.2 441.3 L 545.6 438.9 L 545.8 436.5 L 545.8 434.0 L 545.8 431.5 L 545.5 429.0 L 545.2 426.5 L 544.6 424.0 L 544.0 421.5 L 543.1 418.9 L 542.1 416.4 L 541.0 413.9 L 538.6 408.7 L 536.0 403.9 L 533.4 399.4 L 530.7 395.2 L 525.3 386.8 L 522.6 382.3 L 519.9 377.5 L 517.5 372.9 L 515.4 368.6 L 513.6 364.5 L 512.1 360.8 L 510.9 357.2 L 510.1 353.8 L 509.6 350.6 L 509.3 347.4 L 509.4 344.4 L 509.7 341.3 L 510.3 338.2 L 511.2 335.1 L 512.4 331.8 L 513.8 328.5 L 515.5 325.0 L 517.4 321.3 L 522.7 311.5 L 527.4 302.8 L 531.7 294.2 L 533.8 289.7 L 535.9 284.8 L 538.3 278.8 L 540.2 273.2 L 540.9 270.4 L 541.6 267.7 L 542.1 265.1 L 542.5 262.4 L 543.1 257.0 L 543.4 251.5 L 543.3 245.7 L 542.9 239.5 L 542.5 234.1 L 541.8 228.8 L 540.9 223.5 L 539.8 218.3 L 538.6 213.1 L 537.2 208.1 L 535.7 203.2 L 534.1 198.3 L 532.4 193.6 L 530.6 189.1 L 527.0 180.4 L 523.4 172.5 L 519.9 165.4 Z"/>
	<path id="ShapeB" style="opacity:0.2;fill:#2E3192;stroke:#000000;stroke-width:2;stroke-linecap:round;stroke-linejoin:round;stroke-miterlimit:10;" d="   M 619.0 420.9 L 621.9 415.9 L 624.6 410.9 L 627.1 405.9 L 629.4 400.9 L 631.6 395.8 L 633.6 390.8 L 635.4 385.8 L 637.0 380.7 L 638.5 375.7 L 639.8 370.7 L 640.9 365.7 L 641.8 360.7 L 642.6 355.7 L 643.2 350.8 L 643.7 345.8 L 644.0 340.9 L 644.2 336.0 L 644.2 331.1 L 644.0 326.3 L 643.7 321.4 L 643.3 316.6 L 642.7 311.9 L 642.0 307.1 L 641.2 302.4 L 640.2 297.8 L 639.0 293.1 L 637.8 288.6 L 636.4 284.0 L 634.9 279.5 L 633.2 275.1 L 631.5 270.7 L 629.6 266.3 L 627.6 262.0 L 625.5 257.8 L 623.3 253.6 L 620.9 249.4 L 618.5 245.4 L 615.9 241.4 L 613.3 237.4 L 610.5 233.5 L 607.7 229.7 L 604.7 226.0 L 601.7 222.3 L 598.5 218.7 L 595.3 215.2 L 592.0 211.8 L 588.6 208.4 L 585.1 205.1 L 581.5 201.9 L 577.9 198.8 L 574.2 195.8 L 570.4 192.8 L 566.5 190.0 L 562.6 187.3 L 558.6 184.6 L 554.5 182.1 L 550.4 179.6 L 546.2 177.2 L 542.0 175.0 L 537.7 172.9 L 533.3 170.8 L 528.9 168.9 L 524.4 167.1 L 519.9 165.4 L 514.5 163.5 L 508.8 161.7 L 502.8 160.0 L 496.4 158.3 L 489.7 156.8 L 482.7 155.5 L 475.3 154.3 L 467.6 153.2 L 459.9 152.4 L 452.4 151.9 L 444.8 151.7 L 437.0 151.7 L 429.2 152.0 L 421.0 152.6 L 412.5 153.4 L 403.7 154.5 L 398.4 155.5 L 393.2 156.8 L 388.1 158.1 L 383.1 159.7 L 378.1 161.4 L 373.1 163.2 L 368.2 165.2 L 363.4 167.3 L 355.9 170.9 L 349.6 174.1 L 344.2 177.0 L 339.4 179.9 L 334.9 182.8 L 330.4 186.0 L 325.8 189.5 L 320.6 193.5 L 312.8 199.7 L 304.7 206.4 L 296.3 213.6 L 287.7 221.3 L 279.0 229.3 L 270.0 237.7 L 261.0 246.5 L 251.8 255.7 L 242.5 265.2 L 233.2 274.9 L 223.9 285.0 L 214.6 295.3 L 205.3 305.8 L 196.2 316.5 L 187.1 327.4 L 178.1 338.5 L 166.2 354.9 L 158.6 365.4 L 151.3 375.6 L 148.3 380.0 L 145.7 383.9 L 141.3 391.0 L 136.8 398.6 L 130.9 408.8 L 126.9 416.3 L 125.1 419.8 L 123.4 423.3 L 121.7 427.0 L 120.1 431.1 L 118.5 435.6 L 116.8 440.7 L 115.9 444.2 L 115.1 447.6 L 114.5 451.0 L 114.0 454.2 L 113.7 457.4 L 113.6 460.4 L 113.6 463.4 L 113.8 466.4 L 114.1 469.2 L 114.6 472.0 L 115.2 474.6 L 115.9 477.2 L 116.8 479.7 L 117.9 482.2 L 119.1 484.5 L 120.4 486.8 L 121.9 489.0 L 123.5 491.1 L 125.2 493.1 L 127.0 495.1 L 129.0 497.0 L 131.2 498.7 L 133.4 500.5 L 135.8 502.1 L 138.3 503.6 L 140.9 505.1 L 143.6 506.5 L 146.4 507.8 L 149.4 509.0 L 152.5 510.2 L 155.7 511.3 L 159.0 512.3 L 166.0 514.1 L 173.1 515.6 L 180.2 516.8 L 187.4 517.9 L 194.6 518.9 L 201.7 519.7 L 215.8 521.2 L 221.1 521.9 L 225.9 522.8 L 230.2 523.9 L 234.1 525.1 L 237.7 526.6 L 240.9 528.2 L 243.8 530.0 L 246.5 531.9 L 249.0 534.0 L 251.3 536.3 L 253.5 538.8 L 255.5 541.3 L 257.6 544.1 L 259.6 547.0 L 263.7 553.2 L 265.3 555.2 L 266.8 557.2 L 268.4 559.0 L 270.1 560.7 L 271.8 562.4 L 273.5 563.9 L 275.2 565.3 L 277.0 566.6 L 278.9 567.9 L 280.7 569.0 L 282.6 570.0 L 284.5 571.0 L 286.5 571.8 L 288.4 572.6 L 290.4 573.2 L 292.4 573.8 L 296.5 574.6 L 300.7 575.1 L 304.9 575.2 L 309.1 574.9 L 313.4 574.3 L 317.7 573.3 L 322.0 572.0 L 326.4 570.4 L 328.5 569.6 L 330.7 568.5 L 332.9 567.1 L 335.3 565.6 L 337.7 563.9 L 340.2 562.0 L 345.2 557.8 L 350.2 553.2 L 355.1 548.3 L 359.8 543.4 L 364.1 538.5 L 371.2 530.4 L 374.6 526.9 L 377.8 523.6 L 381.0 520.7 L 384.3 518.2 L 385.9 517.0 L 387.6 516.0 L 389.3 515.0 L 391.1 514.1 L 393.0 513.3 L 394.9 512.7 L 396.9 512.1 L 398.9 511.6 L 401.1 511.2 L 403.3 510.9 L 405.7 510.8 L 408.2 510.7 L 410.8 510.8 L 413.5 510.9 L 416.4 511.2 L 419.4 511.5 L 425.9 512.6 L 433.1 514.2 L 439.0 515.5 L 445.0 516.7 L 451.7 517.7 L 459.9 518.7 L 466.7 519.1 L 472.9 519.2 L 478.6 519.2 L 484.1 519.0 L 489.6 518.5 L 495.2 517.8 L 501.2 516.8 L 507.8 515.5 L 516.9 512.5 L 521.2 511.0 L 525.4 509.3 L 529.4 507.7 L 533.4 505.9 L 537.2 504.1 L 541.0 502.2 L 544.6 500.3 L 548.2 498.2 L 551.7 496.1 L 555.1 493.8 L 558.5 491.5 L 561.7 489.0 L 565.0 486.4 L 568.2 483.8 L 571.3 481.0 L 574.5 478.0 L 577.6 475.0 L 580.7 471.8 L 583.7 468.4 L 586.8 465.0 L 593.0 457.5 L 599.2 449.4 L 605.6 440.7 L 612.2 431.2 L 619.0 420.9 Z"/>
	<path id="ShapeC" style="opacity:0.2;fill:#ED1C24;stroke:#000000;stroke-width:2;stroke-linecap:round;stroke-linejoin:round;stroke-miterlimit:10;" d="   M 491.8 573.0 L 496.1 573.3 L 500.3 573.5 L 504.5 573.6 L 508.6 573.5 L 512.7 573.3 L 516.8 573.0 L 520.9 572.6 L 524.9 572.0 L 528.9 571.4 L 532.8 570.6 L 536.7 569.7 L 540.5 568.7 L 544.3 567.6 L 548.0 566.4 L 551.7 565.1 L 555.3 563.7 L 558.8 562.2 L 562.3 560.6 L 565.7 558.9 L 569.1 557.1 L 572.4 555.2 L 575.6 553.2 L 578.8 551.2 L 581.9 549.1 L 584.9 546.8 L 587.8 544.6 L 590.6 542.2 L 593.4 539.8 L 596.1 537.2 L 598.7 534.7 L 601.2 532.0 L 603.6 529.3 L 605.9 526.5 L 608.1 523.7 L 610.2 520.8 L 612.2 517.8 L 614.1 514.8 L 615.9 511.7 L 617.6 508.6 L 619.2 505.5 L 620.7 502.3 L 622.1 499.0 L 623.3 495.7 L 624.5 492.4 L 625.5 489.0 L 626.4 485.6 L 627.1 482.2 L 627.8 478.7 L 628.3 475.2 L 628.7 471.7 L 628.9 468.2 L 629.0 464.6 L 629.0 461.0 L 628.8 457.4 L 628.5 453.8 L 628.1 450.2 L 627.5 446.5 L 626.7 442.9 L 625.8 439.2 L 624.8 435.6 L 623.5 431.9 L 622.2 428.2 L 620.7 424.6 L 619.0 420.9 L 617.2 417.6 L 615.4 414.3 L 613.4 411.0 L 611.3 407.8 L 606.9 401.4 L 602.1 395.3 L 597.2 389.3 L 592.1 383.6 L 587.0 378.2 L 581.9 373.0 L 577.8 369.0 L 573.6 365.1 L 569.4 361.4 L 565.1 357.7 L 556.9 351.0 L 549.3 344.9 L 539.4 337.3 L 530.7 330.9 L 517.4 321.3 L 512.7 318.1 L 506.9 314.1 L 494.0 304.9 L 481.9 296.0 L 473.9 289.9 L 469.3 286.0 L 465.1 282.1 L 461.4 278.2 L 458.1 274.2 L 455.1 270.2 L 452.3 266.1 L 449.8 261.9 L 447.5 257.5 L 445.3 253.0 L 443.2 248.3 L 439.0 238.2 L 434.5 227.0 L 429.2 214.6 L 427.8 211.3 L 426.4 207.9 L 423.8 200.8 L 421.1 193.7 L 419.8 190.3 L 418.4 187.1 L 414.9 179.2 L 411.3 170.6 L 407.5 162.0 L 405.6 158.1 L 403.7 154.5 L 399.2 146.5 L 397.0 142.9 L 394.9 139.6 L 392.7 136.3 L 390.4 133.2 L 387.9 130.1 L 385.1 127.0 L 383.3 125.0 L 381.4 123.2 L 379.4 121.4 L 377.3 119.7 L 375.2 118.1 L 373.0 116.6 L 370.8 115.3 L 368.5 114.0 L 366.1 112.8 L 363.7 111.7 L 361.3 110.7 L 358.8 109.9 L 356.3 109.1 L 353.8 108.4 L 351.2 107.9 L 348.6 107.4 L 346.0 107.0 L 343.4 106.7 L 340.8 106.6 L 338.2 106.5 L 335.6 106.5 L 332.9 106.7 L 330.3 106.9 L 327.7 107.3 L 325.1 107.7 L 322.6 108.2 L 320.0 108.9 L 317.5 109.6 L 315.0 110.5 L 312.6 111.4 L 310.2 112.5 L 307.8 113.6 L 305.1 115.2 L 302.6 116.8 L 300.2 118.6 L 297.9 120.3 L 295.7 122.2 L 293.6 124.1 L 291.6 126.0 L 289.7 128.1 L 286.1 132.3 L 282.6 136.9 L 279.2 141.7 L 275.9 146.8 L 273.3 150.8 L 270.6 154.9 L 265.3 163.5 L 260.1 172.3 L 254.8 180.7 L 250.9 186.6 L 248.8 189.4 L 246.7 192.2 L 244.4 194.9 L 242.0 197.6 L 239.4 200.1 L 236.7 202.7 L 233.7 205.1 L 230.6 207.5 L 227.1 209.8 L 223.4 212.0 L 219.5 214.2 L 215.2 216.3 L 210.6 218.4 L 205.6 220.3 L 201.2 221.9 L 196.7 223.4 L 191.9 224.8 L 186.9 226.0 L 181.6 227.0 L 176.0 227.9 L 169.9 228.7 L 163.4 229.2 L 157.4 229.8 L 151.6 230.6 L 146.1 231.5 L 140.8 232.7 L 135.9 234.0 L 131.2 235.6 L 126.7 237.4 L 122.6 239.5 L 119.9 241.2 L 117.3 243.0 L 114.8 244.9 L 112.5 246.9 L 110.3 249.1 L 108.3 251.3 L 106.4 253.7 L 104.6 256.1 L 102.9 258.7 L 101.4 261.3 L 100.0 264.0 L 98.7 266.7 L 97.6 269.6 L 96.6 272.4 L 95.8 275.4 L 95.1 278.4 L 94.5 281.4 L 94.1 284.5 L 93.8 287.6 L 93.7 290.7 L 93.7 293.8 L 93.9 297.0 L 94.2 300.2 L 94.7 303.4 L 95.3 306.5 L 96.1 309.7 L 97.0 312.9 L 98.1 316.0 L 99.4 319.1 L 100.8 322.2 L 102.3 325.3 L 104.0 328.3 L 106.2 331.6 L 108.6 334.9 L 111.1 338.1 L 113.8 341.3 L 116.6 344.5 L 119.7 347.6 L 122.9 350.7 L 126.4 353.8 L 132.6 359.4 L 139.3 365.2 L 145.8 370.7 L 151.3 375.6 L 155.6 379.1 L 159.5 382.7 L 163.0 386.3 L 166.0 389.9 L 168.7 393.6 L 170.9 397.3 L 172.8 401.0 L 174.3 404.8 L 175.4 408.7 L 176.2 412.6 L 176.7 416.7 L 176.8 420.8 L 176.6 425.1 L 176.2 429.5 L 175.4 434.1 L 174.3 438.8 L 164.7 474.6 L 162.5 484.2 L 161.5 489.1 L 160.6 493.9 L 160.0 498.7 L 159.4 503.3 L 159.1 507.9 L 159.0 512.3 L 159.0 515.2 L 159.3 518.1 L 159.6 521.1 L 160.1 524.0 L 160.8 526.8 L 161.6 529.7 L 162.5 532.5 L 163.6 535.2 L 164.8 537.9 L 166.2 540.5 L 167.6 543.1 L 169.3 545.5 L 171.1 547.9 L 173.0 550.2 L 175.0 552.4 L 177.2 554.4 L 179.5 556.4 L 181.9 558.2 L 184.5 559.9 L 187.2 561.4 L 190.1 562.8 L 193.1 564.1 L 196.2 565.1 L 199.4 566.0 L 202.8 566.7 L 206.3 567.2 L 209.9 567.6 L 213.6 567.7 L 217.5 567.6 L 221.5 567.3 L 225.6 566.7 L 229.9 565.9 L 235.0 564.6 L 240.0 563.0 L 245.0 561.3 L 249.7 559.6 L 254.0 557.8 L 257.9 556.1 L 261.2 554.5 L 263.7 553.2 L 272.7 548.7 L 280.6 544.9 L 293.1 539.1 L 298.5 536.9 L 303.5 535.0 L 308.2 533.5 L 312.8 532.3 L 317.1 531.4 L 321.3 530.8 L 325.3 530.4 L 329.3 530.4 L 333.3 530.6 L 337.3 531.1 L 341.4 531.8 L 345.5 532.7 L 349.8 533.9 L 354.3 535.2 L 364.1 538.5 L 381.1 545.0 L 400.5 552.5 L 404.4 554.0 L 408.8 555.6 L 418.8 558.9 L 430.1 562.2 L 436.0 563.8 L 442.0 565.3 L 455.1 568.2 L 461.0 569.4 L 466.7 570.3 L 472.4 571.2 L 478.4 571.9 L 484.8 572.5 L 491.8 573.0 Z"/>
	<path id="ShapeD" style="opacity:0.2;fill:#808285;stroke:#000000;stroke-width:2;stroke-linecap:round;stroke-linejoin:round;stroke-miterlimit:10;" d="   M 260.6 604.3 L 263.4 606.6 L 266.3 608.8 L 269.3 611.0 L 272.4 613.1 L 275.6 615.0 L 278.8 616.9 L 282.2 618.8 L 285.6 620.5 L 289.2 622.1 L 292.7 623.7 L 296.4 625.2 L 300.1 626.5 L 303.9 627.8 L 307.7 629.0 L 311.6 630.2 L 315.6 631.2 L 323.6 633.0 L 331.7 634.4 L 340.0 635.5 L 348.4 636.3 L 356.9 636.6 L 365.4 636.6 L 373.9 636.3 L 382.4 635.6 L 390.9 634.5 L 399.2 633.1 L 403.4 632.2 L 407.5 631.2 L 411.6 630.2 L 415.6 629.0 L 419.6 627.8 L 423.6 626.5 L 427.5 625.0 L 431.3 623.5 L 435.1 621.9 L 438.9 620.2 L 442.6 618.4 L 446.2 616.5 L 449.7 614.5 L 453.2 612.4 L 456.6 610.2 L 459.9 607.9 L 463.1 605.6 L 466.2 603.1 L 469.3 600.5 L 472.2 597.9 L 475.0 595.1 L 477.8 592.2 L 480.4 589.3 L 482.9 586.2 L 485.3 583.0 L 487.6 579.8 L 489.8 576.4 L 491.8 573.0 L 493.8 569.7 L 495.6 566.5 L 497.3 563.3 L 498.9 560.0 L 500.4 556.8 L 501.7 553.4 L 502.8 550.1 L 503.9 546.6 L 504.8 543.1 L 505.6 539.5 L 506.3 535.8 L 506.8 532.0 L 507.3 528.1 L 507.6 524.0 L 507.7 519.8 L 507.8 515.5 L 507.7 511.0 L 507.6 506.4 L 506.9 496.7 L 505.9 486.6 L 504.6 476.5 L 503.9 471.6 L 503.1 467.3 L 501.4 459.7 L 499.8 452.2 L 499.0 448.0 L 498.2 443.3 L 497.5 437.4 L 497.1 432.0 L 497.0 427.0 L 497.2 422.3 L 497.7 418.0 L 498.4 413.9 L 499.4 410.0 L 500.7 406.3 L 502.2 402.7 L 504.0 399.2 L 506.1 395.8 L 508.4 392.3 L 510.9 388.8 L 513.7 385.2 L 519.9 377.5 L 535.6 360.2 L 549.3 344.9 L 553.2 340.2 L 556.7 335.5 L 559.9 331.0 L 562.7 326.5 L 565.4 322.1 L 567.8 317.8 L 570.1 313.4 L 572.3 309.1 L 573.4 306.8 L 574.3 304.5 L 575.1 302.1 L 575.8 299.7 L 576.4 297.2 L 576.9 294.8 L 577.2 292.3 L 577.4 289.8 L 577.6 287.3 L 577.6 284.8 L 577.4 282.3 L 577.2 279.8 L 576.8 277.3 L 576.3 274.8 L 575.7 272.4 L 574.9 270.0 L 574.0 267.6 L 572.9 265.3 L 571.8 263.0 L 570.4 260.7 L 569.0 258.5 L 567.4 256.4 L 565.6 254.3 L 563.7 252.3 L 561.7 250.4 L 559.5 248.6 L 557.1 246.8 L 554.6 245.1 L 551.9 243.6 L 549.1 242.1 L 546.1 240.7 L 542.9 239.5 L 534.1 236.7 L 525.1 234.2 L 516.0 231.9 L 507.2 229.9 L 498.5 228.2 L 490.3 226.7 L 482.3 225.2 L 473.9 223.5 L 429.2 214.6 L 370.8 203.3 L 320.6 193.5 L 303.9 190.1 L 286.8 186.8 L 270.1 183.7 L 254.8 180.7 L 234.6 176.8 L 212.0 172.4 L 204.0 171.0 L 195.9 169.7 L 188.7 168.6 L 183.3 167.9 L 179.0 167.7 L 175.0 167.7 L 171.1 167.9 L 167.4 168.3 L 163.8 168.9 L 160.5 169.7 L 157.2 170.7 L 154.2 171.9 L 151.3 173.3 L 148.5 174.8 L 145.9 176.6 L 143.5 178.4 L 141.2 180.5 L 139.0 182.6 L 137.0 185.0 L 135.2 187.4 L 133.4 190.0 L 131.9 192.7 L 130.4 195.5 L 129.1 198.4 L 127.9 201.4 L 126.8 204.6 L 125.9 207.8 L 125.0 211.0 L 124.3 214.4 L 123.7 217.8 L 123.3 221.3 L 122.9 224.9 L 122.7 228.5 L 122.5 232.1 L 122.5 235.8 L 122.6 239.5 L 122.9 247.4 L 123.6 255.0 L 124.6 262.3 L 125.8 269.4 L 127.3 276.6 L 129.1 283.8 L 131.1 291.2 L 133.4 298.9 L 134.4 302.2 L 135.3 305.5 L 136.1 308.7 L 136.7 312.0 L 137.2 315.2 L 137.4 318.4 L 137.5 321.6 L 137.3 324.9 L 136.9 328.2 L 136.3 331.6 L 135.4 335.1 L 134.2 338.6 L 132.7 342.2 L 131.0 346.0 L 128.8 349.8 L 126.4 353.8 L 123.8 358.2 L 121.6 362.5 L 119.9 366.6 L 118.6 370.7 L 117.8 374.6 L 117.4 378.4 L 117.3 382.1 L 117.6 385.6 L 118.3 389.0 L 119.2 392.3 L 120.5 395.4 L 122.1 398.4 L 123.9 401.2 L 126.0 403.9 L 128.3 406.4 L 130.9 408.8 L 135.7 412.9 L 141.1 417.0 L 146.7 421.0 L 152.6 425.0 L 164.1 432.4 L 174.3 438.8 L 184.1 444.9 L 192.4 450.1 L 195.9 452.6 L 199.2 455.0 L 202.1 457.5 L 204.7 460.0 L 206.9 462.8 L 207.9 464.2 L 208.8 465.7 L 209.6 467.3 L 210.4 469.0 L 211.1 470.7 L 211.7 472.6 L 212.2 474.5 L 212.7 476.6 L 213.4 481.1 L 213.8 486.2 L 213.9 491.8 L 214.0 500.0 L 214.4 506.5 L 215.0 513.0 L 215.8 521.2 L 216.9 528.7 L 218.1 535.3 L 219.6 541.3 L 221.2 546.7 L 223.0 551.7 L 225.1 556.5 L 227.4 561.2 L 229.9 565.9 L 232.4 570.6 L 235.2 575.3 L 238.4 580.2 L 241.9 585.1 L 245.8 590.0 L 247.9 592.5 L 250.2 594.9 L 252.6 597.3 L 255.1 599.6 L 257.8 602.0 L 260.6 604.3 Z"/>
	<path id="ShapeE" style="opacity:0.2;fill:#3C2415;stroke:#000000;stroke-width:2;stroke-linecap:round;stroke-linejoin:round;stroke-miterlimit:10;" d="   M 260.6 604.3 L 255.6 604.2 L 250.7 604.0 L 245.8 603.7 L 241.0 603.3 L 236.1 602.8 L 231.3 602.1 L 226.6 601.3 L 221.8 600.4 L 217.1 599.4 L 212.5 598.2 L 207.8 597.0 L 203.3 595.6 L 198.7 594.2 L 194.2 592.6 L 189.8 590.9 L 185.4 589.1 L 181.1 587.1 L 176.8 585.1 L 172.6 583.0 L 168.5 580.7 L 164.4 578.4 L 160.4 575.9 L 156.5 573.4 L 152.6 570.7 L 148.8 567.9 L 145.0 565.0 L 141.4 562.1 L 137.8 559.0 L 134.3 555.8 L 130.9 552.6 L 127.6 549.2 L 124.4 545.7 L 121.3 542.2 L 118.2 538.5 L 115.3 534.8 L 112.4 530.9 L 109.7 527.0 L 107.0 523.0 L 104.5 518.9 L 102.1 514.7 L 99.7 510.4 L 97.5 506.0 L 95.4 501.5 L 93.4 496.9 L 91.6 492.3 L 89.8 487.6 L 88.2 482.8 L 86.7 477.9 L 85.3 472.9 L 84.1 467.8 L 83.0 462.7 L 82.0 457.5 L 81.2 452.2 L 80.5 446.8 L 79.9 441.4 L 79.5 435.8 L 79.3 430.2 L 79.1 424.5 L 79.2 418.8 L 79.4 413.0 L 79.7 407.1 L 80.2 401.1 L 80.8 395.1 L 81.7 389.0 L 82.4 384.4 L 83.3 379.9 L 84.2 375.6 L 85.2 371.4 L 86.2 367.3 L 87.4 363.4 L 88.6 359.5 L 90.0 355.8 L 91.4 352.1 L 92.9 348.5 L 94.5 345.0 L 96.2 341.5 L 98.0 338.2 L 99.9 334.8 L 101.9 331.5 L 104.0 328.3 L 107.2 323.9 L 110.6 319.7 L 114.1 315.8 L 117.8 312.1 L 121.5 308.6 L 125.4 305.3 L 129.4 302.0 L 133.4 298.9 L 136.9 296.2 L 140.6 293.5 L 148.5 288.1 L 164.1 277.8 L 169.1 274.5 L 173.8 271.2 L 178.1 268.0 L 182.0 264.9 L 185.5 261.7 L 188.7 258.5 L 191.6 255.2 L 194.2 251.9 L 196.5 248.5 L 198.5 245.0 L 200.2 241.4 L 201.7 237.6 L 203.0 233.6 L 204.1 229.4 L 204.9 225.0 L 205.6 220.3 L 205.9 217.9 L 206.1 215.4 L 206.2 210.1 L 206.1 204.6 L 206.2 198.7 L 206.3 195.7 L 206.6 192.6 L 206.9 189.4 L 207.5 186.2 L 208.3 182.8 L 209.2 179.4 L 210.5 175.9 L 212.0 172.4 L 213.2 170.0 L 214.5 167.8 L 215.9 165.7 L 217.3 163.6 L 218.8 161.7 L 220.3 159.8 L 221.9 158.1 L 223.5 156.4 L 225.2 154.9 L 226.9 153.5 L 228.7 152.1 L 230.6 150.9 L 232.5 149.7 L 234.4 148.7 L 236.4 147.8 L 238.4 146.9 L 240.5 146.2 L 242.6 145.5 L 244.8 145.0 L 247.0 144.5 L 249.2 144.2 L 251.5 143.9 L 253.8 143.8 L 256.1 143.7 L 258.5 143.8 L 260.9 143.9 L 265.8 144.5 L 270.8 145.5 L 275.9 146.8 L 281.4 148.4 L 286.6 149.6 L 291.6 150.6 L 296.3 151.4 L 300.9 151.9 L 305.3 152.1 L 309.5 152.1 L 313.7 151.9 L 317.7 151.5 L 321.7 150.9 L 325.7 150.1 L 329.7 149.2 L 333.7 148.0 L 337.8 146.7 L 341.9 145.2 L 346.2 143.6 L 385.1 127.0 L 388.4 125.7 L 391.6 124.4 L 394.9 123.3 L 398.2 122.3 L 401.5 121.4 L 404.7 120.6 L 408.0 120.0 L 411.2 119.5 L 414.4 119.2 L 417.6 119.0 L 420.8 118.9 L 423.8 119.0 L 426.9 119.2 L 429.9 119.6 L 432.8 120.1 L 435.7 120.7 L 438.5 121.5 L 441.2 122.5 L 443.8 123.6 L 446.4 124.9 L 448.8 126.3 L 451.1 127.9 L 453.4 129.7 L 455.5 131.6 L 457.5 133.7 L 459.3 136.0 L 461.1 138.4 L 462.7 141.0 L 464.1 143.8 L 465.4 146.8 L 466.6 149.9 L 467.6 153.2 L 469.3 160.1 L 470.8 167.4 L 471.4 171.0 L 472.0 174.7 L 472.4 178.4 L 472.7 182.0 L 473.4 193.1 L 473.8 202.7 L 473.9 212.3 L 473.9 223.5 L 473.9 289.9 L 473.5 305.4 L 472.5 324.5 L 471.8 335.1 L 470.9 346.2 L 470.0 357.8 L 468.8 369.8 L 467.6 382.0 L 466.1 394.3 L 464.6 406.7 L 462.8 419.0 L 460.9 431.0 L 458.8 442.8 L 456.6 454.2 L 454.1 465.0 L 452.2 472.6 L 450.0 479.5 L 447.7 486.0 L 445.3 492.0 L 442.6 497.7 L 439.7 503.3 L 436.5 508.7 L 433.1 514.2 L 429.1 520.0 L 425.2 525.3 L 421.3 530.3 L 417.5 535.0 L 413.5 539.6 L 409.4 543.9 L 405.1 548.2 L 400.5 552.5 L 397.8 554.9 L 395.0 557.3 L 389.0 561.9 L 382.7 566.3 L 376.1 570.6 L 369.2 574.7 L 362.1 578.6 L 354.8 582.3 L 347.4 585.7 L 342.5 588.1 L 337.4 590.2 L 332.0 592.1 L 326.5 593.9 L 320.9 595.6 L 315.1 597.1 L 309.3 598.4 L 303.5 599.6 L 297.7 600.6 L 292.0 601.5 L 286.3 602.3 L 280.8 602.9 L 275.4 603.4 L 270.2 603.8 L 265.3 604.1 L 260.6 604.3 Z"/>
	<path id="ShapeF" style="opacity:0.2;fill:#9E1F63;stroke:#000000;stroke-width:2;stroke-linecap:round;stroke-linejoin:round;stroke-miterlimit:10;" d="   M 234.4 105.3 L 226.9 105.7 L 219.6 106.3 L 212.5 107.2 L 205.5 108.2 L 198.7 109.5 L 192.1 111.0 L 185.6 112.7 L 179.3 114.6 L 173.2 116.7 L 167.2 119.0 L 161.4 121.5 L 155.8 124.1 L 150.3 127.0 L 145.0 130.0 L 139.8 133.2 L 134.9 136.5 L 130.0 140.0 L 125.4 143.7 L 120.9 147.4 L 116.5 151.4 L 112.4 155.5 L 108.3 159.7 L 104.5 164.0 L 100.8 168.4 L 97.3 173.0 L 93.9 177.7 L 90.7 182.5 L 87.6 187.4 L 84.8 192.4 L 82.0 197.4 L 79.4 202.6 L 77.0 207.8 L 74.8 213.2 L 72.7 218.6 L 70.7 224.0 L 69.0 229.6 L 67.3 235.1 L 65.9 240.8 L 64.5 246.4 L 63.4 252.2 L 62.4 257.9 L 61.5 263.7 L 60.8 269.5 L 60.3 275.4 L 59.9 281.2 L 59.7 287.1 L 59.6 293.0 L 59.7 298.8 L 59.9 304.7 L 60.3 310.6 L 60.9 316.4 L 61.6 322.2 L 62.4 328.0 L 63.4 333.8 L 64.6 339.6 L 65.8 345.3 L 67.3 350.9 L 68.9 356.6 L 70.7 362.1 L 72.6 367.6 L 74.6 373.1 L 76.8 378.5 L 79.2 383.8 L 81.7 389.0 L 85.3 396.2 L 88.7 402.6 L 92.1 408.6 L 95.6 414.4 L 99.7 420.2 L 104.4 426.3 L 110.0 433.1 L 116.8 440.7 L 122.1 445.7 L 127.3 450.4 L 132.8 455.0 L 138.4 459.3 L 144.3 463.5 L 147.4 465.5 L 150.6 467.4 L 153.9 469.3 L 157.4 471.1 L 161.0 472.9 L 164.7 474.6 L 170.2 477.0 L 176.4 479.5 L 183.0 482.0 L 189.8 484.4 L 196.6 486.7 L 203.0 488.7 L 208.9 490.4 L 213.9 491.8 L 225.5 494.4 L 230.7 495.4 L 235.8 496.4 L 241.1 497.2 L 246.8 498.0 L 253.2 498.8 L 260.6 499.5 L 266.3 499.9 L 272.1 500.3 L 277.9 500.5 L 283.9 500.6 L 289.8 500.6 L 295.9 500.6 L 301.9 500.4 L 308.1 500.1 L 320.4 499.3 L 332.8 498.1 L 345.3 496.5 L 357.8 494.5 L 370.3 492.1 L 376.6 490.8 L 382.8 489.3 L 389.0 487.8 L 395.1 486.2 L 401.3 484.5 L 407.4 482.7 L 413.4 480.8 L 419.4 478.8 L 425.4 476.7 L 431.2 474.6 L 437.1 472.3 L 442.8 470.0 L 448.5 467.5 L 454.1 465.0 L 465.8 459.7 L 476.9 454.4 L 487.7 448.9 L 498.2 443.3 L 504.1 439.9 L 510.2 436.3 L 516.3 432.4 L 522.3 428.3 L 527.9 424.4 L 533.0 420.5 L 537.4 417.0 L 541.0 413.9 L 546.7 409.1 L 552.3 404.2 L 557.7 399.2 L 562.9 394.2 L 568.0 389.0 L 572.8 383.8 L 577.5 378.5 L 581.9 373.0 L 585.3 368.4 L 588.3 363.9 L 590.8 359.5 L 591.9 357.4 L 592.8 355.3 L 593.7 353.2 L 594.4 351.1 L 594.9 349.1 L 595.4 347.1 L 595.7 345.1 L 595.9 343.1 L 595.9 341.1 L 595.8 339.1 L 595.6 337.2 L 595.2 335.3 L 594.6 333.4 L 593.9 331.5 L 593.0 329.6 L 592.0 327.7 L 590.8 325.8 L 589.5 323.9 L 587.9 322.1 L 586.2 320.2 L 584.4 318.4 L 582.3 316.5 L 580.1 314.7 L 577.7 312.8 L 575.1 311.0 L 572.3 309.1 L 553.9 297.0 L 544.6 290.8 L 535.9 284.8 L 531.6 281.8 L 527.7 278.7 L 524.3 275.5 L 521.3 272.2 L 518.6 268.9 L 516.3 265.5 L 514.3 262.0 L 512.7 258.6 L 511.3 255.0 L 510.1 251.5 L 509.2 247.9 L 508.5 244.3 L 508.0 240.7 L 507.6 237.1 L 507.3 233.5 L 507.2 229.9 L 507.0 223.8 L 506.7 218.1 L 506.2 212.8 L 505.5 208.0 L 504.5 203.6 L 503.4 199.7 L 502.7 197.9 L 501.9 196.1 L 501.1 194.5 L 500.2 193.0 L 499.2 191.6 L 498.2 190.3 L 497.0 189.0 L 495.8 187.9 L 494.4 186.9 L 493.0 186.0 L 491.5 185.2 L 489.8 184.4 L 488.1 183.8 L 486.2 183.3 L 484.3 182.8 L 482.2 182.5 L 480.0 182.2 L 477.7 182.0 L 472.7 182.0 L 466.6 182.3 L 459.9 182.9 L 445.5 184.3 L 431.2 185.8 L 418.4 187.1 L 413.0 187.5 L 408.0 187.7 L 403.4 187.6 L 399.0 187.3 L 394.9 186.7 L 391.1 185.9 L 387.5 184.9 L 384.2 183.6 L 381.0 182.2 L 378.1 180.6 L 375.3 178.7 L 372.7 176.8 L 370.2 174.6 L 367.9 172.3 L 365.6 169.9 L 363.4 167.3 L 359.0 161.6 L 354.6 155.5 L 346.2 143.6 L 344.2 141.0 L 342.1 138.5 L 340.0 136.1 L 337.7 133.7 L 335.4 131.5 L 333.1 129.3 L 330.7 127.2 L 328.2 125.3 L 325.7 123.4 L 323.2 121.7 L 320.6 120.0 L 318.0 118.5 L 315.5 117.1 L 312.9 115.8 L 310.4 114.6 L 307.8 113.6 L 301.8 111.8 L 295.3 110.2 L 288.0 108.7 L 279.7 107.5 L 270.4 106.6 L 259.9 105.9 L 247.9 105.5 L 234.4 105.3 Z"/>
</g>
<g id="Texts">
	<g id="Header">
		<text id="Title" transform="matrix(1 0 0 1 192.2 26.3)" style="fill:#262262;stroke:#000000;stroke-width:0.5;stroke-miterlimit:10;font-family:'Tahoma';font-size:14;">Venn 6-set diagram</text>
	</g>
	<g id="Group_Names">
		<text id="NameA" transform="matrix(1 0 0 1 349.2 41.2)" style="fill:#262262;stroke:#000000;stroke-width:0.5;stroke-miterlimit:10; font-family:'Tahoma'; font-size:30;">NameA</text>
		<text id="NameB" transform="matrix(1 0 0 1 580.8 166)" style="fill:#262262;stroke:#000000;stroke-width:0.5;stroke-miterlimit:10; font-family:'Tahoma'; font-size:30;">NameB</text>
		<text id="NameC" transform="matrix(1 0 0 1 578 586.8)" style="fill:#262262;stroke:#000000;stroke-width:0.5;stroke-miterlimit:10; font-family:'Tahoma'; font-size:30;">NameC</text>
		<text id="NameD" transform="matrix(1 0 0 1 408.3 658.8)" style="fill:#262262;stroke:#000000;stroke-width:0.5;stroke-miterlimit:10; font-family:'Tahoma'; font-size:30;">NameD</text>
		<text id="NameE" transform="matrix(1 0 0 1 50.7 599.8)" style="fill:#262262;stroke:#000000;stroke-width:0.5;stroke-miterlimit:10; font-family:'Tahoma'; font-size:30;">NameE</text>
		<text id="NameF" transform="matrix(1 0 0 1 33.4 110.9)" style="fill:#262262;stroke:#000000;stroke-width:0.5;stroke-miterlimit:10; font-family:'Tahoma'; font-size:30;">NameF</text>
	</g>
	<g id="Group_Values">
		<text id="Count_A" transform="matrix(1 0 0 1 387 108.9)" style="fill:#262262;stroke:#000000;stroke-width:0.5;stroke-miterlimit:10; font-family:'Tahoma'; font-size:32;text-anchor:middle;">A</text>
		<text id="Count_B" transform="matrix(1 0 0 1 602.5 301.5)" style="fill:#262262;stroke:#000000;stroke-width:0.5;stroke-miterlimit:10; font-family:'Tahoma'; font-size:32;text-anchor:middle;">B</text>
		<text id="Count_C" transform="matrix(1 0 0 1 565.4 535.5)" style="fill:#262262;stroke:#000000;stroke-width:0.5;stroke-miterlimit:10; font-family:'Tahoma'; font-size:32;text-anchor:middle;">C</text>
		<text id="Count_D" transform="matrix(1 0 0 1 360.4 625.1)" style="fill:#262262;stroke:#000000;stroke-width:0.5;stroke-miterlimit:10; font-family:'Tahoma'; font-size:32;text-anchor:middle;">D</text>
		<text id="Count_E" transform="matrix(1 0 0 1 141.7 544.7)" style="fill:#262262;stroke:#000000;stroke-width:0.5;stroke-miterlimit:10; font-family:'Tahoma'; font-size:32;text-anchor:middle;">E</text>
		<text id="Count_F" transform="matrix(1 0 0 1 99.3 231)" style="fill:#262262;stroke:#000000;stroke-width:0.5;stroke-miterlimit:10; font-family:'Tahoma'; font-size:32;text-anchor:middle;">F</text>
		<text id="Count_AB" transform="matrix(1 0 0 1 509.7 198.8)" style="fill:#262262;stroke:#000000;stroke-width:0.5;stroke-miterlimit:10; font-family:'Tahoma'; font-size:18;text-anchor:middle;">AB</text>
		<text id="Count_AC" transform="matrix(1 0 0 1 348.4 126.9)" style="fill:#262262;stroke:#000000;stroke-width:0.5;stroke-miterlimit:10; font-family:'Tahoma'; font-size:14;text-anchor:middle;">AC</text>
		<text id="Count_AD" transform="matrix(1 0 0 1 397.7 583.6)" style="fill:#262262;stroke:#000000;stroke-width:0.5;stroke-miterlimit:10; font-family:'Tahoma'; font-size:18;text-anchor:middle;">AD</text>
		<text id="Count_AE" transform="matrix(1 0 0 1 425.9 143.3)" style="fill:#262262;stroke:#000000;stroke-width:0.5;stroke-miterlimit:10; font-family:'Tahoma'; font-size:18;text-anchor:middle;">AE</text>
		<text id="Count_AF" transform="matrix(1 0 0 1 241.7 139.3)" style="fill:#262262;stroke:#000000;stroke-width:0.5;stroke-miterlimit:10; font-family:'Tahoma'; font-size:18;text-anchor:middle;">AF</text>
		<text id="Count_BC" transform="matrix(1 0 0 1 563.7 451.6)" style="fill:#262262;stroke:#000000;stroke-width:0.5;stroke-miterlimit:10; font-family:'Tahoma'; font-size:18;text-anchor:middle;">BC</text>
		<text id="Count_BD" transform="matrix(1 0 0 1 558.2 280.3)" style="fill:#262262;stroke:#000000;stroke-width:0.5;stroke-miterlimit:10; font-family:'Tahoma'; font-size:14;text-anchor:middle;">BD</text>
		<text id="Count_BE" transform="matrix(1 0 0 1 137.8 483.9)" style="fill:#262262;stroke:#000000;stroke-width:0.5;stroke-miterlimit:10; font-family:'Tahoma'; font-size:14;text-anchor:middle;">BE</text>
		<text id="Count_BF" transform="matrix(1 0 0 1 576.1 346.1)" style="fill:#262262;stroke:#000000;stroke-width:0.5;stroke-miterlimit:10; font-family:'Tahoma'; font-size:14;text-anchor:middle;">BF</text>
		<text id="Count_CD" transform="matrix(1 0 0 1 478 551)" style="fill:#262262;stroke:#000000;stroke-width:0.5;stroke-miterlimit:10; font-family:'Tahoma'; font-size:18;text-anchor:middle;">CD</text>
		<text id="Count_CE" transform="matrix(1 0 0 1 193.9 546.8)" style="fill:#262262;stroke:#000000;stroke-width:0.5;stroke-miterlimit:10; font-family:'Tahoma'; font-size:18;text-anchor:middle;">CE</text>
		<text id="Count_CF" transform="matrix(1 0 0 1 111.8 291.4)" style="fill:#262262;stroke:#000000;stroke-width:0.5;stroke-miterlimit:10; font-family:'Tahoma'; font-size:18;text-anchor:middle;">CF</text>
		<text id="Count_DE" transform="matrix(1 0 0 1 281.8 588.6)" style="fill:#262262;stroke:#000000;stroke-width:0.5;stroke-miterlimit:10; font-family:'Tahoma'; font-size:18;text-anchor:middle;">DE</text>
		<text id="Count_DF" transform="matrix(1 0 0 1 149.8 208.7)" style="fill:#262262;stroke:#000000;stroke-width:0.5;stroke-miterlimit:10; font-family:'Tahoma'; font-size:18;text-anchor:middle;">DF</text>
		<text id="Count_EF" transform="matrix(1 0 0 1 105.8 390.5)" style="fill:#262262;stroke:#000000;stroke-width:0.5;stroke-miterlimit:10; font-family:'Tahoma'; font-size:18;text-anchor:middle;">EF</text>
		<text id="Count_ABC" transform="matrix(1 0 0 1 523.2 452.1)" style="fill:#262262;stroke:#000000;stroke-width:0.5;stroke-miterlimit:10; font-family:'Tahoma'; font-size:14;text-anchor:middle;">ABC</text>
		<text id="Count_ABD" transform="matrix(1 0 0 1 526.8 259.1)" style="fill:#262262;stroke:#000000;stroke-width:0.5;stroke-miterlimit:10; font-family:'Tahoma'; font-size:14;text-anchor:middle;">ABD</text>
		<text id="Count_ABE" transform="matrix(1 0 0 1 439.9 173)" style="fill:#262262;stroke:#000000;stroke-width:0.5;stroke-miterlimit:10; font-family:'Tahoma'; font-size:14;text-anchor:middle;">ABE</text>
		<text id="Count_ABF" transform="matrix(1 0 0 1 489 211.4)" style="fill:#262262;stroke:#000000;stroke-width:0.5;stroke-miterlimit:10; font-family:'Tahoma'; font-size:14;text-anchor:middle;">ABF</text>
		<text id="Count_ACD" transform="matrix(1 0 0 1 434.1 545)" style="fill:#262262;stroke:#000000;stroke-width:0.5;stroke-miterlimit:10; font-family:'Tahoma'; font-size:14;text-anchor:middle;">ACD</text>
		<text id="Count_ACE" transform="matrix(1 0 0 1 375 152.3)" style="fill:#262262;stroke:#000000;stroke-width:0.5;stroke-miterlimit:10; font-family:'Tahoma'; font-size:14;text-anchor:middle;">ACE</text>
		<text id="Count_ACF" transform="matrix(1 0 0 1 310.4 141.3)" style="fill:#262262;stroke:#000000;stroke-width:0.5;stroke-miterlimit:10; font-family:'Tahoma'; font-size:14;text-anchor:middle;">ACF</text>
		<text id="Count_ADE" transform="matrix(1 0 0 1 362.7 566.9)" style="fill:#262262;stroke:#000000;stroke-width:0.5;stroke-miterlimit:10; font-family:'Tahoma'; font-size:14;text-anchor:middle;">ADE</text>
		<text id="Count_ADF" transform="matrix(1 0 0 1 187.9 205.9)" style="fill:#262262;stroke:#000000;stroke-width:0.5;stroke-miterlimit:10; font-family:'Tahoma'; font-size:18;text-anchor:middle;">ADF</text>
		<text id="Count_AEF" transform="matrix(1 0 0 1 244.9 166.2)" style="fill:#262262;stroke:#000000;stroke-width:0.5;stroke-miterlimit:10; font-family:'Tahoma'; font-size:14;text-anchor:middle;">AEF</text>
		<text id="Count_BCD" transform="matrix(1 0 0 1 487.1 506.1)" style="fill:#262262;stroke:#000000;stroke-width:0.5;stroke-miterlimit:10; font-family:'Tahoma'; font-size:14;text-anchor:middle;">BCD</text>
		<text id="Count_BCE" transform="matrix(1 0 0 1 186.4 505.5)" style="fill:#262262;stroke:#000000;stroke-width:0.5;stroke-miterlimit:10; font-family:'Tahoma'; font-size:14;text-anchor:middle;">BCE</text>
		<text id="Count_BCF" transform="matrix(1 0 0 1 549.5 384.3)" style="fill:#262262;stroke:#000000;stroke-width:0.5;stroke-miterlimit:10; font-family:'Tahoma'; font-size:18;text-anchor:middle;">BCF</text>
		<text id="Count_BDE" transform="matrix(1 0 0 1 293.7 564.5)" style="fill:#262262;stroke:#000000;stroke-width:0.5;stroke-miterlimit:10; font-family:'Tahoma'; font-size:14;text-anchor:middle;">BDE</text>
		<text id="Count_BDF" transform="matrix(1 0 0 1 544.6 320.1)" style="fill:#262262;stroke:#000000;stroke-width:0.5;stroke-miterlimit:10; font-family:'Tahoma'; font-size:14;text-anchor:middle;">BDF</text>
		<text id="Count_BEF" transform="matrix(1 0 0 1 146 448.4)" style="fill:#262262;stroke:#000000;stroke-width:0.5;stroke-miterlimit:10; font-family:'Tahoma'; font-size:18;text-anchor:middle;">BEF</text>
		<text id="Count_CDE" transform="matrix(1 0 0 1 237 548.8)" style="fill:#262262;stroke:#000000;stroke-width:0.5;stroke-miterlimit:10; font-family:'Tahoma'; font-size:14;text-anchor:middle;">CDE</text>
		<text id="Count_CDF" transform="matrix(1 0 0 1 143.8 266.5)" style="fill:#262262;stroke:#000000;stroke-width:0.5;stroke-miterlimit:10; font-family:'Tahoma'; font-size:18;text-anchor:middle;">CDF</text>
		<text id="Count_CEF" transform="matrix(1 0 0 1 123.8 331.6)" style="fill:#262262;stroke:#000000;stroke-width:0.5;stroke-miterlimit:10; font-family:'Tahoma'; font-size:14;text-anchor:middle;">CEF</text>
		<text id="Count_DEF" transform="matrix(1 0 0 1 131.3 385.4)" style="fill:#262262;stroke:#000000;stroke-width:0.5;stroke-miterlimit:10; font-family:'Tahoma'; font-size:14;text-anchor:middle;">DEF</text>
		<text id="Count_ABCD" transform="matrix(1 0 0 1 469.7 486.8)" style="fill:#262262;stroke:#000000;stroke-width:0.5;stroke-miterlimit:10; font-family:'Tahoma'; font-size:18;text-anchor:middle;">ABCD</text>
		<text id="Count_ABCE" transform="matrix(1 0 0 1 393.1 177.2)" style="fill:#262262;stroke:#000000;stroke-width:0.5;stroke-miterlimit:10; font-family:'Tahoma'; font-size:14;text-anchor:middle;">ABCE</text>
		<text id="Count_ABCF" transform="matrix(1 0 0 1 516.1 416.4)" style="fill:#262262;stroke:#000000;stroke-width:0.5;stroke-miterlimit:10; font-family:'Tahoma'; font-size:14;text-anchor:middle;">ABCF</text>
		<text id="Count_ABDE" transform="matrix(1 0 0 1 328.6 551.4)" style="fill:#262262;stroke:#000000;stroke-width:0.5;stroke-miterlimit:10; font-family:'Tahoma'; font-size:14;text-anchor:middle;">ABDE</text>
		<text id="Count_ABDF" transform="matrix(1 0 0 1 499.2 278.5)" style="fill:#262262;stroke:#000000;stroke-width:0.5;stroke-miterlimit:10; font-family:'Tahoma'; font-size:18;text-anchor:middle;">ABDF</text>
		<text id="Count_ABEF" transform="matrix(1 0 0 1 450.3 206)" style="fill:#262262;stroke:#000000;stroke-width:0.5;stroke-miterlimit:10; font-family:'Tahoma'; font-size:14;text-anchor:middle;">ABEF</text>
		<text id="Count_ACDE" transform="matrix(1 0 0 1 398.9 534.3)" style="fill:#262262;stroke:#000000;stroke-width:0.5;stroke-miterlimit:10; font-family:'Tahoma'; font-size:14;text-anchor:middle;">ACDE</text>
		<text id="Count_ACDF" transform="matrix(1 0 0 1 180.3 250.5)" style="fill:#262262;stroke:#000000;stroke-width:0.5;stroke-miterlimit:10; font-family:'Tahoma'; font-size:14;text-anchor:middle;">ACDF</text>
		<text id="Count_ACEF" transform="matrix(1 0 0 1 308.9 174.7)" style="fill:#262262;stroke:#000000;stroke-width:0.5;stroke-miterlimit:10; font-family:'Tahoma'; font-size:18;text-anchor:middle;">ACEF</text>
		<text id="Count_ADEF" transform="matrix(1 0 0 1 224.6 198)" style="fill:#262262;stroke:#000000;stroke-width:0.5;stroke-miterlimit:10; font-family:'Tahoma'; font-size:14;text-anchor:middle;">ADEF</text>
		<text id="Count_BCDE" transform="matrix(1 0 0 1 251 526.2)" style="fill:#262262;stroke:#000000;stroke-width:0.5;stroke-miterlimit:10; font-family:'Tahoma'; font-size:18;text-anchor:middle;">BCDE</text>
		<text id="Count_BCDF" transform="matrix(1 0 0 1 525.1 353)" style="fill:#262262;stroke:#000000;stroke-width:0.5;stroke-miterlimit:10; font-family:'Tahoma'; font-size:14;text-anchor:middle;">BCDF</text>
		<text id="Count_BCEF" transform="matrix(1 0 0 1 189.2 472.4)" style="fill:#262262;stroke:#000000;stroke-width:0.5;stroke-miterlimit:10; font-family:'Tahoma'; font-size:14;text-anchor:middle;">BCEF</text>
		<text id="Count_BDEF" transform="matrix(1 0 0 1 156.9 412.3)" style="fill:#262262;stroke:#000000;stroke-width:0.5;stroke-miterlimit:10; font-family:'Tahoma'; font-size:14;text-anchor:middle;">BDEF</text>
		<text id="Count_CDEF" transform="matrix(1 0 0 1 152.9 334.5)" style="fill:#262262;stroke:#000000;stroke-width:0.5;stroke-miterlimit:10; font-family:'Tahoma'; font-size:18;text-anchor:middle;">CDEF</text>
		<text id="Count_ABCDE" transform="matrix(1 0 0 1 359.8 513.7)" style="fill:#262262;stroke:#000000;stroke-width:0.5;stroke-miterlimit:10; font-family:'Tahoma'; font-size:18;text-anchor:middle;">ABCDE</text>
		<text id="Count_ABCDF" transform="matrix(1 0 0 1 486.4 384.2)" style="fill:#262262;stroke:#000000;stroke-width:0.5;stroke-miterlimit:10; font-family:'Tahoma'; font-size:18;text-anchor:middle;">ABCDF</text>
		<text id="Count_ABCEF" transform="matrix(1 0 0 1 377.1 198.8)" style="fill:#262262;stroke:#000000;stroke-width:0.5;stroke-miterlimit:10; font-family:'Tahoma'; font-size:18;text-anchor:middle;">ABCEF</text>
		<text id="Count_ABDEF" transform="matrix(1 0 0 1 457.7 250.4)" style="fill:#262262;stroke:#000000;stroke-width:0.5;stroke-miterlimit:10; font-family:'Tahoma'; font-size:14;text-anchor:middle;">ABDEF</text>
		<text id="Count_ACDEF" transform="matrix(1 0 0 1 230.1 253.1)" style="fill:#262262;stroke:#000000;stroke-width:0.5;stroke-miterlimit:10; font-family:'Tahoma'; font-size:18;text-anchor:middle;">ACDEF</text>
		<text id="Count_BCDEF" transform="matrix(1 0 0 1 200.2 432)" style="fill:#262262;stroke:#000000;stroke-width:0.5;stroke-miterlimit:10; font-family:'Tahoma'; font-size:18;text-anchor:middle;">BCDEF</text>
		<text id="Count_ABCDEF" transform="matrix(1 0 0 1 337.9 365.1)" style="fill:#FFFFFF;stroke:#000000;stroke-width:0.5;stroke-miterlimit:10; font-family:'Tahoma'; font-size:32;text-anchor:middle;">ABCDEF</text>
	</g>
	<g id="Group_CountSums">
		<text id="CountSUM_A" transform="matrix(1 0 0 1 392.5 62.8)" style="fill:#262262;font-family:Tahoma, Tahoma;font-size:18;text-anchor:middle;">CountSUM_A</text>
		<text id="CountSUM_B" transform="matrix(1 0 0 1 625.9 189.7)" style="fill:#262262;font-family:Tahoma, Tahoma;font-size:18;text-anchor:middle;">CountSUM_B</text>
		<text id="CountSUM_C" transform="matrix(1 0 0 1 626.1 609.5)" style="fill:#262262;font-family:Tahoma, Tahoma;font-size:18;text-anchor:middle;">CountSUM_C</text>
		<text id="CountSUM_D" transform="matrix(1 0 0 1 451.2 680.9)" style="fill:#262262;font-family:Tahoma, Tahoma;font-size:18;text-anchor:middle;">CountSUM_D</text>
		<text id="CountSUM_E" transform="matrix(1 0 0 1 93.3 624.7)" style="fill:#262262;font-family:Tahoma, Tahoma;font-size:18;text-anchor:middle;">CountSUM_E</text>
		<text id="CountSUM_F" transform="matrix(1 0 0 1 77.9 132.7)" style="fill:#262262;font-family:Tahoma, Tahoma;font-size:18;text-anchor:middle;">CountSUM_F</text>
	</g>
</g>
<g id="Group_Bullets" style="display:none;">
	<circle id="BulletA" style="opacity:0.2;fill:#FFF200;stroke:#010101;stroke-width:2;" cx="59.2" cy="31.9" r="6.9"/>
	<circle id="BulletB" style="opacity:0.2;fill:#2E3192;stroke:#010101;stroke-width:2;" cx="59.2" cy="50.6" r="6.9"/>
	<circle id="BulletC" style="opacity:0.2;fill:#ED1C24;stroke:#010101;stroke-width:2;" cx="59.2" cy="69.3" r="6.9"/>
	<circle id="BulletD" style="opacity:0.2;fill:#808285;stroke:#010101;stroke-width:2;" cx="59.2" cy="88" r="6.9"/>
	<circle id="BulletE" style="opacity:0.2;fill:#3C2415;stroke:#010101;stroke-width:2;" cx="59.2" cy="106.7" r="6.9"/>
	<circle id="BulletF" style="opacity:0.2;fill:#9E1F63;stroke:#010101;stroke-width:2;" cx="59.2" cy="125.4" r="6.9"/>
</g>
</svg>
