<?xml version="1.0" encoding="utf-8"?>
<!-- Created by Zoltan Dul in 2026 - free to use with MIT license. Part of React Venn Diagram Analyzer - https://github.com/ZoliQua/React-Venn-Diagram-Analyser - SVG Version: 3.0.0 -->
<svg xmlns="http://www.w3.org/2000/svg"
	 xmlns:xlink="http://www.w3.org/1999/xlink"
	 version="1.1"
	 x="0px"
	 y="0px"
	 style="enable-background:new 0 0 700 700;"
	 xml:space="preserve" viewBox="0 0 700 700">
<g id="Shapes">
	<path id="ShapeA" style="opacity:0.2;fill:#FFF200;stroke:#000000;stroke-width:3;stroke-miterlimit:10;" d="M275.9,384.9   c-10.7-8.4-19.4-14.3-30.6-26.6c-16.6-18-27.2-37.3-32.4-50c-16.8-41.1-5.1-82.4,8.3-127.4c17-56.9,25.4-85.3,49.2-104.6   c62.9-50.9,163.9-7.9,185.8,1.5c20.9,8.9,49.4,21.6,69.4,52.2c18.2,27.8,19.6,55.9,20.1,66.2c1.7,42.5-17,74.4-23.2,84.7   c-19.6,32.5-34.8,31.3-42.8,57.3c-4.8,15.5-0.8,20.6,4.5,65.9c5.8,50.3,8.6,76,0.2,104.3c-4,13.3-10.6,34.5-30.5,49.9   c-12.3,9.5-26.1,13-37,15.9c-12.5,3.4-22,5.8-33.3,2.9c-13.8-3.5-22.3-12.9-25-15.9c-26.7-29.5,4.4-67.8-17.2-111.6   C330.8,428.1,311.1,412.6,275.9,384.9z"/>
	<path id="ShapeB" style="opacity:0.2;fill:#2E3192;stroke:#000000;stroke-width:3;stroke-miterlimit:10;" d="M306.6,300.2   c4.9-12.7,8-22.8,16.3-37.1c12.3-21.2,27.6-37,38.2-45.8c34.3-28.2,77.2-29.3,124.2-29.8c59.4-0.7,89-1,114.5,16   c67.3,44.9,56.1,154.2,53.7,177.9c-2.3,22.6-6,53.6-29.3,81.8c-21.1,25.6-47.6,35.3-57.3,38.8c-40.1,14.3-76.1,5.9-87.7,3   c-36.8-9.1-40.2-23.9-67.4-23.9c-16.3,0-19.9,5.3-61.6,23.8c-46.3,20.5-70,30.8-99.5,31.1c-13.9,0.2-36.1,0.1-56.7-14.3   c-12.7-8.9-20.1-21.1-26.1-30.6c-6.9-10.9-12-19.3-12.7-30.9c-0.8-14.2,5.7-25.1,7.8-28.6c20.3-34.2,66.1-15.9,101.4-49.5   C281.6,365.5,290.6,342,306.6,300.2z"/>
	<path id="ShapeC" style="opacity:0.2;fill:#ED1C24;stroke:#000000;stroke-width:3;stroke-miterlimit:10;" d="M391.2,315.3   c13.6,0.2,24.1-0.4,40.4,2.5c24.1,4.2,44.3,13.1,56.1,20c38.3,22.4,54.2,62.3,70.9,106.2c21.1,55.5,31.7,83.2,24.6,112.9   C564.3,635.5,458,662.8,434.8,668.7c-22,5.6-52.3,12.9-86.8,0.8c-31.3-11-49.6-32.4-56.2-40.4c-27.2-32.7-31.8-69.3-33.1-81.3   c-4.2-37.7,8.6-46-0.9-71.5c-5.7-15.2-11.9-16.9-43.6-49.6c-35.2-36.4-53.1-55.1-63.6-82.6c-4.9-13-12.6-33.8-6.1-58.1   c4-15,12.8-26.2,19.7-35.1c7.9-10.3,13.9-18,24.6-22.6c13.1-5.6,25.5-3.3,29.5-2.6c39.1,7.2,37.8,56.5,81.5,78.1   C321.4,314.4,346.5,314.7,391.2,315.3z"/>
	<path id="ShapeD" style="opacity:0.2;fill:#808285;stroke:#000000;stroke-width:3;stroke-miterlimit:10;" d="M417.1,407.5   c3.1,13.3,6.2,23.3,7.3,39.9c1.7,24.5-2.1,46.1-6,59.3c-12.6,42.6-47.5,67.5-86.2,94.3c-48.8,33.8-73.2,50.7-103.8,50.9   c-80.9,0.5-132.8-96.3-144.1-117.3c-10.7-20-25.1-47.7-21.5-84.1c3.2-33,19.6-55.9,25.7-64.2c25.2-34.3,59.7-47.5,71-51.6   c35.6-13.1,46.7-2.7,69.2-18c13.4-9.1,13.5-15.6,37.7-54.2c26.9-42.9,40.8-64.7,65-81.5c11.4-7.9,29.8-20.3,55-19.9   c15.6,0.3,28.5,6.2,38.8,10.7c11.8,5.2,20.8,9.2,27.8,18.5c8.6,11.4,9.3,24,9.6,28.1c2.4,39.7-45.8,50.2-56.3,97.9   C401.2,339.4,406.9,363.9,417.1,407.5z"/>
	<path id="ShapeE" style="opacity:0.2;fill:#3C2415;stroke:#000000;stroke-width:3;stroke-miterlimit:10;" d="M345.4,441.6   c-11.4,7.5-19.7,13.8-34.9,20.6c-22.4,10-44,14-57.7,14.9c-44.3,2.9-79.8-21.3-118.2-48.3C86,394.7,61.7,377.7,51,349.1   c-28.4-75.7,44.4-157.9,60.3-175.8c15.1-17,36.1-40,71.5-49.3c32.1-8.4,59.2-0.9,69.2,1.9c40.9,11.8,65.2,39.6,73,48.8   c24.6,28.9,18.6,42.9,40.8,58.7c13.2,9.5,19.3,7.3,63.9,16.6c49.6,10.4,74.8,15.9,99,32.8c11.4,8,29.4,21,37.7,44.7   c5.1,14.7,4.1,28.9,3.4,40.1c-0.8,12.9-1.5,22.7-7.8,32.5c-7.7,12-19.3,17.1-23,18.7c-36.5,15.9-62.9-25.6-111.3-19   C403.8,403.2,382.8,417,345.4,441.6z"/>
</g>
<g id="Texts">
	<g id="Header">
		<text id="Title" transform="matrix(1 0 0 1 240.3 28.7)" style="fill:#262262;stroke:#000000;stroke-width:0.5;stroke-miterlimit:10;font-family:'Tahoma';font-size:14;">Venn 5-set diagram</text>
	</g>
	<g id="Group_Names">
		<text id="NameA" transform="matrix(1 0 0 1 462.8 41.4)" style="fill:#262262;stroke:#000000;stroke-width:0.5;stroke-miterlimit:10;font-family:'Tahoma';font-size:30;">NameA</text>
		<text id="NameB" transform="matrix(1 0 0 1 566.7 145.8)" style="fill:#262262;stroke:#000000;stroke-width:0.5;stroke-miterlimit:10;font-family:'Tahoma';font-size:30;">NameB</text>
		<text id="NameC" transform="matrix(1 0 0 1 552.9 648.7)" style="fill:#262262;stroke:#000000;stroke-width:0.5;stroke-miterlimit:10;font-family:'Tahoma';font-size:30;">NameC</text>
		<text id="NameD" transform="matrix(1 0 0 1 33.7 643.5)" style="fill:#262262;stroke:#000000;stroke-width:0.5;stroke-miterlimit:10;font-family:'Tahoma';font-size:30;">NameD</text>
		<text id="NameE" transform="matrix(1 0 0 1 68.4 86.3)" style="fill:#262262;stroke:#000000;stroke-width:0.5;stroke-miterlimit:10;font-family:'Tahoma';font-size:30;">NameE</text>
	</g>
	<g id="Group_Values">
		<text id="Count_A" transform="matrix(1 0 0 1 384 120.1)" style="fill:#262262;stroke:#000000;stroke-width:0.5;stroke-miterlimit:10;font-family:'Tahoma';font-size:48;text-anchor:middle;">A</text>
		<text id="Count_B" transform="matrix(1 0 0 1 617.8 344.7)" style="fill:#262262;stroke:#000000;stroke-width:0.5;stroke-miterlimit:10;font-family:'Tahoma';font-size:48;text-anchor:middle;">B</text>
		<text id="Count_C" transform="matrix(1 0 0 1 462.3 627.3)" style="fill:#262262;stroke:#000000;stroke-width:0.5;stroke-miterlimit:10;font-family:'Tahoma';font-size:48;text-anchor:middle;">C</text>
		<text id="Count_D" transform="matrix(1 0 0 1 179.7 588.4)" style="fill:#262262;stroke:#000000;stroke-width:0.5;stroke-miterlimit:10;font-family:'Tahoma';font-size:48;text-anchor:middle;">D</text>
		<text id="Count_E" transform="matrix(1 0 0 1 118 251)" style="fill:#262262;stroke:#000000;stroke-width:0.5;stroke-miterlimit:10;font-family:'Tahoma';font-size:48;text-anchor:middle;">E</text>
		<text id="Count_AB" transform="matrix(1 0 0 1 497.3 230.3)" style="fill:#262262;stroke:#000000;stroke-width:0.5;stroke-miterlimit:10;font-family:'Tahoma';font-size:24;text-anchor:middle;">AB</text>
		<text id="Count_AC" transform="matrix(1 0 0 1 440.3 540.5)" style="fill:#262262;stroke:#000000;stroke-width:0.5;stroke-miterlimit:10;font-family:'Tahoma';font-size:24;text-anchor:middle;">AC</text>
		<text id="Count_AD" transform="matrix(1 0 0 1 374.8 191.1)" style="fill:#262262;stroke:#000000;stroke-width:0.5;stroke-miterlimit:10;font-family:'Tahoma';font-size:24;text-anchor:middle;">AD</text>
		<text id="Count_AE" transform="matrix(1 0 0 1 269.5 192.1)" style="fill:#262262;stroke:#000000;stroke-width:0.5;stroke-miterlimit:10;font-family:'Tahoma';font-size:24;text-anchor:middle;">AE</text>
		<text id="Count_BC" transform="matrix(1 0 0 1 522.3 477.3)" style="fill:#262262;stroke:#000000;stroke-width:0.5;stroke-miterlimit:10;font-family:'Tahoma';font-size:24;text-anchor:middle;">BC</text>
		<text id="Count_BD" transform="matrix(1 0 0 1 215.9 513)" style="fill:#262262;stroke:#000000;stroke-width:0.5;stroke-miterlimit:10;font-family:'Tahoma';font-size:24;text-anchor:middle;">BD</text>
		<text id="Count_BE" transform="matrix(1 0 0 1 533.9 344.9)" style="fill:#262262;stroke:#000000;stroke-width:0.5;stroke-miterlimit:10;font-family:'Tahoma';font-size:24;text-anchor:middle;">BE</text>
		<text id="Count_CD" transform="matrix(1 0 0 1 307.1 572.7)" style="fill:#262262;stroke:#000000;stroke-width:0.5;stroke-miterlimit:10;font-family:'Tahoma';font-size:24;text-anchor:middle;">CD</text>
		<text id="Count_CE" transform="matrix(1 0 0 1 176.9 298.7)" style="fill:#262262;stroke:#000000;stroke-width:0.5;stroke-miterlimit:10;font-family:'Tahoma';font-size:24;text-anchor:middle;">CE</text>
		<text id="Count_DE" transform="matrix(1 0 0 1 142.1 398.2)" style="fill:#262262;stroke:#000000;stroke-width:0.5;stroke-miterlimit:10;font-family:'Tahoma';font-size:24;text-anchor:middle;">DE</text>
		<text id="Count_ABC" transform="matrix(1 0 0 1 453.9 463.5)" style="fill:#262262;stroke:#000000;stroke-width:0.5;stroke-miterlimit:10;font-family:'Tahoma';font-size:24;text-anchor:middle;">ABC</text>
		<text id="Count_ABD" transform="matrix(1 0 0 1 422.5 224.6)" style="fill:#262262;stroke:#000000;stroke-width:0.5;stroke-miterlimit:10;font-family:'Tahoma';font-size:24;text-anchor:middle;">ABD</text>
		<text id="Count_ABE" transform="matrix(1 0 0 1 462.6 298.7)" style="fill:#262262;stroke:#000000;stroke-width:0.5;stroke-miterlimit:10;font-family:'Tahoma';font-size:24;text-anchor:middle;">ABE</text>
		<text id="Count_ACD" transform="matrix(1 0 0 1 374.5 533)" style="fill:#262262;stroke:#000000;stroke-width:0.5;stroke-miterlimit:10;font-family:'Tahoma';font-size:24;text-anchor:middle;">ACD</text>
		<text id="Count_ACE" transform="matrix(1 0 0 1 229.5 274.7)" style="fill:#262262;stroke:#000000;stroke-width:0.5;stroke-miterlimit:10;font-family:'Tahoma';font-size:24;text-anchor:middle;">ACE</text>
		<text id="Count_ADE" transform="matrix(1 0 0 1 309.3 243)" style="fill:#262262;stroke:#000000;stroke-width:0.5;stroke-miterlimit:10;font-family:'Tahoma';font-size:24;text-anchor:middle;">ADE</text>
		<text id="Count_BCD" transform="matrix(1 0 0 1 298.7 506)" style="fill:#262262;stroke:#000000;stroke-width:0.5;stroke-miterlimit:10;font-family:'Tahoma';font-size:24;text-anchor:middle;">BCD</text>
		<text id="Count_BCE" transform="matrix(1 0 0 1 508 398)" style="fill:#262262;stroke:#000000;stroke-width:0.5;stroke-miterlimit:10;font-family:'Tahoma';font-size:24;text-anchor:middle;">BCE</text>
		<text id="Count_BDE" transform="matrix(1 0 0 1 194.2 452.3)" style="fill:#262262;stroke:#000000;stroke-width:0.5;stroke-miterlimit:10;font-family:'Tahoma';font-size:24;text-anchor:middle;">BDE</text>
		<text id="Count_CDE" transform="matrix(1 0 0 1 202.4 374)" style="fill:#262262;stroke:#000000;stroke-width:0.5;stroke-miterlimit:10;font-family:'Tahoma';font-size:24;text-anchor:middle;">CDE</text>
		<text id="Count_ABCD" transform="matrix(1 0 0 1 388.4 463.5)" style="fill:#262262;stroke:#000000;stroke-width:0.5;stroke-miterlimit:10;font-family:'Tahoma';font-size:24;text-anchor:middle;">ABCD</text>
		<text id="Count_ABCE" transform="matrix(1 0 0 1 443.9 374)" style="fill:#262262;stroke:#000000;stroke-width:0.5;stroke-miterlimit:10;font-family:'Tahoma';font-size:24;text-anchor:middle;">ABCE</text>
		<text id="Count_ABDE" transform="matrix(1 0 0 1 371.9 289)" style="fill:#262262;stroke:#000000;stroke-width:0.5;stroke-miterlimit:10;font-family:'Tahoma';font-size:24;text-anchor:middle;">ABDE</text>
		<text id="Count_ACDE" transform="matrix(1 0 0 1 261.1 333.4)" style="fill:#262262;stroke:#000000;stroke-width:0.5;stroke-miterlimit:10;font-family:'Tahoma';font-size:24;text-anchor:middle;">ACDE</text>
		<text id="Count_BCDE" transform="matrix(1 0 0 1 277.1 439.3)" style="fill:#262262;stroke:#000000;stroke-width:0.5;stroke-miterlimit:10;font-family:'Tahoma';font-size:24;text-anchor:middle;">BCDE</text>
		<text id="Count_ABCDE" transform="matrix(1 0 0 1 339.6 381.7)" style="fill:#FFFFFF;stroke:#000000;stroke-width:0.5;stroke-miterlimit:10;font-family:'Tahoma';font-size:42;text-anchor:middle;">ABCDE</text>
	</g>
	<g id="Group_CountSums">
		<text id="CountSUM_A" transform="matrix(1 0 0 1 508.3 64.2)" style="fill:#262262;font-family:Tahoma, Tahoma;font-size:18;text-anchor:middle;">CountSUM_A</text>
		<text id="CountSUM_B" transform="matrix(1 0 0 1 614.5 175.2)" style="fill:#262262;font-family:Tahoma, Tahoma;font-size:18;text-anchor:middle;">CountSUM_B</text>
		<text id="CountSUM_C" transform="matrix(1 0 0 1 598.4 671.5)" style="fill:#262262;font-family:Tahoma, Tahoma;font-size:18;text-anchor:middle;">CountSUM_C</text>
		<text id="CountSUM_D" transform="matrix(1 0 0 1 79.9 666.4)" style="fill:#262262;font-family:Tahoma, Tahoma;font-size:18;text-anchor:middle;">CountSUM_D</text>
		<text id="CountSUM_E" transform="matrix(1 0 0 1 111.1 114.1)" style="fill:#262262;font-family:Tahoma, Tahoma;font-size:18;text-anchor:middle;">CountSUM_E</text>
	</g>
</g>
<g id="Group_Bullets" style="display:none;">
	<circle id="BulletA" style="opacity:0.2;fill:#FFF200;stroke:#010101;stroke-width:2;" cx="59.2" cy="35.2" r="6.9"/>
	<circle id="BulletB" style="opacity:0.2;fill:#2E3192;stroke:#010101;stroke-width:2;" cx="59.2" cy="53.9" r="6.9"/>
	<circle id="BulletC" style="opacity:0.2;fill:#ED1C24;stroke:#010101;stroke-width:2;" cx="59.2" cy="72.6" r="6.9"/>
	<circle id="BulletD" style="opacity:0.2;fill:#808285;stroke:#010101;stroke-width:2;" cx="59.2" cy="91.3" r="6.9"/>
	<circle id="BulletE" style="opacity:0.2;fill:#3C2415;stroke:#010101;stroke-width:2;" cx="59.2" cy="110" r="6.9"/>
</g>
</svg>
