<?xml version="1.0" encoding="utf-8"?>
<!-- Created by Zoltan Dul in 2026 - free to use with MIT license. Part of React Venn Diagram Analyzer - https://github.com/ZoliQua/React-Venn-Diagram-Analyser - SVG Version: 3.0.0 -->
<svg xmlns="http://www.w3.org/2000/svg"
	 xmlns:xlink="http://www.w3.org/1999/xlink"
	 version="1.1"
	 x="0px"
	 y="0px"
	 style="enable-background:new 0 0 930 850;"
	 xml:space="preserve" viewBox="0 0 930 850">
<g id="Shapes">
	<path id="ShapeA" style="opacity:0.2;fill:#FFF200;stroke:#000000;stroke-width:2;stroke-miterlimit:10;" d="M 697.0 131.2 L 694.7 128.6 L 692.5 125.9 L 690.3 123.3 L 688.1 120.5 L 686.0 117.8 L 683.8 115.1 L 681.6 112.4 L 679.3 109.7 L 677.1 107.1 L 674.7 104.5 L 672.3 102.0 L 669.8 99.6 L 663.3 93.9 L 656.5 88.6 L 649.4 83.8 L 642.0 79.4 L 634.4 75.5 L 626.5 72.0 L 618.5 69.1 L 610.3 66.7 L 601.9 64.8 L 593.4 63.4 L 584.9 62.5 L 576.3 62.2 L 568.1 62.4 L 559.9 63.0 L 551.8 64.0 L 543.7 65.5 L 535.7 67.4 L 527.8 69.6 L 520.0 72.1 L 512.3 75.0 L 504.7 78.1 L 497.2 81.5 L 489.8 85.1 L 482.6 89.0 L 476.7 92.5 L 470.9 96.3 L 465.3 100.3 L 459.9 104.5 L 454.7 109.0 L 449.6 113.7 L 444.7 118.5 L 439.9 123.5 L 435.2 128.6 L 430.7 133.8 L 426.3 139.1 L 422.0 144.5 L 416.3 152.1 L 411.0 160.0 L 406.0 168.0 L 401.3 176.2 L 396.8 184.6 L 392.7 193.1 L 388.8 201.7 L 385.0 210.4 L 381.4 219.2 L 378.0 228.0 L 374.7 236.8 L 371.4 245.7 L 369.3 251.8 L 367.2 258.0 L 365.1 264.2 L 362.8 270.4 L 360.4 276.4 L 357.7 282.3 L 354.7 288.0 L 351.3 293.5 L 347.5 298.6 L 343.2 303.3 L 338.4 307.6 L 332.9 311.4 L 329.1 313.8 L 325.2 316.0 L 321.3 318.2 L 317.2 320.2 L 313.1 322.1 L 309.0 323.9 L 304.9 325.7 L 300.7 327.4 L 296.5 329.2 L 292.4 330.9 L 288.2 332.6 L 284.1 334.4 L 278.9 336.7 L 273.7 339.1 L 268.6 341.5 L 263.4 344.0 L 258.3 346.4 L 253.2 349.0 L 248.1 351.5 L 243.0 354.2 L 238.0 356.8 L 233.1 359.6 L 228.2 362.4 L 223.3 365.2 L 219.0 368.0 L 214.4 371.0 L 209.7 374.1 L 204.8 377.3 L 200.0 380.7 L 195.3 384.2 L 190.8 387.9 L 186.7 391.9 L 183.0 396.0 L 179.8 400.4 L 177.2 405.0 L 175.4 409.9 L 175.0 416.1 L 176.2 421.9 L 178.6 427.4 L 182.1 432.5 L 186.4 437.4 L 191.3 442.1 L 196.6 446.6 L 202.1 450.9 L 207.5 455.2 L 212.7 459.4 L 217.3 463.6 L 221.2 467.9 L 228.7 476.8 L 233.0 486.0 L 234.6 495.4 L 234.5 504.8 L 233.2 514.0 L 231.6 522.9 L 230.5 531.4 L 230.4 539.3 L 232.3 546.4 L 236.7 552.6 L 244.6 557.8 L 256.5 561.7 L 263.3 562.9 L 270.4 564.0 L 277.5 565.1 L 284.7 566.3 L 291.7 567.8 L 298.5 569.7 L 305.0 572.1 L 311.0 575.3 L 316.3 579.2 L 321.0 584.1 L 324.9 590.0 L 327.8 597.2 L 331.5 610.2 L 335.0 623.4 L 338.7 636.5 L 342.6 649.5 L 347.0 662.2 L 352.0 674.5 L 357.9 686.3 L 364.7 697.4 L 372.6 707.8 L 382.0 717.2 L 392.8 725.7 L 405.3 733.0 L 411.3 735.6 L 417.5 737.5 L 423.7 738.7 L 430.0 739.3 L 436.4 739.2 L 442.7 738.5 L 449.0 737.3 L 455.2 735.6 L 461.2 733.4 L 467.1 730.8 L 472.8 727.8 L 478.3 724.4 L 487.4 718.1 L 495.9 711.1 L 503.7 703.5 L 511.1 695.4 L 518.0 686.9 L 524.5 678.1 L 530.7 669.0 L 536.8 659.8 L 542.7 650.5 L 548.5 641.1 L 554.4 631.8 L 560.4 622.7 L 563.6 617.9 L 567.1 613.5 L 570.8 609.5 L 574.7 605.9 L 578.9 602.6 L 583.3 599.8 L 587.9 597.5 L 592.8 595.5 L 597.8 594.0 L 603.2 592.9 L 608.7 592.3 L 614.5 592.2 L 624.4 592.0 L 634.4 592.0 L 644.4 592.0 L 654.4 592.0 L 664.4 591.9 L 674.4 591.5 L 684.4 590.9 L 694.3 590.0 L 704.1 588.6 L 713.8 586.6 L 723.4 584.1 L 732.9 580.9 L 738.4 578.6 L 743.8 575.9 L 748.9 572.7 L 753.7 569.2 L 758.0 565.2 L 762.0 560.8 L 765.4 556.1 L 768.2 551.1 L 770.3 545.7 L 771.7 540.1 L 772.3 534.1 L 772.0 527.9 L 771.1 519.8 L 769.1 511.9 L 766.1 504.3 L 762.6 496.9 L 758.9 489.7 L 755.4 482.6 L 752.4 475.5 L 750.3 468.5 L 749.4 461.5 L 750.0 454.4 L 752.5 447.3 L 757.3 440.0 L 765.3 430.2 L 771.3 420.9 L 775.5 412.1 L 777.9 403.7 L 778.5 395.6 L 777.4 387.9 L 774.6 380.4 L 770.3 373.2 L 764.4 366.2 L 757.0 359.4 L 748.3 352.7 L 738.1 346.1 L 735.6 344.5 L 733.1 342.9 L 730.5 341.2 L 728.0 339.5 L 725.5 337.6 L 723.1 335.7 L 720.9 333.7 L 718.9 331.5 L 717.1 329.1 L 715.5 326.6 L 714.3 323.8 L 713.4 320.9 L 712.9 318.6 L 712.7 316.2 L 712.6 313.8 L 712.8 311.4 L 713.0 309.0 L 713.4 306.6 L 713.9 304.1 L 714.4 301.7 L 715.1 299.3 L 715.7 297.0 L 716.4 294.6 L 717.0 292.3 L 717.8 289.3 L 718.7 286.4 L 719.5 283.4 L 720.3 280.4 L 721.0 277.4 L 721.8 274.4 L 722.5 271.3 L 723.1 268.3 L 723.8 265.3 L 724.4 262.3 L 724.9 259.2 L 725.4 256.2 L 726.8 245.7 L 727.6 234.9 L 727.8 223.8 L 727.2 212.7 L 726.0 201.6 L 724.1 190.6 L 721.5 179.7 L 718.1 169.1 L 714.0 158.9 L 709.2 149.1 L 703.5 139.9 L 697.1 131.3 L 697.0 131.3 L 697.0 131.2 Z"/>
	<path id="ShapeB" style="opacity:0.2;fill:#2E3192;stroke:#000000;stroke-width:2;stroke-miterlimit:10;" d="M 836.5 407.7 L 841.4 388.4 L 843.8 369.5 L 843.8 351.2 L 841.5 333.6 L 837.0 316.7 L 830.5 300.6 L 821.9 285.4 L 811.4 271.2 L 799.0 258.2 L 784.9 246.3 L 769.1 235.6 L 751.7 226.3 L 739.9 221.0 L 727.8 216.6 L 715.5 213.1 L 703.0 210.4 L 690.3 208.6 L 677.5 207.5 L 664.6 207.3 L 651.7 207.7 L 638.9 208.9 L 626.1 210.7 L 613.5 213.1 L 601.0 216.1 L 595.8 217.6 L 590.7 219.1 L 585.6 220.7 L 580.5 222.3 L 575.4 224.0 L 570.3 225.7 L 565.2 227.4 L 560.2 229.2 L 555.1 231.0 L 550.1 232.9 L 545.1 234.8 L 540.1 236.8 L 534.5 239.0 L 528.8 241.3 L 523.1 243.5 L 517.3 245.6 L 511.4 247.5 L 505.5 249.1 L 499.5 250.3 L 493.6 251.1 L 487.6 251.4 L 481.6 251.1 L 475.6 250.1 L 469.6 248.3 L 456.5 242.2 L 443.5 235.6 L 430.5 228.7 L 417.6 221.6 L 404.7 214.5 L 391.6 207.7 L 378.4 201.2 L 365.0 195.4 L 351.4 190.3 L 337.5 186.1 L 323.2 183.1 L 308.5 181.4 L 300.7 182.4 L 294.5 184.8 L 289.6 188.5 L 286.0 193.3 L 283.3 198.9 L 281.5 205.3 L 280.4 212.1 L 279.8 219.3 L 279.5 226.5 L 279.4 233.5 L 279.3 240.3 L 279.0 246.6 L 277.6 259.2 L 273.8 269.4 L 268.1 277.5 L 261.0 284.1 L 253.0 289.4 L 244.8 294.1 L 236.8 298.5 L 229.5 303.0 L 223.6 308.2 L 219.6 314.3 L 217.9 322.0 L 219.1 331.6 L 226.2 345.0 L 232.5 356.4 L 238.0 366.1 L 242.4 374.6 L 245.6 382.2 L 247.3 389.3 L 247.3 396.4 L 245.5 403.9 L 241.6 412.0 L 235.5 421.4 L 226.9 432.2 L 215.7 445.0 L 201.9 462.4 L 190.6 480.3 L 182.0 498.3 L 176.3 516.2 L 173.6 533.7 L 174.3 550.3 L 178.4 565.7 L 186.3 579.7 L 198.0 591.9 L 213.8 602.0 L 233.8 609.7 L 258.3 614.5 L 265.6 615.0 L 272.9 615.2 L 280.3 615.2 L 287.6 614.9 L 294.9 614.3 L 302.2 613.6 L 309.5 612.7 L 316.7 611.7 L 324.0 610.6 L 331.2 609.4 L 338.4 608.2 L 345.6 607.0 L 352.5 605.8 L 359.3 605.0 L 365.8 604.6 L 372.2 604.7 L 378.4 605.3 L 384.5 606.5 L 390.3 608.4 L 396.0 610.8 L 401.4 613.9 L 406.7 617.8 L 411.7 622.3 L 416.6 627.7 L 427.4 640.3 L 439.3 654.2 L 452.2 668.7 L 465.8 682.8 L 480.1 695.9 L 494.8 707.0 L 509.8 715.4 L 524.9 720.1 L 540.0 720.4 L 554.9 715.4 L 569.3 704.3 L 583.3 686.3 L 586.0 681.4 L 588.7 676.2 L 591.4 671.0 L 594.3 665.8 L 597.2 660.8 L 600.5 656.0 L 604.0 651.7 L 608.0 647.9 L 612.5 644.8 L 617.5 642.5 L 623.1 641.1 L 629.5 640.8 L 641.0 640.7 L 651.4 639.5 L 660.8 637.3 L 669.2 633.9 L 676.5 629.5 L 682.6 624.1 L 687.6 617.5 L 691.4 610.0 L 694.0 601.4 L 695.4 591.8 L 695.6 581.2 L 694.5 569.6 L 694.2 566.5 L 693.8 563.3 L 693.5 560.1 L 693.2 556.8 L 693.1 553.6 L 693.1 550.4 L 693.3 547.2 L 693.7 544.0 L 694.4 541.0 L 695.5 538.1 L 696.9 535.3 L 698.7 532.6 L 700.3 530.8 L 702.0 529.1 L 703.8 527.6 L 705.7 526.2 L 707.7 524.9 L 709.8 523.6 L 712.0 522.5 L 714.2 521.3 L 716.4 520.3 L 718.6 519.2 L 720.8 518.2 L 723.0 517.2 L 727.5 515.1 L 732.0 513.0 L 736.5 510.9 L 740.9 508.7 L 745.3 506.4 L 749.7 504.1 L 754.1 501.7 L 758.4 499.2 L 762.7 496.7 L 766.9 494.0 L 771.0 491.3 L 775.1 488.5 L 781.6 483.5 L 788.1 478.1 L 794.5 472.3 L 800.7 466.1 L 806.7 459.6 L 812.5 452.8 L 817.8 445.7 L 822.7 438.4 L 827.1 430.9 L 831.0 423.3 L 834.1 415.6 L 836.6 407.8 L 836.6 407.8 L 836.5 407.7 Z"/>
	<path id="ShapeC" style="opacity:0.2;fill:#ED1C24;stroke:#000000;stroke-width:2;stroke-miterlimit:10;" d="M 696.0 692.5 L 718.1 684.5 L 737.5 673.6 L 754.2 660.0 L 768.0 644.3 L 779.2 626.6 L 787.5 607.4 L 793.1 587.0 L 796.0 565.7 L 796.1 544.0 L 793.4 522.2 L 788.0 500.6 L 779.8 479.5 L 774.4 469.2 L 768.5 459.3 L 762.0 449.7 L 755.1 440.5 L 747.8 431.6 L 740.0 423.0 L 731.9 414.8 L 723.4 406.9 L 714.6 399.4 L 705.5 392.2 L 696.2 385.4 L 686.6 379.0 L 683.0 376.6 L 679.4 374.1 L 675.8 371.7 L 672.1 369.4 L 668.4 367.0 L 664.8 364.7 L 661.0 362.4 L 657.3 360.1 L 653.6 357.8 L 649.8 355.5 L 646.1 353.3 L 642.3 351.1 L 637.6 348.4 L 633.0 345.5 L 628.3 342.6 L 623.8 339.6 L 619.5 336.4 L 615.3 333.1 L 611.4 329.5 L 607.7 325.7 L 604.4 321.6 L 601.4 317.2 L 598.8 312.5 L 596.7 307.4 L 595.5 304.0 L 594.4 300.5 L 593.4 297.0 L 592.5 293.5 L 591.7 289.9 L 591.0 286.4 L 590.3 282.8 L 589.7 279.2 L 589.0 275.6 L 588.4 272.0 L 587.8 268.4 L 587.2 264.8 L 586.2 259.4 L 585.2 253.9 L 584.1 248.5 L 583.0 243.0 L 581.9 237.6 L 580.6 232.2 L 579.4 226.7 L 578.0 221.3 L 576.7 215.9 L 575.2 210.6 L 573.7 205.2 L 572.2 199.9 L 570.3 194.4 L 568.3 188.5 L 566.0 182.2 L 563.6 175.8 L 560.9 169.4 L 558.0 163.0 L 554.8 156.8 L 551.3 151.0 L 547.5 145.7 L 543.4 141.0 L 538.9 137.1 L 534.0 134.0 L 528.0 132.4 L 522.1 132.3 L 516.3 133.4 L 510.5 135.5 L 504.7 138.5 L 499.1 142.1 L 493.5 146.1 L 488.0 150.3 L 482.6 154.5 L 477.4 158.4 L 472.2 161.9 L 467.2 164.7 L 457.0 170.1 L 447.2 172.5 L 437.8 172.4 L 428.8 170.5 L 420.2 167.5 L 411.9 164.0 L 404.0 160.7 L 396.3 158.1 L 388.9 156.9 L 381.7 157.8 L 374.6 161.4 L 367.8 168.3 L 365.6 171.9 L 363.5 175.6 L 361.6 179.4 L 359.8 183.3 L 358.1 187.2 L 356.4 191.2 L 354.8 195.2 L 353.2 199.1 L 351.5 203.0 L 349.7 206.9 L 347.8 210.6 L 345.7 214.2 L 341.7 220.6 L 336.9 225.8 L 331.5 229.7 L 325.5 232.6 L 319.1 234.7 L 312.4 236.0 L 305.4 236.7 L 298.3 237.1 L 291.1 237.1 L 283.9 237.0 L 276.9 237.0 L 270.1 237.1 L 246.7 238.3 L 224.7 242.0 L 204.5 248.1 L 186.5 256.4 L 171.1 266.8 L 158.9 279.3 L 150.1 293.6 L 145.3 309.6 L 144.8 327.3 L 149.2 346.4 L 158.8 366.9 L 174.0 388.7 L 178.5 394.2 L 183.1 399.4 L 188.0 404.6 L 192.9 409.6 L 198.0 414.5 L 203.2 419.3 L 208.5 424.1 L 213.7 428.8 L 219.0 433.5 L 224.3 438.3 L 229.5 443.0 L 234.6 447.8 L 239.6 452.5 L 243.9 457.2 L 247.6 461.9 L 250.6 466.8 L 253.0 471.7 L 254.8 476.8 L 256.0 482.1 L 256.7 487.6 L 256.7 493.3 L 256.3 499.3 L 255.2 505.7 L 253.7 512.3 L 251.8 520.1 L 249.9 527.9 L 248.0 535.7 L 246.2 543.5 L 244.4 551.3 L 242.7 559.2 L 241.3 567.1 L 240.0 575.0 L 239.0 582.9 L 238.3 590.9 L 238.0 598.9 L 238.0 607.0 L 238.4 616.2 L 239.7 625.0 L 242.0 633.3 L 245.2 641.0 L 249.4 647.9 L 254.4 654.2 L 260.2 659.5 L 266.9 663.9 L 274.3 667.3 L 282.4 669.6 L 291.3 670.7 L 300.9 670.5 L 305.8 670.2 L 310.8 669.5 L 315.7 668.6 L 320.6 667.4 L 325.6 666.2 L 330.5 665.0 L 335.4 663.9 L 340.3 663.1 L 345.3 662.6 L 350.2 662.5 L 355.1 663.0 L 360.0 664.2 L 362.8 665.4 L 365.4 666.9 L 367.9 668.6 L 370.3 670.6 L 372.6 672.7 L 374.8 674.9 L 377.0 677.2 L 379.1 679.6 L 381.2 682.0 L 383.3 684.4 L 385.4 686.6 L 387.5 688.8 L 391.4 692.7 L 395.7 696.3 L 400.1 699.3 L 404.8 701.9 L 409.7 703.9 L 414.8 705.4 L 419.9 706.4 L 425.2 706.7 L 430.4 706.4 L 435.7 705.4 L 440.9 703.7 L 446.1 701.3 L 451.6 698.6 L 457.0 695.2 L 462.1 691.1 L 467.1 686.7 L 472.0 682.1 L 476.9 677.5 L 481.7 673.1 L 486.5 669.0 L 491.4 665.5 L 496.4 662.7 L 501.5 660.9 L 506.8 660.2 L 511.1 660.7 L 515.4 661.6 L 519.5 662.9 L 523.6 664.6 L 527.6 666.5 L 531.5 668.5 L 535.4 670.7 L 539.3 672.9 L 543.2 675.1 L 547.1 677.3 L 551.0 679.3 L 555.0 681.1 L 566.0 686.3 L 577.3 690.8 L 588.8 694.3 L 600.5 697.1 L 612.3 699.1 L 624.3 700.3 L 636.3 700.8 L 648.4 700.5 L 660.4 699.5 L 672.4 697.9 L 684.3 695.5 L 696.0 692.5 L 696.2 692.5 L 696.0 692.5 Z"/>
	<path id="ShapeD" style="opacity:0.2;fill:#808285;stroke:#000000;stroke-width:2;stroke-miterlimit:10;" d="M 386.4 762.9 L 404.7 773.2 L 423.3 780.6 L 442.0 785.3 L 460.7 787.3 L 479.2 786.7 L 497.4 783.6 L 515.2 778.2 L 532.3 770.5 L 548.6 760.6 L 564.1 748.6 L 578.4 734.6 L 591.6 718.8 L 598.3 709.7 L 604.4 700.2 L 609.8 690.3 L 614.5 680.0 L 618.7 669.5 L 622.3 658.8 L 625.3 647.9 L 627.7 636.9 L 629.7 625.7 L 631.1 614.5 L 632.0 603.3 L 632.4 592.1 L 632.3 585.7 L 632.2 579.3 L 631.9 572.8 L 631.6 566.4 L 631.2 560.0 L 630.6 553.6 L 630.1 547.2 L 629.4 540.8 L 628.7 534.4 L 627.9 528.1 L 627.1 521.8 L 626.2 515.5 L 625.6 511.1 L 624.9 506.6 L 624.3 502.2 L 623.6 497.7 L 623.1 493.2 L 622.7 488.7 L 622.4 484.2 L 622.4 479.7 L 622.5 475.2 L 623.0 470.8 L 623.7 466.4 L 624.8 462.0 L 626.0 458.4 L 627.5 454.8 L 629.2 451.4 L 631.2 448.1 L 633.3 444.8 L 635.5 441.6 L 637.9 438.6 L 640.3 435.5 L 642.9 432.6 L 645.5 429.7 L 648.1 426.8 L 650.7 424.0 L 653.6 420.9 L 656.5 417.8 L 659.4 414.7 L 662.2 411.6 L 665.1 408.5 L 667.9 405.3 L 670.8 402.2 L 673.6 399.0 L 676.4 395.8 L 679.2 392.6 L 681.9 389.4 L 684.7 386.2 L 688.7 381.5 L 692.7 376.7 L 696.6 371.9 L 700.4 367.1 L 704.2 362.2 L 707.8 357.2 L 711.3 352.1 L 714.8 347.0 L 718.0 341.8 L 721.2 336.5 L 724.2 331.1 L 727.1 325.6 L 730.3 319.2 L 732.7 313.1 L 734.1 307.3 L 734.6 301.8 L 734.3 296.6 L 733.0 291.8 L 730.8 287.4 L 727.6 283.4 L 723.5 279.9 L 718.4 276.7 L 712.4 274.1 L 705.3 271.9 L 697.4 269.7 L 689.6 267.6 L 681.9 265.4 L 674.5 263.0 L 667.4 260.2 L 660.8 257.0 L 654.7 253.1 L 649.2 248.6 L 644.3 243.1 L 640.2 236.7 L 637.0 229.2 L 634.7 220.5 L 634.0 218.0 L 633.3 215.4 L 632.5 212.8 L 631.6 210.2 L 630.7 207.6 L 629.7 205.0 L 628.5 202.6 L 627.2 200.3 L 625.7 198.1 L 624.0 196.1 L 622.1 194.2 L 620.0 192.6 L 612.0 189.7 L 603.6 189.0 L 595.0 190.1 L 586.3 192.3 L 577.4 195.1 L 568.4 198.2 L 559.3 200.8 L 550.3 202.7 L 541.4 203.1 L 532.6 201.7 L 524.0 197.9 L 515.6 191.2 L 507.6 182.5 L 499.7 173.5 L 491.7 164.4 L 483.6 155.4 L 475.4 146.5 L 466.9 138.0 L 458.1 129.8 L 448.8 122.3 L 439.1 115.5 L 428.9 109.5 L 418.0 104.5 L 406.4 100.7 L 392.6 98.0 L 379.5 98.2 L 367.2 100.8 L 355.7 105.7 L 345.2 112.5 L 335.6 121.0 L 327.1 130.8 L 319.6 141.8 L 313.4 153.7 L 308.3 166.1 L 304.6 178.7 L 302.2 191.4 L 301.4 195.8 L 300.7 200.2 L 300.1 204.6 L 299.5 209.0 L 299.1 213.4 L 298.6 217.8 L 298.3 222.3 L 297.9 226.7 L 297.6 231.1 L 297.3 235.5 L 296.9 240.0 L 296.6 244.4 L 296.2 250.9 L 295.6 257.3 L 294.7 263.6 L 293.6 269.8 L 292.0 275.8 L 290.0 281.6 L 287.5 287.1 L 284.4 292.3 L 280.7 297.1 L 276.4 301.6 L 271.3 305.6 L 265.5 309.1 L 253.5 315.8 L 239.3 322.9 L 223.7 330.6 L 207.5 339.0 L 191.4 348.0 L 176.2 357.8 L 162.7 368.5 L 151.6 380.1 L 143.8 392.7 L 139.9 406.4 L 140.9 421.2 L 147.3 437.3 L 149.2 440.2 L 151.2 442.9 L 153.3 445.6 L 155.5 448.2 L 157.9 450.7 L 160.3 453.1 L 162.8 455.4 L 165.4 457.7 L 168.0 460.0 L 170.7 462.1 L 173.4 464.3 L 176.1 466.4 L 178.3 468.2 L 180.6 469.9 L 182.9 471.7 L 185.1 473.6 L 187.3 475.5 L 189.4 477.5 L 191.5 479.6 L 193.3 481.7 L 195.1 484.0 L 196.6 486.4 L 197.9 488.9 L 198.9 491.6 L 199.7 494.3 L 200.2 497.1 L 200.4 499.9 L 200.4 502.7 L 200.2 505.5 L 199.8 508.4 L 199.3 511.2 L 198.8 514.1 L 198.2 516.9 L 197.6 519.7 L 197.1 522.5 L 196.6 525.3 L 195.5 532.1 L 195.3 538.7 L 196.0 544.9 L 197.5 550.9 L 199.8 556.5 L 202.8 561.8 L 206.6 566.6 L 210.9 571.0 L 215.9 574.8 L 221.5 578.2 L 227.5 580.9 L 234.0 583.1 L 238.8 584.7 L 243.8 585.8 L 249.0 586.6 L 254.3 587.2 L 259.6 587.8 L 264.8 588.4 L 270.0 589.2 L 275.0 590.3 L 279.9 591.8 L 284.4 593.9 L 288.7 596.6 L 292.5 600.1 L 294.0 602.1 L 295.4 604.3 L 296.5 606.5 L 297.5 608.9 L 298.4 611.3 L 299.2 613.8 L 299.9 616.3 L 300.5 618.8 L 301.1 621.4 L 301.6 623.9 L 302.2 626.5 L 302.7 629.0 L 303.4 632.2 L 304.0 635.4 L 304.8 638.6 L 305.5 641.8 L 306.3 645.1 L 307.0 648.3 L 307.9 651.5 L 308.7 654.7 L 309.6 657.8 L 310.6 661.0 L 311.6 664.2 L 312.6 667.3 L 316.1 676.9 L 320.1 686.2 L 324.7 695.4 L 329.8 704.3 L 335.3 713.0 L 341.3 721.3 L 347.8 729.3 L 354.7 736.8 L 362.0 744.0 L 369.8 750.7 L 377.8 756.9 L 386.3 762.6 L 386.5 762.6 L 386.4 762.9 Z"/>
	<path id="ShapeE" style="opacity:0.2;fill:#3C2415;stroke:#000000;stroke-width:2;stroke-miterlimit:10;" d="M 134.1 571.8 L 135.8 576.8 L 137.4 581.9 L 138.9 587.0 L 140.4 592.2 L 141.9 597.4 L 143.4 602.6 L 145.1 607.7 L 146.9 612.8 L 148.9 617.8 L 151.2 622.7 L 153.7 627.4 L 156.6 632.0 L 163.9 643.0 L 172.3 653.0 L 181.6 662.1 L 191.8 670.1 L 202.7 677.3 L 214.1 683.4 L 226.2 688.7 L 238.6 693.0 L 251.3 696.3 L 264.3 698.7 L 277.3 700.2 L 290.3 700.7 L 305.0 700.4 L 319.5 698.8 L 333.8 696.0 L 347.8 692.0 L 361.4 687.1 L 374.8 681.2 L 387.8 674.5 L 400.5 667.0 L 412.8 658.9 L 424.7 650.3 L 436.1 641.2 L 447.1 631.8 L 454.4 625.8 L 461.6 619.1 L 468.7 612.0 L 475.8 604.6 L 482.9 597.1 L 490.2 589.9 L 497.6 583.0 L 505.3 576.6 L 513.3 571.1 L 521.6 566.5 L 530.4 563.0 L 539.6 561.0 L 549.1 560.6 L 558.5 560.5 L 568.0 560.6 L 577.5 560.9 L 586.9 561.3 L 596.4 561.8 L 605.9 562.2 L 615.4 562.5 L 624.9 562.7 L 634.3 562.7 L 643.8 562.5 L 653.3 561.9 L 662.0 561.1 L 671.6 560.0 L 681.6 558.5 L 691.6 556.6 L 701.2 554.0 L 710.1 550.6 L 717.7 546.2 L 723.7 540.8 L 727.8 534.2 L 729.4 526.2 L 728.2 516.7 L 723.8 505.5 L 722.1 501.6 L 720.3 497.7 L 718.4 493.9 L 716.6 490.0 L 714.7 486.2 L 713.0 482.3 L 711.3 478.4 L 709.8 474.5 L 708.5 470.5 L 707.4 466.5 L 706.5 462.3 L 705.9 458.1 L 705.7 450.8 L 707.3 443.8 L 710.5 437.1 L 714.6 430.6 L 719.3 424.2 L 724.0 417.9 L 728.4 411.7 L 731.9 405.4 L 734.1 399.1 L 734.5 392.6 L 732.7 385.9 L 728.2 378.9 L 725.0 375.7 L 721.6 372.7 L 718.0 369.9 L 714.4 367.1 L 710.6 364.5 L 706.9 362.0 L 703.1 359.4 L 699.3 356.9 L 695.5 354.3 L 691.9 351.6 L 688.3 348.8 L 684.8 345.9 L 679.2 340.8 L 675.2 335.1 L 672.5 329.1 L 671.0 322.6 L 670.6 316.0 L 670.9 309.1 L 671.9 302.1 L 673.4 295.0 L 675.1 288.0 L 676.9 281.0 L 678.6 274.2 L 680.0 267.7 L 683.7 248.9 L 685.3 230.2 L 684.8 212.1 L 682.0 194.9 L 677.1 178.9 L 670.0 164.7 L 660.5 152.4 L 648.8 142.6 L 634.7 135.7 L 618.3 131.9 L 599.4 131.7 L 578.1 135.4 L 571.3 137.6 L 564.6 140.1 L 558.0 142.8 L 551.5 145.7 L 545.1 148.8 L 538.8 152.2 L 532.6 155.7 L 526.4 159.3 L 520.4 163.0 L 514.4 166.9 L 508.5 170.8 L 502.6 174.8 L 496.1 179.4 L 489.5 183.9 L 482.8 188.3 L 476.0 192.5 L 469.1 196.1 L 462.1 199.2 L 454.9 201.6 L 447.6 203.0 L 440.2 203.5 L 432.6 202.8 L 424.8 200.8 L 416.8 197.3 L 402.8 190.4 L 387.0 182.6 L 370.1 174.7 L 352.3 167.2 L 334.4 160.8 L 316.6 156.2 L 299.5 154.0 L 283.5 154.9 L 269.2 159.7 L 257.0 168.8 L 247.4 183.0 L 240.8 203.0 L 240.0 209.2 L 239.7 215.7 L 239.6 222.3 L 239.5 229.0 L 239.3 235.7 L 238.7 242.2 L 237.7 248.4 L 235.9 254.3 L 233.3 259.7 L 229.6 264.5 L 224.6 268.6 L 218.2 272.0 L 208.8 276.5 L 200.5 281.5 L 193.2 286.9 L 187.1 292.7 L 182.2 299.0 L 178.6 305.7 L 176.3 312.9 L 175.4 320.5 L 176.0 328.7 L 178.2 337.3 L 181.9 346.5 L 187.3 356.1 L 189.2 359.3 L 191.3 362.6 L 193.5 365.8 L 195.7 369.1 L 197.9 372.4 L 199.9 375.8 L 201.6 379.3 L 203.1 382.8 L 204.2 386.4 L 204.8 390.1 L 204.9 393.9 L 204.4 397.8 L 203.6 400.5 L 202.6 403.1 L 201.3 405.6 L 199.9 408.0 L 198.3 410.3 L 196.6 412.6 L 194.7 414.9 L 192.8 417.1 L 190.9 419.2 L 189.0 421.3 L 187.1 423.4 L 185.2 425.5 L 182.2 428.8 L 179.3 432.2 L 176.4 435.6 L 173.5 439.0 L 170.7 442.6 L 167.9 446.1 L 165.2 449.7 L 162.6 453.4 L 160.0 457.0 L 157.5 460.8 L 155.1 464.5 L 152.8 468.3 L 149.0 475.5 L 145.2 483.3 L 141.7 491.7 L 138.5 500.5 L 135.6 509.6 L 133.2 518.9 L 131.4 528.3 L 130.2 537.6 L 129.8 546.7 L 130.2 555.5 L 131.5 563.9 L 133.8 571.8 L 133.8 571.8 L 134.1 571.8 Z"/>
	<path id="ShapeF" style="opacity:0.2;fill:#9E1F63;stroke:#000000;stroke-width:2;stroke-miterlimit:10;" d="M 135.9 259.8 L 119.4 276.8 L 106.7 295.1 L 97.8 314.4 L 92.3 334.3 L 90.1 354.7 L 91.2 375.2 L 95.1 395.6 L 101.9 415.6 L 111.3 434.9 L 123.2 453.3 L 137.3 470.5 L 153.5 486.2 L 166.1 495.9 L 179.3 504.6 L 193.0 512.3 L 207.1 519.0 L 221.7 524.8 L 236.6 529.8 L 251.8 534.0 L 267.2 537.5 L 282.8 540.5 L 298.4 542.8 L 314.1 544.7 L 329.8 546.1 L 335.4 546.6 L 341.0 547.1 L 346.7 547.8 L 352.3 548.6 L 357.9 549.7 L 363.5 550.9 L 368.9 552.5 L 374.2 554.5 L 379.2 556.8 L 384.1 559.6 L 388.7 562.8 L 393.1 566.6 L 398.0 571.6 L 402.7 576.8 L 407.1 582.2 L 411.5 587.7 L 415.8 593.3 L 420.0 598.9 L 424.1 604.6 L 428.3 610.2 L 432.5 615.8 L 436.9 621.4 L 441.3 626.8 L 445.9 632.1 L 449.4 636.4 L 453.0 640.6 L 456.6 644.7 L 460.3 648.8 L 464.0 652.9 L 467.8 656.8 L 471.7 660.7 L 475.6 664.6 L 479.7 668.3 L 483.8 672.0 L 487.9 675.6 L 492.2 679.1 L 495.5 681.8 L 498.9 684.4 L 502.5 687.0 L 506.3 689.5 L 510.1 691.6 L 514.1 693.4 L 518.1 694.8 L 522.2 695.7 L 526.4 696.0 L 530.5 695.5 L 534.6 694.3 L 538.7 692.2 L 542.8 688.9 L 546.5 685.2 L 549.9 681.1 L 552.9 676.8 L 555.8 672.3 L 558.5 667.6 L 561.0 662.8 L 563.6 658.1 L 566.2 653.4 L 568.8 648.8 L 571.7 644.4 L 574.7 640.2 L 581.1 632.3 L 587.6 626.7 L 594.3 622.8 L 601.1 620.4 L 608.0 619.1 L 614.9 618.5 L 621.7 618.3 L 628.5 618.2 L 635.2 617.7 L 641.7 616.5 L 648.0 614.2 L 654.0 610.5 L 656.6 607.5 L 658.5 604.2 L 660.0 600.8 L 661.0 597.1 L 661.5 593.4 L 661.8 589.5 L 661.8 585.6 L 661.7 581.6 L 661.4 577.7 L 661.1 573.8 L 660.7 569.9 L 660.5 566.2 L 659.8 556.8 L 659.7 548.6 L 660.4 541.3 L 661.9 534.9 L 664.1 529.2 L 667.0 524.1 L 670.8 519.5 L 675.4 515.3 L 680.9 511.4 L 687.2 507.6 L 694.3 503.8 L 702.4 499.9 L 710.5 495.8 L 718.7 491.6 L 726.8 487.2 L 734.8 482.7 L 742.7 477.8 L 750.4 472.8 L 757.9 467.4 L 765.0 461.6 L 771.8 455.5 L 778.2 449.0 L 784.1 442.0 L 789.5 434.6 L 795.6 424.1 L 799.7 413.7 L 801.9 403.3 L 802.3 393.2 L 801.0 383.4 L 798.2 373.8 L 793.9 364.6 L 788.4 355.9 L 781.7 347.6 L 774.0 339.9 L 765.3 332.8 L 755.9 326.3 L 750.4 322.9 L 744.9 319.7 L 739.2 316.7 L 733.5 313.8 L 727.7 311.1 L 721.9 308.5 L 715.9 306.1 L 710.0 303.8 L 704.0 301.5 L 697.9 299.4 L 691.8 297.4 L 685.7 295.5 L 676.6 292.6 L 667.9 289.8 L 659.7 287.0 L 652.0 283.9 L 644.9 280.5 L 638.3 276.6 L 632.3 272.0 L 626.9 266.6 L 622.2 260.3 L 618.1 252.9 L 614.7 244.3 L 612.1 234.2 L 608.6 218.5 L 604.3 201.5 L 599.1 183.7 L 593.0 166.0 L 585.6 149.2 L 577.0 133.9 L 567.0 121.0 L 555.4 111.2 L 542.1 105.2 L 527.0 103.8 L 510.0 107.7 L 490.8 117.8 L 486.0 121.2 L 481.2 124.9 L 476.4 128.6 L 471.6 132.3 L 466.7 135.7 L 461.8 138.8 L 456.7 141.3 L 451.5 143.1 L 446.0 144.1 L 440.3 144.0 L 434.4 142.8 L 428.2 140.2 L 418.9 135.7 L 410.0 132.3 L 401.5 130.0 L 393.3 128.8 L 385.6 128.8 L 378.2 130.1 L 371.2 132.6 L 364.6 136.4 L 358.4 141.6 L 352.5 148.2 L 347.1 156.1 L 342.1 165.6 L 340.4 169.3 L 338.8 173.2 L 337.3 177.2 L 335.8 181.2 L 334.3 185.3 L 332.6 189.2 L 330.8 193.1 L 328.7 196.7 L 326.4 200.1 L 323.7 203.2 L 320.5 205.9 L 316.9 208.1 L 314.5 209.1 L 312.0 209.9 L 309.4 210.5 L 306.8 210.9 L 304.1 211.2 L 301.4 211.4 L 298.7 211.5 L 295.9 211.5 L 293.2 211.4 L 290.5 211.4 L 287.8 211.3 L 285.1 211.2 L 282.3 211.1 L 279.6 211.0 L 276.8 211.0 L 274.0 210.9 L 271.2 210.9 L 268.4 210.9 L 265.6 210.9 L 262.8 210.9 L 260.0 211.0 L 257.2 211.1 L 254.5 211.2 L 251.7 211.4 L 241.1 212.3 L 230.6 213.8 L 220.2 216.1 L 210.0 219.0 L 200.0 222.4 L 190.1 226.5 L 180.5 231.0 L 171.0 236.0 L 161.8 241.4 L 152.9 247.2 L 144.2 253.3 L 135.8 259.7 L 135.7 259.7 L 135.9 259.8 Z"/>
	<path id="ShapeG" style="opacity:0.2;fill:#CA4B9B;stroke:#000000;stroke-width:2;stroke-miterlimit:10;" d="M 383.5 65.3 L 378.3 63.7 L 373.1 62.6 L 367.8 61.9 L 362.4 61.5 L 357.0 61.5 L 351.6 61.7 L 346.1 62.2 L 340.8 63.0 L 335.4 64.0 L 330.1 65.1 L 324.8 66.4 L 319.7 67.8 L 306.2 72.6 L 293.5 78.9 L 281.8 86.4 L 270.9 95.2 L 260.9 105.0 L 251.9 115.7 L 243.8 127.2 L 236.6 139.4 L 230.4 152.2 L 225.3 165.4 L 221.1 178.9 L 218.0 192.6 L 215.5 209.6 L 214.8 226.5 L 215.7 243.3 L 218.2 259.8 L 222.0 276.1 L 227.0 292.1 L 233.1 307.9 L 240.2 323.4 L 248.0 338.5 L 256.5 353.2 L 265.5 367.6 L 274.9 381.5 L 278.1 386.2 L 281.4 391.0 L 284.7 395.7 L 288.1 400.4 L 291.4 405.2 L 294.5 410.1 L 297.4 415.1 L 300.1 420.1 L 302.4 425.3 L 304.2 430.7 L 305.6 436.3 L 306.4 442.0 L 306.5 448.1 L 306.1 454.1 L 305.2 460.2 L 304.0 466.2 L 302.5 472.2 L 300.8 478.2 L 298.9 484.2 L 297.0 490.1 L 295.1 496.1 L 293.2 502.0 L 291.5 507.9 L 290.0 513.8 L 287.7 523.1 L 285.4 532.5 L 283.1 542.0 L 280.9 551.6 L 279.0 561.3 L 277.3 571.0 L 276.1 580.7 L 275.4 590.4 L 275.3 600.1 L 275.9 609.6 L 277.3 619.1 L 279.6 628.5 L 285.4 636.3 L 292.4 641.0 L 300.6 643.3 L 309.6 643.7 L 319.3 642.7 L 329.5 640.8 L 339.9 638.7 L 350.3 636.8 L 360.5 635.7 L 370.3 636.0 L 379.4 638.1 L 387.7 642.6 L 391.7 645.3 L 395.4 648.4 L 398.9 652.0 L 402.3 655.7 L 405.6 659.6 L 408.9 663.4 L 412.2 667.1 L 415.8 670.5 L 419.5 673.5 L 423.6 676.0 L 428.0 677.8 L 432.8 678.9 L 436.7 678.7 L 440.4 678.0 L 444.0 676.9 L 447.5 675.2 L 450.8 673.3 L 454.1 671.1 L 457.2 668.6 L 460.3 666.0 L 463.3 663.4 L 466.2 660.7 L 469.1 658.1 L 472.0 655.7 L 480.1 648.2 L 487.7 642.5 L 494.9 638.3 L 501.8 635.6 L 508.6 634.2 L 515.4 634.1 L 522.2 635.0 L 529.2 636.9 L 536.6 639.7 L 544.3 643.2 L 552.6 647.3 L 561.6 651.9 L 568.1 655.0 L 574.7 658.0 L 581.3 660.8 L 588.1 663.5 L 594.9 666.1 L 601.7 668.3 L 608.7 670.4 L 615.7 672.1 L 622.7 673.4 L 629.8 674.4 L 637.0 675.0 L 644.2 675.1 L 656.8 674.3 L 668.6 671.9 L 679.4 668.0 L 689.2 662.7 L 697.8 656.1 L 705.4 648.3 L 711.7 639.4 L 716.8 629.6 L 720.5 619.0 L 722.8 607.7 L 723.7 595.7 L 723.0 583.2 L 722.2 576.1 L 721.1 569.0 L 719.7 561.9 L 718.0 554.9 L 716.2 548.0 L 714.1 541.1 L 711.8 534.3 L 709.4 527.5 L 706.8 520.8 L 704.1 514.2 L 701.3 507.6 L 698.4 501.0 L 694.5 492.1 L 691.1 483.9 L 688.4 476.1 L 686.4 468.7 L 685.2 461.6 L 684.9 454.8 L 685.5 448.0 L 687.2 441.2 L 690.0 434.4 L 694.1 427.4 L 699.4 420.1 L 706.0 412.4 L 715.4 401.7 L 725.7 389.6 L 736.2 376.3 L 746.2 362.3 L 755.2 347.7 L 762.5 332.9 L 767.5 318.2 L 769.6 303.9 L 768.0 290.2 L 762.3 277.5 L 751.8 266.1 L 735.8 256.2 L 726.6 252.5 L 717.9 249.8 L 709.8 247.6 L 702.3 245.8 L 695.3 243.9 L 688.9 241.6 L 683.1 238.6 L 677.8 234.6 L 673.2 229.3 L 669.2 222.2 L 665.7 213.2 L 662.9 201.8 L 660.9 195.8 L 658.1 190.2 L 654.8 185.0 L 650.8 180.4 L 646.4 176.3 L 641.5 172.8 L 636.2 169.9 L 630.6 167.7 L 624.7 166.2 L 618.6 165.4 L 612.3 165.4 L 606.0 166.2 L 600.8 166.9 L 595.7 168.1 L 590.5 169.7 L 585.4 171.5 L 580.3 173.4 L 575.1 175.3 L 570.0 177.0 L 564.9 178.4 L 559.8 179.2 L 554.6 179.4 L 549.5 178.9 L 544.3 177.4 L 540.6 175.2 L 537.1 172.7 L 533.9 169.8 L 530.9 166.8 L 528.0 163.5 L 525.2 160.1 L 522.5 156.6 L 519.9 153.1 L 517.2 149.5 L 514.5 146.1 L 511.8 142.7 L 508.9 139.5 L 500.1 129.2 L 491.1 120.0 L 481.8 111.9 L 472.2 104.7 L 462.4 98.3 L 452.2 92.5 L 441.7 87.3 L 430.8 82.5 L 419.6 78.1 L 408.1 73.8 L 396.1 69.6 L 383.7 65.4 L 383.5 65.4 L 383.5 65.3 Z"/>
</g>
<g id="Texts">
	<g id="Header">
		<text id="Title" transform="matrix(1 0 0 1 368.7 39.3)" style="fill:#262262;font-family:Tahoma, Tahoma;font-size:18px">Venn 7-set Victoria diagram</text>
	</g>
	<g id="Group_Names">
		<text id="NameA" transform="matrix(1 0 0 1 731.4 50.9)" style="fill:#262262;stroke:#000000;stroke-width:0.5;stroke-miterlimit:10;font-family:Tahoma, Tahoma;font-size:20px">NameA</text>
		<text id="NameB" transform="matrix(1 0 0 1 813.9 194.4)" style="fill:#262262;stroke:#000000;stroke-width:0.5;stroke-miterlimit:10;font-family:Tahoma, Tahoma;font-size:20px">NameB</text>
		<text id="NameC" transform="matrix(1 0 0 1 784 693.7)" style="fill:#262262;stroke:#000000;stroke-width:0.5;stroke-miterlimit:10;font-family:Tahoma, Tahoma;font-size:20px">NameC</text>
		<text id="NameD" transform="matrix(1 0 0 1 431.8 812.5)" style="fill:#262262;stroke:#000000;stroke-width:0.5;stroke-miterlimit:10;font-family:Tahoma, Tahoma;font-size:20px">NameD</text>
		<text id="NameE" transform="matrix(1 0 0 1 70.4 676)" style="fill:#262262;stroke:#000000;stroke-width:0.5;stroke-miterlimit:10;font-family:Tahoma, Tahoma;font-size:20px">NameE</text>
		<text id="NameF" transform="matrix(1 0 0 1 66.5 193.4)" style="fill:#262262;stroke:#000000;stroke-width:0.5;stroke-miterlimit:10;font-family:Tahoma, Tahoma;font-size:20px">NameF</text>
		<text id="NameG" transform="matrix(1 0 0 1 175.5 57)" style="fill:#262262;stroke:#000000;stroke-width:0.5;stroke-miterlimit:10;font-family:Tahoma, Tahoma;font-size:20px">NameG</text>
	</g>
	<g id="Group_Values">
		<text id="Count_A" transform="matrix(1 0 0 1 609.4 111.1)" style="fill:#262262;font-family:Tahoma, Tahoma;font-size:24;text-anchor:middle">A</text>
		<text id="Count_B" transform="matrix(1 0 0 1 802.8 332.8)" style="fill:#262262;font-family:Tahoma, Tahoma;font-size:24;text-anchor:middle">B</text>
		<text id="Count_C" transform="matrix(1 0 0 1 752.5 612.5)" style="fill:#262262;font-family:Tahoma, Tahoma;font-size:24;text-anchor:middle">C</text>
		<text id="Count_D" transform="matrix(1 0 0 1 494.4 761.6)" style="fill:#262262;font-family:Tahoma, Tahoma;font-size:24;text-anchor:middle">D</text>
		<text id="Count_E" transform="matrix(1 0 0 1 194.8 636.9)" style="fill:#262262;font-family:Tahoma, Tahoma;font-size:24;text-anchor:middle">E</text>
		<text id="Count_F" transform="matrix(1 0 0 1 118.1 361.4)" style="fill:#262262;font-family:Tahoma, Tahoma;font-size:24;text-anchor:middle">F</text>
		<text id="Count_G" transform="matrix(1 0 0 1 307.7 119.4)" style="fill:#262262;font-family:Tahoma, Tahoma;font-size:24;text-anchor:middle">G</text>
		<text id="Count_AB" transform="matrix(1 0 0 1 706.5 231.4)" style="fill:#262262;font-family:Tahoma, Tahoma;font-size:12;text-anchor:middle">AB</text>
		<text id="Count_AC" transform="matrix(1 0 0 1 745.6 543.8)" style="fill:#262262;font-family:Tahoma, Tahoma;font-size:12;text-anchor:middle">AC</text>
		<text id="Count_AD" transform="matrix(1 0 0 1 438.6 724.9)" style="fill:#262262;font-family:Tahoma, Tahoma;font-size:12;text-anchor:middle">AD</text>
		<text id="Count_AE" transform="matrix(1 0 0 1 636.3 158.7)" style="fill:#262262;font-family:Tahoma, Tahoma;font-size:12;text-anchor:middle">AE</text>
		<text id="Count_AF" transform="matrix(1 0 0 1 534.8 126.1)" style="fill:#262262;font-family:Tahoma, Tahoma;font-size:12;text-anchor:middle">AF</text>
		<text id="Count_AG" transform="matrix(1 0 0 1 466.6 120.7)" style="fill:#262262;font-family:Tahoma, Tahoma;font-size:10;text-anchor:middle">AG</text>
		<text id="Count_BC" transform="matrix(1 0 0 1 766.1 480.2)" style="fill:#262262;font-family:Tahoma, Tahoma;font-size:10;text-anchor:middle">BC</text>
		<text id="Count_BD" transform="matrix(1 0 0 1 540.1 705.2)" style="fill:#262262;font-family:Tahoma, Tahoma;font-size:11;text-anchor:middle">BD</text>
		<text id="Count_BE" transform="matrix(1 0 0 1 192.1 570)" style="fill:#262262;font-family:Tahoma, Tahoma;font-size:8px;text-anchor:middle;">BE</text>
		<text id="Count_BF" transform="matrix(1 0 0 1 790 395.8)" style="fill:#262262;font-family:Tahoma, Tahoma;font-size:10;text-anchor:middle">BF</text>
		<text id="Count_BG" transform="matrix(1 0 0 1 747.1 293.9)" style="fill:#262262;font-family:Tahoma, Tahoma;font-size:12;text-anchor:middle">BG</text>
		<text id="Count_CD" transform="matrix(1 0 0 1 599.3 684.6)" style="fill:#262262;font-family:Tahoma, Tahoma;font-size:10;text-anchor:middle">CD</text>
		<text id="Count_CE" transform="matrix(1 0 0 1 273.1 645.8)" style="fill:#262262;font-family:Tahoma, Tahoma;font-size:12;text-anchor:middle">CE</text>
		<text id="Count_CF" transform="matrix(1 0 0 1 165.6 305.1)" style="fill:#262262;font-family:Tahoma, Tahoma;font-size:12;text-anchor:middle">CF</text>
		<text id="Count_CG" transform="matrix(1 0 0 1 682.2 648)" style="fill:#262262;font-family:Tahoma, Tahoma;font-size:12;text-anchor:middle">CG</text>
		<text id="Count_DE" transform="matrix(1 0 0 1 335.7 685.2)" style="fill:#262262;font-family:Tahoma, Tahoma;font-size:12;text-anchor:middle">DE</text>
		<text id="Count_DF" transform="matrix(1 0 0 1 160 415.1)" style="fill:#262262;font-family:Tahoma, Tahoma;font-size:12;text-anchor:middle">DF</text>
		<text id="Count_DG" transform="matrix(1 0 0 1 376.5 120)" style="fill:#262262;font-family:Tahoma, Tahoma;font-size:12;text-anchor:middle">DG</text>
		<text id="Count_EF" transform="matrix(1 0 0 1 169.2 482.1)" style="fill:#262262;font-family:Tahoma, Tahoma;font-size:12;text-anchor:middle">EF</text>
		<text id="Count_EG" transform="matrix(1 0 0 1 274.2 185.4)" style="fill:#262262;font-family:Tahoma, Tahoma;font-size:12;text-anchor:middle">EG</text>
		<text id="Count_FG" transform="matrix(1 0 0 1 227.3 230.2)" style="fill:#262262;font-family:Tahoma, Tahoma;font-size:10;text-anchor:middle">FG</text>
		<text id="Count_ABC" transform="matrix(1 0 0 1 740.1 496.8)" style="fill:#262262;font-family:Tahoma, Tahoma;font-size:10;text-anchor:middle">ABC</text>
		<text id="Count_ABD" transform="matrix(1 0 0 1 490.4 692.6)" style="fill:#262262;font-family:Tahoma, Tahoma;font-size:6px;text-anchor:middle;">ABD</text>
		<text id="Count_ABE" transform="matrix(1 0 0 1 676.9 222.1)" style="fill:#262262;font-family:Tahoma, Tahoma;font-size:6px;text-anchor:middle;">ABE</text>
		<text id="Count_ABF" transform="matrix(1 0 0 1 754.6 400.6)" style="fill:#262262;font-family:Tahoma, Tahoma;font-size:10;text-anchor:middle">ABF</text>
		<text id="Count_ABG" transform="matrix(1 0 0 1 703.4 261)" style="fill:#262262;font-family:Tahoma, Tahoma;font-size:9;text-anchor:middle">ABG</text>
		<text id="Count_ACD" transform="matrix(1 0 0 1 422.1 694)" style="fill:#262262;font-family:Tahoma, Tahoma;font-size:12;text-anchor:middle">ACD</text>
		<text id="Count_ACE" transform="matrix(1 0 0 1 719.8 532.1)" style="fill:#262262;font-family:Tahoma, Tahoma;font-size:6px;text-anchor:middle;">ACE</text>
		<text id="Count_ACF" transform="matrix(1 0 0 1 527.7 146.2)" style="fill:#262262;font-family:Tahoma, Tahoma;font-size:6px;text-anchor:middle;">ACF</text>
		<text id="Count_ACG" transform="matrix(1 0 0 1 707.8 572.6)" style="fill:#262262;font-family:Tahoma, Tahoma;font-size:7px;text-anchor:middle;">ACG</text>
		<text id="Count_ADE" transform="matrix(1 0 0 1 361.9 676.8)" style="fill:#262262;font-family:Tahoma, Tahoma;font-size:6px;text-anchor:middle;">ADE</text>
		<text id="Count_ADF" transform="matrix(1 0 0 1 183.6 416.1)" style="fill:#262262;font-family:Tahoma, Tahoma;font-size:6px;text-anchor:middle;">ADF</text>
		<text id="Count_ADG" transform="matrix(1 0 0 1 445.5 136.1)" style="fill:#262262;font-family:Tahoma, Tahoma;font-size:6px;text-anchor:middle;">ADG</text>
		<text id="Count_AEF" transform="matrix(1 0 0 1 571.9 159.4)" style="fill:#262262;font-family:Tahoma, Tahoma;font-size:7px;text-anchor:middle;">AEF</text>
		<text id="Count_AEG" transform="matrix(1 0 0 1 630.1 188.6)" style="fill:#262262;font-family:Tahoma, Tahoma;font-size:8;text-anchor:middle">AEG</text>
		<text id="Count_AFG" transform="matrix(1 0 0 1 486.3 138.5)" style="fill:#262262;font-family:Tahoma, Tahoma;font-size:6px;text-anchor:middle;">AFG</text>
		<text id="Count_BCD" transform="matrix(1 0 0 1 572.9 675.5)" style="fill:#262262;font-family:Tahoma, Tahoma;font-size:7px;text-anchor:middle;">BCD</text>
		<text id="Count_BCE" transform="matrix(1 0 0 1 256.9 603.2)" style="fill:#262262;font-family:Tahoma, Tahoma;font-size:7px;text-anchor:middle;">BCE</text>
		<text id="Count_BCF" transform="matrix(1 0 0 1 756.9 459.5)" style="fill:#262262;font-family:Tahoma, Tahoma;font-size:6px;text-anchor:middle;">BCF</text>
		<text id="Count_BCG" transform="matrix(1 0 0 1 667.3 622.2)" style="fill:#262262;font-family:Tahoma, Tahoma;font-size:12;text-anchor:middle">BCG</text>
		<text id="Count_BDE" transform="matrix(1 0 0 1 218 552.8)" style="fill:#262262;font-family:Tahoma, Tahoma;font-size:8px;text-anchor:middle;">BDE</text>
		<text id="Count_BDF" transform="matrix(1 0 0 1 532.2 686.1)" style="fill:#262262;font-family:Tahoma, Tahoma;font-size:6px;text-anchor:middle;">BDF</text>
		<text id="Count_BDG" transform="matrix(1 0 0 1 725 299.3)" style="fill:#262262;font-family:Tahoma, Tahoma;font-size:6px;text-anchor:middle;">BDG</text>
		<text id="Count_BEF" transform="matrix(1 0 0 1 191.7 500.7)" style="fill:#262262;font-family:Tahoma, Tahoma;font-size:6px;text-anchor:middle;">BEF</text>
		<text id="Count_BEG" transform="matrix(1 0 0 1 292.9 200.7)" style="fill:#262262;font-family:Tahoma, Tahoma;font-size:6px;text-anchor:middle;">BEG</text>
		<text id="Count_BFG" transform="matrix(1 0 0 1 742.8 336.1)" style="fill:#262262;font-family:Tahoma, Tahoma;font-size:7px;text-anchor:middle;">BFG</text>
		<text id="Count_CDE" transform="matrix(1 0 0 1 326.1 656.2)" style="fill:#262262;font-family:Tahoma, Tahoma;font-size:7px;text-anchor:middle;">CDE</text>
		<text id="Count_CDF" transform="matrix(1 0 0 1 181.7 376.8)" style="fill:#262262;font-family:Tahoma, Tahoma;font-size:7px;text-anchor:middle;">CDF</text>
		<text id="Count_CDG" transform="matrix(1 0 0 1 612.2 659.4)" style="fill:#262262;font-family:Tahoma, Tahoma;font-size:6px;text-anchor:middle;">CDG</text>
		<text id="Count_CEF" transform="matrix(1 0 0 1 201.4 314.3)" style="fill:#262262;font-family:Tahoma, Tahoma;font-size:10;text-anchor:middle">CEF</text>
		<text id="Count_CEG" transform="matrix(1 0 0 1 291.9 629.7)" style="fill:#262262;font-family:Tahoma, Tahoma;font-size:6px;text-anchor:middle;">CEG</text>
		<text id="Count_CFG" transform="matrix(1 0 0 1 226.8 255.1)" style="fill:#262262;font-family:Tahoma, Tahoma;font-size:6px;text-anchor:middle;">CFG</text>
		<text id="Count_DEF" transform="matrix(1 0 0 1 184.6 457.4)" style="fill:#262262;font-family:Tahoma, Tahoma;font-size:7px;text-anchor:middle;">DEF</text>
		<text id="Count_DEG" transform="matrix(1 0 0 1 322.9 173)" style="fill:#262262;font-family:Tahoma, Tahoma;font-size:6px;text-anchor:middle;">DEG</text>
		<text id="Count_DFG" transform="matrix(1 0 0 1 383.8 150.7)" style="fill:#262262;font-family:Tahoma, Tahoma;font-size:8px;text-anchor:middle;">DFG</text>
		<text id="Count_EFG" transform="matrix(1 0 0 1 259.5 226.9)" style="fill:#262262;font-family:Tahoma, Tahoma;font-size:7px;text-anchor:middle;">EFG</text>
		<text id="Count_ABCD" transform="matrix(1 0 0 1 468.8 673.8)" style="fill:#262262;font-family:Tahoma, Tahoma;font-size:6px;text-anchor:middle;">ABCD</text>
		<text id="Count_ABCE" transform="matrix(1 0 0 1 713.2 510.4)" style="fill:#262262;font-family:Tahoma, Tahoma;font-size:6px;text-anchor:middle;">ABCE</text>
		<text id="Count_ABCF" transform="matrix(1 0 0 1 729 455.4)" style="fill:#262262;font-family:Tahoma, Tahoma;font-size:10;text-anchor:middle">ABCF</text>
		<text id="Count_ABCG" transform="matrix(1 0 0 1 678.2 579.2)" style="fill:#262262;font-family:Tahoma, Tahoma;font-size:9;text-anchor:middle">ABCG</text>
		<text id="Count_ABDE" transform="matrix(1 0 0 1 238.9 543)" style="fill:#262262;font-family:Tahoma, Tahoma;font-size:6px;text-anchor:middle;">ABDE</text>
		<text id="Count_ABDF" transform="matrix(1 0 0 1 508.1 676.6)" style="fill:#262262;font-family:Tahoma, Tahoma;font-size:7px;text-anchor:middle;">ABDF</text>
		<text id="Count_ABDG" transform="matrix(1 0 0 1 697.7 290)" style="fill:#262262;font-family:Tahoma, Tahoma;font-size:8;text-anchor:middle">ABDG</text>
		<text id="Count_ABEF" transform="matrix(1 0 0 1 727.2 399.6)" style="fill:#262262;font-family:Tahoma, Tahoma;font-size:5px;text-anchor:middle;">ABEF</text>
		<text id="Count_ABEG" transform="matrix(1 0 0 1 657.7 237.7)" style="fill:#262262;font-family:Tahoma, Tahoma;font-size:9;text-anchor:middle">ABEG</text>
		<text id="Count_ABFG" transform="matrix(1 0 0 1 728.1 360.8)" style="fill:#262262;font-family:Tahoma, Tahoma;font-size:7px;text-anchor:middle;">ABFG</text>
		<text id="Count_ACDE" transform="matrix(1 0 0 1 372.6 657)" style="fill:#262262;font-family:Tahoma, Tahoma;font-size:7px;text-anchor:middle;">ACDE</text>
		<text id="Count_ACDF" transform="matrix(1 0 0 1 195.4 398.4)" style="fill:#262262;font-family:Tahoma, Tahoma;font-size:6px;text-anchor:middle;">ACDF</text>
		<text id="Count_ACDG" transform="matrix(1 0 0 1 431.1 667)" style="fill:#262262;font-family:Tahoma, Tahoma;font-size:7px;text-anchor:middle;">ACDG</text>
		<text id="Count_ACEF" transform="matrix(1 0 0 1 546 167)" style="fill:#262262;font-family:Tahoma, Tahoma;font-size:6px;text-anchor:middle;">ACEF</text>
		<text id="Count_ACEG" transform="matrix(1 0 0 1 703.8 544)" style="fill:#262262;font-family:Tahoma, Tahoma;font-size:6px;text-anchor:middle;">ACEG</text>
		<text id="Count_ACFG" transform="matrix(1 0 0 1 504 158.8)" style="fill:#262262;font-family:Tahoma, Tahoma;font-size:7px;text-anchor:middle;">ACFG</text>
		<text id="Count_ADEF" transform="matrix(1 0 0 1 201.5 436.6)" style="fill:#262262;font-family:Tahoma, Tahoma;font-size:7px;text-anchor:middle;">ADEF</text>
		<text id="Count_ADEG" transform="matrix(1 0 0 1 615 203.8)" style="fill:#262262;font-family:Tahoma, Tahoma;font-size:6px;text-anchor:middle;">ADEG</text>
		<text id="Count_ADFG" transform="matrix(1 0 0 1 445.6 158.2)" style="fill:#262262;font-family:Tahoma, Tahoma;font-size:7px;text-anchor:middle;">ADFG</text>
		<text id="Count_AEFG" transform="matrix(1 0 0 1 582.9 185.2)" style="fill:#262262;font-family:Tahoma, Tahoma;font-size:6px;text-anchor:middle;">AEFG</text>
		<text id="Count_BCDE" transform="matrix(1 0 0 1 258.3 577.2)" style="fill:#262262;font-family:Tahoma, Tahoma;font-size:7px;text-anchor:middle;">BCDE</text>
		<text id="Count_BCDF" transform="matrix(1 0 0 1 548.8 663.9)" style="fill:#262262;font-family:Tahoma, Tahoma;font-size:6px;text-anchor:middle;">BCDF</text>
		<text id="Count_BCDG" transform="matrix(1 0 0 1 599 641.9)" style="fill:#262262;font-family:Tahoma, Tahoma;font-size:7px;text-anchor:middle;">BCDG</text>
		<text id="Count_BCEF" transform="matrix(1 0 0 1 227.6 320.4)" style="fill:#262262;font-family:Tahoma, Tahoma;font-size:6px;text-anchor:middle;">BCEF</text>
		<text id="Count_BCEG" transform="matrix(1 0 0 1 285 607)" style="fill:#262262;font-family:Tahoma, Tahoma;font-size:6px;text-anchor:middle;">BCEG</text>
		<text id="Count_BCFG" transform="matrix(1 0 0 1 644.6 605.3)" style="fill:#262262;font-family:Tahoma, Tahoma;font-size:6px;text-anchor:middle;">BCFG</text>
		<text id="Count_BDEF" transform="matrix(1 0 0 1 214.9 495.3)" style="fill:#262262;font-family:Tahoma, Tahoma;font-size:7px;text-anchor:middle;">BDEF</text>
		<text id="Count_BDEG" transform="matrix(1 0 0 1 314.5 197.5)" style="fill:#262262;font-family:Tahoma, Tahoma;font-size:6px;text-anchor:middle;">BDEG</text>
		<text id="Count_BDFG" transform="matrix(1 0 0 1 721.1 320.8)" style="fill:#262262;font-family:Tahoma, Tahoma;font-size:6px;text-anchor:middle;">BDFG</text>
		<text id="Count_BEFG" transform="matrix(1 0 0 1 288.9 226.2)" style="fill:#262262;font-family:Tahoma, Tahoma;font-size:6px;text-anchor:middle;">BEFG</text>
		<text id="Count_CDEF" transform="matrix(1 0 0 1 209.7 358.1)" style="fill:#262262;font-family:Tahoma, Tahoma;font-size:7px;text-anchor:middle;">CDEF</text>
		<text id="Count_CDEG" transform="matrix(1 0 0 1 319 629.4)" style="fill:#262262;font-family:Tahoma, Tahoma;font-size:7px;text-anchor:middle;">CDEG</text>
		<text id="Count_CDFG" transform="matrix(1 0 0 1 388.1 171.9)" style="fill:#262262;font-family:Tahoma, Tahoma;font-size:6px;text-anchor:middle;">CDFG</text>
		<text id="Count_CEFG" transform="matrix(1 0 0 1 250.7 267.9)" style="fill:#262262;font-family:Tahoma, Tahoma;font-size:7px;text-anchor:middle;">CEFG</text>
		<text id="Count_DEFG" transform="matrix(1 0 0 1 349.4 180.2)" style="fill:#262262;font-family:Tahoma, Tahoma;font-size:6px;text-anchor:middle;">DEFG</text>
		<text id="Count_ABCDE" transform="matrix(1 0 0 1 263.2 551.6)" style="fill:#262262;font-family:Tahoma, Tahoma;font-size:6px;text-anchor:middle;">ABCDE</text>
		<text id="Count_ABCDF" transform="matrix(1 0 0 1 508.8 653.3)" style="fill:#262262;font-family:Tahoma, Tahoma;font-size:6px;text-anchor:middle;">ABCDF</text>
		<text id="Count_ABCDG" transform="matrix(1 0 0 1 450.2 654)" style="fill:#262262;font-family:Tahoma, Tahoma;font-size:6px;text-anchor:middle;">ABCDG</text>
		<text id="Count_ABCEF" transform="matrix(1 0 0 1 697.3 453.9)" style="fill:#262262;font-family:Tahoma, Tahoma;font-size:6px;text-anchor:middle;">ABCEF</text>
		<text id="Count_ABCEG" transform="matrix(1 0 0 1 682.2 535.7)" style="fill:#262262;font-family:Tahoma, Tahoma;font-size:8;text-anchor:middle">ABCEG</text>
		<text id="Count_ABCFG" transform="matrix(1 0 0 1 646.7 579.3)" style="fill:#262262;font-family:Tahoma, Tahoma;font-size:6px;text-anchor:middle;">ABCFG</text>
		<text id="Count_ABDEF" transform="matrix(1 0 0 1 242 482.8)" style="fill:#262262;font-family:Tahoma, Tahoma;font-size:6px;text-anchor:middle;">ABDEF</text>
		<text id="Count_ABDEG" transform="matrix(1 0 0 1 641.2 263.2)" style="fill:#262262;font-family:Tahoma, Tahoma;font-size:10;text-anchor:middle">ABDEG</text>
		<text id="Count_ABDFG" transform="matrix(1 0 0 1 692.1 327.1)" style="fill:#262262;font-family:Tahoma, Tahoma;font-size:10;text-anchor:middle">ABDFG</text>
		<text id="Count_ABEFG" transform="matrix(1 0 0 1 710.8 382.8)" style="fill:#262262;font-family:Tahoma, Tahoma;font-size:6px;text-anchor:middle;">ABEFG</text>
		<text id="Count_ACDEF" transform="matrix(1 0 0 1 224.6 399.6)" style="fill:#262262;font-family:Tahoma, Tahoma;font-size:10;text-anchor:middle">ACDEF</text>
		<text id="Count_ACDEG" transform="matrix(1 0 0 1 381.1 629)" style="fill:#262262;font-family:Tahoma, Tahoma;font-size:10;text-anchor:middle">ACDEG</text>
		<text id="Count_ACDFG" transform="matrix(1 0 0 1 448.8 189)" style="fill:#262262;font-family:Tahoma, Tahoma;font-size:10;text-anchor:middle">ACDFG</text>
		<text id="Count_ACEFG" transform="matrix(1 0 0 1 536.2 192.3)" style="fill:#262262;font-family:Tahoma, Tahoma;font-size:10;text-anchor:middle">ACEFG</text>
		<text id="Count_ADEFG" transform="matrix(1 0 0 1 589.5 207.7)" style="fill:#262262;font-family:Tahoma, Tahoma;font-size:6px;text-anchor:middle;">ADEFG</text>
		<text id="Count_BCDEF" transform="matrix(1 0 0 1 236.7 342.9)" style="fill:#262262;font-family:Tahoma, Tahoma;font-size:6px;text-anchor:middle;">BCDEF</text>
		<text id="Count_BCDEG" transform="matrix(1 0 0 1 302.3 592.2)" style="fill:#262262;font-family:Tahoma, Tahoma;font-size:6px;text-anchor:middle;">BCDEG</text>
		<text id="Count_BCDFG" transform="matrix(1 0 0 1 597.4 612.4)" style="fill:#262262;font-family:Tahoma, Tahoma;font-size:10;text-anchor:middle">BCDFG</text>
		<text id="Count_BCEFG" transform="matrix(1 0 0 1 269.4 290.7)" style="fill:#262262;font-family:Tahoma, Tahoma;font-size:6px;text-anchor:middle;">BCEFG</text>
		<text id="Count_BDEFG" transform="matrix(1 0 0 1 326 215.8)" style="fill:#262262;font-family:Tahoma, Tahoma;font-size:6px;text-anchor:middle;">BDEFG</text>
		<text id="Count_CDEFG" transform="matrix(1 0 0 1 375.8 191)" style="fill:#262262;font-family:Tahoma, Tahoma;font-size:6px;text-anchor:middle;">CDEFG</text>
		<text id="Count_ABCDEF" transform="matrix(1 0 0 1 269.1 448.8)" style="fill:#262262;font-family:Tahoma, Tahoma;font-size:14;text-anchor:middle">ABCDEF</text>
		<text id="Count_ABCDEG" transform="matrix(1 0 0 1 356.9 581.2)" style="fill:#262262;font-family:Tahoma, Tahoma;font-size:14;text-anchor:middle">ABCDEG</text>
		<text id="Count_ABCDFG" transform="matrix(1 0 0 1 532.2 602.1)" style="fill:#262262;font-family:Tahoma, Tahoma;font-size:14;text-anchor:middle">ABCDFG</text>
		<text id="Count_ABCEFG" transform="matrix(1 0 0 1 655.8 483.7)" style="fill:#262262;font-family:Tahoma, Tahoma;font-size:14;text-anchor:middle">ABCEFG</text>
		<text id="Count_ABDEFG" transform="matrix(1 0 0 1 634.2 307.6)" style="fill:#262262;font-family:Tahoma, Tahoma;font-size:14;text-anchor:middle">ABDEFG</text>
		<text id="Count_ACDEFG" transform="matrix(1 0 0 1 489.8 225.5)" style="fill:#262262;font-family:Tahoma, Tahoma;font-size:14;text-anchor:middle">ACDEFG</text>
		<text id="Count_BCDEFG" transform="matrix(1 0 0 1 325.7 270.6)" style="fill:#262262;font-family:Tahoma, Tahoma;font-size:14;text-anchor:middle">BCDEFG</text>
		<text id="Count_ABCDEFG" transform="matrix(1 0 0 1 466.9 417.6)" style="fill:#FFFFFF;font-family:Tahoma, Tahoma;font-size:30;text-anchor:middle">ABCDEFG</text>
	</g>
	<g id="Group_CountSums">
		<text id="CountSUM_A" transform="matrix(1 0 0 1 760.1 69.3)" style="fill:#262262;font-family:Tahoma, Tahoma;font-size:16;text-anchor:middle;">CountSUM_A</text>
		<text id="CountSUM_B" transform="matrix(1 0 0 1 843.4 216)" style="fill:#262262;font-family:Tahoma, Tahoma;font-size:16;text-anchor:middle;">CountSUM_B</text>
		<text id="CountSUM_C" transform="matrix(1 0 0 1 816.7 715.9)" style="fill:#262262;font-family:Tahoma, Tahoma;font-size:16;text-anchor:middle;">CountSUM_C</text>
		<text id="CountSUM_D" transform="matrix(1 0 0 1 463.7 831.8)" style="fill:#262262;font-family:Tahoma, Tahoma;font-size:16;text-anchor:middle;">CountSUM_D</text>
		<text id="CountSUM_E" transform="matrix(1 0 0 1 104.9 695.5)" style="fill:#262262;font-family:Tahoma, Tahoma;font-size:16;text-anchor:middle;">CountSUM_E</text>
		<text id="CountSUM_F" transform="matrix(1 0 0 1 96.2 216.6)" style="fill:#262262;font-family:Tahoma, Tahoma;font-size:16;text-anchor:middle;">CountSUM_F</text>
		<text id="CountSUM_G" transform="matrix(1 0 0 1 210.4 77.6)" style="fill:#262262;font-family:Tahoma, Tahoma;font-size:16;text-anchor:middle;">CountSUM_G</text>
	</g>
</g>
<g id="Group_Bullets" style="display:none;">
	<circle id="BulletA" style="opacity:0.2;fill:#FFF200;stroke:#010101;stroke-width:2;" cx="59.2" cy="25" r="6.9"/>
	<circle id="BulletB" style="opacity:0.2;fill:#2E3192;stroke:#010101;stroke-width:2;" cx="59.2" cy="43.7" r="6.9"/>
	<circle id="BulletC" style="opacity:0.2;fill:#ED1C24;stroke:#010101;stroke-width:2;" cx="59.2" cy="62.4" r="6.9"/>
	<circle id="BulletD" style="opacity:0.2;fill:#808285;stroke:#010101;stroke-width:2;" cx="59.2" cy="81.1" r="6.9"/>
	<circle id="BulletE" style="opacity:0.2;fill:#3C2415;stroke:#010101;stroke-width:2;" cx="59.2" cy="99.8" r="6.9"/>
	<circle id="BulletF" style="opacity:0.2;fill:#9E1F63;stroke:#010101;stroke-width:2;" cx="59.2" cy="118.5" r="6.9"/>
	<circle id="BulletG" style="opacity:0.2;fill:#CA4B9B;stroke:#010101;stroke-width:2;" cx="59.2" cy="137.2" r="6.9"/>
</g>
</svg>
