<?xml version="1.0" encoding="utf-8"?>
<!-- Created by Zoltan Dul in 2026 - free to use with MIT license. Part of React Venn Diagram Analyzer - https://github.com/ZoliQua/React-Venn-Diagram-Analyser - SVG Version: 3.0.0 -->
<svg xmlns="http://www.w3.org/2000/svg"
	 xmlns:xlink="http://www.w3.org/1999/xlink"
	 version="1.1"
	 x="0px"
	 y="0px"
	 style="enable-background:new 0 0 930 850;"
	 xml:space="preserve" viewBox="0 0 930 850">
<g id="Shapes">
	<path id="ShapeA" style="opacity:0.2;fill:#FFF200;stroke:#000000;stroke-width:2;stroke-miterlimit:10;" d="M 692.3 141.5 L 660.4 110.9 L 625.4 90.3 L 588.5 78.9 L 550.6 76.0 L 512.8 81.0 L 476.3 93.1 L 442.1 111.8 L 411.2 136.4 L 384.8 166.1 L 363.9 200.3 L 349.6 238.4 L 342.9 279.6 L 342.1 288.2 L 341.8 297.1 L 341.9 306.1 L 342.1 315.2 L 342.3 324.3 L 342.3 333.4 L 341.9 342.3 L 340.8 351.1 L 339.0 359.5 L 336.1 367.7 L 332.1 375.4 L 326.6 382.6 L 320.7 388.4 L 314.7 394.2 L 308.7 399.8 L 302.5 405.4 L 296.4 411.1 L 290.3 416.7 L 284.2 422.4 L 278.3 428.2 L 272.4 434.1 L 266.7 440.1 L 261.3 446.3 L 256.0 452.8 L 250.6 460.7 L 245.3 468.9 L 240.4 477.3 L 235.8 485.9 L 231.6 494.7 L 227.8 503.8 L 224.5 513.0 L 221.7 522.3 L 219.4 531.7 L 217.8 541.3 L 216.8 550.9 L 216.6 560.6 L 218.4 570.8 L 221.6 579.1 L 226.0 585.9 L 231.4 591.3 L 237.7 595.6 L 244.7 599.0 L 252.3 601.8 L 260.2 604.0 L 268.4 606.0 L 276.7 608.0 L 284.9 610.2 L 292.9 612.8 L 298.5 617.4 L 303.0 622.1 L 306.7 626.7 L 309.9 631.2 L 312.8 635.3 L 315.9 639.0 L 319.3 642.1 L 323.3 644.5 L 328.4 646.0 L 334.7 646.5 L 342.5 645.9 L 352.2 644.1 L 363.0 641.3 L 372.7 638.9 L 381.5 636.8 L 389.5 635.4 L 396.9 634.6 L 404.0 634.8 L 410.9 635.9 L 417.7 638.1 L 424.8 641.6 L 432.2 646.5 L 440.1 653.0 L 448.8 661.1 L 450.3 662.3 L 451.9 663.6 L 453.5 664.7 L 455.2 665.8 L 456.9 666.9 L 458.6 667.8 L 460.4 668.7 L 462.2 669.4 L 464.0 670.0 L 465.9 670.5 L 467.8 670.8 L 469.8 670.9 L 473.6 670.6 L 477.2 669.9 L 480.6 668.7 L 484.0 667.1 L 487.3 665.3 L 490.5 663.3 L 493.7 661.2 L 496.9 659.1 L 500.1 657.0 L 503.3 655.2 L 506.7 653.5 L 510.1 652.2 L 517.9 650.2 L 525.7 649.6 L 533.5 650.2 L 541.3 651.6 L 549.1 653.5 L 556.9 655.6 L 564.8 657.8 L 572.6 659.6 L 580.4 660.9 L 588.2 661.3 L 596.1 660.5 L 603.9 658.2 L 608.9 656.1 L 613.3 653.3 L 617.1 649.9 L 620.4 646.0 L 623.3 641.8 L 626.0 637.4 L 628.6 632.8 L 631.2 628.3 L 633.9 623.8 L 636.8 619.5 L 640.1 615.6 L 643.8 612.1 L 647.9 609.9 L 652.2 608.1 L 656.6 606.7 L 661.2 605.6 L 665.9 604.6 L 670.6 603.7 L 675.3 602.8 L 680.0 601.7 L 684.7 600.6 L 689.2 599.1 L 693.5 597.3 L 697.7 595.0 L 708.6 586.7 L 715.7 577.6 L 719.6 568.0 L 720.9 557.9 L 720.2 547.5 L 718.2 537.1 L 715.4 526.7 L 712.6 516.5 L 710.2 506.7 L 709.0 497.5 L 709.5 488.9 L 712.3 481.3 L 719.7 472.2 L 723.7 463.8 L 724.9 456.1 L 723.7 448.9 L 720.8 442.0 L 716.7 435.3 L 711.9 428.6 L 706.9 421.7 L 702.3 414.5 L 698.6 406.8 L 696.4 398.4 L 696.2 389.3 L 696.8 385.5 L 697.7 381.8 L 698.8 378.1 L 700.1 374.5 L 701.5 370.9 L 703.0 367.4 L 704.6 363.8 L 706.3 360.3 L 707.9 356.7 L 709.5 353.2 L 711.1 349.7 L 712.5 346.1 L 714.5 341.1 L 716.4 336.1 L 718.2 331.0 L 719.9 325.9 L 721.5 320.8 L 722.9 315.6 L 724.3 310.5 L 725.5 305.2 L 726.6 300.0 L 727.6 294.7 L 728.5 289.4 L 729.2 284.0 L 730.2 275.3 L 730.8 266.5 L 731.2 257.8 L 731.1 249.0 L 730.7 240.3 L 729.9 231.6 L 728.7 223.0 L 727.1 214.4 L 725.1 205.9 L 722.7 197.5 L 719.8 189.2 L 716.4 181.0 L 714.9 177.6 L 713.4 174.1 L 711.8 170.5 L 710.0 166.9 L 708.2 163.4 L 706.3 159.9 L 704.3 156.5 L 702.2 153.2 L 700.0 150.0 L 697.6 147.0 L 695.1 144.2 L 692.4 141.7 L 692.3 141.7 L 692.3 141.5 Z"/>
	<path id="ShapeB" style="opacity:0.2;fill:#2E3192;stroke:#000000;stroke-width:2;stroke-miterlimit:10;" d="M 840.1 421.1 L 844.4 399.3 L 845.7 378.3 L 844.3 358.0 L 840.3 338.6 L 833.8 320.2 L 825.0 302.8 L 814.1 286.5 L 801.2 271.3 L 786.5 257.5 L 770.1 244.9 L 752.2 233.8 L 732.9 224.2 L 714.0 217.4 L 694.4 212.2 L 674.5 208.4 L 654.4 206.2 L 634.1 205.6 L 613.8 206.6 L 593.6 209.1 L 573.8 213.2 L 554.4 219.0 L 535.6 226.4 L 517.6 235.5 L 500.4 246.2 L 497.5 248.1 L 494.6 250.1 L 491.8 252.0 L 488.9 254.0 L 486.1 256.0 L 483.3 258.0 L 480.4 260.0 L 477.6 262.1 L 474.8 264.1 L 472.1 266.2 L 469.3 268.3 L 466.5 270.4 L 462.3 273.7 L 458.1 276.8 L 453.8 279.8 L 449.5 282.6 L 445.0 285.2 L 440.5 287.5 L 435.9 289.5 L 431.2 291.2 L 426.3 292.4 L 421.3 293.2 L 416.1 293.6 L 410.8 293.4 L 399.8 292.2 L 388.8 290.8 L 377.8 289.4 L 366.8 287.9 L 355.7 286.5 L 344.6 285.3 L 333.6 284.4 L 322.5 283.8 L 311.4 283.7 L 300.4 284.1 L 289.4 285.1 L 278.4 286.8 L 271.0 288.4 L 263.5 290.2 L 256.1 292.1 L 248.6 294.2 L 241.2 296.5 L 233.9 299.1 L 226.8 302.0 L 219.8 305.2 L 213.0 308.8 L 206.5 312.7 L 200.2 317.0 L 194.3 321.8 L 190.0 326.2 L 186.6 331.0 L 184.0 336.0 L 182.2 341.2 L 181.1 346.6 L 180.7 352.2 L 180.9 357.8 L 181.8 363.4 L 183.2 368.9 L 185.2 374.4 L 187.7 379.7 L 190.6 384.8 L 192.2 387.6 L 193.8 390.5 L 195.4 393.3 L 197.0 396.1 L 198.4 398.9 L 199.6 401.7 L 200.7 404.6 L 201.5 407.5 L 202.0 410.5 L 202.3 413.5 L 202.1 416.6 L 201.6 419.8 L 199.3 426.3 L 197.5 432.1 L 196.2 437.2 L 195.4 441.9 L 195.3 446.2 L 195.8 450.2 L 197.1 454.0 L 199.1 457.7 L 202.0 461.4 L 205.7 465.2 L 210.4 469.3 L 216.1 473.7 L 224.7 479.9 L 232.4 485.3 L 239.4 490.4 L 245.5 495.1 L 250.8 499.9 L 255.3 505.0 L 258.8 510.5 L 261.5 516.7 L 263.2 523.9 L 264.0 532.3 L 263.8 542.1 L 262.7 553.5 L 262.6 555.4 L 262.5 557.4 L 262.5 559.4 L 262.5 561.4 L 262.7 563.3 L 262.9 565.3 L 263.2 567.2 L 263.6 569.1 L 264.2 571.0 L 264.9 572.8 L 265.8 574.5 L 266.8 576.2 L 269.0 578.9 L 271.5 581.1 L 274.2 583.0 L 277.1 584.7 L 280.2 586.0 L 283.4 587.2 L 286.6 588.3 L 290.0 589.3 L 293.3 590.3 L 296.5 591.3 L 299.7 592.5 L 302.8 593.8 L 310.2 597.7 L 316.4 602.7 L 321.5 608.6 L 325.9 615.1 L 329.7 622.2 L 333.2 629.6 L 336.6 637.1 L 340.2 644.4 L 344.1 651.5 L 348.6 658.1 L 353.9 663.9 L 360.3 668.9 L 366.6 672.4 L 372.8 674.5 L 379.0 675.4 L 385.1 675.4 L 391.1 674.8 L 397.2 673.8 L 403.1 672.7 L 409.1 671.8 L 414.9 671.3 L 420.8 671.5 L 426.6 672.7 L 432.3 675.1 L 435.9 677.4 L 439.4 679.9 L 442.9 682.6 L 446.3 685.3 L 449.7 688.0 L 453.1 690.8 L 456.6 693.4 L 460.2 695.9 L 463.8 698.2 L 467.6 700.3 L 471.4 702.1 L 475.5 703.5 L 484.3 705.8 L 492.7 706.2 L 500.6 704.9 L 508.1 702.2 L 515.2 698.4 L 521.9 693.5 L 528.3 687.8 L 534.4 681.6 L 540.1 675.0 L 545.5 668.3 L 550.7 661.6 L 555.7 655.2 L 559.4 651.3 L 563.3 648.6 L 567.3 646.7 L 571.4 645.5 L 575.6 644.9 L 579.9 644.5 L 584.2 644.3 L 588.4 644.1 L 592.6 643.5 L 596.7 642.6 L 600.7 640.9 L 604.6 638.5 L 608.4 633.9 L 611.4 628.7 L 613.8 623.2 L 615.9 617.5 L 617.7 611.6 L 619.5 605.6 L 621.4 599.8 L 623.7 594.2 L 626.5 588.9 L 629.9 584.1 L 634.2 579.8 L 639.5 576.2 L 644.6 573.7 L 649.8 571.5 L 655.2 569.7 L 660.6 568.0 L 666.1 566.5 L 671.6 565.1 L 677.2 563.7 L 682.7 562.3 L 688.2 560.8 L 693.7 559.2 L 699.1 557.4 L 704.4 555.4 L 712.7 552.1 L 720.9 548.6 L 729.0 544.8 L 737.0 540.8 L 744.8 536.5 L 752.5 532.0 L 760.0 527.2 L 767.4 522.1 L 774.6 516.8 L 781.6 511.3 L 788.4 505.5 L 794.9 499.5 L 799.9 493.9 L 804.8 488.1 L 809.5 482.1 L 814.0 475.9 L 818.3 469.5 L 822.3 463.0 L 826.1 456.3 L 829.5 449.5 L 832.7 442.5 L 835.5 435.5 L 837.9 428.3 L 840.0 421.1 L 840.0 420.9 L 840.1 421.1 Z"/>
	<path id="ShapeC" style="opacity:0.2;fill:#ED1C24;stroke:#000000;stroke-width:2;stroke-miterlimit:10;" d="M 705.2 700.9 L 737.1 684.4 L 762.6 663.8 L 782.1 639.9 L 795.7 613.3 L 803.6 584.8 L 806.2 555.0 L 803.7 524.6 L 796.3 494.4 L 784.3 464.9 L 767.9 437.0 L 747.3 411.3 L 722.9 388.5 L 705.2 374.0 L 687.0 362.5 L 668.5 353.5 L 650.0 346.5 L 631.8 341.0 L 614.2 336.4 L 597.4 332.3 L 581.6 328.2 L 567.3 323.5 L 554.5 317.8 L 543.7 310.5 L 535.0 301.1 L 526.2 287.2 L 517.3 273.5 L 508.2 260.0 L 498.8 246.9 L 489.1 234.2 L 478.9 222.0 L 468.0 210.4 L 456.5 199.6 L 444.1 189.6 L 430.8 180.4 L 416.5 172.3 L 401.0 165.3 L 394.3 162.4 L 387.3 160.2 L 380.2 158.6 L 373.1 157.8 L 366.0 157.7 L 359.1 158.4 L 352.4 160.0 L 346.0 162.5 L 340.1 165.9 L 334.6 170.4 L 329.8 175.8 L 325.6 182.3 L 324.0 184.9 L 322.5 187.7 L 321.2 190.5 L 319.9 193.3 L 318.6 196.2 L 317.4 199.0 L 316.1 201.9 L 314.8 204.7 L 313.4 207.4 L 311.9 210.0 L 310.3 212.6 L 308.5 215.0 L 306.6 217.2 L 304.4 219.1 L 302.1 220.7 L 299.7 222.0 L 297.1 223.2 L 294.5 224.2 L 291.8 225.1 L 289.1 226.0 L 286.3 226.8 L 283.6 227.7 L 281.0 228.7 L 278.4 229.8 L 272.4 234.4 L 268.1 239.8 L 265.4 246.0 L 263.8 252.7 L 263.1 259.9 L 263.2 267.4 L 263.7 275.1 L 264.3 282.8 L 264.9 290.5 L 265.1 298.0 L 264.6 305.2 L 263.3 311.9 L 261.2 319.2 L 257.4 325.5 L 252.2 330.9 L 246.1 335.7 L 239.4 340.2 L 232.6 344.5 L 226.1 349.0 L 220.3 353.7 L 215.6 359.0 L 212.4 365.0 L 211.2 372.0 L 212.3 380.2 L 213.9 384.3 L 215.5 388.4 L 217.1 392.5 L 218.6 396.7 L 219.9 400.9 L 221.0 405.2 L 221.8 409.4 L 222.2 413.7 L 222.2 418.0 L 221.6 422.3 L 220.5 426.6 L 218.8 430.9 L 213.1 441.5 L 207.8 451.3 L 203.1 460.4 L 199.3 469.0 L 196.6 477.1 L 195.2 485.0 L 195.3 492.6 L 197.2 500.2 L 201.0 507.8 L 207.1 515.6 L 215.6 523.6 L 226.7 532.0 L 232.7 539.6 L 235.9 548.8 L 237.4 559.2 L 238.0 570.4 L 238.6 581.9 L 240.1 593.1 L 243.5 603.6 L 249.7 613.0 L 259.5 620.8 L 273.9 626.5 L 293.9 629.7 L 320.2 629.8 L 329.8 629.1 L 337.7 630.0 L 344.3 632.2 L 349.7 635.4 L 354.4 639.2 L 358.6 643.3 L 362.6 647.4 L 366.7 651.2 L 371.3 654.2 L 376.6 656.2 L 383.0 656.9 L 390.7 655.8 L 394.3 654.7 L 397.9 653.5 L 401.5 652.2 L 405.0 650.9 L 408.6 649.5 L 412.1 648.1 L 415.7 646.8 L 419.3 645.6 L 422.9 644.6 L 426.5 643.7 L 430.2 643.0 L 433.9 642.5 L 439.3 642.4 L 444.6 643.1 L 449.6 644.4 L 454.5 646.2 L 459.3 648.5 L 463.9 651.1 L 468.4 654.1 L 472.8 657.2 L 477.2 660.3 L 481.5 663.5 L 485.8 666.7 L 490.1 669.6 L 505.9 679.6 L 522.4 688.5 L 539.7 696.3 L 557.5 702.9 L 575.7 708.2 L 594.2 712.1 L 612.9 714.5 L 631.7 715.3 L 650.4 714.5 L 669.0 711.9 L 687.2 707.5 L 705.1 701.1 L 705.3 701.1 L 705.2 700.9 Z"/>
	<path id="ShapeD" style="opacity:0.2;fill:#808285;stroke:#000000;stroke-width:2;stroke-miterlimit:10;" d="M 392.0 771.5 L 413.8 781.2 L 436.0 787.6 L 458.2 791.0 L 480.3 791.4 L 502.1 788.9 L 523.3 783.6 L 543.8 775.7 L 563.3 765.3 L 581.6 752.6 L 598.6 737.5 L 613.9 720.3 L 627.4 701.0 L 634.5 687.7 L 640.8 674.0 L 646.2 660.0 L 650.8 645.6 L 654.5 631.0 L 657.2 616.1 L 659.0 601.2 L 659.7 586.1 L 659.4 571.1 L 657.9 556.1 L 655.3 541.3 L 651.5 526.6 L 649.9 521.7 L 648.1 516.8 L 646.3 512.0 L 644.4 507.2 L 642.4 502.5 L 640.4 497.8 L 638.3 493.1 L 636.1 488.4 L 634.0 483.7 L 631.7 479.1 L 629.5 474.4 L 627.2 469.7 L 620.4 457.4 L 615.3 446.7 L 611.6 437.1 L 609.3 428.5 L 608.3 420.6 L 608.4 412.9 L 609.6 405.2 L 611.7 397.2 L 614.6 388.6 L 618.3 379.1 L 622.5 368.4 L 627.3 356.2 L 629.9 349.1 L 632.4 341.9 L 634.7 334.7 L 636.8 327.4 L 638.7 320.0 L 640.3 312.6 L 641.7 305.1 L 642.8 297.6 L 643.6 290.1 L 644.0 282.6 L 644.2 275.0 L 644.0 267.4 L 643.6 261.0 L 643.0 254.6 L 642.4 248.2 L 641.5 241.7 L 640.5 235.3 L 639.3 228.9 L 637.8 222.6 L 636.0 216.5 L 633.9 210.4 L 631.4 204.4 L 628.6 198.7 L 625.3 193.1 L 622.1 188.7 L 618.4 184.8 L 614.4 181.5 L 609.9 178.8 L 605.2 176.5 L 600.2 174.8 L 595.1 173.5 L 589.8 172.7 L 584.4 172.4 L 579.1 172.5 L 573.7 173.1 L 568.5 174.1 L 565.7 174.7 L 562.8 175.3 L 559.9 176.0 L 557.0 176.8 L 554.1 177.5 L 551.2 178.3 L 548.3 178.9 L 545.4 179.5 L 542.5 180.0 L 539.6 180.2 L 536.8 180.3 L 534.0 180.2 L 532.1 180.0 L 530.3 179.6 L 528.5 179.1 L 526.7 178.6 L 525.0 177.9 L 523.3 177.1 L 521.6 176.2 L 520.0 175.3 L 518.3 174.3 L 516.7 173.3 L 515.2 172.3 L 513.6 171.2 L 509.4 168.3 L 505.2 166.2 L 501.0 164.9 L 496.7 164.4 L 492.5 164.4 L 488.3 165.1 L 484.1 166.3 L 480.0 168.0 L 476.0 170.1 L 472.1 172.6 L 468.3 175.3 L 464.7 178.3 L 460.0 182.1 L 455.2 186.1 L 450.4 190.2 L 445.5 194.2 L 440.5 197.9 L 435.4 201.4 L 430.1 204.4 L 424.6 206.8 L 418.9 208.5 L 413.0 209.4 L 406.8 209.2 L 400.3 208.0 L 396.2 207.2 L 392.1 206.1 L 388.0 204.8 L 383.9 203.4 L 379.7 201.9 L 375.6 200.6 L 371.5 199.4 L 367.3 198.4 L 363.1 197.9 L 359.0 197.7 L 354.8 198.1 L 350.6 199.2 L 347.8 200.6 L 345.2 202.3 L 342.9 204.4 L 340.8 206.6 L 338.9 209.0 L 337.1 211.6 L 335.4 214.3 L 333.7 217.0 L 332.1 219.8 L 330.4 222.4 L 328.7 225.0 L 326.9 227.5 L 321.5 233.7 L 315.4 238.5 L 308.7 242.1 L 301.5 244.7 L 293.9 246.6 L 286.1 248.1 L 278.2 249.4 L 270.3 250.8 L 262.5 252.4 L 255.0 254.6 L 247.8 257.5 L 241.1 261.5 L 235.7 265.9 L 231.7 270.5 L 228.9 275.4 L 227.0 280.5 L 225.9 285.7 L 225.3 291.1 L 225.0 296.6 L 224.8 302.1 L 224.5 307.7 L 223.9 313.3 L 222.7 318.8 L 220.8 324.3 L 218.7 327.5 L 216.2 330.5 L 213.4 333.3 L 210.3 336.0 L 207.1 338.5 L 203.8 341.0 L 200.4 343.5 L 197.1 346.0 L 193.8 348.5 L 190.7 351.2 L 187.8 354.0 L 185.1 357.0 L 182.1 360.5 L 179.5 364.3 L 177.3 368.3 L 175.5 372.5 L 174.3 376.9 L 173.4 381.3 L 173.0 385.9 L 173.1 390.4 L 173.6 394.9 L 174.6 399.4 L 176.1 403.8 L 178.0 408.0 L 179.9 411.6 L 182.0 415.2 L 184.2 418.6 L 186.7 422.0 L 189.3 425.2 L 191.9 428.4 L 194.7 431.6 L 197.5 434.7 L 200.4 437.7 L 203.2 440.7 L 206.0 443.7 L 208.8 446.7 L 211.0 449.0 L 213.0 451.4 L 214.8 454.0 L 216.3 456.6 L 217.5 459.4 L 218.4 462.2 L 219.0 465.2 L 219.4 468.2 L 219.5 471.2 L 219.3 474.3 L 218.8 477.4 L 218.0 480.5 L 216.9 489.4 L 218.3 496.8 L 221.8 503.0 L 226.8 508.3 L 233.1 512.8 L 240.2 517.0 L 247.7 520.9 L 255.2 525.0 L 262.2 529.4 L 268.4 534.5 L 273.4 540.5 L 276.7 547.6 L 277.7 550.7 L 278.5 553.8 L 279.2 556.9 L 279.7 560.1 L 280.1 563.4 L 280.4 566.6 L 280.6 569.9 L 280.7 573.2 L 280.8 576.5 L 280.9 579.8 L 281.1 583.1 L 281.2 586.3 L 281.4 591.0 L 281.8 595.6 L 282.2 600.3 L 282.7 604.9 L 283.3 609.5 L 284.1 614.1 L 284.9 618.7 L 285.8 623.3 L 286.8 627.9 L 287.9 632.5 L 289.1 637.1 L 290.4 641.7 L 294.6 655.1 L 299.6 668.3 L 305.5 681.2 L 312.1 693.6 L 319.6 705.6 L 327.8 717.1 L 336.7 728.0 L 346.4 738.2 L 356.7 747.7 L 367.7 756.5 L 379.4 764.3 L 391.7 771.3 L 391.8 771.3 L 392.0 771.5 Z"/>
	<path id="ShapeE" style="opacity:0.2;fill:#3C2415;stroke:#000000;stroke-width:2;stroke-miterlimit:10;" d="M 135.0 578.4 L 135.8 585.2 L 137.1 592.0 L 138.8 598.7 L 141.0 605.3 L 143.5 611.8 L 146.3 618.1 L 149.5 624.4 L 152.9 630.4 L 156.6 636.4 L 160.5 642.1 L 164.7 647.6 L 169.0 653.0 L 178.6 663.2 L 189.0 672.3 L 200.1 680.5 L 211.9 687.7 L 224.2 693.9 L 237.0 699.2 L 250.1 703.7 L 263.6 707.2 L 277.2 710.0 L 291.0 711.9 L 304.8 713.1 L 318.5 713.5 L 338.4 712.0 L 358.3 708.8 L 377.9 703.9 L 397.2 697.5 L 415.9 689.5 L 433.9 680.0 L 451.1 669.1 L 467.2 656.8 L 482.1 643.2 L 495.6 628.3 L 507.6 612.2 L 517.9 595.0 L 519.5 592.1 L 521.2 589.2 L 522.8 586.4 L 524.4 583.5 L 526.0 580.6 L 527.6 577.8 L 529.1 574.9 L 530.6 572.0 L 532.2 569.2 L 533.7 566.3 L 535.1 563.3 L 536.6 560.4 L 538.8 555.7 L 541.1 551.1 L 543.6 546.6 L 546.1 542.3 L 548.9 538.1 L 551.9 534.1 L 555.1 530.3 L 558.6 526.8 L 562.4 523.6 L 566.5 520.7 L 571.0 518.3 L 575.8 516.2 L 586.7 512.6 L 597.7 509.0 L 608.7 505.6 L 619.8 502.1 L 630.8 498.5 L 641.7 494.8 L 652.5 490.7 L 663.1 486.3 L 673.5 481.4 L 683.6 476.0 L 693.5 470.0 L 702.9 463.3 L 709.3 458.2 L 716.0 452.7 L 722.9 446.7 L 729.8 440.4 L 736.4 433.7 L 742.6 426.6 L 748.2 419.3 L 753.0 411.6 L 756.8 403.7 L 759.4 395.5 L 760.7 387.2 L 760.4 378.6 L 758.0 370.1 L 754.2 362.8 L 749.5 356.6 L 744.0 351.1 L 738.0 346.3 L 731.9 341.7 L 725.8 337.3 L 720.1 332.8 L 715.1 327.9 L 710.9 322.5 L 707.9 316.3 L 706.4 309.0 L 706.2 306.7 L 706.0 304.3 L 705.7 301.9 L 705.4 299.6 L 705.0 297.2 L 704.5 294.9 L 703.9 292.6 L 703.1 290.4 L 702.1 288.3 L 700.9 286.2 L 699.5 284.4 L 697.8 282.6 L 695.8 280.9 L 693.7 279.4 L 691.5 278.0 L 689.2 276.8 L 686.9 275.8 L 684.5 274.8 L 682.0 274.0 L 679.5 273.3 L 676.9 272.6 L 674.4 272.0 L 671.8 271.4 L 669.3 270.8 L 665.9 270.1 L 662.6 269.4 L 659.2 268.8 L 655.8 268.2 L 652.4 267.5 L 649.0 266.9 L 645.6 266.2 L 642.3 265.5 L 638.9 264.7 L 635.6 263.9 L 632.3 263.0 L 629.1 262.0 L 620.6 258.6 L 613.8 253.7 L 608.4 247.9 L 604.1 241.3 L 600.5 234.2 L 597.4 226.9 L 594.4 219.7 L 591.3 213.0 L 587.7 206.9 L 583.2 201.9 L 577.6 198.1 L 570.6 195.9 L 568.0 195.7 L 565.4 195.6 L 562.7 195.7 L 560.1 195.9 L 557.5 196.2 L 554.9 196.6 L 552.2 197.0 L 549.6 197.4 L 547.0 197.8 L 544.4 198.1 L 541.8 198.4 L 539.2 198.5 L 531.6 198.2 L 524.5 196.7 L 517.8 194.1 L 511.6 190.6 L 505.6 186.4 L 499.8 181.8 L 494.1 177.0 L 488.4 172.1 L 482.6 167.4 L 476.7 163.0 L 470.5 159.2 L 463.9 156.1 L 460.4 154.8 L 456.8 153.9 L 453.2 153.3 L 449.5 153.1 L 445.9 153.1 L 442.3 153.5 L 438.7 154.2 L 435.2 155.2 L 431.7 156.5 L 428.3 158.0 L 425.1 159.8 L 422.0 161.9 L 419.9 163.3 L 417.9 164.8 L 415.8 166.4 L 413.8 167.9 L 411.7 169.5 L 409.6 171.0 L 407.5 172.4 L 405.3 173.8 L 403.1 175.0 L 400.9 176.1 L 398.5 176.9 L 396.1 177.6 L 393.1 178.1 L 390.0 178.3 L 387.0 178.3 L 383.9 178.0 L 380.9 177.5 L 377.9 176.9 L 374.8 176.2 L 371.8 175.4 L 368.8 174.6 L 365.8 173.9 L 362.9 173.1 L 359.9 172.5 L 355.8 171.6 L 351.6 171.0 L 347.4 170.5 L 343.1 170.3 L 338.9 170.3 L 334.8 170.7 L 330.6 171.3 L 326.6 172.3 L 322.7 173.7 L 319.0 175.4 L 315.4 177.5 L 312.0 180.1 L 308.1 183.7 L 304.6 187.7 L 301.6 192.0 L 299.0 196.5 L 296.8 201.2 L 294.9 206.1 L 293.2 211.2 L 291.8 216.3 L 290.6 221.5 L 289.5 226.7 L 288.5 231.9 L 287.6 237.1 L 287.3 238.7 L 287.0 240.4 L 286.7 242.0 L 286.3 243.6 L 285.9 245.3 L 285.5 246.9 L 285.0 248.5 L 284.5 250.1 L 283.9 251.6 L 283.3 253.1 L 282.6 254.6 L 281.8 256.0 L 279.9 259.0 L 277.6 261.5 L 274.9 263.7 L 272.0 265.5 L 268.9 267.2 L 265.7 268.8 L 262.5 270.3 L 259.5 272.0 L 256.5 273.8 L 253.8 275.9 L 251.5 278.4 L 249.5 281.3 L 247.7 286.8 L 247.0 292.6 L 247.2 298.5 L 247.9 304.6 L 249.0 310.7 L 250.3 316.9 L 251.4 323.2 L 252.1 329.5 L 252.2 335.8 L 251.4 342.0 L 249.5 348.1 L 246.3 354.1 L 243.4 358.0 L 240.2 361.7 L 236.8 365.2 L 233.3 368.6 L 229.6 371.8 L 225.9 375.0 L 222.1 378.1 L 218.2 381.2 L 214.4 384.4 L 210.7 387.6 L 207.0 390.8 L 203.5 394.2 L 196.7 400.9 L 190.2 407.9 L 183.9 415.2 L 177.9 422.7 L 172.1 430.4 L 166.7 438.4 L 161.6 446.5 L 156.8 454.9 L 152.5 463.4 L 148.4 472.1 L 144.8 481.0 L 141.6 490.0 L 139.5 497.1 L 137.9 504.3 L 136.5 511.6 L 135.5 518.9 L 134.7 526.3 L 134.2 533.7 L 134.0 541.1 L 133.9 548.6 L 134.0 556.0 L 134.3 563.4 L 134.7 570.8 L 135.2 578.1 L 135.2 578.3 L 135.0 578.4 Z"/>
	<path id="ShapeF" style="opacity:0.2;fill:#9E1F63;stroke:#000000;stroke-width:2;stroke-miterlimit:10;" d="M 125.2 269.4 L 112.0 286.5 L 101.5 304.2 L 93.6 322.3 L 88.3 340.8 L 85.5 359.4 L 85.2 378.2 L 87.2 397.0 L 91.5 415.6 L 98.1 433.9 L 106.8 451.9 L 117.6 469.4 L 130.5 486.2 L 144.9 501.0 L 160.7 514.5 L 177.7 526.7 L 195.6 537.6 L 214.5 547.0 L 234.1 554.9 L 254.2 561.1 L 274.7 565.7 L 295.4 568.6 L 316.3 569.6 L 337.0 568.7 L 357.5 565.8 L 365.9 564.7 L 374.5 563.1 L 383.0 561.3 L 391.7 559.3 L 400.3 557.5 L 409.0 555.9 L 417.6 554.8 L 426.2 554.2 L 434.6 554.5 L 443.0 555.7 L 451.3 558.2 L 459.4 561.9 L 468.5 567.3 L 477.6 572.9 L 486.6 578.5 L 495.6 584.1 L 504.7 589.6 L 513.9 595.0 L 523.2 600.1 L 532.6 605.0 L 542.2 609.5 L 552.0 613.5 L 562.0 617.0 L 572.3 620.0 L 580.2 621.9 L 588.2 623.7 L 596.3 625.3 L 604.5 626.7 L 612.7 627.8 L 621.0 628.6 L 629.2 629.0 L 637.4 629.0 L 645.6 628.6 L 653.7 627.6 L 661.7 626.1 L 669.6 624.0 L 674.6 622.0 L 679.2 619.4 L 683.3 616.3 L 687.0 612.8 L 690.3 608.9 L 693.0 604.6 L 695.4 600.0 L 697.2 595.2 L 698.6 590.2 L 699.5 585.1 L 699.9 579.9 L 699.9 574.6 L 699.9 571.6 L 699.7 568.5 L 699.6 565.4 L 699.4 562.2 L 699.3 559.1 L 699.3 556.0 L 699.4 552.9 L 699.6 549.9 L 700.1 546.9 L 700.9 544.0 L 701.9 541.1 L 703.3 538.4 L 704.4 536.6 L 705.7 534.8 L 707.1 533.2 L 708.6 531.7 L 710.2 530.2 L 711.8 528.7 L 713.4 527.3 L 715.1 525.8 L 716.7 524.4 L 718.2 522.9 L 719.7 521.3 L 721.1 519.7 L 724.3 514.1 L 725.9 508.4 L 726.1 502.6 L 725.2 496.7 L 723.3 490.8 L 720.7 484.9 L 717.6 479.1 L 714.2 473.3 L 710.7 467.6 L 707.4 462.0 L 704.4 456.7 L 702.0 451.5 L 697.2 440.4 L 695.8 430.2 L 697.3 420.6 L 700.7 411.7 L 705.2 403.2 L 710.2 395.1 L 714.7 387.2 L 718.0 379.4 L 719.4 371.6 L 718.0 363.7 L 713.0 355.5 L 703.7 347.0 L 695.4 340.1 L 689.6 332.7 L 685.8 324.8 L 683.6 316.6 L 682.7 308.0 L 682.5 299.3 L 682.7 290.4 L 683.0 281.5 L 682.8 272.6 L 681.8 263.7 L 679.6 255.0 L 675.7 246.6 L 672.5 241.9 L 668.8 238.1 L 664.6 234.9 L 660.1 232.4 L 655.2 230.3 L 650.1 228.6 L 644.9 227.0 L 639.7 225.5 L 634.5 224.0 L 629.4 222.3 L 624.5 220.3 L 619.9 217.8 L 615.4 213.2 L 611.5 208.2 L 608.1 202.8 L 604.9 197.2 L 601.9 191.5 L 598.8 185.9 L 595.5 180.3 L 591.9 175.1 L 587.8 170.2 L 583.0 165.8 L 577.3 162.1 L 570.7 159.1 L 560.4 156.4 L 550.5 155.8 L 541.0 157.0 L 532.0 159.5 L 523.2 162.9 L 514.8 166.9 L 506.6 171.1 L 498.7 175.0 L 490.9 178.2 L 483.3 180.4 L 475.8 181.2 L 468.4 180.1 L 457.4 175.1 L 448.0 173.2 L 440.0 173.7 L 433.0 176.3 L 426.7 180.4 L 420.9 185.6 L 415.2 191.5 L 409.4 197.6 L 403.1 203.3 L 396.1 208.3 L 388.0 212.1 L 378.6 214.2 L 371.2 214.1 L 363.7 213.5 L 356.3 212.6 L 348.8 211.5 L 341.3 210.2 L 333.9 208.8 L 326.4 207.5 L 318.9 206.2 L 311.4 205.2 L 304.0 204.4 L 296.5 204.0 L 289.0 204.1 L 274.0 204.3 L 258.9 205.4 L 243.7 207.3 L 228.7 210.1 L 213.9 213.9 L 199.4 218.6 L 185.4 224.3 L 171.9 231.1 L 159.0 238.9 L 146.8 247.8 L 135.5 257.9 L 125.2 269.1 L 125.1 269.1 L 125.2 269.4 Z"/>
	<path id="ShapeG" style="opacity:0.2;fill:#CA4B9B;stroke:#000000;stroke-width:2;stroke-miterlimit:10;" d="M 373.5 75.6 L 328.3 79.6 L 289.6 92.6 L 257.6 113.2 L 232.3 140.1 L 213.6 172.0 L 201.8 207.7 L 196.6 245.6 L 198.4 284.7 L 206.9 323.5 L 222.4 360.6 L 244.8 394.9 L 274.2 425.0 L 279.5 430.0 L 285.0 434.7 L 290.7 439.4 L 296.6 443.9 L 302.5 448.3 L 308.3 452.8 L 314.2 457.4 L 319.9 462.0 L 325.4 466.8 L 330.6 471.9 L 335.5 477.2 L 340.1 482.9 L 343.5 489.5 L 346.1 496.3 L 348.2 503.3 L 349.7 510.4 L 350.8 517.7 L 351.7 525.1 L 352.4 532.5 L 353.0 539.9 L 353.7 547.3 L 354.5 554.7 L 355.5 562.0 L 357.0 569.1 L 359.0 580.3 L 361.5 591.4 L 364.8 602.4 L 368.6 613.2 L 373.0 623.7 L 377.9 634.1 L 383.5 644.1 L 389.5 653.8 L 396.1 663.2 L 403.1 672.2 L 410.6 680.8 L 418.6 688.9 L 423.3 693.1 L 428.4 696.6 L 433.8 699.6 L 439.4 701.9 L 445.2 703.5 L 451.1 704.5 L 457.1 704.8 L 463.1 704.3 L 469.0 703.2 L 474.8 701.3 L 480.4 698.6 L 485.7 695.2 L 488.4 693.4 L 491.1 691.5 L 493.8 689.5 L 496.4 687.3 L 498.9 685.2 L 501.5 683.0 L 504.1 680.9 L 506.8 678.9 L 509.5 677.0 L 512.2 675.3 L 515.0 673.8 L 517.9 672.6 L 524.3 671.6 L 530.3 671.3 L 535.9 671.7 L 541.2 672.3 L 546.2 672.8 L 551.0 673.1 L 555.6 672.8 L 560.1 671.6 L 564.5 669.3 L 568.8 665.5 L 573.1 660.1 L 577.4 652.6 L 580.1 647.5 L 582.6 642.2 L 585.0 636.8 L 587.4 631.3 L 589.8 625.8 L 592.3 620.5 L 595.1 615.3 L 598.3 610.5 L 601.8 606.0 L 605.9 602.0 L 610.5 598.6 L 615.9 595.8 L 619.9 594.2 L 624.1 592.9 L 628.4 592.0 L 632.7 591.2 L 637.1 590.6 L 641.6 590.0 L 646.0 589.4 L 650.4 588.8 L 654.8 588.0 L 659.0 587.0 L 663.2 585.7 L 667.3 584.1 L 670.6 582.0 L 673.3 579.6 L 675.4 576.7 L 677.0 573.6 L 678.2 570.2 L 679.0 566.6 L 679.6 562.9 L 680.0 559.1 L 680.3 555.3 L 680.6 551.5 L 680.9 547.8 L 681.4 544.3 L 683.3 536.5 L 686.6 529.6 L 690.9 523.6 L 696.0 518.2 L 701.9 513.3 L 708.1 508.6 L 714.5 504.1 L 721.0 499.6 L 727.1 494.8 L 732.8 489.7 L 737.9 484.0 L 742.0 477.5 L 745.0 470.8 L 746.4 464.6 L 746.5 458.7 L 745.6 453.0 L 743.9 447.5 L 741.6 442.2 L 739.1 436.9 L 736.5 431.6 L 734.3 426.2 L 732.5 420.7 L 731.4 415.0 L 731.4 409.0 L 732.5 405.1 L 733.9 401.2 L 735.5 397.3 L 737.3 393.5 L 739.3 389.6 L 741.2 385.8 L 743.2 381.9 L 745.0 378.0 L 746.7 374.1 L 748.1 370.1 L 749.1 366.0 L 749.8 361.8 L 750.4 353.6 L 749.5 346.1 L 747.1 339.2 L 743.6 332.8 L 739.0 327.0 L 733.6 321.8 L 727.5 317.0 L 720.9 312.7 L 714.0 308.9 L 707.0 305.4 L 700.0 302.4 L 693.2 299.8 L 690.4 298.7 L 687.6 297.5 L 684.9 296.3 L 682.1 295.0 L 679.4 293.5 L 676.9 292.0 L 674.4 290.2 L 672.2 288.3 L 670.1 286.2 L 668.3 283.9 L 666.8 281.3 L 665.5 278.5 L 662.4 266.7 L 658.0 258.2 L 652.3 252.3 L 645.8 248.5 L 638.4 246.4 L 630.4 245.4 L 622.0 244.9 L 613.3 244.4 L 604.6 243.3 L 596.0 241.3 L 587.6 237.6 L 579.8 231.8 L 575.6 227.0 L 571.7 221.9 L 568.1 216.6 L 564.7 211.2 L 561.4 205.6 L 558.2 200.0 L 555.1 194.4 L 551.8 188.8 L 548.5 183.3 L 545.0 177.9 L 541.2 172.6 L 537.2 167.6 L 527.0 155.2 L 516.1 143.4 L 504.4 132.2 L 491.9 121.8 L 478.9 112.2 L 465.2 103.5 L 451.0 95.8 L 436.3 89.3 L 421.2 83.9 L 405.6 79.8 L 389.8 77.1 L 373.6 75.8 L 373.5 75.8 L 373.5 75.6 Z"/>
</g>
<g id="Texts">
	<g id="Header">
		<text id="Title" transform="matrix(1 0 0 1 340.6 34.9)" style="fill:#262262;font-family:Tahoma, Tahoma;font-size:18px">Venn 7-set Manawatu diagram</text>
	</g>
	<g id="Group_Names">
		<text id="NameA" transform="matrix(1 0 0 1 729.2 103.5)" style="fill:#262262;stroke:#000000;stroke-width:0.5;stroke-miterlimit:10;font-family:Tahoma, Tahoma;font-size:20px">NameA</text>
		<text id="NameB" transform="matrix(1 0 0 1 829.2 240.7)" style="fill:#262262;stroke:#000000;stroke-width:0.5;stroke-miterlimit:10;font-family:Tahoma, Tahoma;font-size:20px">NameB</text>
		<text id="NameC" transform="matrix(1 0 0 1 800.9 674.5)" style="fill:#262262;stroke:#000000;stroke-width:0.5;stroke-miterlimit:10;font-family:Tahoma, Tahoma;font-size:20px">NameC</text>
		<text id="NameD" transform="matrix(1 0 0 1 439.5 813)" style="fill:#262262;stroke:#000000;stroke-width:0.5;stroke-miterlimit:10;font-family:Tahoma, Tahoma;font-size:20px">NameD</text>
		<text id="NameE" transform="matrix(1 0 0 1 80.1 673.9)" style="fill:#262262;stroke:#000000;stroke-width:0.5;stroke-miterlimit:10;font-family:Tahoma, Tahoma;font-size:20px">NameE</text>
		<text id="NameF" transform="matrix(1 0 0 1 29.5 258.4)" style="fill:#262262;stroke:#000000;stroke-width:0.5;stroke-miterlimit:10;font-family:Tahoma, Tahoma;font-size:20px">NameF</text>
		<text id="NameG" transform="matrix(1 0 0 1 120.5 114.5)" style="fill:#262262;stroke:#000000;stroke-width:0.5;stroke-miterlimit:10;font-family:Tahoma, Tahoma;font-size:20px">NameG</text>
	</g>
	<g id="Group_Values">
		<text id="Count_A" transform="matrix(1 0 0 1 611.6 139.7)" style="fill:#262262;font-family:Tahoma, Tahoma;font-size:26;text-anchor:middle">A</text>
		<text id="Count_B" transform="matrix(1 0 0 1 788.1 358.8)" style="fill:#262262;font-family:Tahoma, Tahoma;font-size:26;text-anchor:middle">B</text>
		<text id="Count_C" transform="matrix(1 0 0 1 733.8 630.9)" style="fill:#262262;font-family:Tahoma, Tahoma;font-size:26;text-anchor:middle">C</text>
		<text id="Count_D" transform="matrix(1 0 0 1 472.2 756.8)" style="fill:#262262;font-family:Tahoma, Tahoma;font-size:26;text-anchor:middle">D</text>
		<text id="Count_E" transform="matrix(1 0 0 1 207.4 638.7)" style="fill:#262262;font-family:Tahoma, Tahoma;font-size:26;text-anchor:middle">E</text>
		<text id="Count_F" transform="matrix(1 0 0 1 137.2 352.3)" style="fill:#262262;font-family:Tahoma, Tahoma;font-size:26;text-anchor:middle">F</text>
		<text id="Count_G" transform="matrix(1 0 0 1 320.8 137.3)" style="fill:#262262;font-family:Tahoma, Tahoma;font-size:26;text-anchor:middle">G</text>
		<text id="Count_AB" transform="matrix(1 0 0 1 701 251)" style="fill:#262262;font-family:Tahoma, Tahoma;font-size:16;text-anchor:middle">AB</text>
		<text id="Count_AC" transform="matrix(1 0 0 1 708.9 571.4)" style="fill:#262262;font-family:Tahoma, Tahoma;font-size:6px;text-anchor:middle;">AC</text>
		<text id="Count_AD" transform="matrix(1 0 0 1 612 193.6)" style="fill:#262262;font-family:Tahoma, Tahoma;font-size:6px;text-anchor:middle;">AD</text>
		<text id="Count_AE" transform="matrix(1 0 0 1 228.8 572.6)" style="fill:#262262;font-family:Tahoma, Tahoma;font-size:6px;text-anchor:middle;">AE</text>
		<text id="Count_AF" transform="matrix(1 0 0 1 557.7 168.9)" style="fill:#262262;font-family:Tahoma, Tahoma;font-size:7px;text-anchor:middle;">AF</text>
		<text id="Count_AG" transform="matrix(1 0 0 1 461.6 141.3)" style="fill:#262262;font-family:Tahoma, Tahoma;font-size:16;text-anchor:middle">AG</text>
		<text id="Count_BC" transform="matrix(1 0 0 1 763.1 491.7)" style="fill:#262262;font-family:Tahoma, Tahoma;font-size:16;text-anchor:middle">BC</text>
		<text id="Count_BD" transform="matrix(1 0 0 1 501.2 696.9)" style="fill:#262262;font-family:Tahoma, Tahoma;font-size:6px;text-anchor:middle;">BD</text>
		<text id="Count_BE" transform="matrix(1 0 0 1 749.9 391.4)" style="fill:#262262;font-family:Tahoma, Tahoma;font-size:6px;text-anchor:middle;">BE</text>
		<text id="Count_BF" transform="matrix(1 0 0 1 195.1 338.2)" style="fill:#262262;font-family:Tahoma, Tahoma;font-size:6px;text-anchor:middle;">BF</text>
		<text id="Count_BG" transform="matrix(1 0 0 1 734.4 336.3)" style="fill:#262262;font-family:Tahoma, Tahoma;font-size:6px;text-anchor:middle;">BG</text>
		<text id="Count_CD" transform="matrix(1 0 0 1 601.5 687.6)" style="fill:#262262;font-family:Tahoma, Tahoma;font-size:16;text-anchor:middle">CD</text>
		<text id="Count_CE" transform="matrix(1 0 0 1 266.5 616)" style="fill:#262262;font-family:Tahoma, Tahoma;font-size:6px;text-anchor:middle;">CE</text>
		<text id="Count_CF" transform="matrix(1 0 0 1 673.4 614.1)" style="fill:#262262;font-family:Tahoma, Tahoma;font-size:6px;text-anchor:middle;">CF</text>
		<text id="Count_CG" transform="matrix(1 0 0 1 365.2 168.2)" style="fill:#262262;font-family:Tahoma, Tahoma;font-size:6px;text-anchor:middle;">CG</text>
		<text id="Count_DE" transform="matrix(1 0 0 1 340.8 687.2)" style="fill:#262262;font-family:Tahoma, Tahoma;font-size:16;text-anchor:middle">DE</text>
		<text id="Count_DF" transform="matrix(1 0 0 1 183.3 393.5)" style="fill:#262262;font-family:Tahoma, Tahoma;font-size:6px;text-anchor:middle;">DF</text>
		<text id="Count_DG" transform="matrix(1 0 0 1 442.5 695.5)" style="fill:#262262;font-family:Tahoma, Tahoma;font-size:6px;text-anchor:middle;">DG</text>
		<text id="Count_EF" transform="matrix(1 0 0 1 174.8 491.8)" style="fill:#262262;font-family:Tahoma, Tahoma;font-size:16;text-anchor:middle">EF</text>
		<text id="Count_EG" transform="matrix(1 0 0 1 313.4 192.1)" style="fill:#262262;font-family:Tahoma, Tahoma;font-size:6px;text-anchor:middle;">EG</text>
		<text id="Count_FG" transform="matrix(1 0 0 1 231.6 243.6)" style="fill:#262262;font-family:Tahoma, Tahoma;font-size:16;text-anchor:middle">FG</text>
		<text id="Count_ABC" transform="matrix(1 0 0 1 709.9 545.1)" style="fill:#262262;font-family:Tahoma, Tahoma;font-size:6px;text-anchor:middle;">ABC</text>
		<text id="Count_ABD" transform="matrix(1 0 0 1 626.1 215.6)" style="fill:#262262;font-family:Tahoma, Tahoma;font-size:5px;text-anchor:middle;">ABD</text>
		<text id="Count_ABE" transform="matrix(1 0 0 1 693.1 292.1)" style="fill:#262262;font-family:Tahoma, Tahoma;font-size:6px;text-anchor:middle;">ABE</text>
		<text id="Count_ABF" transform="matrix(1 0 0 1 661.7 251.6)" style="fill:#262262;font-family:Tahoma, Tahoma;font-size:7px;text-anchor:middle;">ABF</text>
		<text id="Count_ABG" transform="matrix(1 0 0 1 714.7 318.9)" style="fill:#262262;font-family:Tahoma, Tahoma;font-size:5px;text-anchor:middle;">ABG</text>
		<text id="Count_ACD" transform="matrix(1 0 0 1 602.8 648.8)" style="fill:#262262;font-family:Tahoma, Tahoma;font-size:7px;text-anchor:middle;">ACD</text>
		<text id="Count_ACE" transform="matrix(1 0 0 1 257.9 587)" style="fill:#262262;font-family:Tahoma, Tahoma;font-size:7px;text-anchor:middle;">ACE</text>
		<text id="Count_ACF" transform="matrix(1 0 0 1 682.1 586.6)" style="fill:#262262;font-family:Tahoma, Tahoma;font-size:7px;text-anchor:middle;">ACF</text>
		<text id="Count_ACG" transform="matrix(1 0 0 1 393.4 172.9)" style="fill:#262262;font-family:Tahoma, Tahoma;font-size:6px;text-anchor:middle;">ACG</text>
		<text id="Count_ADE" transform="matrix(1 0 0 1 326.1 639.4)" style="fill:#262262;font-family:Tahoma, Tahoma;font-size:6px;text-anchor:middle;">ADE</text>
		<text id="Count_ADF" transform="matrix(1 0 0 1 579.9 191.6)" style="fill:#262262;font-family:Tahoma, Tahoma;font-size:7px;text-anchor:middle;">ADF</text>
		<text id="Count_ADG" transform="matrix(1 0 0 1 496.1 171.2)" style="fill:#262262;font-family:Tahoma, Tahoma;font-size:5px;text-anchor:middle;">ADG</text>
		<text id="Count_AEF" transform="matrix(1 0 0 1 226.2 544.9)" style="fill:#262262;font-family:Tahoma, Tahoma;font-size:6px;text-anchor:middle;">AEF</text>
		<text id="Count_AEG" transform="matrix(1 0 0 1 446.8 168.2)" style="fill:#262262;font-family:Tahoma, Tahoma;font-size:7px;text-anchor:middle;">AEG</text>
		<text id="Count_AFG" transform="matrix(1 0 0 1 529 173.4)" style="fill:#262262;font-family:Tahoma, Tahoma;font-size:6px;text-anchor:middle;">AFG</text>
		<text id="Count_BCD" transform="matrix(1 0 0 1 524.3 681.1)" style="fill:#262262;font-family:Tahoma, Tahoma;font-size:6px;text-anchor:middle;">BCD</text>
		<text id="Count_BCE" transform="matrix(1 0 0 1 739.2 417.9)" style="fill:#262262;font-family:Tahoma, Tahoma;font-size:6px;text-anchor:middle;">BCE</text>
		<text id="Count_BCF" transform="matrix(1 0 0 1 718.8 512.4)" style="fill:#262262;font-family:Tahoma, Tahoma;font-size:5px;text-anchor:middle;">BCF</text>
		<text id="Count_BCG" transform="matrix(1 0 0 1 732.7 467.4)" style="fill:#262262;font-family:Tahoma, Tahoma;font-size:7px;text-anchor:middle;">BCG</text>
		<text id="Count_BDE" transform="matrix(1 0 0 1 371.2 663.7)" style="fill:#262262;font-family:Tahoma, Tahoma;font-size:7px;text-anchor:middle;">BDE</text>
		<text id="Count_BDF" transform="matrix(1 0 0 1 201 368.6)" style="fill:#262262;font-family:Tahoma, Tahoma;font-size:7px;text-anchor:middle;">BDF</text>
		<text id="Count_BDG" transform="matrix(1 0 0 1 471.6 684.9)" style="fill:#262262;font-family:Tahoma, Tahoma;font-size:7px;text-anchor:middle;">BDG</text>
		<text id="Count_BEF" transform="matrix(1 0 0 1 201.3 449.9)" style="fill:#262262;font-family:Tahoma, Tahoma;font-size:5px;text-anchor:middle;">BEF</text>
		<text id="Count_BEG" transform="matrix(1 0 0 1 730.2 366.8)" style="fill:#262262;font-family:Tahoma, Tahoma;font-size:7px;text-anchor:middle;">BEG</text>
		<text id="Count_BFG" transform="matrix(1 0 0 1 215.1 320.1)" style="fill:#262262;font-family:Tahoma, Tahoma;font-size:6px;text-anchor:middle;">BFG</text>
		<text id="Count_CDE" transform="matrix(1 0 0 1 293.9 623.5)" style="fill:#262262;font-family:Tahoma, Tahoma;font-size:5px;text-anchor:middle;">CDE</text>
		<text id="Count_CDF" transform="matrix(1 0 0 1 646.9 621.7)" style="fill:#262262;font-family:Tahoma, Tahoma;font-size:6px;text-anchor:middle;">CDF</text>
		<text id="Count_CDG" transform="matrix(1 0 0 1 557.8 667)" style="fill:#262262;font-family:Tahoma, Tahoma;font-size:6px;text-anchor:middle;">CDG</text>
		<text id="Count_CEF" transform="matrix(1 0 0 1 209.4 497.1)" style="fill:#262262;font-family:Tahoma, Tahoma;font-size:7px;text-anchor:middle;">CEF</text>
		<text id="Count_CEG" transform="matrix(1 0 0 1 344.7 190.8)" style="fill:#262262;font-family:Tahoma, Tahoma;font-size:7px;text-anchor:middle;">CEG</text>
		<text id="Count_CFG" transform="matrix(1 0 0 1 277.8 242.2)" style="fill:#262262;font-family:Tahoma, Tahoma;font-size:6px;text-anchor:middle;">CFG</text>
		<text id="Count_DEF" transform="matrix(1 0 0 1 194.4 418.4)" style="fill:#262262;font-family:Tahoma, Tahoma;font-size:6px;text-anchor:middle;">DEF</text>
		<text id="Count_DEG" transform="matrix(1 0 0 1 419.9 680.3)" style="fill:#262262;font-family:Tahoma, Tahoma;font-size:6px;text-anchor:middle;">DEG</text>
		<text id="Count_DFG" transform="matrix(1 0 0 1 243 279.1)" style="fill:#262262;font-family:Tahoma, Tahoma;font-size:7px;text-anchor:middle;">DFG</text>
		<text id="Count_EFG" transform="matrix(1 0 0 1 300.7 215.3)" style="fill:#262262;font-family:Tahoma, Tahoma;font-size:6px;text-anchor:middle;">EFG</text>
		<text id="Count_ABCD" transform="matrix(1 0 0 1 596 636.4)" style="fill:#262262;font-family:Tahoma, Tahoma;font-size:6px;text-anchor:middle;">ABCD</text>
		<text id="Count_ABCE" transform="matrix(1 0 0 1 273.2 575.1)" style="fill:#262262;font-family:Tahoma, Tahoma;font-size:5px;text-anchor:middle;">ABCE</text>
		<text id="Count_ABCF" transform="matrix(1 0 0 1 696.1 538.6)" style="fill:#262262;font-family:Tahoma, Tahoma;font-size:7px;text-anchor:middle;">ABCF</text>
		<text id="Count_ABCG" transform="matrix(1 0 0 1 717.1 463.1)" style="fill:#262262;font-family:Tahoma, Tahoma;font-size:5px;text-anchor:middle;">ABCG</text>
		<text id="Count_ABDE" transform="matrix(1 0 0 1 344.5 640.1)" style="fill:#262262;font-family:Tahoma, Tahoma;font-size:5px;text-anchor:middle;">ABDE</text>
		<text id="Count_ABDF" transform="matrix(1 0 0 1 616.2 230.8)" style="fill:#262262;font-family:Tahoma, Tahoma;font-size:7px;text-anchor:middle;">ABDF</text>
		<text id="Count_ABDG" transform="matrix(1 0 0 1 470.1 666.1)" style="fill:#262262;font-family:Tahoma, Tahoma;font-size:5px;text-anchor:middle;">ABDG</text>
		<text id="Count_ABEF" transform="matrix(1 0 0 1 674.8 282.9)" style="fill:#262262;font-family:Tahoma, Tahoma;font-size:6px;text-anchor:middle;">ABEF</text>
		<text id="Count_ABEG" transform="matrix(1 0 0 1 699.1 325.3)" style="fill:#262262;font-family:Tahoma, Tahoma;font-size:7px;text-anchor:middle;">ABEG</text>
		<text id="Count_ABFG" transform="matrix(1 0 0 1 651.1 261.6)" style="fill:#262262;font-family:Tahoma, Tahoma;font-size:5px;text-anchor:middle;">ABFG</text>
		<text id="Count_ACDE" transform="matrix(1 0 0 1 305.2 612.2)" style="fill:#262262;font-family:Tahoma, Tahoma;font-size:7px;text-anchor:middle;">ACDE</text>
		<text id="Count_ACDF" transform="matrix(1 0 0 1 635.5 609.2)" style="fill:#262262;font-family:Tahoma, Tahoma;font-size:7px;text-anchor:middle;">ACDF</text>
		<text id="Count_ACDG" transform="matrix(1 0 0 1 569.5 653.8)" style="fill:#262262;font-family:Tahoma, Tahoma;font-size:5px;text-anchor:middle;">ACDG</text>
		<text id="Count_ACEF" transform="matrix(1 0 0 1 244.4 539)" style="fill:#262262;font-family:Tahoma, Tahoma;font-size:7px;text-anchor:middle;">ACEF</text>
		<text id="Count_ACEG" transform="matrix(1 0 0 1 396.2 191.1)" style="fill:#262262;font-family:Tahoma, Tahoma;font-size:7px;text-anchor:middle;">ACEG</text>
		<text id="Count_ACFG" transform="matrix(1 0 0 1 668.1 576.3)" style="fill:#262262;font-family:Tahoma, Tahoma;font-size:6px;text-anchor:middle;">ACFG</text>
		<text id="Count_ADEF" transform="matrix(1 0 0 1 572.1 206.8)" style="fill:#262262;font-family:Tahoma, Tahoma;font-size:6px;text-anchor:middle;">ADEF</text>
		<text id="Count_ADEG" transform="matrix(1 0 0 1 479.5 177.2)" style="fill:#262262;font-family:Tahoma, Tahoma;font-size:5px;text-anchor:middle;">ADEG</text>
		<text id="Count_ADFG" transform="matrix(1 0 0 1 525.9 188.1)" style="fill:#262262;font-family:Tahoma, Tahoma;font-size:7px;text-anchor:middle;">ADFG</text>
		<text id="Count_AEFG" transform="matrix(1 0 0 1 446.7 183)" style="fill:#262262;font-family:Tahoma, Tahoma;font-size:6px;text-anchor:middle;">AEFG</text>
		<text id="Count_BCDE" transform="matrix(1 0 0 1 375.3 649.6)" style="fill:#262262;font-family:Tahoma, Tahoma;font-size:6px;text-anchor:middle;">BCDE</text>
		<text id="Count_BCDF" transform="matrix(1 0 0 1 218.8 372.1)" style="fill:#262262;font-family:Tahoma, Tahoma;font-size:6px;text-anchor:middle;">BCDF</text>
		<text id="Count_BCDG" transform="matrix(1 0 0 1 520.7 665.2)" style="fill:#262262;font-family:Tahoma, Tahoma;font-size:7px;text-anchor:middle;">BCDG</text>
		<text id="Count_BCEF" transform="matrix(1 0 0 1 212 463.6)" style="fill:#262262;font-family:Tahoma, Tahoma;font-size:5px;text-anchor:middle;">BCEF</text>
		<text id="Count_BCEG" transform="matrix(1 0 0 1 720.2 416.8)" style="fill:#262262;font-family:Tahoma, Tahoma;font-size:7px;text-anchor:middle;">BCEG</text>
		<text id="Count_BCFG" transform="matrix(1 0 0 1 715.8 494.1)" style="fill:#262262;font-family:Tahoma, Tahoma;font-size:5px;text-anchor:middle;">BCFG</text>
		<text id="Count_BDEF" transform="matrix(1 0 0 1 210.3 418.6)" style="fill:#262262;font-family:Tahoma, Tahoma;font-size:7px;text-anchor:middle;">BDEF</text>
		<text id="Count_BDEG" transform="matrix(1 0 0 1 423.2 663.4)" style="fill:#262262;font-family:Tahoma, Tahoma;font-size:7px;text-anchor:middle;">BDEG</text>
		<text id="Count_BDFG" transform="matrix(1 0 0 1 233.5 326.3)" style="fill:#262262;font-family:Tahoma, Tahoma;font-size:7px;text-anchor:middle;">BDFG</text>
		<text id="Count_BEFG" transform="matrix(1 0 0 1 711.5 370.5)" style="fill:#262262;font-family:Tahoma, Tahoma;font-size:6px;text-anchor:middle;">BEFG</text>
		<text id="Count_CDEF" transform="matrix(1 0 0 1 224.7 493.2)" style="fill:#262262;font-family:Tahoma, Tahoma;font-size:6px;text-anchor:middle;">CDEF</text>
		<text id="Count_CDEG" transform="matrix(1 0 0 1 353 207.1)" style="fill:#262262;font-family:Tahoma, Tahoma;font-size:5px;text-anchor:middle;">CDEG</text>
		<text id="Count_CDFG" transform="matrix(1 0 0 1 272.1 259.4)" style="fill:#262262;font-family:Tahoma, Tahoma;font-size:5px;text-anchor:middle;">CDFG</text>
		<text id="Count_CEFG" transform="matrix(1 0 0 1 310.4 228.9)" style="fill:#262262;font-family:Tahoma, Tahoma;font-size:7px;text-anchor:middle;">CEFG</text>
		<text id="Count_DEFG" transform="matrix(1 0 0 1 256.6 285.2)" style="fill:#262262;font-family:Tahoma, Tahoma;font-size:5px;text-anchor:middle;">DEFG</text>
		<text id="Count_ABCDE" transform="matrix(1 0 0 1 335.2 596.3)" style="fill:#262262;font-family:Tahoma, Tahoma;font-size:12;text-anchor:middle">ABCDE</text>
		<text id="Count_ABCDF" transform="matrix(1 0 0 1 608.1 614.6)" style="fill:#262262;font-family:Tahoma, Tahoma;font-size:6px;text-anchor:middle;">ABCDF</text>
		<text id="Count_ABCDG" transform="matrix(1 0 0 1 530.1 633.3)" style="fill:#262262;font-family:Tahoma, Tahoma;font-size:12;text-anchor:middle">ABCDG</text>
		<text id="Count_ABCEF" transform="matrix(1 0 0 1 270.3 553.9)" style="fill:#262262;font-family:Tahoma, Tahoma;font-size:6px;text-anchor:middle;">ABCEF</text>
		<text id="Count_ABCEG" transform="matrix(1 0 0 1 707.2 440.3)" style="fill:#262262;font-family:Tahoma, Tahoma;font-size:6px;text-anchor:middle;">ABCEG</text>
		<text id="Count_ABCFG" transform="matrix(1 0 0 1 672.7 512.5)" style="fill:#262262;font-family:Tahoma, Tahoma;font-size:12;text-anchor:middle">ABCFG</text>
		<text id="Count_ABDEF" transform="matrix(1 0 0 1 586.6 227.4)" style="fill:#262262;font-family:Tahoma, Tahoma;font-size:6px;text-anchor:middle;">ABDEF</text>
		<text id="Count_ABDEG" transform="matrix(1 0 0 1 450.3 654.6)" style="fill:#262262;font-family:Tahoma, Tahoma;font-size:6px;text-anchor:middle;">ABDEG</text>
		<text id="Count_ABDFG" transform="matrix(1 0 0 1 628.2 255.3)" style="fill:#262262;font-family:Tahoma, Tahoma;font-size:6px;text-anchor:middle;">ABDFG</text>
		<text id="Count_ABEFG" transform="matrix(1 0 0 1 662.5 325.3)" style="fill:#262262;font-family:Tahoma, Tahoma;font-size:12;text-anchor:middle">ABEFG</text>
		<text id="Count_ACDEF" transform="matrix(1 0 0 1 244.9 510.6)" style="fill:#262262;font-family:Tahoma, Tahoma;font-size:6px;text-anchor:middle;">ACDEF</text>
		<text id="Count_ACDEG" transform="matrix(1 0 0 1 375.2 209.5)" style="fill:#262262;font-family:Tahoma, Tahoma;font-size:6px;text-anchor:middle;">ACDEG</text>
		<text id="Count_ACDFG" transform="matrix(1 0 0 1 645.5 583.9)" style="fill:#262262;font-family:Tahoma, Tahoma;font-size:6px;text-anchor:middle;">ACDFG</text>
		<text id="Count_ACEFG" transform="matrix(1 0 0 1 424.2 198.3)" style="fill:#262262;font-family:Tahoma, Tahoma;font-size:6px;text-anchor:middle;">ACEFG</text>
		<text id="Count_ADEFG" transform="matrix(1 0 0 1 501.8 216.2)" style="fill:#262262;font-family:Tahoma, Tahoma;font-size:12;text-anchor:middle">ADEFG</text>
		<text id="Count_BCDEF" transform="matrix(1 0 0 1 244.1 432.7)" style="fill:#262262;font-family:Tahoma, Tahoma;font-size:12;text-anchor:middle">BCDEF</text>
		<text id="Count_BCDEG" transform="matrix(1 0 0 1 400.6 645.4)" style="fill:#262262;font-family:Tahoma, Tahoma;font-size:6px;text-anchor:middle;">BCDEG</text>
		<text id="Count_BCDFG" transform="matrix(1 0 0 1 236.6 354.3)" style="fill:#262262;font-family:Tahoma, Tahoma;font-size:6px;text-anchor:middle;">BCDFG</text>
		<text id="Count_BCEFG" transform="matrix(1 0 0 1 704.2 391.6)" style="fill:#262262;font-family:Tahoma, Tahoma;font-size:6px;text-anchor:middle;">BCEFG</text>
		<text id="Count_BDEFG" transform="matrix(1 0 0 1 256.3 309.2)" style="fill:#262262;font-family:Tahoma, Tahoma;font-size:6px;text-anchor:middle;">BDEFG</text>
		<text id="Count_CDEFG" transform="matrix(1 0 0 1 317.6 268)" style="fill:#262262;font-family:Tahoma, Tahoma;font-size:12;text-anchor:middle">CDEFG</text>
		<text id="Count_ABCDEF" transform="matrix(1 0 0 1 301.8 508.1)" style="fill:#262262;font-family:Tahoma, Tahoma;font-size:22;text-anchor:middle">ABCDEF</text>
		<text id="Count_ABCDEG" transform="matrix(1 0 0 1 434.9 608.2)" style="fill:#262262;font-family:Tahoma, Tahoma;font-size:22;text-anchor:middle">ABCDEG</text>
		<text id="Count_ABCDFG" transform="matrix(1 0 0 1 593.8 562.3)" style="fill:#262262;font-family:Tahoma, Tahoma;font-size:22;text-anchor:middle">ABCDFG</text>
		<text id="Count_ABCEFG" transform="matrix(1 0 0 1 655.3 422.6)" style="fill:#262262;font-family:Tahoma, Tahoma;font-size:22;text-anchor:middle">ABCEFG</text>
		<text id="Count_ABDEFG" transform="matrix(1 0 0 1 578.3 285.4)" style="fill:#262262;font-family:Tahoma, Tahoma;font-size:22;text-anchor:middle">ABDEFG</text>
		<text id="Count_ACDEFG" transform="matrix(1 0 0 1 415.5 257.9)" style="fill:#262262;font-family:Tahoma, Tahoma;font-size:22;text-anchor:middle">ACDEFG</text>
		<text id="Count_BCDEFG" transform="matrix(1 0 0 1 293.7 351.8)" style="fill:#262262;font-family:Tahoma, Tahoma;font-size:22;text-anchor:middle">BCDEFG</text>
		<text id="Count_ABCDEFG" transform="matrix(1 0 0 1 466.3 427)" style="fill:#FFFFFF;font-family:Tahoma, Tahoma;font-size:30;text-anchor:middle">ABCDEFG</text>
	</g>
	<g id="Group_CountSums">
		<text id="CountSUM_A" transform="matrix(1 0 0 1 760.1 121.7)" style="fill:#262262;font-family:Tahoma, Tahoma;font-size:16;text-anchor:middle;">CountSUM_A</text>
		<text id="CountSUM_B" transform="matrix(1 0 0 1 856.2 259.7)" style="fill:#262262;font-family:Tahoma, Tahoma;font-size:16;text-anchor:middle;">CountSUM_B</text>
		<text id="CountSUM_C" transform="matrix(1 0 0 1 834.2 693.8)" style="fill:#262262;font-family:Tahoma, Tahoma;font-size:16;text-anchor:middle;">CountSUM_C</text>
		<text id="CountSUM_D" transform="matrix(1 0 0 1 468.3 832.4)" style="fill:#262262;font-family:Tahoma, Tahoma;font-size:16;text-anchor:middle;">CountSUM_D</text>
		<text id="CountSUM_E" transform="matrix(1 0 0 1 109.9 694.6)" style="fill:#262262;font-family:Tahoma, Tahoma;font-size:16;text-anchor:middle;">CountSUM_E</text>
		<text id="CountSUM_F" transform="matrix(1 0 0 1 62.1 278.8)" style="fill:#262262;font-family:Tahoma, Tahoma;font-size:16;text-anchor:middle;">CountSUM_F</text>
		<text id="CountSUM_G" transform="matrix(1 0 0 1 154.1 134)" style="fill:#262262;font-family:Tahoma, Tahoma;font-size:16;text-anchor:middle;">CountSUM_G</text>
	</g>
</g>
<g id="Group_Bullets" style="display:none;">
	<circle id="BulletA" style="opacity:0.2;fill:#FFF200;stroke:#010101;stroke-width:2;" cx="59.2" cy="25" r="6.9"/>
	<circle id="BulletB" style="opacity:0.2;fill:#2E3192;stroke:#010101;stroke-width:2;" cx="59.2" cy="43.7" r="6.9"/>
	<circle id="BulletC" style="opacity:0.2;fill:#ED1C24;stroke:#010101;stroke-width:2;" cx="59.2" cy="62.4" r="6.9"/>
	<circle id="BulletD" style="opacity:0.2;fill:#808285;stroke:#010101;stroke-width:2;" cx="59.2" cy="81.1" r="6.9"/>
	<circle id="BulletE" style="opacity:0.2;fill:#3C2415;stroke:#010101;stroke-width:2;" cx="59.2" cy="99.8" r="6.9"/>
	<circle id="BulletF" style="opacity:0.2;fill:#9E1F63;stroke:#010101;stroke-width:2;" cx="59.2" cy="118.5" r="6.9"/>
	<circle id="BulletG" style="opacity:0.2;fill:#CA4B9B;stroke:#010101;stroke-width:2;" cx="59.2" cy="137.2" r="6.9"/>
</g>
</svg>
