<?xml version="1.0" encoding="utf-8"?>
<!-- Created by Zoltan Dul in 2026 - free to use with MIT license. Part of React Venn Diagram Analyzer - https://github.com/ZoliQua/React-Venn-Diagram-Analyser - SVG Version: 3.0.0 -->
<svg xmlns="http://www.w3.org/2000/svg"
	 xmlns:xlink="http://www.w3.org/1999/xlink"
	 version="1.1"
	 x="0px"
	 y="0px"
	 style="enable-background:new 0 0 930 850;"
	 xml:space="preserve" viewBox="0 0 930 850">
<g id="Shapes">
	<path id="ShapeA" style="opacity:0.2;fill:#FFF200;stroke:#000000;stroke-width:2;stroke-miterlimit:10;" d="M 691.7 153.6 L 676.7 135.6 L 659.9 120.5 L 641.6 108.4 L 622.0 99.1 L 601.5 92.5 L 580.3 88.7 L 558.7 87.6 L 536.8 89.1 L 515.1 93.1 L 493.7 99.6 L 473.0 108.5 L 453.1 119.8 L 442.4 127.6 L 432.1 136.0 L 422.1 144.9 L 412.7 154.4 L 403.7 164.3 L 395.3 174.7 L 387.5 185.6 L 380.4 196.8 L 373.9 208.5 L 368.1 220.5 L 363.2 232.8 L 359.0 245.5 L 357.7 250.5 L 356.4 255.6 L 355.3 260.7 L 354.2 265.8 L 353.2 271.0 L 352.3 276.1 L 351.4 281.3 L 350.6 286.4 L 349.9 291.6 L 349.2 296.8 L 348.5 301.9 L 347.8 307.1 L 347.3 310.9 L 346.9 314.7 L 346.5 318.5 L 346.0 322.3 L 345.5 326.1 L 344.9 329.9 L 344.2 333.7 L 343.4 337.4 L 342.5 341.2 L 341.4 344.8 L 340.2 348.4 L 338.7 352.0 L 337.1 355.3 L 335.3 358.5 L 333.3 361.6 L 331.2 364.6 L 328.9 367.5 L 326.5 370.3 L 323.9 373.0 L 321.3 375.6 L 318.7 378.2 L 315.9 380.7 L 313.2 383.1 L 310.4 385.5 L 307.1 388.3 L 303.7 391.2 L 300.5 394.0 L 297.2 396.9 L 293.9 399.8 L 290.7 402.7 L 287.5 405.7 L 284.3 408.6 L 281.1 411.6 L 278.0 414.7 L 274.8 417.8 L 271.7 420.9 L 262.6 430.4 L 253.7 440.6 L 245.1 451.5 L 237.1 463.0 L 229.6 475.0 L 222.9 487.4 L 217.1 500.2 L 212.3 513.2 L 208.7 526.5 L 206.4 539.8 L 205.6 553.2 L 206.3 566.6 L 211.3 582.0 L 219.0 594.6 L 229.0 604.5 L 240.8 612.1 L 254.3 617.6 L 268.9 621.3 L 284.3 623.5 L 300.1 624.5 L 316.1 624.6 L 331.7 624.0 L 346.7 622.9 L 360.6 621.8 L 364.9 621.8 L 368.9 622.3 L 372.7 623.4 L 376.3 624.9 L 379.6 626.8 L 382.8 629.1 L 385.7 631.7 L 388.5 634.6 L 391.2 637.7 L 393.7 641.0 L 396.0 644.3 L 398.2 647.8 L 400.2 650.7 L 402.1 653.5 L 404.2 656.4 L 406.2 659.3 L 408.2 662.1 L 410.3 664.9 L 412.5 667.7 L 414.6 670.5 L 416.8 673.2 L 419.0 675.9 L 421.3 678.5 L 423.6 681.1 L 428.3 685.9 L 433.2 689.7 L 438.2 692.6 L 443.3 694.5 L 448.5 695.6 L 453.8 695.9 L 459.0 695.4 L 464.3 694.0 L 469.6 692.0 L 474.8 689.2 L 479.9 685.7 L 484.9 681.6 L 487.4 679.6 L 490.0 677.5 L 492.5 675.4 L 495.1 673.3 L 497.7 671.2 L 500.3 669.2 L 503.0 667.4 L 505.8 665.6 L 508.6 664.1 L 511.6 662.7 L 514.6 661.6 L 517.8 660.7 L 526.0 660.2 L 534.4 661.2 L 542.9 663.2 L 551.5 665.9 L 560.1 668.7 L 568.6 671.2 L 576.8 673.0 L 584.8 673.5 L 592.4 672.4 L 599.6 669.1 L 606.3 663.3 L 612.3 654.5 L 614.8 649.5 L 617.0 644.1 L 619.0 638.5 L 621.0 632.8 L 623.1 627.2 L 625.4 621.7 L 627.9 616.5 L 630.9 611.7 L 634.4 607.3 L 638.5 603.6 L 643.4 600.6 L 649.2 598.5 L 656.4 596.4 L 664.0 594.6 L 672.0 592.9 L 680.3 591.3 L 688.6 589.5 L 696.8 587.4 L 704.7 585.0 L 712.4 582.1 L 719.5 578.6 L 725.9 574.4 L 731.6 569.2 L 736.3 563.1 L 738.7 556.9 L 740.0 550.4 L 740.3 543.7 L 739.8 536.8 L 738.5 529.7 L 736.7 522.7 L 734.4 515.6 L 731.7 508.7 L 728.8 501.9 L 725.9 495.3 L 723.1 489.1 L 720.4 483.2 L 717.7 477.6 L 714.6 472.1 L 711.4 466.7 L 708.1 461.3 L 704.7 455.9 L 701.5 450.5 L 698.4 445.1 L 695.6 439.5 L 693.2 433.9 L 691.3 428.0 L 690.0 422.0 L 689.3 415.7 L 689.7 410.4 L 690.6 405.2 L 691.9 400.1 L 693.5 395.1 L 695.4 390.2 L 697.5 385.3 L 699.7 380.4 L 702.0 375.6 L 704.4 370.8 L 706.6 365.9 L 708.8 361.1 L 710.7 356.2 L 716.8 339.6 L 721.7 322.5 L 725.4 305.1 L 727.7 287.4 L 728.7 269.6 L 728.3 251.8 L 726.3 234.3 L 722.8 217.0 L 717.6 200.1 L 710.8 183.9 L 702.2 168.4 L 691.8 153.7 L 691.8 153.5 L 691.7 153.6 Z"/>
	<path id="ShapeB" style="opacity:0.2;fill:#2E3192;stroke:#000000;stroke-width:2;stroke-miterlimit:10;" d="M 828.9 422.2 L 831.4 415.5 L 833.4 408.6 L 834.9 401.6 L 836.0 394.5 L 836.7 387.3 L 837.0 380.1 L 836.9 372.8 L 836.4 365.6 L 835.5 358.4 L 834.3 351.3 L 832.7 344.3 L 830.9 337.4 L 826.7 325.6 L 821.4 314.3 L 815.3 303.5 L 808.3 293.3 L 800.5 283.6 L 792.1 274.5 L 783.0 266.0 L 773.4 258.0 L 763.3 250.6 L 752.9 243.9 L 742.1 237.7 L 731.0 232.1 L 723.6 228.9 L 716.2 226.1 L 708.6 223.7 L 701.0 221.6 L 693.2 219.8 L 685.4 218.2 L 677.6 217.0 L 669.7 216.0 L 661.7 215.2 L 653.7 214.6 L 645.7 214.2 L 637.7 213.9 L 628.1 213.9 L 618.4 214.3 L 608.8 215.1 L 599.3 216.3 L 589.8 217.9 L 580.4 219.8 L 571.1 222.2 L 561.9 225.0 L 552.8 228.1 L 543.8 231.6 L 535.0 235.5 L 526.4 239.8 L 522.6 241.7 L 518.8 243.7 L 515.0 245.6 L 511.3 247.6 L 507.6 249.6 L 503.9 251.6 L 500.3 253.6 L 496.6 255.6 L 493.0 257.7 L 489.3 259.8 L 485.7 261.9 L 482.1 264.0 L 477.2 267.0 L 472.2 269.8 L 467.2 272.5 L 462.1 274.9 L 456.9 277.2 L 451.6 279.2 L 446.2 280.8 L 440.7 282.1 L 435.2 283.0 L 429.6 283.5 L 423.9 283.5 L 418.1 283.0 L 408.9 281.8 L 399.6 280.4 L 390.4 279.0 L 381.2 277.6 L 371.9 276.2 L 362.7 274.9 L 353.4 273.7 L 344.1 272.7 L 334.9 271.9 L 325.5 271.3 L 316.2 271.1 L 306.8 271.2 L 297.0 271.8 L 286.8 272.9 L 276.2 274.5 L 265.4 276.6 L 254.6 279.2 L 243.8 282.4 L 233.3 286.0 L 223.1 290.2 L 213.5 295.0 L 204.4 300.4 L 196.2 306.3 L 188.8 312.8 L 179.8 324.5 L 174.4 336.7 L 172.1 349.1 L 172.6 361.7 L 175.5 374.3 L 180.4 386.7 L 186.8 398.9 L 194.6 410.8 L 203.2 422.1 L 212.3 432.8 L 221.5 442.8 L 230.4 451.8 L 232.3 453.7 L 234.2 455.7 L 236.2 457.7 L 238.0 459.7 L 239.8 461.9 L 241.5 464.0 L 243.1 466.3 L 244.5 468.6 L 245.7 471.1 L 246.7 473.6 L 247.4 476.2 L 247.9 478.9 L 248.1 481.8 L 248.0 484.8 L 247.7 487.8 L 247.1 490.9 L 246.4 493.9 L 245.6 497.0 L 244.6 500.0 L 243.6 503.1 L 242.5 506.1 L 241.5 509.1 L 240.5 512.0 L 239.6 514.9 L 238.4 519.3 L 237.1 523.7 L 235.8 528.2 L 234.5 532.8 L 233.4 537.4 L 232.4 542.0 L 231.7 546.7 L 231.2 551.3 L 231.0 555.9 L 231.3 560.5 L 231.9 565.0 L 233.1 569.4 L 236.2 575.4 L 240.3 580.2 L 245.0 584.0 L 250.4 586.9 L 256.3 589.2 L 262.6 590.9 L 269.1 592.3 L 275.7 593.6 L 282.2 594.8 L 288.6 596.3 L 294.7 598.1 L 300.4 600.5 L 305.7 603.8 L 310.1 607.8 L 313.8 612.4 L 316.8 617.4 L 319.4 622.8 L 321.7 628.5 L 323.8 634.3 L 325.9 640.1 L 328.1 645.8 L 330.6 651.4 L 333.6 656.5 L 337.1 661.3 L 343.4 667.2 L 350.1 670.8 L 357.1 672.5 L 364.4 672.7 L 371.9 671.6 L 379.5 669.7 L 387.3 667.3 L 395.1 664.7 L 402.8 662.4 L 410.5 660.6 L 418.1 659.7 L 425.5 660.1 L 427.8 660.6 L 430.1 661.2 L 432.3 661.9 L 434.5 662.8 L 436.6 663.9 L 438.6 665.0 L 440.7 666.2 L 442.7 667.5 L 444.6 668.8 L 446.5 670.2 L 448.4 671.6 L 450.3 673.0 L 453.4 675.5 L 456.6 677.9 L 459.7 680.4 L 462.9 682.8 L 466.1 685.3 L 469.4 687.6 L 472.6 690.0 L 475.9 692.3 L 479.2 694.5 L 482.6 696.7 L 486.0 698.8 L 489.4 700.8 L 496.9 704.8 L 503.9 707.5 L 510.6 709.1 L 516.9 709.5 L 522.8 708.9 L 528.5 707.3 L 533.9 704.7 L 539.1 701.3 L 544.1 696.9 L 548.9 691.8 L 553.6 685.9 L 558.2 679.3 L 562.4 673.4 L 566.2 667.3 L 569.9 661.1 L 573.3 654.7 L 576.5 648.2 L 579.6 641.6 L 582.6 635.0 L 585.6 628.4 L 588.5 621.8 L 591.4 615.2 L 594.4 608.7 L 597.5 602.3 L 599.6 598.3 L 601.9 594.5 L 604.4 590.9 L 607.1 587.6 L 610.1 584.6 L 613.3 581.7 L 616.7 579.2 L 620.2 576.8 L 624.0 574.7 L 627.9 572.9 L 632.1 571.3 L 636.4 569.9 L 640.2 568.7 L 644.1 567.6 L 648.0 566.5 L 651.9 565.5 L 655.8 564.5 L 659.6 563.5 L 663.5 562.5 L 667.4 561.4 L 671.3 560.4 L 675.2 559.3 L 679.1 558.1 L 682.9 556.9 L 689.0 554.8 L 695.0 552.6 L 701.0 550.2 L 706.9 547.7 L 712.7 545.0 L 718.5 542.3 L 724.1 539.4 L 729.8 536.3 L 735.3 533.1 L 740.7 529.9 L 746.1 526.4 L 751.4 522.9 L 760.7 516.3 L 769.3 509.4 L 777.3 502.2 L 784.7 494.7 L 791.6 486.9 L 798.0 478.7 L 804.0 470.2 L 809.5 461.4 L 814.8 452.2 L 819.8 442.6 L 824.5 432.7 L 829.0 422.4 L 829.0 422.2 L 828.9 422.2 Z"/>
	<path id="ShapeC" style="opacity:0.2;fill:#ED1C24;stroke:#000000;stroke-width:2;stroke-miterlimit:10;" d="M 699.1 695.1 L 719.4 686.3 L 737.4 675.1 L 753.1 661.8 L 766.5 646.7 L 777.5 630.1 L 786.1 612.1 L 792.4 593.0 L 796.2 573.1 L 797.7 552.6 L 796.7 531.7 L 793.3 510.8 L 787.5 490.0 L 779.5 471.2 L 770.3 453.7 L 759.9 437.4 L 748.3 422.2 L 735.7 408.2 L 722.0 395.2 L 707.3 383.4 L 691.7 372.5 L 675.2 362.7 L 657.8 353.9 L 639.7 346.0 L 620.8 339.0 L 610.2 335.4 L 600.9 331.9 L 592.5 328.4 L 585.0 324.8 L 578.2 320.9 L 572.1 316.6 L 566.4 311.7 L 561.0 306.1 L 555.9 299.7 L 550.8 292.2 L 545.6 283.5 L 540.2 273.6 L 536.3 266.9 L 532.3 260.2 L 528.2 253.5 L 524.1 246.9 L 519.9 240.3 L 515.5 233.8 L 511.0 227.5 L 506.3 221.2 L 501.5 215.1 L 496.4 209.2 L 491.1 203.4 L 485.6 197.9 L 479.8 192.7 L 473.9 187.6 L 467.8 182.7 L 461.5 177.9 L 455.1 173.4 L 448.5 169.1 L 441.8 165.0 L 435.0 161.2 L 428.0 157.6 L 420.9 154.4 L 413.7 151.4 L 406.3 148.8 L 389.1 145.6 L 373.8 146.1 L 360.2 149.8 L 348.3 156.4 L 338.0 165.4 L 329.2 176.5 L 321.9 189.2 L 315.8 203.2 L 311.1 217.9 L 307.4 233.1 L 304.9 248.3 L 303.4 263.1 L 302.9 268.8 L 302.0 274.0 L 300.8 278.8 L 299.2 283.1 L 297.3 287.1 L 294.9 290.7 L 292.0 294.0 L 288.7 296.9 L 284.9 299.5 L 280.5 301.8 L 275.7 303.9 L 270.2 305.7 L 258.2 310.1 L 246.9 314.5 L 236.5 318.9 L 227.3 323.6 L 219.4 328.7 L 213.1 334.5 L 208.7 341.1 L 206.2 348.8 L 205.9 357.6 L 208.1 367.8 L 212.9 379.5 L 220.6 393.0 L 224.8 401.2 L 227.1 408.9 L 227.6 416.0 L 226.6 422.8 L 224.5 429.3 L 221.5 435.7 L 218.0 441.9 L 214.0 448.1 L 210.1 454.5 L 206.4 461.0 L 203.2 467.8 L 200.8 475.0 L 200.2 483.9 L 201.9 491.5 L 205.4 498.0 L 210.3 503.6 L 216.4 508.5 L 223.3 513.1 L 230.5 517.5 L 237.7 521.9 L 244.5 526.6 L 250.7 531.7 L 255.7 537.6 L 259.3 544.4 L 261.0 552.4 L 261.9 560.8 L 262.3 569.5 L 262.3 578.3 L 262.2 587.2 L 262.3 596.1 L 262.7 604.8 L 263.7 613.3 L 265.5 621.5 L 268.3 629.3 L 272.5 636.5 L 278.1 643.1 L 283.7 646.7 L 289.8 649.4 L 296.5 651.2 L 303.5 652.3 L 310.7 652.7 L 318.2 652.5 L 325.7 651.9 L 333.2 651.0 L 340.6 649.9 L 347.8 648.7 L 354.6 647.4 L 361.1 646.2 L 367.5 644.8 L 373.9 643.2 L 380.3 641.4 L 386.6 639.4 L 392.9 637.5 L 399.2 635.8 L 405.5 634.2 L 411.9 632.9 L 418.3 631.9 L 424.7 631.5 L 431.2 631.7 L 437.7 632.5 L 443.9 634.5 L 449.9 636.9 L 455.7 639.7 L 461.3 642.9 L 466.8 646.3 L 472.2 649.9 L 477.6 653.7 L 483.0 657.5 L 488.3 661.3 L 493.7 665.0 L 499.1 668.5 L 504.7 671.8 L 519.3 680.3 L 534.5 687.7 L 550.2 694.1 L 566.3 699.3 L 582.6 703.3 L 599.2 706.1 L 616.0 707.6 L 632.8 707.9 L 649.5 706.8 L 666.2 704.4 L 682.6 700.6 L 698.8 695.3 L 699.0 695.3 L 699.1 695.1 Z"/>
	<path id="ShapeD" style="opacity:0.2;fill:#808285;stroke:#000000;stroke-width:2;stroke-miterlimit:10;" d="M 395.1 765.4 L 423.0 777.4 L 451.1 783.8 L 479.0 784.9 L 506.3 781.2 L 532.5 773.0 L 557.2 760.8 L 580.0 744.8 L 600.5 725.6 L 618.1 703.4 L 632.5 678.7 L 643.3 651.9 L 649.9 623.4 L 651.5 614.5 L 652.7 605.6 L 653.5 596.7 L 654.0 587.7 L 654.1 578.8 L 653.8 569.8 L 653.2 560.9 L 652.2 551.9 L 650.8 543.1 L 649.1 534.3 L 647.1 525.5 L 644.7 516.8 L 643.0 510.0 L 641.1 503.4 L 638.9 496.7 L 636.6 490.2 L 634.3 483.6 L 631.9 477.1 L 629.7 470.5 L 627.6 463.9 L 625.7 457.3 L 624.1 450.6 L 622.9 443.8 L 622.1 436.9 L 622.1 432.3 L 622.4 427.7 L 623.1 423.1 L 624.1 418.7 L 625.4 414.2 L 626.8 409.9 L 628.5 405.5 L 630.2 401.2 L 632.1 397.0 L 634.0 392.8 L 635.9 388.6 L 637.8 384.4 L 640.4 378.3 L 643.1 372.1 L 645.6 365.9 L 648.1 359.6 L 650.5 353.3 L 652.8 346.9 L 655.0 340.5 L 657.0 334.0 L 658.9 327.5 L 660.6 321.0 L 662.0 314.4 L 663.3 307.8 L 665.8 288.7 L 666.6 269.2 L 665.6 249.8 L 662.5 231.1 L 657.5 213.6 L 650.3 197.8 L 640.7 184.2 L 628.9 173.5 L 614.5 166.0 L 597.5 162.4 L 577.8 163.2 L 555.3 168.9 L 547.9 171.2 L 540.7 174.0 L 533.6 177.2 L 526.7 180.7 L 519.9 184.4 L 513.1 188.2 L 506.4 192.0 L 499.6 195.7 L 492.8 199.2 L 485.8 202.5 L 478.8 205.4 L 471.5 207.8 L 467.2 208.0 L 462.9 207.7 L 458.7 206.8 L 454.7 205.6 L 450.7 203.9 L 446.7 202.0 L 442.8 200.0 L 439.0 197.7 L 435.1 195.5 L 431.4 193.2 L 427.6 191.1 L 423.8 189.1 L 413.4 183.3 L 403.8 178.8 L 394.9 175.7 L 386.7 173.9 L 379.2 173.5 L 372.2 174.6 L 365.7 177.3 L 359.6 181.6 L 354.0 187.5 L 348.7 195.2 L 343.6 204.7 L 338.8 216.0 L 334.6 225.3 L 329.1 232.3 L 322.5 237.2 L 315.0 240.6 L 306.7 242.7 L 298.1 244.2 L 289.2 245.3 L 280.3 246.6 L 271.7 248.3 L 263.5 251.1 L 256.0 255.1 L 249.4 261.0 L 246.0 266.6 L 243.9 272.5 L 242.8 278.6 L 242.6 284.9 L 242.9 291.3 L 243.6 297.7 L 244.5 304.2 L 245.2 310.7 L 245.6 317.2 L 245.5 323.6 L 244.6 329.8 L 242.7 335.8 L 238.9 341.6 L 234.6 346.9 L 229.8 351.8 L 224.6 356.4 L 219.2 360.8 L 213.6 365.0 L 207.9 369.2 L 202.3 373.5 L 196.8 377.9 L 191.6 382.5 L 186.7 387.4 L 182.3 392.8 L 175.3 404.2 L 172.6 415.4 L 173.7 426.5 L 177.9 437.3 L 184.8 447.7 L 193.7 457.8 L 204.0 467.3 L 215.2 476.3 L 226.7 484.7 L 237.8 492.3 L 248.1 499.2 L 256.9 505.3 L 265.6 510.9 L 272.4 517.4 L 277.7 524.7 L 281.7 532.7 L 284.5 541.3 L 286.4 550.3 L 287.6 559.7 L 288.3 569.3 L 288.8 578.9 L 289.2 588.6 L 289.8 598.0 L 290.8 607.2 L 293.4 623.4 L 297.1 639.4 L 302.0 655.1 L 308.0 670.5 L 315.1 685.3 L 323.3 699.5 L 332.6 713.0 L 343.0 725.6 L 354.4 737.3 L 366.8 747.9 L 380.3 757.3 L 394.8 765.4 L 395.0 765.4 L 395.1 765.4 Z"/>
	<path id="ShapeE" style="opacity:0.2;fill:#3C2415;stroke:#000000;stroke-width:2;stroke-miterlimit:10;" d="M 149.4 579.8 L 153.7 601.2 L 161.1 620.9 L 171.5 638.8 L 184.4 654.8 L 199.4 669.0 L 216.4 681.2 L 234.8 691.3 L 254.4 699.4 L 274.9 705.3 L 295.8 709.1 L 317.0 710.5 L 337.9 709.7 L 350.4 707.9 L 362.7 705.5 L 375.0 702.6 L 387.0 699.0 L 398.9 694.8 L 410.6 690.1 L 422.0 684.8 L 433.1 678.9 L 443.9 672.5 L 454.4 665.5 L 464.5 658.0 L 474.2 649.9 L 479.4 645.1 L 484.3 640.1 L 489.1 635.0 L 493.8 629.7 L 498.3 624.3 L 502.8 618.8 L 507.0 613.2 L 511.3 607.5 L 515.4 601.8 L 519.4 596.1 L 523.4 590.3 L 527.4 584.5 L 536.1 570.8 L 544.4 559.7 L 552.6 550.9 L 560.7 544.1 L 568.9 538.8 L 577.5 534.7 L 586.6 531.4 L 596.4 528.6 L 606.9 525.9 L 618.5 523.0 L 631.2 519.4 L 645.3 514.8 L 658.3 510.2 L 671.4 504.8 L 684.4 498.7 L 697.2 491.7 L 709.6 484.0 L 721.4 475.6 L 732.6 466.3 L 743.0 456.4 L 752.5 445.7 L 760.9 434.3 L 768.0 422.2 L 773.8 409.4 L 776.0 393.6 L 774.6 379.3 L 769.9 366.4 L 762.5 354.7 L 752.7 344.3 L 741.2 334.9 L 728.3 326.5 L 714.5 319.1 L 700.3 312.4 L 686.1 306.4 L 672.4 301.1 L 659.7 296.2 L 656.0 294.4 L 652.8 292.3 L 649.9 289.9 L 647.5 287.1 L 645.4 284.1 L 643.5 280.8 L 642.0 277.3 L 640.8 273.7 L 639.8 270.0 L 639.0 266.2 L 638.4 262.3 L 637.9 258.4 L 637.4 254.9 L 636.9 251.4 L 636.4 247.9 L 635.9 244.4 L 635.3 240.9 L 634.7 237.4 L 634.1 233.9 L 633.4 230.5 L 632.6 227.0 L 631.8 223.6 L 630.9 220.2 L 629.9 216.8 L 624.4 204.2 L 617.9 195.6 L 610.5 190.4 L 602.3 188.1 L 593.5 187.8 L 584.3 189.0 L 574.7 191.1 L 565.0 193.3 L 555.2 195.1 L 545.6 195.9 L 536.2 194.8 L 527.2 191.4 L 522.8 188.6 L 518.6 185.3 L 514.6 181.8 L 510.6 178.1 L 506.7 174.4 L 502.8 170.7 L 498.8 167.1 L 494.8 163.7 L 490.5 160.7 L 486.0 158.1 L 481.3 156.1 L 476.2 154.7 L 466.0 154.7 L 457.2 157.0 L 449.4 161.2 L 442.4 166.6 L 435.9 172.8 L 429.4 179.2 L 422.8 185.4 L 415.7 190.8 L 407.7 194.9 L 398.7 197.1 L 388.1 197.0 L 375.8 194.0 L 369.6 192.7 L 363.2 191.3 L 356.7 189.9 L 350.1 188.5 L 343.4 187.2 L 336.7 186.1 L 330.0 185.4 L 323.3 185.1 L 316.8 185.3 L 310.4 186.2 L 304.2 187.7 L 298.2 190.1 L 292.5 194.4 L 287.9 199.6 L 284.2 205.4 L 281.3 211.9 L 279.1 218.8 L 277.5 226.0 L 276.4 233.4 L 275.7 241.0 L 275.3 248.6 L 275.0 256.0 L 274.8 263.1 L 274.5 269.9 L 274.5 276.3 L 274.8 282.7 L 275.3 289.2 L 275.8 295.6 L 276.3 302.1 L 276.7 308.5 L 277.0 314.8 L 276.9 321.2 L 276.4 327.5 L 275.4 333.7 L 273.8 339.8 L 271.5 345.9 L 268.6 350.9 L 265.3 355.6 L 261.6 360.0 L 257.7 364.2 L 253.5 368.2 L 249.1 372.1 L 244.7 375.8 L 240.1 379.5 L 235.6 383.2 L 231.1 387.0 L 226.8 390.8 L 222.6 394.7 L 209.6 407.7 L 197.9 421.0 L 187.3 434.7 L 178.0 448.8 L 169.9 463.4 L 163.0 478.4 L 157.5 493.8 L 153.2 509.8 L 150.3 526.4 L 148.6 543.6 L 148.3 561.3 L 149.4 579.7 L 149.4 579.9 L 149.4 579.8 Z"/>
	<path id="ShapeF" style="opacity:0.2;fill:#9E1F63;stroke:#000000;stroke-width:2;stroke-miterlimit:10;" d="M 144.4 277.5 L 128.5 295.9 L 116.6 315.6 L 108.4 336.4 L 103.9 357.9 L 102.7 379.8 L 104.8 401.8 L 109.9 423.4 L 117.9 444.4 L 128.5 464.5 L 141.7 483.3 L 157.1 500.5 L 174.7 515.8 L 190.6 527.2 L 206.5 537.1 L 222.4 545.6 L 238.4 552.6 L 254.5 558.4 L 270.9 562.9 L 287.6 566.2 L 304.6 568.3 L 322.1 569.4 L 340.1 569.5 L 358.7 568.7 L 378.0 566.9 L 388.9 565.5 L 398.8 564.7 L 407.8 564.3 L 416.0 564.5 L 423.7 565.4 L 431.1 566.8 L 438.2 569.0 L 445.4 572.0 L 452.8 575.7 L 460.5 580.3 L 468.7 585.8 L 477.7 592.2 L 483.8 596.3 L 489.9 600.3 L 496.0 604.3 L 502.2 608.2 L 508.4 612.0 L 514.7 615.7 L 521.0 619.3 L 527.4 622.8 L 533.9 626.1 L 540.5 629.3 L 547.1 632.3 L 553.9 635.1 L 561.8 637.8 L 569.8 640.3 L 578.0 642.6 L 586.2 644.6 L 594.5 646.2 L 602.8 647.6 L 611.2 648.7 L 619.6 649.4 L 628.1 649.8 L 636.5 649.8 L 644.9 649.5 L 653.3 648.7 L 672.4 643.7 L 687.3 636.0 L 698.5 625.9 L 706.2 613.9 L 711.0 600.3 L 713.2 585.3 L 713.2 569.5 L 711.4 553.1 L 708.1 536.5 L 703.9 520.0 L 699.0 504.0 L 693.8 488.9 L 692.8 484.8 L 692.5 480.9 L 692.7 477.0 L 693.4 473.3 L 694.6 469.7 L 696.2 466.3 L 698.1 462.9 L 700.3 459.7 L 702.8 456.5 L 705.4 453.5 L 708.2 450.5 L 711.0 447.7 L 713.4 445.2 L 715.8 442.7 L 718.1 440.1 L 720.5 437.5 L 722.8 434.9 L 725.1 432.3 L 727.4 429.6 L 729.6 426.9 L 731.8 424.2 L 733.9 421.5 L 736.0 418.7 L 738.0 415.9 L 744.2 404.4 L 746.9 394.5 L 746.7 385.9 L 744.0 378.4 L 739.3 371.7 L 733.2 365.7 L 726.2 360.0 L 718.8 354.5 L 711.5 348.9 L 704.7 343.0 L 699.1 336.5 L 695.1 329.2 L 694.2 326.2 L 693.5 323.2 L 693.1 320.2 L 692.9 317.1 L 692.9 314.0 L 692.9 310.9 L 693.1 307.8 L 693.4 304.7 L 693.7 301.6 L 694.0 298.5 L 694.3 295.5 L 694.6 292.4 L 695.1 287.0 L 695.3 281.7 L 695.0 276.6 L 694.3 271.7 L 693.2 267.0 L 691.5 262.6 L 689.2 258.6 L 686.4 254.9 L 682.9 251.7 L 678.8 249.0 L 674.0 246.8 L 668.4 245.2 L 663.8 244.1 L 659.1 243.4 L 654.3 242.8 L 649.4 242.3 L 644.4 241.8 L 639.5 241.2 L 634.7 240.6 L 629.9 239.6 L 625.3 238.4 L 620.8 236.7 L 616.6 234.6 L 612.6 231.9 L 610.8 230.3 L 609.1 228.7 L 607.5 226.9 L 606.0 225.0 L 604.7 223.1 L 603.4 221.1 L 602.1 219.1 L 600.9 217.0 L 599.8 214.9 L 598.7 212.7 L 597.6 210.6 L 596.5 208.5 L 593.9 203.5 L 591.3 198.4 L 588.8 193.3 L 586.2 188.2 L 583.5 183.1 L 580.7 178.1 L 577.7 173.3 L 574.5 168.6 L 571.1 164.2 L 567.3 160.0 L 563.3 156.1 L 558.9 152.5 L 551.8 149.0 L 544.5 147.2 L 536.9 147.0 L 529.1 148.1 L 521.3 150.4 L 513.5 153.6 L 505.8 157.5 L 498.3 161.9 L 491.1 166.5 L 484.2 171.3 L 477.8 175.9 L 471.9 180.1 L 466.8 184.0 L 461.8 188.2 L 456.9 192.5 L 452.1 196.9 L 447.3 201.3 L 442.4 205.6 L 437.4 209.7 L 432.3 213.5 L 427.0 217.0 L 421.4 220.1 L 415.5 222.6 L 409.3 224.6 L 405.7 225.3 L 402.0 225.7 L 398.4 225.8 L 394.7 225.8 L 391.1 225.6 L 387.4 225.3 L 383.8 224.8 L 380.1 224.3 L 376.5 223.7 L 372.9 223.0 L 369.3 222.3 L 365.7 221.7 L 362.2 221.1 L 358.7 220.4 L 355.2 219.8 L 351.7 219.2 L 348.2 218.7 L 344.6 218.1 L 341.0 217.7 L 337.4 217.2 L 333.8 216.8 L 330.2 216.4 L 326.6 216.1 L 322.9 215.8 L 306.7 215.0 L 290.4 215.2 L 274.1 216.4 L 258.0 218.7 L 242.1 222.1 L 226.5 226.6 L 211.3 232.2 L 196.6 239.0 L 182.5 246.8 L 169.0 255.9 L 156.3 266.1 L 144.5 277.5 L 144.4 277.5 L 144.4 277.5 Z"/>
	<path id="ShapeG" style="opacity:0.2;fill:#CA4B9B;stroke:#000000;stroke-width:2;stroke-miterlimit:10;" d="M 386.1 89.1 L 366.5 88.4 L 347.5 90.2 L 329.2 94.2 L 311.7 100.4 L 295.1 108.5 L 279.7 118.6 L 265.5 130.4 L 252.6 143.8 L 241.3 158.7 L 231.6 174.9 L 223.8 192.3 L 217.8 210.8 L 214.2 228.7 L 212.1 246.7 L 211.7 264.9 L 212.7 283.1 L 215.2 301.2 L 219.1 319.0 L 224.4 336.5 L 231.0 353.5 L 238.9 370.0 L 248.1 385.7 L 258.6 400.6 L 270.2 414.6 L 276.1 421.9 L 282.6 428.9 L 289.3 435.7 L 296.2 442.5 L 303.1 449.3 L 309.7 456.2 L 316.0 463.3 L 321.7 470.7 L 326.7 478.6 L 330.8 486.9 L 333.8 495.8 L 335.6 505.4 L 336.5 517.6 L 337.3 529.8 L 338.1 542.1 L 339.1 554.3 L 340.2 566.6 L 341.7 578.8 L 343.5 591.0 L 345.9 603.0 L 348.9 614.8 L 352.5 626.5 L 357.0 637.9 L 362.3 649.1 L 365.7 655.2 L 369.2 661.4 L 372.8 667.5 L 376.6 673.6 L 380.7 679.5 L 384.9 685.2 L 389.4 690.7 L 394.2 695.9 L 399.2 700.9 L 404.6 705.4 L 410.3 709.5 L 416.3 713.2 L 431.3 719.5 L 445.8 722.1 L 459.8 721.2 L 473.2 717.4 L 486.0 711.1 L 498.2 702.7 L 509.8 692.7 L 520.6 681.5 L 530.8 669.5 L 540.2 657.2 L 548.9 645.0 L 556.7 633.4 L 561.4 628.5 L 566.5 624.9 L 572.1 622.4 L 578.1 621.0 L 584.4 620.3 L 590.8 620.3 L 597.4 620.7 L 604.1 621.4 L 610.8 622.2 L 617.3 622.9 L 623.7 623.3 L 629.9 623.2 L 636.0 623.4 L 642.0 623.2 L 647.9 622.6 L 653.6 621.6 L 659.0 620.0 L 664.0 617.9 L 668.5 615.2 L 672.5 611.8 L 675.9 607.7 L 678.6 602.8 L 680.5 597.0 L 681.5 590.4 L 681.9 586.5 L 682.0 582.5 L 682.0 578.6 L 682.0 574.6 L 681.8 570.6 L 681.7 566.6 L 681.6 562.6 L 681.6 558.7 L 681.9 554.7 L 682.3 550.8 L 683.0 546.9 L 684.1 543.1 L 687.2 536.6 L 691.5 531.1 L 696.7 526.3 L 702.6 522.0 L 708.8 518.0 L 715.2 514.2 L 721.4 510.2 L 727.3 506.0 L 732.6 501.4 L 736.9 496.0 L 740.1 489.8 L 741.9 482.5 L 741.9 475.7 L 740.5 469.3 L 738.2 463.1 L 735.0 457.1 L 731.4 451.3 L 727.6 445.5 L 723.7 439.7 L 720.2 433.9 L 717.3 427.9 L 715.2 421.7 L 714.1 415.2 L 714.5 408.4 L 716.6 401.0 L 719.7 393.3 L 723.3 385.5 L 727.3 377.4 L 731.5 369.3 L 735.5 361.0 L 739.2 352.7 L 742.2 344.5 L 744.3 336.2 L 745.3 328.1 L 744.8 320.0 L 742.7 312.2 L 740.8 308.6 L 738.6 305.4 L 736.1 302.5 L 733.2 299.8 L 730.1 297.4 L 726.8 295.2 L 723.3 293.1 L 719.7 291.3 L 716.0 289.6 L 712.3 288.0 L 708.5 286.4 L 704.8 285.0 L 701.9 283.9 L 698.9 282.9 L 695.9 281.9 L 693.0 280.9 L 690.0 280.0 L 687.0 279.1 L 683.9 278.3 L 680.9 277.5 L 677.9 276.7 L 674.9 276.0 L 671.8 275.3 L 668.8 274.7 L 662.4 273.4 L 655.9 272.3 L 649.3 271.4 L 642.7 270.5 L 636.1 269.5 L 629.6 268.5 L 623.2 267.2 L 616.9 265.6 L 610.7 263.6 L 604.7 261.2 L 598.9 258.1 L 593.3 254.5 L 588.7 250.1 L 584.5 245.5 L 580.6 240.5 L 577.0 235.3 L 573.6 229.9 L 570.5 224.4 L 567.4 218.8 L 564.3 213.1 L 561.2 207.5 L 558.0 202.0 L 554.7 196.6 L 551.2 191.3 L 541.5 177.6 L 530.9 164.5 L 519.4 152.2 L 507.2 140.8 L 494.2 130.3 L 480.5 120.8 L 466.1 112.4 L 451.1 105.1 L 435.6 99.1 L 419.6 94.3 L 403.1 90.9 L 386.3 89.0 L 386.1 89.0 L 386.1 89.1 Z"/>
</g>
<g id="Texts">
	<g id="Header">
		<text id="Title" transform="matrix(1 0 0 1 343 38.6)" style="fill:#262262;font-family:Tahoma, Tahoma;font-size:18px">Venn 7-set Hamilton diagram</text>
	</g>
	<g id="Group_Names">
		<text id="NameA" transform="matrix(1 0 0 1 722.6 100.8)" style="fill:#262262;stroke:#000000;stroke-width:0.5;stroke-miterlimit:10;font-family:Tahoma, Tahoma;font-size:20px">NameA</text>
		<text id="NameB" transform="matrix(1 0 0 1 829 264.4)" style="fill:#262262;stroke:#000000;stroke-width:0.5;stroke-miterlimit:10;font-family:Tahoma, Tahoma;font-size:20px">NameB</text>
		<text id="NameC" transform="matrix(1 0 0 1 798.4 678)" style="fill:#262262;stroke:#000000;stroke-width:0.5;stroke-miterlimit:10;font-family:Tahoma, Tahoma;font-size:20px">NameC</text>
		<text id="NameD" transform="matrix(1 0 0 1 442.9 808.5)" style="fill:#262262;stroke:#000000;stroke-width:0.5;stroke-miterlimit:10;font-family:Tahoma, Tahoma;font-size:20px">NameD</text>
		<text id="NameE" transform="matrix(1 0 0 1 70.9 668.7)" style="fill:#262262;stroke:#000000;stroke-width:0.5;stroke-miterlimit:10;font-family:Tahoma, Tahoma;font-size:20px">NameE</text>
		<text id="NameF" transform="matrix(1 0 0 1 35.7 275.5)" style="fill:#262262;stroke:#000000;stroke-width:0.5;stroke-miterlimit:10;font-family:Tahoma, Tahoma;font-size:20px">NameF</text>
		<text id="NameG" transform="matrix(1 0 0 1 194.8 78.7)" style="fill:#262262;stroke:#000000;stroke-width:0.5;stroke-miterlimit:10;font-family:Tahoma, Tahoma;font-size:20px">NameG</text>
	</g>
	<g id="Group_Values">
		<text id="Count_A" transform="matrix(1 0 0 1 607.1 142.5)" style="fill:#262262;font-family:Tahoma, Tahoma;font-size:26;text-anchor:middle">A</text>
		<text id="Count_B" transform="matrix(1 0 0 1 796.1 354.6)" style="fill:#262262;font-family:Tahoma, Tahoma;font-size:26;text-anchor:middle">B</text>
		<text id="Count_C" transform="matrix(1 0 0 1 738.8 622.6)" style="fill:#262262;font-family:Tahoma, Tahoma;font-size:26;text-anchor:middle">C</text>
		<text id="Count_D" transform="matrix(1 0 0 1 480.8 753.3)" style="fill:#262262;font-family:Tahoma, Tahoma;font-size:26;text-anchor:middle">D</text>
		<text id="Count_E" transform="matrix(1 0 0 1 213.9 645)" style="fill:#262262;font-family:Tahoma, Tahoma;font-size:26;text-anchor:middle">E</text>
		<text id="Count_F" transform="matrix(1 0 0 1 137.4 364)" style="fill:#262262;font-family:Tahoma, Tahoma;font-size:26;text-anchor:middle">F</text>
		<text id="Count_G" transform="matrix(1 0 0 1 326.3 143)" style="fill:#262262;font-family:Tahoma, Tahoma;font-size:26;text-anchor:middle">G</text>
		<text id="Count_AB" transform="matrix(1 0 0 1 700.3 251.7)" style="fill:#262262;font-family:Tahoma, Tahoma;font-size:8px;text-anchor:middle;">AB</text>
		<text id="Count_AC" transform="matrix(1 0 0 1 725.4 558)" style="fill:#262262;font-family:Tahoma, Tahoma;font-size:7px;text-anchor:middle;">AC</text>
		<text id="Count_AD" transform="matrix(1 0 0 1 616.9 188.7)" style="fill:#262262;font-family:Tahoma, Tahoma;font-size:8px;text-anchor:middle;">AD</text>
		<text id="Count_AE" transform="matrix(1 0 0 1 231.8 584.7)" style="fill:#262262;font-family:Tahoma, Tahoma;font-size:8px;text-anchor:middle;">AE</text>
		<text id="Count_AF" transform="matrix(1 0 0 1 544.5 161.6)" style="fill:#262262;font-family:Tahoma, Tahoma;font-size:7px;text-anchor:middle;">AF</text>
		<text id="Count_AG" transform="matrix(1 0 0 1 466.3 144.7)" style="fill:#262262;font-family:Tahoma, Tahoma;font-size:8px;text-anchor:middle;">AG</text>
		<text id="Count_BC" transform="matrix(1 0 0 1 757.4 488.3)" style="fill:#262262;font-family:Tahoma, Tahoma;font-size:8px;text-anchor:middle;">BC</text>
		<text id="Count_BD" transform="matrix(1 0 0 1 522.2 699.4)" style="fill:#262262;font-family:Tahoma, Tahoma;font-size:6px;text-anchor:middle;">BD</text>
		<text id="Count_BE" transform="matrix(1 0 0 1 756.5 389.3)" style="fill:#262262;font-family:Tahoma, Tahoma;font-size:8px;text-anchor:middle;">BE</text>
		<text id="Count_BF" transform="matrix(1 0 0 1 194.6 344.7)" style="fill:#262262;font-family:Tahoma, Tahoma;font-size:8px;text-anchor:middle;">BF</text>
		<text id="Count_BG" transform="matrix(1 0 0 1 734 318.9)" style="fill:#262262;font-family:Tahoma, Tahoma;font-size:6px;text-anchor:middle;">BG</text>
		<text id="Count_CD" transform="matrix(1 0 0 1 600.4 683.8)" style="fill:#262262;font-family:Tahoma, Tahoma;font-size:8px;text-anchor:middle;">CD</text>
		<text id="Count_CE" transform="matrix(1 0 0 1 284.3 637.1)" style="fill:#262262;font-family:Tahoma, Tahoma;font-size:6px;text-anchor:middle;">CE</text>
		<text id="Count_CF" transform="matrix(1 0 0 1 680.9 620.9)" style="fill:#262262;font-family:Tahoma, Tahoma;font-size:8px;text-anchor:middle;">CF</text>
		<text id="Count_CG" transform="matrix(1 0 0 1 368.8 167.9)" style="fill:#262262;font-family:Tahoma, Tahoma;font-size:8px;text-anchor:middle;">CG</text>
		<text id="Count_DE" transform="matrix(1 0 0 1 343.8 685.7)" style="fill:#262262;font-family:Tahoma, Tahoma;font-size:8px;text-anchor:middle;">DE</text>
		<text id="Count_DF" transform="matrix(1 0 0 1 184.1 419.8)" style="fill:#262262;font-family:Tahoma, Tahoma;font-size:6px;text-anchor:middle;">DF</text>
		<text id="Count_DG" transform="matrix(1 0 0 1 444.3 707.2)" style="fill:#262262;font-family:Tahoma, Tahoma;font-size:8px;text-anchor:middle;">DG</text>
		<text id="Count_EF" transform="matrix(1 0 0 1 185.9 495)" style="fill:#262262;font-family:Tahoma, Tahoma;font-size:8px;text-anchor:middle;">EF</text>
		<text id="Count_EG" transform="matrix(1 0 0 1 302.5 204.1)" style="fill:#262262;font-family:Tahoma, Tahoma;font-size:7px;text-anchor:middle;">EG</text>
		<text id="Count_FG" transform="matrix(1 0 0 1 239.9 252.3)" style="fill:#262262;font-family:Tahoma, Tahoma;font-size:8px;text-anchor:middle;">FG</text>
		<text id="Count_ABC" transform="matrix(1 0 0 1 721.3 528.2)" style="fill:#262262;font-family:Tahoma, Tahoma;font-size:7px;text-anchor:middle;">ABC</text>
		<text id="Count_ABD" transform="matrix(1 0 0 1 647.3 230.8)" style="fill:#262262;font-family:Tahoma, Tahoma;font-size:7px;text-anchor:middle;">ABD</text>
		<text id="Count_ABE" transform="matrix(1 0 0 1 247.9 572.4)" style="fill:#262262;font-family:Tahoma, Tahoma;font-size:7px;text-anchor:middle;">ABE</text>
		<text id="Count_ABF" transform="matrix(1 0 0 1 678.9 266)" style="fill:#262262;font-family:Tahoma, Tahoma;font-size:6px;text-anchor:middle;">ABF</text>
		<text id="Count_ABG" transform="matrix(1 0 0 1 709.6 304.1)" style="fill:#262262;font-family:Tahoma, Tahoma;font-size:7px;text-anchor:middle;">ABG</text>
		<text id="Count_ACD" transform="matrix(1 0 0 1 588.9 661.4)" style="fill:#262262;font-family:Tahoma, Tahoma;font-size:7px;text-anchor:middle;">ACD</text>
		<text id="Count_ACE" transform="matrix(1 0 0 1 277.1 610.7)" style="fill:#262262;font-family:Tahoma, Tahoma;font-size:7px;text-anchor:middle;">ACE</text>
		<text id="Count_ACF" transform="matrix(1 0 0 1 697.3 572)" style="fill:#262262;font-family:Tahoma, Tahoma;font-size:7px;text-anchor:middle;">ACF</text>
		<text id="Count_ACG" transform="matrix(1 0 0 1 418.7 172)" style="fill:#262262;font-family:Tahoma, Tahoma;font-size:7px;text-anchor:middle;">ACG</text>
		<text id="Count_ADE" transform="matrix(1 0 0 1 607.1 204.2)" style="fill:#262262;font-family:Tahoma, Tahoma;font-size:6px;text-anchor:middle;">ADE</text>
		<text id="Count_ADF" transform="matrix(1 0 0 1 563.2 182.8)" style="fill:#262262;font-family:Tahoma, Tahoma;font-size:7px;text-anchor:middle;">ADF</text>
		<text id="Count_ADG" transform="matrix(1 0 0 1 448.5 687.3)" style="fill:#262262;font-family:Tahoma, Tahoma;font-size:6px;text-anchor:middle;">ADG</text>
		<text id="Count_AEF" transform="matrix(1 0 0 1 221.9 531)" style="fill:#262262;font-family:Tahoma, Tahoma;font-size:6px;text-anchor:middle;">AEF</text>
		<text id="Count_AEG" transform="matrix(1 0 0 1 469.1 168.8)" style="fill:#262262;font-family:Tahoma, Tahoma;font-size:7px;text-anchor:middle;">AEG</text>
		<text id="Count_AFG" transform="matrix(1 0 0 1 517.6 170.3)" style="fill:#262262;font-family:Tahoma, Tahoma;font-size:6px;text-anchor:middle;">AFG</text>
		<text id="Count_BCD" transform="matrix(1 0 0 1 542.9 678.9)" style="fill:#262262;font-family:Tahoma, Tahoma;font-size:6px;text-anchor:middle;">BCD</text>
		<text id="Count_BCE" transform="matrix(1 0 0 1 740.3 439.6)" style="fill:#262262;font-family:Tahoma, Tahoma;font-size:7px;text-anchor:middle;">BCE</text>
		<text id="Count_BCF" transform="matrix(1 0 0 1 216.7 350.5)" style="fill:#262262;font-family:Tahoma, Tahoma;font-size:6px;text-anchor:middle;">BCF</text>
		<text id="Count_BCG" transform="matrix(1 0 0 1 731.8 484.4)" style="fill:#262262;font-family:Tahoma, Tahoma;font-size:6px;text-anchor:middle;">BCG</text>
		<text id="Count_BDE" transform="matrix(1 0 0 1 353.5 662)" style="fill:#262262;font-family:Tahoma, Tahoma;font-size:6px;text-anchor:middle;">BDE</text>
		<text id="Count_BDF" transform="matrix(1 0 0 1 202.5 395.8)" style="fill:#262262;font-family:Tahoma, Tahoma;font-size:7px;text-anchor:middle;">BDF</text>
		<text id="Count_BDG" transform="matrix(1 0 0 1 497.5 689.2)" style="fill:#262262;font-family:Tahoma, Tahoma;font-size:7px;text-anchor:middle;">BDG</text>
		<text id="Count_BEF" transform="matrix(1 0 0 1 735.2 391.6)" style="fill:#262262;font-family:Tahoma, Tahoma;font-size:6px;text-anchor:middle;">BEF</text>
		<text id="Count_BEG" transform="matrix(1 0 0 1 728.6 346)" style="fill:#262262;font-family:Tahoma, Tahoma;font-size:6px;text-anchor:middle;">BEG</text>
		<text id="Count_BFG" transform="matrix(1 0 0 1 230.4 306.8)" style="fill:#262262;font-family:Tahoma, Tahoma;font-size:7px;text-anchor:middle;">BFG</text>
		<text id="Count_CDE" transform="matrix(1 0 0 1 311.2 640.7)" style="fill:#262262;font-family:Tahoma, Tahoma;font-size:6px;text-anchor:middle;">CDE</text>
		<text id="Count_CDF" transform="matrix(1 0 0 1 633.3 638.8)" style="fill:#262262;font-family:Tahoma, Tahoma;font-size:6px;text-anchor:middle;">CDF</text>
		<text id="Count_CDG" transform="matrix(1 0 0 1 374.7 185.8)" style="fill:#262262;font-family:Tahoma, Tahoma;font-size:6px;text-anchor:middle;">CDG</text>
		<text id="Count_CEF" transform="matrix(1 0 0 1 210.9 488.7)" style="fill:#262262;font-family:Tahoma, Tahoma;font-size:6px;text-anchor:middle;">CEF</text>
		<text id="Count_CEG" transform="matrix(1 0 0 1 331.3 203.4)" style="fill:#262262;font-family:Tahoma, Tahoma;font-size:7px;text-anchor:middle;">CEG</text>
		<text id="Count_CFG" transform="matrix(1 0 0 1 664.6 607.7)" style="fill:#262262;font-family:Tahoma, Tahoma;font-size:6px;text-anchor:middle;">CFG</text>
		<text id="Count_DEF" transform="matrix(1 0 0 1 200.4 444.8)" style="fill:#262262;font-family:Tahoma, Tahoma;font-size:7px;text-anchor:middle;">DEF</text>
		<text id="Count_DEG" transform="matrix(1 0 0 1 400 680.8)" style="fill:#262262;font-family:Tahoma, Tahoma;font-size:7px;text-anchor:middle;">DEG</text>
		<text id="Count_DFG" transform="matrix(1 0 0 1 260.6 268)" style="fill:#262262;font-family:Tahoma, Tahoma;font-size:6px;text-anchor:middle;">DFG</text>
		<text id="Count_EFG" transform="matrix(1 0 0 1 292.5 232.5)" style="fill:#262262;font-family:Tahoma, Tahoma;font-size:7px;text-anchor:middle;">EFG</text>
		<text id="Count_ABCD" transform="matrix(1 0 0 1 558.9 655.5)" style="fill:#262262;font-family:Tahoma, Tahoma;font-size:7px;text-anchor:middle;">ABCD</text>
		<text id="Count_ABCE" transform="matrix(1 0 0 1 275.6 580.8)" style="fill:#262262;font-family:Tahoma, Tahoma;font-size:6px;text-anchor:middle;">ABCE</text>
		<text id="Count_ABCF" transform="matrix(1 0 0 1 696.3 542.7)" style="fill:#262262;font-family:Tahoma, Tahoma;font-size:6px;text-anchor:middle;">ABCF</text>
		<text id="Count_ABCG" transform="matrix(1 0 0 1 712.1 501.9)" style="fill:#262262;font-family:Tahoma, Tahoma;font-size:7px;text-anchor:middle;">ABCG</text>
		<text id="Count_ABDE" transform="matrix(1 0 0 1 620.2 227.5)" style="fill:#262262;font-family:Tahoma, Tahoma;font-size:6px;text-anchor:middle;">ABDE</text>
		<text id="Count_ABDF" transform="matrix(1 0 0 1 651.8 259.4)" style="fill:#262262;font-family:Tahoma, Tahoma;font-size:7px;text-anchor:middle;">ABDF</text>
		<text id="Count_ABDG" transform="matrix(1 0 0 1 473.6 673)" style="fill:#262262;font-family:Tahoma, Tahoma;font-size:7px;text-anchor:middle;">ABDG</text>
		<text id="Count_ABEF" transform="matrix(1 0 0 1 246 545)" style="fill:#262262;font-family:Tahoma, Tahoma;font-size:6px;text-anchor:middle;">ABEF</text>
		<text id="Count_ABEG" transform="matrix(1 0 0 1 706.6 330.4)" style="fill:#262262;font-family:Tahoma, Tahoma;font-size:6px;text-anchor:middle;">ABEG</text>
		<text id="Count_ABFG" transform="matrix(1 0 0 1 680.4 292.9)" style="fill:#262262;font-family:Tahoma, Tahoma;font-size:6px;text-anchor:middle;">ABFG</text>
		<text id="Count_ACDE" transform="matrix(1 0 0 1 302.5 615.4)" style="fill:#262262;font-family:Tahoma, Tahoma;font-size:6px;text-anchor:middle;">ACDE</text>
		<text id="Count_ACDF" transform="matrix(1 0 0 1 602.2 636.7)" style="fill:#262262;font-family:Tahoma, Tahoma;font-size:7px;text-anchor:middle;">ACDF</text>
		<text id="Count_ACDG" transform="matrix(1 0 0 1 399.7 190.1)" style="fill:#262262;font-family:Tahoma, Tahoma;font-size:6px;text-anchor:middle;">ACDG</text>
		<text id="Count_ACEF" transform="matrix(1 0 0 1 230.3 504.7)" style="fill:#262262;font-family:Tahoma, Tahoma;font-size:6px;text-anchor:middle;">ACEF</text>
		<text id="Count_ACEG" transform="matrix(1 0 0 1 444.6 186.6)" style="fill:#262262;font-family:Tahoma, Tahoma;font-size:7px;text-anchor:middle;">ACEG</text>
		<text id="Count_ACFG" transform="matrix(1 0 0 1 667.9 580.1)" style="fill:#262262;font-family:Tahoma, Tahoma;font-size:7px;text-anchor:middle;">ACFG</text>
		<text id="Count_ADEF" transform="matrix(1 0 0 1 577.5 207.9)" style="fill:#262262;font-family:Tahoma, Tahoma;font-size:7px;text-anchor:middle;">ADEF</text>
		<text id="Count_ADEG" transform="matrix(1 0 0 1 426.8 671.6)" style="fill:#262262;font-family:Tahoma, Tahoma;font-size:6px;text-anchor:middle;">ADEG</text>
		<text id="Count_ADFG" transform="matrix(1 0 0 1 536.7 188.8)" style="fill:#262262;font-family:Tahoma, Tahoma;font-size:6px;text-anchor:middle;">ADFG</text>
		<text id="Count_AEFG" transform="matrix(1 0 0 1 493 185.4)" style="fill:#262262;font-family:Tahoma, Tahoma;font-size:7px;text-anchor:middle;">AEFG</text>
		<text id="Count_BCDE" transform="matrix(1 0 0 1 340.2 638.9)" style="fill:#262262;font-family:Tahoma, Tahoma;font-size:7px;text-anchor:middle;">BCDE</text>
		<text id="Count_BCDF" transform="matrix(1 0 0 1 225.6 375.6)" style="fill:#262262;font-family:Tahoma, Tahoma;font-size:6px;text-anchor:middle;">BCDF</text>
		<text id="Count_BCDG" transform="matrix(1 0 0 1 519.1 670.9)" style="fill:#262262;font-family:Tahoma, Tahoma;font-size:6px;text-anchor:middle;">BCDG</text>
		<text id="Count_BCEF" transform="matrix(1 0 0 1 724.6 416.6)" style="fill:#262262;font-family:Tahoma, Tahoma;font-size:6px;text-anchor:middle;">BCEF</text>
		<text id="Count_BCEG" transform="matrix(1 0 0 1 720.7 459.8)" style="fill:#262262;font-family:Tahoma, Tahoma;font-size:6px;text-anchor:middle;">BCEG</text>
		<text id="Count_BCFG" transform="matrix(1 0 0 1 234.4 333.8)" style="fill:#262262;font-family:Tahoma, Tahoma;font-size:6px;text-anchor:middle;">BCFG</text>
		<text id="Count_BDEF" transform="matrix(1 0 0 1 216.5 419.9)" style="fill:#262262;font-family:Tahoma, Tahoma;font-size:6px;text-anchor:middle;">BDEF</text>
		<text id="Count_BDEG" transform="matrix(1 0 0 1 383.7 656.9)" style="fill:#262262;font-family:Tahoma, Tahoma;font-size:7px;text-anchor:middle;">BDEG</text>
		<text id="Count_BDFG" transform="matrix(1 0 0 1 259.3 296.3)" style="fill:#262262;font-family:Tahoma, Tahoma;font-size:7px;text-anchor:middle;">BDFG</text>
		<text id="Count_BEFG" transform="matrix(1 0 0 1 716.8 373.8)" style="fill:#262262;font-family:Tahoma, Tahoma;font-size:6px;text-anchor:middle;">BEFG</text>
		<text id="Count_CDEF" transform="matrix(1 0 0 1 221.1 464.5)" style="fill:#262262;font-family:Tahoma, Tahoma;font-size:6px;text-anchor:middle;">CDEF</text>
		<text id="Count_CDEG" transform="matrix(1 0 0 1 359.4 208.1)" style="fill:#262262;font-family:Tahoma, Tahoma;font-size:7px;text-anchor:middle;">CDEG</text>
		<text id="Count_CDFG" transform="matrix(1 0 0 1 641.4 614.8)" style="fill:#262262;font-family:Tahoma, Tahoma;font-size:6px;text-anchor:middle;">CDFG</text>
		<text id="Count_CEFG" transform="matrix(1 0 0 1 320.1 229.2)" style="fill:#262262;font-family:Tahoma, Tahoma;font-size:6px;text-anchor:middle;">CEFG</text>
		<text id="Count_DEFG" transform="matrix(1 0 0 1 289.5 261.3)" style="fill:#262262;font-family:Tahoma, Tahoma;font-size:7px;text-anchor:middle;">DEFG</text>
		<text id="Count_ABCDE" transform="matrix(1 0 0 1 320.4 595.5)" style="fill:#262262;font-family:Tahoma, Tahoma;font-size:6px;text-anchor:middle;">ABCDE</text>
		<text id="Count_ABCDF" transform="matrix(1 0 0 1 573.4 633.2)" style="fill:#262262;font-family:Tahoma, Tahoma;font-size:6px;text-anchor:middle;">ABCDF</text>
		<text id="Count_ABCDG" transform="matrix(1 0 0 1 514.1 644.7)" style="fill:#262262;font-family:Tahoma, Tahoma;font-size:6px;text-anchor:middle;">ABCDG</text>
		<text id="Count_ABCEF" transform="matrix(1 0 0 1 264.6 535.1)" style="fill:#262262;font-family:Tahoma, Tahoma;font-size:6px;text-anchor:middle;">ABCEF</text>
		<text id="Count_ABCEG" transform="matrix(1 0 0 1 703.2 477.1)" style="fill:#262262;font-family:Tahoma, Tahoma;font-size:6px;text-anchor:middle;">ABCEG</text>
		<text id="Count_ABCFG" transform="matrix(1 0 0 1 672.8 530.5)" style="fill:#262262;font-family:Tahoma, Tahoma;font-size:6px;text-anchor:middle;">ABCFG</text>
		<text id="Count_ABDEF" transform="matrix(1 0 0 1 606.5 245.2)" style="fill:#262262;font-family:Tahoma, Tahoma;font-size:6px;text-anchor:middle;">ABDEF</text>
		<text id="Count_ABDEG" transform="matrix(1 0 0 1 432.2 650.5)" style="fill:#262262;font-family:Tahoma, Tahoma;font-size:6px;text-anchor:middle;">ABDEG</text>
		<text id="Count_ABDFG" transform="matrix(1 0 0 1 655.2 284.3)" style="fill:#262262;font-family:Tahoma, Tahoma;font-size:6px;text-anchor:middle;">ABDFG</text>
		<text id="Count_ABEFG" transform="matrix(1 0 0 1 681.4 341.4)" style="fill:#262262;font-family:Tahoma, Tahoma;font-size:6px;text-anchor:middle;">ABEFG</text>
		<text id="Count_ACDEF" transform="matrix(1 0 0 1 238.6 481.9)" style="fill:#262262;font-family:Tahoma, Tahoma;font-size:6px;text-anchor:middle;">ACDEF</text>
		<text id="Count_ACDEG" transform="matrix(1 0 0 1 405.5 210.7)" style="fill:#262262;font-family:Tahoma, Tahoma;font-size:6px;text-anchor:middle;">ACDEG</text>
		<text id="Count_ACDFG" transform="matrix(1 0 0 1 624.8 598)" style="fill:#262262;font-family:Tahoma, Tahoma;font-size:6px;text-anchor:middle;">ACDFG</text>
		<text id="Count_ACEFG" transform="matrix(1 0 0 1 467.8 200)" style="fill:#262262;font-family:Tahoma, Tahoma;font-size:6px;text-anchor:middle;">ACEFG</text>
		<text id="Count_ADEFG" transform="matrix(1 0 0 1 529.4 214.5)" style="fill:#262262;font-family:Tahoma, Tahoma;font-size:6px;text-anchor:middle;">ADEFG</text>
		<text id="Count_BCDEF" transform="matrix(1 0 0 1 243 420.8)" style="fill:#262262;font-family:Tahoma, Tahoma;font-size:6px;text-anchor:middle;">BCDEF</text>
		<text id="Count_BCDEG" transform="matrix(1 0 0 1 369.3 635.3)" style="fill:#262262;font-family:Tahoma, Tahoma;font-size:6px;text-anchor:middle;">BCDEG</text>
		<text id="Count_BCDFG" transform="matrix(1 0 0 1 255.8 341.1)" style="fill:#262262;font-family:Tahoma, Tahoma;font-size:6px;text-anchor:middle;">BCDFG</text>
		<text id="Count_BCEFG" transform="matrix(1 0 0 1 704.4 418.5)" style="fill:#262262;font-family:Tahoma, Tahoma;font-size:6px;text-anchor:middle;">BCEFG</text>
		<text id="Count_BDEFG" transform="matrix(1 0 0 1 286.4 286.9)" style="fill:#262262;font-family:Tahoma, Tahoma;font-size:6px;text-anchor:middle;">BDEFG</text>
		<text id="Count_CDEFG" transform="matrix(1 0 0 1 335.5 250.3)" style="fill:#262262;font-family:Tahoma, Tahoma;font-size:6px;text-anchor:middle;">CDEFG</text>
		<text id="Count_ABCDEF" transform="matrix(1 0 0 1 293.8 499.9)" style="fill:#262262;font-family:Tahoma, Tahoma;font-size:16;text-anchor:middle">ABCDEF</text>
		<text id="Count_ABCDEG" transform="matrix(1 0 0 1 419.6 604.6)" style="fill:#262262;font-family:Tahoma, Tahoma;font-size:16;text-anchor:middle">ABCDEG</text>
		<text id="Count_ABCDFG" transform="matrix(1 0 0 1 580.2 573.8)" style="fill:#262262;font-family:Tahoma, Tahoma;font-size:16;text-anchor:middle">ABCDFG</text>
		<text id="Count_ABCEFG" transform="matrix(1 0 0 1 661.8 436.4)" style="fill:#262262;font-family:Tahoma, Tahoma;font-size:16;text-anchor:middle">ABCEFG</text>
		<text id="Count_ABDEFG" transform="matrix(1 0 0 1 596.2 289.6)" style="fill:#262262;font-family:Tahoma, Tahoma;font-size:16;text-anchor:middle">ABDEFG</text>
		<text id="Count_ACDEFG" transform="matrix(1 0 0 1 434.1 258.6)" style="fill:#262262;font-family:Tahoma, Tahoma;font-size:16;text-anchor:middle">ACDEFG</text>
		<text id="Count_BCDEFG" transform="matrix(1 0 0 1 307 338.8)" style="fill:#262262;font-family:Tahoma, Tahoma;font-size:16;text-anchor:middle">BCDEFG</text>
		<text id="Count_ABCDEFG" transform="matrix(1 0 0 1 470.2 430.1)" style="fill:#FFFFFF;font-family:Tahoma, Tahoma;font-size:30;text-anchor:middle">ABCDEFG</text>
	</g>
	<g id="Group_CountSums">
		<text id="CountSUM_A" transform="matrix(1 0 0 1 757.3 121)" style="fill:#262262;font-family:Tahoma, Tahoma;font-size:16;text-anchor:middle;">CountSUM_A</text>
		<text id="CountSUM_B" transform="matrix(1 0 0 1 860.3 283.3)" style="fill:#262262;font-family:Tahoma, Tahoma;font-size:16;text-anchor:middle;">CountSUM_B</text>
		<text id="CountSUM_C" transform="matrix(1 0 0 1 830.7 698)" style="fill:#262262;font-family:Tahoma, Tahoma;font-size:16;text-anchor:middle;">CountSUM_C</text>
		<text id="CountSUM_D" transform="matrix(1 0 0 1 478.4 826.3)" style="fill:#262262;font-family:Tahoma, Tahoma;font-size:16;text-anchor:middle;">CountSUM_D</text>
		<text id="CountSUM_E" transform="matrix(1 0 0 1 105.4 689.6)" style="fill:#262262;font-family:Tahoma, Tahoma;font-size:16;text-anchor:middle;">CountSUM_E</text>
		<text id="CountSUM_F" transform="matrix(1 0 0 1 66.5 295.4)" style="fill:#262262;font-family:Tahoma, Tahoma;font-size:16;text-anchor:middle;">CountSUM_F</text>
		<text id="CountSUM_G" transform="matrix(1 0 0 1 226 98.3)" style="fill:#262262;font-family:Tahoma, Tahoma;font-size:16;text-anchor:middle;">CountSUM_G</text>
	</g>
</g>
<g id="Group_Bullets" style="display:none;">
	<circle id="BulletA" style="opacity:0.2;fill:#FFF200;stroke:#010101;stroke-width:2;" cx="59.2" cy="25" r="6.9"/>
	<circle id="BulletB" style="opacity:0.2;fill:#2E3192;stroke:#010101;stroke-width:2;" cx="59.2" cy="43.7" r="6.9"/>
	<circle id="BulletC" style="opacity:0.2;fill:#ED1C24;stroke:#010101;stroke-width:2;" cx="59.2" cy="62.4" r="6.9"/>
	<circle id="BulletD" style="opacity:0.2;fill:#808285;stroke:#010101;stroke-width:2;" cx="59.2" cy="81.1" r="6.9"/>
	<circle id="BulletE" style="opacity:0.2;fill:#3C2415;stroke:#010101;stroke-width:2;" cx="59.2" cy="99.8" r="6.9"/>
	<circle id="BulletF" style="opacity:0.2;fill:#9E1F63;stroke:#010101;stroke-width:2;" cx="59.2" cy="118.5" r="6.9"/>
	<circle id="BulletG" style="opacity:0.2;fill:#CA4B9B;stroke:#010101;stroke-width:2;" cx="59.2" cy="137.2" r="6.9"/>
</g>
</svg>
