<?xml version="1.0" encoding="utf-8"?>
<!-- Created by Zoltan Dul in 2026 - free to use with MIT license. Part of React Venn Diagram Analyzer - https://github.com/ZoliQua/React-Venn-Diagram-Analyser - SVG Version: 3.0.0 -->
<svg xmlns="http://www.w3.org/2000/svg"
	 xmlns:xlink="http://www.w3.org/1999/xlink"
	 version="1.1"
	 x="0px"
	 y="0px"
	 style="enable-background:new 0 0 930 850;"
	 xml:space="preserve" viewBox="0 0 930 850">
<g id="Shapes">
	<path id="ShapeA" style="opacity:0.2;fill:#FFF200;stroke:#000000;stroke-width:2;stroke-miterlimit:10;" d="M 695.2 146.2 L 687.0 133.2 L 677.3 121.5 L 666.3 111.2 L 654.2 102.2 L 641.2 94.6 L 627.4 88.5 L 612.9 83.9 L 598.1 80.8 L 582.9 79.2 L 567.7 79.3 L 552.6 80.9 L 537.7 84.3 L 527.4 87.1 L 517.6 90.4 L 508.0 94.0 L 498.8 98.1 L 490.0 102.6 L 481.4 107.6 L 473.1 113.0 L 465.0 118.8 L 457.2 125.2 L 449.7 132.0 L 442.3 139.3 L 435.1 147.1 L 432.9 149.3 L 430.6 151.5 L 428.4 153.6 L 426.0 155.7 L 423.6 157.6 L 421.1 159.3 L 418.6 160.9 L 415.9 162.3 L 413.2 163.4 L 410.3 164.3 L 407.3 164.8 L 404.2 165.0 L 401.2 164.9 L 398.3 164.6 L 395.3 164.1 L 392.3 163.5 L 389.4 162.8 L 386.4 162.1 L 383.4 161.5 L 380.4 160.9 L 377.4 160.5 L 374.4 160.3 L 371.4 160.4 L 368.4 160.8 L 361.7 163.2 L 356.2 167.0 L 351.5 171.9 L 347.6 177.8 L 344.4 184.5 L 341.8 191.6 L 339.5 199.2 L 337.5 206.9 L 335.7 214.5 L 333.9 221.8 L 331.9 228.6 L 329.7 234.8 L 327.4 239.8 L 324.5 243.8 L 320.9 246.8 L 316.8 249.1 L 312.3 250.7 L 307.5 251.7 L 302.5 252.3 L 297.3 252.6 L 292.1 252.7 L 286.9 252.7 L 281.9 252.7 L 277.1 252.8 L 271.2 253.2 L 264.9 253.6 L 258.3 254.1 L 251.6 254.7 L 244.8 255.5 L 238.0 256.5 L 231.3 257.9 L 224.8 259.5 L 218.6 261.6 L 212.8 264.1 L 207.4 267.0 L 202.7 270.5 L 198.1 276.7 L 195.5 283.5 L 194.7 290.7 L 195.4 298.3 L 197.2 306.2 L 199.9 314.2 L 203.2 322.3 L 206.8 330.3 L 210.5 338.1 L 213.9 345.7 L 216.8 352.8 L 218.9 359.4 L 219.7 363.6 L 219.7 367.4 L 219.1 371.1 L 217.8 374.5 L 216.0 377.7 L 213.9 380.8 L 211.6 383.9 L 209.1 386.9 L 206.5 389.8 L 204.1 392.9 L 201.9 396.0 L 200.0 399.2 L 198.5 404.0 L 198.1 408.6 L 198.8 413.0 L 200.4 417.2 L 202.7 421.1 L 205.7 424.9 L 209.0 428.4 L 212.7 431.8 L 216.6 435.0 L 220.4 438.1 L 224.1 441.0 L 227.6 443.7 L 232.9 447.6 L 238.3 451.4 L 243.7 455.1 L 249.1 458.7 L 254.6 462.3 L 260.1 465.9 L 265.7 469.4 L 271.3 472.8 L 276.9 476.2 L 282.6 479.6 L 288.3 482.9 L 294.0 486.2 L 299.2 489.1 L 304.4 492.1 L 309.4 495.4 L 314.2 498.8 L 318.9 502.5 L 323.2 506.4 L 327.2 510.6 L 330.9 515.1 L 334.1 519.9 L 336.8 525.1 L 339.0 530.7 L 340.7 536.7 L 342.3 543.7 L 343.7 550.6 L 345.1 557.6 L 346.4 564.5 L 347.7 571.5 L 349.0 578.5 L 350.4 585.5 L 351.7 592.4 L 353.2 599.4 L 354.8 606.3 L 356.5 613.3 L 358.4 620.2 L 360.6 628.5 L 363.1 636.7 L 365.9 644.9 L 368.9 653.0 L 372.2 661.0 L 375.7 668.8 L 379.5 676.5 L 383.7 684.1 L 388.1 691.5 L 392.8 698.6 L 397.8 705.6 L 403.2 712.4 L 417.1 726.5 L 431.5 737.9 L 446.3 746.6 L 461.4 752.6 L 476.6 755.8 L 491.8 756.3 L 506.9 754.1 L 521.6 749.1 L 535.9 741.4 L 549.6 731.0 L 562.5 717.9 L 574.6 702.0 L 577.1 698.1 L 579.4 694.2 L 581.6 690.2 L 583.7 686.1 L 585.6 682.0 L 587.5 677.8 L 589.3 673.6 L 591.1 669.3 L 592.7 665.0 L 594.4 660.8 L 596.0 656.5 L 597.6 652.2 L 598.8 649.2 L 600.0 646.2 L 601.2 643.1 L 602.4 640.1 L 603.7 637.1 L 605.0 634.1 L 606.5 631.2 L 608.0 628.3 L 609.6 625.5 L 611.4 622.8 L 613.3 620.2 L 615.3 617.7 L 619.5 613.6 L 624.0 610.2 L 628.8 607.4 L 633.9 605.2 L 639.2 603.5 L 644.7 602.1 L 650.3 601.1 L 656.0 600.2 L 661.7 599.5 L 667.5 598.9 L 673.2 598.2 L 678.8 597.4 L 687.9 596.0 L 696.6 593.8 L 704.8 590.9 L 712.3 587.3 L 719.0 582.9 L 724.8 577.8 L 729.6 571.9 L 733.2 565.3 L 735.5 557.8 L 736.4 549.6 L 735.7 540.5 L 733.3 530.7 L 731.0 524.2 L 728.3 517.8 L 725.3 511.5 L 722.2 505.3 L 718.8 499.2 L 715.3 493.2 L 711.6 487.3 L 707.9 481.4 L 704.2 475.5 L 700.5 469.6 L 696.8 463.7 L 693.2 457.8 L 691.2 454.6 L 689.1 451.3 L 687.1 448.1 L 685.1 444.8 L 683.2 441.5 L 681.3 438.2 L 679.5 434.8 L 677.9 431.4 L 676.3 427.9 L 675.0 424.3 L 673.8 420.7 L 672.9 417.0 L 672.0 410.6 L 671.8 404.2 L 672.4 397.9 L 673.5 391.7 L 675.2 385.6 L 677.3 379.5 L 679.6 373.5 L 682.2 367.5 L 684.9 361.6 L 687.6 355.7 L 690.2 349.8 L 692.6 344.0 L 700.1 327.1 L 706.5 310.4 L 711.7 294.0 L 715.8 277.6 L 718.5 261.4 L 719.9 245.3 L 719.9 229.1 L 718.3 212.9 L 715.1 196.5 L 710.3 180.1 L 703.8 163.4 L 695.4 146.5 L 695.4 146.5 L 695.2 146.2 Z"/>
	<path id="ShapeB" style="opacity:0.2;fill:#2E3192;stroke:#000000;stroke-width:2;stroke-miterlimit:10;" d="M 832.3 423.3 L 835.8 417.6 L 838.6 411.6 L 840.9 405.3 L 842.6 398.8 L 843.9 392.1 L 844.6 385.3 L 845.0 378.4 L 845.0 371.5 L 844.6 364.6 L 843.9 357.8 L 842.9 351.2 L 841.7 344.7 L 837.8 331.4 L 832.5 318.8 L 826.1 306.8 L 818.6 295.5 L 810.0 285.0 L 800.5 275.1 L 790.3 266.1 L 779.3 257.9 L 767.7 250.5 L 755.6 244.0 L 743.1 238.4 L 730.3 233.7 L 726.8 232.5 L 723.4 231.5 L 719.8 230.5 L 716.3 229.6 L 712.8 228.8 L 709.2 228.0 L 705.6 227.3 L 702.0 226.7 L 698.4 226.2 L 694.8 225.7 L 691.1 225.3 L 687.5 225.0 L 683.3 224.6 L 679.0 224.3 L 674.7 224.0 L 670.3 223.7 L 665.9 223.3 L 661.6 222.7 L 657.4 221.9 L 653.3 220.8 L 649.4 219.3 L 645.7 217.3 L 642.3 214.9 L 639.1 211.8 L 637.3 209.6 L 635.6 207.2 L 634.1 204.6 L 632.6 202.0 L 631.3 199.4 L 629.9 196.7 L 628.5 194.1 L 627.0 191.5 L 625.4 189.0 L 623.6 186.6 L 621.6 184.5 L 619.4 182.5 L 612.8 179.0 L 605.8 177.2 L 598.7 177.1 L 591.3 178.2 L 583.8 180.3 L 576.3 183.2 L 568.8 186.6 L 561.3 190.2 L 553.9 193.8 L 546.7 197.0 L 539.7 199.7 L 533.0 201.6 L 528.2 202.1 L 523.7 201.7 L 519.6 200.5 L 515.7 198.6 L 512.1 196.1 L 508.6 193.1 L 505.4 189.8 L 502.3 186.2 L 499.2 182.6 L 496.3 179.0 L 493.4 175.5 L 490.5 172.2 L 486.3 167.6 L 482.0 162.9 L 477.7 158.2 L 473.2 153.6 L 468.7 149.0 L 464.0 144.7 L 459.2 140.5 L 454.2 136.7 L 448.9 133.2 L 443.5 130.2 L 437.7 127.7 L 431.7 125.8 L 424.6 125.8 L 418.2 127.2 L 412.4 129.9 L 407.2 133.6 L 402.3 138.1 L 397.9 143.4 L 393.8 149.1 L 390.0 155.1 L 386.4 161.3 L 383.0 167.4 L 379.6 173.3 L 376.3 178.7 L 374.6 181.7 L 372.9 184.6 L 371.0 187.5 L 369.1 190.3 L 367.1 193.0 L 364.9 195.4 L 362.5 197.7 L 360.0 199.6 L 357.3 201.3 L 354.3 202.6 L 351.1 203.6 L 347.6 204.1 L 343.6 204.2 L 339.5 204.2 L 335.2 204.2 L 331.0 204.3 L 326.8 204.6 L 322.8 205.3 L 318.9 206.2 L 315.3 207.7 L 312.0 209.7 L 309.2 212.3 L 306.8 215.7 L 304.9 219.9 L 303.2 226.5 L 302.0 233.2 L 301.3 240.0 L 300.9 246.8 L 300.8 253.6 L 301.0 260.5 L 301.3 267.4 L 301.8 274.3 L 302.4 281.2 L 303.1 288.0 L 303.7 294.8 L 304.2 301.6 L 305.5 312.2 L 307.0 322.3 L 308.4 332.2 L 309.7 341.7 L 310.6 351.0 L 310.8 360.1 L 310.2 369.0 L 308.5 377.8 L 305.6 386.5 L 301.2 395.0 L 295.2 403.6 L 287.2 412.2 L 273.8 426.7 L 260.3 441.8 L 246.8 457.5 L 233.9 473.8 L 221.9 490.8 L 211.2 508.3 L 202.1 526.4 L 195.0 545.0 L 190.3 564.1 L 188.5 583.7 L 189.7 603.8 L 194.5 624.4 L 200.2 637.6 L 207.8 649.1 L 217.0 659.0 L 227.6 667.2 L 239.4 673.9 L 252.1 679.0 L 265.4 682.6 L 279.2 684.7 L 293.2 685.3 L 307.2 684.5 L 320.9 682.2 L 334.0 678.6 L 348.6 673.6 L 361.2 669.1 L 372.3 665.3 L 382.2 662.5 L 391.2 660.8 L 399.6 660.4 L 407.8 661.5 L 416.0 664.3 L 424.7 669.0 L 434.1 675.8 L 444.6 684.9 L 456.4 696.5 L 465.0 704.1 L 473.6 710.1 L 482.4 714.5 L 491.0 717.3 L 499.6 718.6 L 508.1 718.2 L 516.3 716.3 L 524.3 712.8 L 531.8 707.8 L 539.0 701.1 L 545.7 692.9 L 551.9 683.2 L 554.7 677.9 L 557.4 672.6 L 560.0 667.2 L 562.4 661.7 L 564.8 656.2 L 567.1 650.7 L 569.3 645.1 L 571.5 639.5 L 573.7 633.9 L 575.8 628.3 L 578.1 622.8 L 580.3 617.2 L 584.1 607.0 L 588.2 598.0 L 592.6 590.1 L 597.5 583.3 L 602.8 577.3 L 608.7 572.2 L 615.1 567.6 L 622.1 563.7 L 629.9 560.1 L 638.3 556.9 L 647.5 553.9 L 657.6 550.9 L 666.2 548.3 L 674.7 545.6 L 683.3 542.9 L 691.8 540.1 L 700.2 537.1 L 708.6 534.0 L 716.9 530.7 L 725.2 527.2 L 733.3 523.5 L 741.3 519.5 L 749.1 515.2 L 756.8 510.6 L 761.2 507.8 L 765.5 504.8 L 769.7 501.7 L 773.7 498.4 L 777.7 495.0 L 781.5 491.5 L 785.2 487.8 L 788.8 484.0 L 792.3 480.1 L 795.7 476.1 L 798.9 472.0 L 802.1 467.8 L 804.7 464.3 L 807.2 460.6 L 809.6 456.8 L 812.0 452.9 L 814.4 449.0 L 816.8 445.1 L 819.2 441.2 L 821.6 437.4 L 824.1 433.6 L 826.7 430.0 L 829.3 426.5 L 832.1 423.2 L 832.1 423.2 L 832.3 423.3 Z"/>
	<path id="ShapeC" style="opacity:0.2;fill:#ED1C24;stroke:#000000;stroke-width:2;stroke-miterlimit:10;" d="M 698.6 702.5 L 710.7 699.6 L 722.3 695.2 L 733.2 689.5 L 743.5 682.7 L 753.1 674.8 L 761.8 666.0 L 769.8 656.3 L 776.8 646.0 L 782.9 635.1 L 788.0 623.7 L 792.1 612.0 L 795.0 600.1 L 797.1 586.9 L 798.0 573.7 L 797.9 560.4 L 796.7 547.3 L 794.4 534.2 L 791.2 521.4 L 787.1 508.8 L 782.1 496.4 L 776.3 484.5 L 769.7 473.0 L 762.3 461.9 L 754.2 451.4 L 748.1 442.9 L 745.0 434.9 L 744.4 427.5 L 745.6 420.4 L 747.9 413.6 L 750.8 407.0 L 753.6 400.6 L 755.6 394.2 L 756.2 387.8 L 754.8 381.2 L 750.8 374.4 L 743.4 367.3 L 738.9 364.0 L 734.2 360.9 L 729.4 358.1 L 724.4 355.6 L 719.3 353.1 L 714.2 350.7 L 709.2 348.3 L 704.1 345.8 L 699.2 343.2 L 694.4 340.4 L 689.7 337.4 L 685.3 334.0 L 682.6 330.9 L 680.7 327.6 L 679.5 324.1 L 678.8 320.4 L 678.6 316.7 L 678.8 312.8 L 679.4 308.9 L 680.1 305.0 L 681.0 301.1 L 682.0 297.2 L 682.9 293.4 L 683.7 289.8 L 684.9 283.3 L 686.1 276.8 L 687.3 270.2 L 688.4 263.5 L 689.4 256.9 L 690.1 250.2 L 690.6 243.5 L 690.6 236.9 L 690.2 230.3 L 689.2 223.9 L 687.7 217.5 L 685.4 211.3 L 680.4 205.5 L 674.7 201.4 L 668.5 198.6 L 661.7 197.1 L 654.6 196.5 L 647.2 196.8 L 639.7 197.7 L 632.1 199.0 L 624.6 200.5 L 617.2 202.0 L 610.0 203.4 L 603.3 204.4 L 600.2 205.0 L 597.0 205.4 L 593.8 205.5 L 590.7 205.5 L 587.6 205.2 L 584.6 204.6 L 581.6 203.8 L 578.7 202.7 L 576.0 201.2 L 573.4 199.5 L 571.0 197.4 L 568.8 194.9 L 562.2 186.1 L 555.5 180.0 L 548.7 176.4 L 541.9 174.9 L 535.1 175.3 L 528.2 177.4 L 521.3 180.7 L 514.4 185.0 L 507.6 190.1 L 500.8 195.7 L 494.1 201.5 L 487.5 207.2 L 479.4 214.0 L 471.5 221.4 L 463.9 229.4 L 456.3 237.5 L 448.6 245.7 L 440.8 253.6 L 432.7 260.9 L 424.3 267.5 L 415.4 273.1 L 405.9 277.4 L 395.6 280.2 L 384.6 281.3 L 373.6 281.1 L 362.6 280.7 L 351.6 280.3 L 340.6 279.8 L 329.6 279.4 L 318.6 279.1 L 307.5 279.0 L 296.5 279.1 L 285.6 279.5 L 274.6 280.4 L 263.7 281.6 L 252.8 283.4 L 240.8 285.9 L 228.9 289.1 L 217.0 293.1 L 205.4 297.8 L 194.2 303.3 L 183.5 309.6 L 173.4 316.8 L 164.1 324.7 L 155.6 333.5 L 148.2 343.3 L 141.9 353.9 L 136.9 365.4 L 134.2 375.7 L 133.0 386.1 L 133.2 396.4 L 134.7 406.5 L 137.4 416.5 L 141.1 426.3 L 145.8 435.7 L 151.3 444.8 L 157.5 453.5 L 164.3 461.6 L 171.6 469.2 L 179.2 476.1 L 184.8 480.8 L 190.6 485.1 L 196.8 489.1 L 203.0 493.0 L 209.4 496.8 L 215.8 500.6 L 222.0 504.4 L 228.2 508.5 L 234.0 512.8 L 239.6 517.4 L 244.7 522.4 L 249.4 528.0 L 252.7 535.1 L 254.7 542.5 L 255.6 550.0 L 255.7 557.6 L 255.2 565.4 L 254.3 573.3 L 253.3 581.1 L 252.4 589.0 L 251.7 596.9 L 251.7 604.6 L 252.4 612.3 L 254.1 619.8 L 261.5 634.5 L 271.1 644.7 L 282.5 651.0 L 295.5 654.0 L 309.7 654.1 L 324.7 652.0 L 340.1 648.3 L 355.7 643.5 L 371.1 638.1 L 385.9 632.9 L 399.7 628.2 L 412.3 624.7 L 419.2 622.9 L 425.9 622.0 L 432.6 622.0 L 439.1 622.8 L 445.6 624.2 L 451.9 626.3 L 458.1 629.0 L 464.2 632.0 L 470.1 635.4 L 475.9 639.1 L 481.5 642.9 L 487.0 646.8 L 493.4 651.3 L 499.8 655.7 L 506.3 660.1 L 512.7 664.5 L 519.2 668.8 L 525.8 672.9 L 532.5 677.0 L 539.2 680.8 L 546.0 684.5 L 553.0 688.0 L 560.1 691.2 L 567.4 694.2 L 577.9 698.6 L 588.5 702.2 L 599.2 704.9 L 610.1 706.8 L 621.0 708.0 L 632.0 708.6 L 643.1 708.7 L 654.1 708.2 L 665.2 707.3 L 676.3 706.0 L 687.3 704.4 L 698.3 702.6 L 698.5 702.6 L 698.6 702.5 Z"/>
	<path id="ShapeD" style="opacity:0.2;fill:#808285;stroke:#000000;stroke-width:2;stroke-miterlimit:10;" d="M 392.6 772.8 L 411.2 784.4 L 430.6 792.4 L 450.4 797.0 L 470.5 798.3 L 490.4 796.5 L 510.0 791.9 L 529.0 784.6 L 547.1 774.9 L 564.1 763.0 L 579.6 749.0 L 593.4 733.1 L 605.2 715.6 L 606.9 712.9 L 608.5 710.2 L 610.0 707.5 L 611.5 704.7 L 613.0 701.9 L 614.4 699.1 L 615.7 696.3 L 617.0 693.4 L 618.2 690.5 L 619.4 687.6 L 620.5 684.6 L 621.6 681.7 L 623.3 677.1 L 624.9 672.3 L 626.5 667.4 L 628.0 662.5 L 629.7 657.6 L 631.5 652.9 L 633.7 648.4 L 636.2 644.1 L 639.1 640.3 L 642.5 636.9 L 646.6 634.1 L 651.3 631.9 L 654.2 630.9 L 657.2 630.0 L 660.2 629.3 L 663.3 628.6 L 666.4 627.9 L 669.4 627.2 L 672.4 626.3 L 675.3 625.4 L 678.1 624.2 L 680.7 622.7 L 683.3 620.9 L 685.6 618.8 L 690.0 612.3 L 692.4 605.0 L 693.2 597.1 L 692.7 588.7 L 691.3 579.9 L 689.3 571.0 L 687.1 562.1 L 685.1 553.4 L 683.6 545.1 L 683.0 537.2 L 683.7 530.0 L 686.0 523.7 L 688.2 520.9 L 690.6 518.4 L 693.3 516.1 L 696.2 514.1 L 699.2 512.2 L 702.3 510.5 L 705.6 509.0 L 708.8 507.4 L 712.1 506.0 L 715.4 504.5 L 718.5 502.9 L 721.6 501.3 L 727.1 498.2 L 733.4 494.8 L 740.2 491.0 L 747.2 487.0 L 754.3 482.7 L 761.1 478.0 L 767.5 473.0 L 773.1 467.7 L 777.7 462.1 L 781.1 456.1 L 782.9 449.8 L 783.1 443.1 L 781.2 437.2 L 778.4 431.7 L 774.9 426.5 L 770.9 421.5 L 766.3 416.7 L 761.5 412.2 L 756.4 407.7 L 751.2 403.4 L 746.0 399.2 L 740.9 395.0 L 736.1 390.9 L 731.6 386.7 L 724.9 378.3 L 721.8 370.3 L 721.3 362.4 L 722.5 354.9 L 724.2 347.7 L 725.4 340.8 L 725.2 334.2 L 722.4 328.0 L 716.1 322.0 L 705.2 316.4 L 688.6 311.1 L 665.4 306.2 L 660.1 305.3 L 654.8 304.4 L 649.6 303.6 L 644.3 302.8 L 639.0 302.0 L 633.7 301.3 L 628.4 300.6 L 623.1 300.0 L 617.8 299.4 L 612.5 298.9 L 607.1 298.4 L 601.8 297.9 L 595.8 297.4 L 589.8 296.8 L 583.8 295.9 L 577.9 294.7 L 572.1 293.2 L 566.3 291.4 L 560.8 289.2 L 555.5 286.6 L 550.4 283.6 L 545.6 280.1 L 541.1 276.0 L 536.9 271.5 L 527.7 259.9 L 518.5 248.1 L 509.4 236.3 L 500.2 224.5 L 490.8 212.9 L 481.2 201.5 L 471.2 190.6 L 460.8 180.0 L 449.8 170.1 L 438.2 160.8 L 426.0 152.4 L 412.9 144.8 L 404.4 140.7 L 395.7 137.0 L 386.6 133.9 L 377.4 131.3 L 368.0 129.4 L 358.5 128.2 L 349.0 127.8 L 339.6 128.2 L 330.2 129.5 L 321.1 131.7 L 312.1 134.9 L 303.5 139.2 L 294.3 145.2 L 286.0 152.1 L 278.6 159.9 L 272.1 168.5 L 266.5 177.7 L 261.8 187.5 L 257.9 197.7 L 254.9 208.2 L 252.8 219.0 L 251.5 229.8 L 251.1 240.7 L 251.5 251.4 L 252.3 261.0 L 253.4 270.5 L 254.6 279.6 L 255.6 288.5 L 256.1 297.1 L 256.0 305.4 L 254.9 313.4 L 252.6 320.9 L 248.9 328.1 L 243.5 334.9 L 236.2 341.3 L 226.7 347.2 L 221.2 350.6 L 215.6 354.0 L 209.8 357.4 L 204.1 361.0 L 198.5 364.7 L 193.1 368.6 L 188.0 372.8 L 183.4 377.4 L 179.2 382.4 L 175.8 387.8 L 173.0 393.6 L 171.1 400.1 L 170.9 410.9 L 173.5 421.0 L 178.4 430.5 L 185.2 439.5 L 193.6 447.9 L 203.1 455.9 L 213.4 463.3 L 224.1 470.4 L 234.7 477.0 L 245.0 483.3 L 254.4 489.2 L 262.7 494.9 L 271.1 500.2 L 278.2 505.6 L 284.3 511.2 L 289.4 517.0 L 293.6 523.0 L 296.9 529.4 L 299.5 536.1 L 301.6 543.3 L 303.0 551.0 L 304.0 559.2 L 304.7 568.0 L 305.1 577.4 L 306.0 597.7 L 307.7 617.0 L 310.2 635.4 L 313.8 653.1 L 318.5 670.0 L 324.4 686.2 L 331.7 701.7 L 340.4 716.8 L 350.7 731.3 L 362.8 745.4 L 376.7 759.1 L 392.5 772.5 L 392.6 772.5 L 392.6 772.8 Z"/>
	<path id="ShapeE" style="opacity:0.2;fill:#3C2415;stroke:#000000;stroke-width:2;stroke-miterlimit:10;" d="M 144.1 581.9 L 144.3 588.4 L 144.9 594.8 L 145.9 601.2 L 147.3 607.6 L 149.1 613.8 L 151.2 620.0 L 153.6 626.0 L 156.4 631.9 L 159.4 637.7 L 162.6 643.4 L 166.1 648.9 L 169.7 654.2 L 178.6 665.2 L 188.6 674.9 L 199.5 683.3 L 211.2 690.6 L 223.6 696.8 L 236.6 701.8 L 250.0 705.8 L 263.7 708.7 L 277.6 710.6 L 291.6 711.6 L 305.5 711.6 L 319.3 710.8 L 323.0 710.4 L 326.7 709.8 L 330.4 709.2 L 334.0 708.5 L 337.7 707.7 L 341.3 706.8 L 344.9 705.9 L 348.5 704.9 L 352.0 703.8 L 355.6 702.7 L 359.1 701.5 L 362.6 700.2 L 366.9 698.7 L 371.1 697.0 L 375.5 695.2 L 379.9 693.5 L 384.3 691.7 L 388.7 690.2 L 393.1 689.0 L 397.6 688.1 L 402.1 687.7 L 406.5 687.8 L 411.0 688.6 L 415.4 690.2 L 418.4 691.7 L 421.3 693.5 L 424.1 695.4 L 426.9 697.5 L 429.6 699.6 L 432.4 701.7 L 435.2 703.8 L 438.1 705.6 L 441.0 707.2 L 444.1 708.6 L 447.4 709.5 L 450.8 710.0 L 458.7 709.1 L 466.0 706.6 L 472.7 702.6 L 478.9 697.5 L 484.8 691.6 L 490.5 685.2 L 496.1 678.5 L 501.6 671.9 L 507.2 665.7 L 513.0 660.1 L 519.1 655.4 L 525.6 652.0 L 529.2 651.3 L 532.8 651.1 L 536.3 651.4 L 539.8 652.0 L 543.2 653.0 L 546.7 654.3 L 550.1 655.7 L 553.4 657.3 L 556.7 658.9 L 560.1 660.6 L 563.3 662.1 L 566.6 663.5 L 572.8 665.9 L 579.7 668.8 L 587.0 671.8 L 594.7 674.8 L 602.6 677.6 L 610.5 680.0 L 618.5 681.9 L 626.3 683.0 L 633.8 683.2 L 641.0 682.2 L 647.6 680.0 L 653.5 676.3 L 658.3 670.4 L 661.9 664.0 L 664.4 657.1 L 666.1 649.9 L 667.1 642.4 L 667.7 634.7 L 668.0 626.9 L 668.2 619.1 L 668.5 611.4 L 669.1 603.9 L 670.1 596.6 L 671.9 589.6 L 673.6 586.0 L 675.7 583.0 L 678.4 580.4 L 681.3 578.1 L 684.6 576.2 L 688.0 574.4 L 691.5 572.7 L 695.0 571.1 L 698.5 569.4 L 701.9 567.6 L 705.0 565.5 L 707.8 563.1 L 712.1 557.3 L 713.6 549.9 L 712.9 541.3 L 710.3 531.7 L 706.2 521.5 L 701.0 510.9 L 695.0 500.4 L 688.7 490.1 L 682.5 480.4 L 676.7 471.7 L 671.7 464.1 L 668.0 458.1 L 662.3 450.1 L 656.9 442.5 L 652.0 435.2 L 647.6 428.1 L 643.9 420.9 L 640.8 413.8 L 638.6 406.4 L 637.3 398.7 L 637.0 390.6 L 637.7 382.0 L 639.6 372.7 L 642.8 362.6 L 648.7 344.1 L 654.2 324.9 L 659.2 305.2 L 663.3 285.2 L 666.3 265.0 L 667.7 244.9 L 667.5 225.1 L 665.2 205.6 L 660.6 186.8 L 653.3 168.7 L 643.2 151.6 L 629.9 135.7 L 619.7 126.6 L 608.8 119.5 L 597.1 114.5 L 584.9 111.4 L 572.3 110.0 L 559.6 110.3 L 546.8 112.1 L 534.1 115.3 L 521.8 119.7 L 509.9 125.4 L 498.6 132.0 L 488.1 139.6 L 482.9 143.7 L 477.9 148.1 L 472.9 152.7 L 468.1 157.4 L 463.3 162.1 L 458.4 166.8 L 453.5 171.4 L 448.4 175.8 L 443.2 180.0 L 437.8 183.8 L 432.1 187.2 L 426.1 190.2 L 418.3 192.2 L 410.6 192.8 L 403.0 192.3 L 395.4 190.8 L 387.9 188.7 L 380.3 186.2 L 372.8 183.4 L 365.2 180.6 L 357.6 178.0 L 350.0 175.8 L 342.3 174.4 L 334.6 173.8 L 318.6 175.6 L 306.1 180.6 L 296.7 188.5 L 289.9 198.7 L 285.4 210.7 L 282.9 224.2 L 281.9 238.6 L 282.1 253.6 L 283.1 268.6 L 284.5 283.2 L 286.0 296.9 L 287.1 309.3 L 287.9 316.9 L 288.2 324.1 L 287.9 330.9 L 287.1 337.4 L 285.8 343.6 L 283.8 349.5 L 281.2 355.1 L 278.1 360.6 L 274.3 365.9 L 269.8 371.1 L 264.7 376.1 L 258.9 381.1 L 242.1 395.5 L 226.2 409.5 L 211.5 423.5 L 198.0 437.6 L 185.8 452.1 L 175.0 467.1 L 165.6 482.9 L 157.8 499.8 L 151.7 517.9 L 147.2 537.5 L 144.7 558.7 L 144.0 581.9 L 144.0 582.1 L 144.1 581.9 Z"/>
	<path id="ShapeF" style="opacity:0.2;fill:#9E1F63;stroke:#000000;stroke-width:2;stroke-miterlimit:10;" d="M 144.4 275.7 L 139.2 279.3 L 134.2 283.5 L 129.5 288.4 L 125.0 293.8 L 120.8 299.6 L 116.9 305.7 L 113.2 312.1 L 110.0 318.6 L 107.1 325.1 L 104.5 331.5 L 102.4 337.8 L 100.7 343.8 L 98.1 356.8 L 97.0 369.9 L 97.4 382.8 L 99.0 395.7 L 101.9 408.4 L 105.8 420.8 L 110.8 433.0 L 116.7 444.8 L 123.4 456.2 L 130.8 467.1 L 138.8 477.5 L 147.3 487.3 L 151.1 491.3 L 155.1 495.1 L 159.2 498.8 L 163.5 502.2 L 167.8 505.5 L 172.3 508.7 L 176.9 511.7 L 181.5 514.7 L 186.2 517.5 L 191.0 520.3 L 195.8 523.0 L 200.6 525.6 L 203.4 527.2 L 206.3 528.9 L 209.0 530.7 L 211.7 532.5 L 214.3 534.5 L 216.6 536.6 L 218.8 538.8 L 220.8 541.2 L 222.5 543.8 L 223.9 546.6 L 225.0 549.6 L 225.7 552.9 L 226.0 554.9 L 226.2 556.9 L 226.4 558.9 L 226.5 561.0 L 226.5 563.0 L 226.5 565.1 L 226.6 567.2 L 226.6 569.3 L 226.7 571.3 L 226.9 573.4 L 227.1 575.4 L 227.5 577.4 L 230.5 585.1 L 235.1 591.0 L 241.1 595.3 L 248.3 598.3 L 256.3 600.2 L 264.9 601.2 L 273.9 601.7 L 283.1 601.8 L 292.1 601.9 L 300.7 602.0 L 308.6 602.6 L 315.7 603.8 L 320.2 605.3 L 324.1 607.5 L 327.3 610.3 L 329.9 613.6 L 332.1 617.3 L 333.9 621.4 L 335.4 625.7 L 336.7 630.1 L 337.8 634.6 L 338.8 639.1 L 339.9 643.5 L 341.0 647.6 L 342.9 653.7 L 345.0 660.7 L 347.4 668.1 L 350.1 675.8 L 353.1 683.6 L 356.6 691.3 L 360.4 698.5 L 364.8 705.1 L 369.6 710.7 L 374.9 715.3 L 380.8 718.5 L 387.3 720.1 L 392.3 720.1 L 397.3 719.5 L 402.2 718.3 L 407.0 716.6 L 411.7 714.4 L 416.3 712.0 L 420.8 709.3 L 425.3 706.4 L 429.7 703.5 L 434.0 700.5 L 438.2 697.6 L 442.3 694.9 L 445.5 692.7 L 448.7 690.4 L 452.0 688.1 L 455.3 685.9 L 458.7 683.8 L 462.2 682.0 L 465.8 680.5 L 469.4 679.3 L 473.1 678.7 L 476.8 678.5 L 480.7 679.0 L 484.6 680.1 L 486.7 680.9 L 488.8 681.8 L 490.9 682.8 L 492.9 683.9 L 495.0 685.0 L 497.0 686.0 L 499.1 687.1 L 501.2 688.1 L 503.3 688.9 L 505.5 689.7 L 507.7 690.3 L 510.0 690.7 L 514.6 690.9 L 518.8 690.3 L 522.7 689.0 L 526.3 687.0 L 529.7 684.4 L 532.8 681.4 L 535.6 678.1 L 538.2 674.4 L 540.7 670.7 L 542.9 666.8 L 545.0 663.0 L 546.9 659.3 L 550.1 652.7 L 553.3 646.0 L 556.3 639.3 L 559.2 632.6 L 562.1 625.8 L 564.8 618.9 L 567.5 612.1 L 570.1 605.2 L 572.6 598.3 L 575.1 591.4 L 577.5 584.4 L 579.9 577.4 L 582.2 570.5 L 584.6 564.1 L 587.2 558.1 L 590.0 552.7 L 593.1 547.6 L 596.6 542.9 L 600.4 538.5 L 604.7 534.4 L 609.5 530.7 L 614.9 527.1 L 621.0 523.8 L 627.7 520.7 L 640.4 515.5 L 653.1 510.2 L 665.8 504.9 L 678.5 499.3 L 691.0 493.5 L 703.4 487.4 L 715.5 480.8 L 727.3 473.7 L 738.7 466.1 L 749.6 457.9 L 760.0 448.9 L 769.8 439.1 L 780.6 426.6 L 789.6 413.4 L 797.0 399.7 L 802.4 385.6 L 805.7 371.4 L 807.0 357.2 L 806.0 343.2 L 802.6 329.5 L 796.8 316.3 L 788.4 303.8 L 777.2 292.2 L 763.2 281.6 L 754.5 276.0 L 745.8 271.4 L 737.2 267.6 L 728.5 264.4 L 719.8 261.9 L 711.0 259.8 L 702.1 258.1 L 693.0 256.7 L 683.9 255.4 L 674.5 254.2 L 665.0 252.9 L 655.2 251.4 L 647.0 249.6 L 639.9 246.9 L 633.8 243.5 L 628.5 239.3 L 623.9 234.6 L 620.0 229.3 L 616.5 223.5 L 613.5 217.3 L 610.7 210.7 L 608.0 203.9 L 605.3 196.8 L 602.6 189.6 L 600.3 184.0 L 597.6 178.5 L 594.6 173.2 L 591.1 168.1 L 587.2 163.3 L 582.9 159.0 L 578.3 155.1 L 573.3 151.8 L 568.0 149.3 L 562.4 147.4 L 556.5 146.4 L 550.2 146.4 L 542.4 147.6 L 534.9 149.7 L 527.7 152.5 L 520.8 156.1 L 514.1 160.1 L 507.7 164.7 L 501.4 169.6 L 495.3 174.8 L 489.3 180.1 L 483.5 185.5 L 477.8 190.9 L 472.1 196.1 L 467.9 199.9 L 463.7 203.8 L 459.5 207.8 L 455.3 211.7 L 451.0 215.6 L 446.6 219.4 L 442.0 223.1 L 437.4 226.5 L 432.7 229.7 L 427.8 232.6 L 422.7 235.0 L 417.4 237.1 L 414.4 238.0 L 411.3 238.7 L 408.2 239.2 L 405.1 239.6 L 401.9 239.8 L 398.8 239.9 L 395.6 239.8 L 392.4 239.6 L 389.2 239.4 L 386.1 239.1 L 382.9 238.7 L 379.8 238.2 L 375.9 237.6 L 372.1 237.0 L 368.2 236.3 L 364.4 235.7 L 360.5 235.0 L 356.7 234.3 L 352.8 233.6 L 348.9 233.0 L 345.0 232.3 L 341.1 231.6 L 337.2 231.0 L 333.3 230.3 L 321.9 228.4 L 310.3 227.0 L 298.7 226.0 L 287.1 225.6 L 275.5 225.7 L 263.9 226.4 L 252.4 227.7 L 241.0 229.6 L 229.8 232.3 L 218.7 235.6 L 207.8 239.7 L 197.2 244.6 L 192.6 246.8 L 188.1 249.2 L 183.7 251.8 L 179.3 254.4 L 174.9 257.1 L 170.6 259.9 L 166.3 262.7 L 162.0 265.4 L 157.6 268.2 L 153.3 270.8 L 148.9 273.3 L 144.5 275.7 L 144.3 275.7 L 144.4 275.7 Z"/>
	<path id="ShapeG" style="opacity:0.2;fill:#CA4B9B;stroke:#000000;stroke-width:2;stroke-miterlimit:10;" d="M 384.9 81.4 L 363.1 79.6 L 342.4 81.2 L 322.9 85.8 L 304.7 93.3 L 287.9 103.4 L 272.7 115.8 L 259.1 130.2 L 247.3 146.4 L 237.5 164.2 L 229.6 183.2 L 223.9 203.2 L 220.5 224.0 L 220.1 227.5 L 219.9 231.0 L 219.7 234.6 L 219.6 238.1 L 219.6 241.6 L 219.7 245.2 L 219.8 248.7 L 220.1 252.2 L 220.4 255.8 L 220.7 259.3 L 221.1 262.7 L 221.6 266.2 L 222.1 270.3 L 222.8 274.5 L 223.5 278.7 L 224.3 283.0 L 224.9 287.3 L 225.3 291.5 L 225.5 295.8 L 225.4 299.9 L 224.8 304.0 L 223.7 307.9 L 222.0 311.7 L 219.7 315.3 L 217.9 317.5 L 215.8 319.6 L 213.6 321.5 L 211.3 323.4 L 208.9 325.3 L 206.5 327.1 L 204.1 329.0 L 201.8 330.9 L 199.6 332.9 L 197.5 335.0 L 195.6 337.3 L 194.0 339.8 L 191.6 346.4 L 191.0 353.0 L 192.1 359.6 L 194.6 366.1 L 198.1 372.6 L 202.4 379.1 L 207.3 385.4 L 212.5 391.6 L 217.6 397.6 L 222.5 403.4 L 226.8 409.0 L 230.3 414.3 L 232.8 419.0 L 234.1 423.5 L 234.3 428.0 L 233.6 432.3 L 232.0 436.6 L 229.8 440.8 L 227.2 444.8 L 224.2 448.8 L 221.0 452.7 L 217.8 456.5 L 214.7 460.1 L 211.9 463.7 L 208.4 468.7 L 204.7 473.8 L 201.0 478.8 L 197.3 484.0 L 193.7 489.2 L 190.3 494.5 L 187.1 499.9 L 184.3 505.5 L 181.9 511.1 L 180.0 517.0 L 178.7 522.9 L 178.0 529.1 L 179.9 536.3 L 183.2 542.4 L 187.8 547.6 L 193.3 552.0 L 199.7 555.6 L 206.7 558.7 L 214.2 561.4 L 221.8 563.7 L 229.4 565.7 L 236.8 567.7 L 243.8 569.7 L 250.2 571.8 L 253.0 572.6 L 255.7 573.6 L 258.4 574.7 L 260.9 576.0 L 263.4 577.4 L 265.7 579.1 L 267.8 580.9 L 269.8 582.9 L 271.5 585.0 L 273.0 587.4 L 274.3 590.1 L 275.2 592.9 L 277.2 603.1 L 280.1 611.2 L 283.9 617.4 L 288.5 621.9 L 293.7 624.8 L 299.7 626.5 L 306.2 626.9 L 313.2 626.5 L 320.6 625.3 L 328.4 623.5 L 336.5 621.4 L 344.9 619.2 L 350.5 617.6 L 356.0 615.9 L 361.5 614.1 L 367.0 612.4 L 372.5 610.6 L 378.0 608.7 L 383.4 606.8 L 388.8 604.9 L 394.3 603.0 L 399.7 601.0 L 405.1 599.0 L 410.5 596.9 L 415.9 594.8 L 421.3 592.7 L 426.8 590.9 L 432.4 589.4 L 438.1 588.1 L 443.7 587.2 L 449.4 586.7 L 455.1 586.6 L 460.8 587.1 L 466.4 588.1 L 472.0 589.8 L 477.5 592.1 L 487.6 597.0 L 497.7 602.1 L 507.8 607.3 L 517.8 612.5 L 527.9 617.7 L 538.0 622.8 L 548.2 627.7 L 558.4 632.5 L 568.8 636.9 L 579.3 641.0 L 590.0 644.7 L 600.9 647.9 L 612.7 651.1 L 624.9 653.4 L 637.2 655.0 L 649.7 655.7 L 662.2 655.4 L 674.6 654.1 L 686.7 651.8 L 698.5 648.4 L 709.9 643.8 L 720.7 638.0 L 730.8 631.0 L 740.2 622.6 L 747.3 614.1 L 752.9 604.8 L 757.2 595.0 L 760.3 584.8 L 762.1 574.1 L 762.9 563.3 L 762.5 552.4 L 761.2 541.4 L 759.0 530.6 L 755.9 520.1 L 752.0 509.9 L 747.5 500.2 L 744.6 494.3 L 741.3 488.6 L 737.7 482.9 L 734.0 477.4 L 730.1 471.8 L 726.3 466.3 L 722.6 460.7 L 719.2 455.0 L 716.0 449.3 L 713.3 443.3 L 711.1 437.2 L 709.5 430.8 L 709.7 423.3 L 711.1 416.2 L 713.5 409.3 L 716.7 402.7 L 720.5 396.3 L 724.6 390.0 L 729.0 383.7 L 733.3 377.4 L 737.4 371.0 L 741.1 364.5 L 744.2 357.8 L 746.5 350.9 L 747.9 332.7 L 744.3 318.1 L 736.2 306.6 L 724.6 297.9 L 710.1 291.3 L 693.5 286.4 L 675.6 282.9 L 657.2 280.1 L 638.9 277.6 L 621.5 275.0 L 605.9 271.8 L 592.7 267.5 L 586.9 264.8 L 581.6 261.5 L 576.7 257.7 L 572.2 253.5 L 568.0 248.9 L 564.1 244.0 L 560.4 238.9 L 557.0 233.6 L 553.6 228.3 L 550.4 222.8 L 547.2 217.4 L 544.0 212.1 L 534.1 195.1 L 524.2 179.2 L 514.0 164.5 L 503.3 151.0 L 492.1 138.5 L 480.2 127.2 L 467.4 117.0 L 453.6 107.8 L 438.6 99.7 L 422.3 92.6 L 404.5 86.6 L 385.1 81.5 L 385.0 81.5 L 384.9 81.4 Z"/>
</g>
<g id="Texts">
	<g id="Header">
		<text id="Title" transform="matrix(1 0 0 1 350.8 30.3)" style="fill:#262262;font-family:Tahoma, Tahoma;font-size:18px">Venn 7-set Massey diagram</text>
	</g>
	<g id="Group_Names">
		<text id="NameA" transform="matrix(1 0 0 1 737.6 77.1)" style="fill:#262262;stroke:#000000;stroke-width:0.5;stroke-miterlimit:10;font-family:Tahoma, Tahoma;font-size:20px">NameA</text>
		<text id="NameB" transform="matrix(1 0 0 1 833.5 243.1)" style="fill:#262262;stroke:#000000;stroke-width:0.5;stroke-miterlimit:10;font-family:Tahoma, Tahoma;font-size:20px">NameB</text>
		<text id="NameC" transform="matrix(1 0 0 1 809 672.7)" style="fill:#262262;stroke:#000000;stroke-width:0.5;stroke-miterlimit:10;font-family:Tahoma, Tahoma;font-size:20px">NameC</text>
		<text id="NameD" transform="matrix(1 0 0 1 443.2 818.3)" style="fill:#262262;stroke:#000000;stroke-width:0.5;stroke-miterlimit:10;font-family:Tahoma, Tahoma;font-size:20px">NameD</text>
		<text id="NameE" transform="matrix(1 0 0 1 64.3 674.8)" style="fill:#262262;stroke:#000000;stroke-width:0.5;stroke-miterlimit:10;font-family:Tahoma, Tahoma;font-size:20px">NameE</text>
		<text id="NameF" transform="matrix(1 0 0 1 46.8 251.7)" style="fill:#262262;stroke:#000000;stroke-width:0.5;stroke-miterlimit:10;font-family:Tahoma, Tahoma;font-size:20px">NameF</text>
		<text id="NameG" transform="matrix(1 0 0 1 141.3 85.3)" style="fill:#262262;stroke:#000000;stroke-width:0.5;stroke-miterlimit:10;font-family:Tahoma, Tahoma;font-size:20px">NameG</text>
	</g>
	<g id="Group_Values">
		<text id="Count_A" transform="matrix(1 0 0 1 673.8 162.4)" style="fill:#262262;font-family:Tahoma, Tahoma;font-size:24;text-anchor:middle">A</text>
		<text id="Count_B" transform="matrix(1 0 0 1 825.4 365.4)" style="fill:#262262;font-family:Tahoma, Tahoma;font-size:24;text-anchor:middle">B</text>
		<text id="Count_C" transform="matrix(1 0 0 1 736.2 662.5)" style="fill:#262262;font-family:Tahoma, Tahoma;font-size:24;text-anchor:middle">C</text>
		<text id="Count_D" transform="matrix(1 0 0 1 459.2 779.6)" style="fill:#262262;font-family:Tahoma, Tahoma;font-size:24;text-anchor:middle">D</text>
		<text id="Count_E" transform="matrix(1 0 0 1 168.5 610.6)" style="fill:#262262;font-family:Tahoma, Tahoma;font-size:24;text-anchor:middle">E</text>
		<text id="Count_F" transform="matrix(1 0 0 1 133.3 321.1)" style="fill:#262262;font-family:Tahoma, Tahoma;font-size:24;text-anchor:middle">F</text>
		<text id="Count_G" transform="matrix(1 0 0 1 346.2 113.6)" style="fill:#262262;font-family:Tahoma, Tahoma;font-size:24;text-anchor:middle">G</text>
		<text id="Count_AB" transform="matrix(1 0 0 1 704.9 245.4)" style="fill:#262262;font-family:Tahoma, Tahoma;font-size:7px;text-anchor:middle;">AB</text>
		<text id="Count_AC" transform="matrix(1 0 0 1 675.4 215.2)" style="fill:#262262;font-family:Tahoma, Tahoma;font-size:6px;text-anchor:middle;">AC</text>
		<text id="Count_AD" transform="matrix(1 0 0 1 486.8 737.8)" style="fill:#262262;font-family:Tahoma, Tahoma;font-size:14;text-anchor:middle">AD</text>
		<text id="Count_AE" transform="matrix(1 0 0 1 588.7 142.1)" style="fill:#262262;font-family:Tahoma, Tahoma;font-size:14;text-anchor:middle">AE</text>
		<text id="Count_AF" transform="matrix(1 0 0 1 209.9 284.4)" style="fill:#262262;font-family:Tahoma, Tahoma;font-size:7px;text-anchor:middle;">AF</text>
		<text id="Count_AG" transform="matrix(1 0 0 1 470.1 136.7)" style="fill:#262262;font-family:Tahoma, Tahoma;font-size:6px;text-anchor:middle;">AG</text>
		<text id="Count_BC" transform="matrix(1 0 0 1 761.5 494.8)" style="fill:#262262;font-family:Tahoma, Tahoma;font-size:7px;text-anchor:middle;">BC</text>
		<text id="Count_BD" transform="matrix(1 0 0 1 771.4 453.6)" style="fill:#262262;font-family:Tahoma, Tahoma;font-size:6px;text-anchor:middle;">BD</text>
		<text id="Count_BE" transform="matrix(1 0 0 1 230.6 633.9)" style="fill:#262262;font-family:Tahoma, Tahoma;font-size:14;text-anchor:middle">BE</text>
		<text id="Count_BF" transform="matrix(1 0 0 1 773.7 357.7)" style="fill:#262262;font-family:Tahoma, Tahoma;font-size:14;text-anchor:middle">BF</text>
		<text id="Count_BG" transform="matrix(1 0 0 1 425.5 139.8)" style="fill:#262262;font-family:Tahoma, Tahoma;font-size:6px;text-anchor:middle;">BG</text>
		<text id="Count_CD" transform="matrix(1 0 0 1 599.5 693.2)" style="fill:#262262;font-family:Tahoma, Tahoma;font-size:7px;text-anchor:middle;">CD</text>
		<text id="Count_CE" transform="matrix(1 0 0 1 642.1 670.7)" style="fill:#262262;font-family:Tahoma, Tahoma;font-size:7px;text-anchor:middle;">CE</text>
		<text id="Count_CF" transform="matrix(1 0 0 1 161.6 369.6)" style="fill:#262262;font-family:Tahoma, Tahoma;font-size:14;text-anchor:middle">CF</text>
		<text id="Count_CG" transform="matrix(1 0 0 1 723.3 610.4)" style="fill:#262262;font-family:Tahoma, Tahoma;font-size:14;text-anchor:middle">CG</text>
		<text id="Count_DE" transform="matrix(1 0 0 1 342 693.8)" style="fill:#262262;font-family:Tahoma, Tahoma;font-size:7px;text-anchor:middle;">DE</text>
		<text id="Count_DF" transform="matrix(1 0 0 1 384.2 709.1)" style="fill:#262262;font-family:Tahoma, Tahoma;font-size:6px;text-anchor:middle;">DF</text>
		<text id="Count_DG" transform="matrix(1 0 0 1 320.7 160.7)" style="fill:#262262;font-family:Tahoma, Tahoma;font-size:14;text-anchor:middle">DG</text>
		<text id="Count_EF" transform="matrix(1 0 0 1 176.1 495.1)" style="fill:#262262;font-family:Tahoma, Tahoma;font-size:7px;text-anchor:middle;">EF</text>
		<text id="Count_EG" transform="matrix(1 0 0 1 188.8 534.1)" style="fill:#262262;font-family:Tahoma, Tahoma;font-size:6px;text-anchor:middle;">EG</text>
		<text id="Count_FG" transform="matrix(1 0 0 1 235.8 246.5)" style="fill:#262262;font-family:Tahoma, Tahoma;font-size:7px;text-anchor:middle;">FG</text>
		<text id="Count_ABC" transform="matrix(1 0 0 1 679 241.6)" style="fill:#262262;font-family:Tahoma, Tahoma;font-size:6px;text-anchor:middle;">ABC</text>
		<text id="Count_ABD" transform="matrix(1 0 0 1 509 703.1)" style="fill:#262262;font-family:Tahoma, Tahoma;font-size:7px;text-anchor:middle;">ABD</text>
		<text id="Count_ABE" transform="matrix(1 0 0 1 613.5 192.6)" style="fill:#262262;font-family:Tahoma, Tahoma;font-size:6px;text-anchor:middle;">ABE</text>
		<text id="Count_ABF" transform="matrix(1 0 0 1 701.7 275.8)" style="fill:#262262;font-family:Tahoma, Tahoma;font-size:7px;text-anchor:middle;">ABF</text>
		<text id="Count_ABG" transform="matrix(1 0 0 1 450.8 155)" style="fill:#262262;font-family:Tahoma, Tahoma;font-size:7px;text-anchor:middle;">ABG</text>
		<text id="Count_ACD" transform="matrix(1 0 0 1 570.1 682.5)" style="fill:#262262;font-family:Tahoma, Tahoma;font-size:7px;text-anchor:middle;">ACD</text>
		<text id="Count_ACE" transform="matrix(1 0 0 1 651.9 210.4)" style="fill:#262262;font-family:Tahoma, Tahoma;font-size:6px;text-anchor:middle;">ACE</text>
		<text id="Count_ACF" transform="matrix(1 0 0 1 211.6 309.7)" style="fill:#262262;font-family:Tahoma, Tahoma;font-size:6px;text-anchor:middle;">ACF</text>
		<text id="Count_ACG" transform="matrix(1 0 0 1 716.6 564)" style="fill:#262262;font-family:Tahoma, Tahoma;font-size:7px;text-anchor:middle;">ACG</text>
		<text id="Count_ADE" transform="matrix(1 0 0 1 449.6 703.8)" style="fill:#262262;font-family:Tahoma, Tahoma;font-size:6px;text-anchor:middle;">ADE</text>
		<text id="Count_ADF" transform="matrix(1 0 0 1 409.2 702.2)" style="fill:#262262;font-family:Tahoma, Tahoma;font-size:6px;text-anchor:middle;">ADF</text>
		<text id="Count_ADG" transform="matrix(1 0 0 1 368.4 172.8)" style="fill:#262262;font-family:Tahoma, Tahoma;font-size:6px;text-anchor:middle;">ADG</text>
		<text id="Count_AEF" transform="matrix(1 0 0 1 554.8 168.5)" style="fill:#262262;font-family:Tahoma, Tahoma;font-size:8px;text-anchor:middle;">AEF</text>
		<text id="Count_AEG" transform="matrix(1 0 0 1 492.3 158.7)" style="fill:#262262;font-family:Tahoma, Tahoma;font-size:6px;text-anchor:middle;">AEG</text>
		<text id="Count_AFG" transform="matrix(1 0 0 1 238 274.1)" style="fill:#262262;font-family:Tahoma, Tahoma;font-size:7px;text-anchor:middle;">AFG</text>
		<text id="Count_BCD" transform="matrix(1 0 0 1 749.7 473.9)" style="fill:#262262;font-family:Tahoma, Tahoma;font-size:6px;text-anchor:middle;">BCD</text>
		<text id="Count_BCE" transform="matrix(1 0 0 1 280.9 631.7)" style="fill:#262262;font-family:Tahoma, Tahoma;font-size:7px;text-anchor:middle;">BCE</text>
		<text id="Count_BCF" transform="matrix(1 0 0 1 744.4 386.6)" style="fill:#262262;font-family:Tahoma, Tahoma;font-size:6px;text-anchor:middle;">BCF</text>
		<text id="Count_BCG" transform="matrix(1 0 0 1 737 509.4)" style="fill:#262262;font-family:Tahoma, Tahoma;font-size:6px;text-anchor:middle;">BCG</text>
		<text id="Count_BDE" transform="matrix(1 0 0 1 331.4 666.6)" style="fill:#262262;font-family:Tahoma, Tahoma;font-size:6px;text-anchor:middle;">BDE</text>
		<text id="Count_BDF" transform="matrix(1 0 0 1 758.2 431.4)" style="fill:#262262;font-family:Tahoma, Tahoma;font-size:7px;text-anchor:middle;">BDF</text>
		<text id="Count_BDG" transform="matrix(1 0 0 1 406 156.3)" style="fill:#262262;font-family:Tahoma, Tahoma;font-size:6px;text-anchor:middle;">BDG</text>
		<text id="Count_BEF" transform="matrix(1 0 0 1 241 583.1)" style="fill:#262262;font-family:Tahoma, Tahoma;font-size:6px;text-anchor:middle;">BEF</text>
		<text id="Count_BEG" transform="matrix(1 0 0 1 210.3 549.2)" style="fill:#262262;font-family:Tahoma, Tahoma;font-size:6px;text-anchor:middle;">BEG</text>
		<text id="Count_BFG" transform="matrix(1 0 0 1 729.6 329.2)" style="fill:#262262;font-family:Tahoma, Tahoma;font-size:7px;text-anchor:middle;">BFG</text>
		<text id="Count_CDE" transform="matrix(1 0 0 1 610.4 667.4)" style="fill:#262262;font-family:Tahoma, Tahoma;font-size:7px;text-anchor:middle;">CDE</text>
		<text id="Count_CDF" transform="matrix(1 0 0 1 189 408.8)" style="fill:#262262;font-family:Tahoma, Tahoma;font-size:7px;text-anchor:middle;">CDF</text>
		<text id="Count_CDG" transform="matrix(1 0 0 1 679.4 611.9)" style="fill:#262262;font-family:Tahoma, Tahoma;font-size:6px;text-anchor:middle;">CDG</text>
		<text id="Count_CEF" transform="matrix(1 0 0 1 192.5 469.3)" style="fill:#262262;font-family:Tahoma, Tahoma;font-size:7px;text-anchor:middle;">CEF</text>
		<text id="Count_CEG" transform="matrix(1 0 0 1 652.5 646)" style="fill:#262262;font-family:Tahoma, Tahoma;font-size:6px;text-anchor:middle;">CEG</text>
		<text id="Count_CFG" transform="matrix(1 0 0 1 202.4 350.2)" style="fill:#262262;font-family:Tahoma, Tahoma;font-size:6px;text-anchor:middle;">CFG</text>
		<text id="Count_DEF" transform="matrix(1 0 0 1 367.7 684.7)" style="fill:#262262;font-family:Tahoma, Tahoma;font-size:6px;text-anchor:middle;">DEF</text>
		<text id="Count_DEG" transform="matrix(1 0 0 1 313.7 199.8)" style="fill:#262262;font-family:Tahoma, Tahoma;font-size:7px;text-anchor:middle;">DEG</text>
		<text id="Count_DFG" transform="matrix(1 0 0 1 266.8 242.3)" style="fill:#262262;font-family:Tahoma, Tahoma;font-size:7px;text-anchor:middle;">DFG</text>
		<text id="Count_EFG" transform="matrix(1 0 0 1 197.9 509.2)" style="fill:#262262;font-family:Tahoma, Tahoma;font-size:6px;text-anchor:middle;">EFG</text>
		<text id="Count_ABCD" transform="matrix(1 0 0 1 549.4 673)" style="fill:#262262;font-family:Tahoma, Tahoma;font-size:6px;text-anchor:middle;">ABCD</text>
		<text id="Count_ABCE" transform="matrix(1 0 0 1 639.9 229.6)" style="fill:#262262;font-family:Tahoma, Tahoma;font-size:7px;text-anchor:middle;">ABCE</text>
		<text id="Count_ABCF" transform="matrix(1 0 0 1 676.6 270.7)" style="fill:#262262;font-family:Tahoma, Tahoma;font-size:6px;text-anchor:middle;">ABCF</text>
		<text id="Count_ABCG" transform="matrix(1 0 0 1 716.2 519.8)" style="fill:#262262;font-family:Tahoma, Tahoma;font-size:6px;text-anchor:middle;">ABCG</text>
		<text id="Count_ABDE" transform="matrix(1 0 0 1 470.6 692.3)" style="fill:#262262;font-family:Tahoma, Tahoma;font-size:6px;text-anchor:middle;">ABDE</text>
		<text id="Count_ABDF" transform="matrix(1 0 0 1 513.2 681.1)" style="fill:#262262;font-family:Tahoma, Tahoma;font-size:6px;text-anchor:middle;">ABDF</text>
		<text id="Count_ABDG" transform="matrix(1 0 0 1 412.9 178.1)" style="fill:#262262;font-family:Tahoma, Tahoma;font-size:7px;text-anchor:middle;">ABDG</text>
		<text id="Count_ABEF" transform="matrix(1 0 0 1 587.7 194.7)" style="fill:#262262;font-family:Tahoma, Tahoma;font-size:6px;text-anchor:middle;">ABEF</text>
		<text id="Count_ABEG" transform="matrix(1 0 0 1 473.4 176)" style="fill:#262262;font-family:Tahoma, Tahoma;font-size:7px;text-anchor:middle;">ABEG</text>
		<text id="Count_ABFG" transform="matrix(1 0 0 1 695.4 302.2)" style="fill:#262262;font-family:Tahoma, Tahoma;font-size:6px;text-anchor:middle;">ABFG</text>
		<text id="Count_ACDE" transform="matrix(1 0 0 1 581 657.4)" style="fill:#262262;font-family:Tahoma, Tahoma;font-size:6px;text-anchor:middle;">ACDE</text>
		<text id="Count_ACDF" transform="matrix(1 0 0 1 210.3 409.6)" style="fill:#262262;font-family:Tahoma, Tahoma;font-size:6px;text-anchor:middle;">ACDF</text>
		<text id="Count_ACDG" transform="matrix(1 0 0 1 682.6 590)" style="fill:#262262;font-family:Tahoma, Tahoma;font-size:6px;text-anchor:middle;">ACDG</text>
		<text id="Count_ACEF" transform="matrix(1 0 0 1 543.2 188.3)" style="fill:#262262;font-family:Tahoma, Tahoma;font-size:6px;text-anchor:middle;">ACEF</text>
		<text id="Count_ACEG" transform="matrix(1 0 0 1 698.9 554.8)" style="fill:#262262;font-family:Tahoma, Tahoma;font-size:7px;text-anchor:middle;">ACEG</text>
		<text id="Count_ACFG" transform="matrix(1 0 0 1 233.9 319.3)" style="fill:#262262;font-family:Tahoma, Tahoma;font-size:7px;text-anchor:middle;">ACFG</text>
		<text id="Count_ADEF" transform="matrix(1 0 0 1 410.4 681.1)" style="fill:#262262;font-family:Tahoma, Tahoma;font-size:7px;text-anchor:middle;">ADEF</text>
		<text id="Count_ADEG" transform="matrix(1 0 0 1 354.3 192.5)" style="fill:#262262;font-family:Tahoma, Tahoma;font-size:6px;text-anchor:middle;">ADEG</text>
		<text id="Count_ADFG" transform="matrix(1 0 0 1 268 269.6)" style="fill:#262262;font-family:Tahoma, Tahoma;font-size:7px;text-anchor:middle;">ADFG</text>
		<text id="Count_AEFG" transform="matrix(1 0 0 1 509 178.7)" style="fill:#262262;font-family:Tahoma, Tahoma;font-size:6px;text-anchor:middle;">AEFG</text>
		<text id="Count_BCDE" transform="matrix(1 0 0 1 324.6 640.2)" style="fill:#262262;font-family:Tahoma, Tahoma;font-size:6px;text-anchor:middle;">BCDE</text>
		<text id="Count_BCDF" transform="matrix(1 0 0 1 731 431.1)" style="fill:#262262;font-family:Tahoma, Tahoma;font-size:7px;text-anchor:middle;">BCDF</text>
		<text id="Count_BCDG" transform="matrix(1 0 0 1 725.8 489.1)" style="fill:#262262;font-family:Tahoma, Tahoma;font-size:6px;text-anchor:middle;">BCDG</text>
		<text id="Count_BCEF" transform="matrix(1 0 0 1 262.9 592)" style="fill:#262262;font-family:Tahoma, Tahoma;font-size:6px;text-anchor:middle;">BCEF</text>
		<text id="Count_BCEG" transform="matrix(1 0 0 1 294.9 615)" style="fill:#262262;font-family:Tahoma, Tahoma;font-size:6px;text-anchor:middle;">BCEG</text>
		<text id="Count_BCFG" transform="matrix(1 0 0 1 729.3 370.3)" style="fill:#262262;font-family:Tahoma, Tahoma;font-size:6px;text-anchor:middle;">BCFG</text>
		<text id="Count_BDEF" transform="matrix(1 0 0 1 357 659)" style="fill:#262262;font-family:Tahoma, Tahoma;font-size:6px;text-anchor:middle;">BDEF</text>
		<text id="Count_BDEG" transform="matrix(1 0 0 1 321.8 219.2)" style="fill:#262262;font-family:Tahoma, Tahoma;font-size:6px;text-anchor:middle;">BDEG</text>
		<text id="Count_BDFG" transform="matrix(1 0 0 1 711.5 337.8)" style="fill:#262262;font-family:Tahoma, Tahoma;font-size:6px;text-anchor:middle;">BDFG</text>
		<text id="Count_BEFG" transform="matrix(1 0 0 1 232.6 539.5)" style="fill:#262262;font-family:Tahoma, Tahoma;font-size:7px;text-anchor:middle;">BEFG</text>
		<text id="Count_CDEF" transform="matrix(1 0 0 1 209.6 447.2)" style="fill:#262262;font-family:Tahoma, Tahoma;font-size:6px;text-anchor:middle;">CDEF</text>
		<text id="Count_CDEG" transform="matrix(1 0 0 1 635.7 627.9)" style="fill:#262262;font-family:Tahoma, Tahoma;font-size:7px;text-anchor:middle;">CDEG</text>
		<text id="Count_CDFG" transform="matrix(1 0 0 1 209.3 371.7)" style="fill:#262262;font-family:Tahoma, Tahoma;font-size:6px;text-anchor:middle;">CDFG</text>
		<text id="Count_CEFG" transform="matrix(1 0 0 1 213.7 483.9)" style="fill:#262262;font-family:Tahoma, Tahoma;font-size:6px;text-anchor:middle;">CEFG</text>
		<text id="Count_DEFG" transform="matrix(1 0 0 1 291.8 241.1)" style="fill:#262262;font-family:Tahoma, Tahoma;font-size:6px;text-anchor:middle;">DEFG</text>
		<text id="Count_ABCDE" transform="matrix(1 0 0 1 560.7 649.3)" style="fill:#262262;font-family:Tahoma, Tahoma;font-size:6px;text-anchor:middle;">ABCDE</text>
		<text id="Count_ABCDF" transform="matrix(1 0 0 1 530.8 664.7)" style="fill:#262262;font-family:Tahoma, Tahoma;font-size:6px;text-anchor:middle;">ABCDF</text>
		<text id="Count_ABCDG" transform="matrix(1 0 0 1 705.6 499.8)" style="fill:#262262;font-family:Tahoma, Tahoma;font-size:6px;text-anchor:middle;">ABCDG</text>
		<text id="Count_ABCEF" transform="matrix(1 0 0 1 600.3 241)" style="fill:#262262;font-family:Tahoma, Tahoma;font-size:12;text-anchor:middle">ABCEF</text>
		<text id="Count_ABCEG" transform="matrix(1 0 0 1 695.9 530.1)" style="fill:#262262;font-family:Tahoma, Tahoma;font-size:6px;text-anchor:middle;">ABCEG</text>
		<text id="Count_ABCFG" transform="matrix(1 0 0 1 671.9 297)" style="fill:#262262;font-family:Tahoma, Tahoma;font-size:6px;text-anchor:middle;">ABCFG</text>
		<text id="Count_ABDEF" transform="matrix(1 0 0 1 443.3 654.8)" style="fill:#262262;font-family:Tahoma, Tahoma;font-size:12;text-anchor:middle">ABDEF</text>
		<text id="Count_ABDEG" transform="matrix(1 0 0 1 402.2 216.5)" style="fill:#262262;font-family:Tahoma, Tahoma;font-size:12;text-anchor:middle">ABDEG</text>
		<text id="Count_ABDFG" transform="matrix(1 0 0 1 690.2 325.1)" style="fill:#262262;font-family:Tahoma, Tahoma;font-size:6px;text-anchor:middle;">ABDFG</text>
		<text id="Count_ABEFG" transform="matrix(1 0 0 1 490.4 194.2)" style="fill:#262262;font-family:Tahoma, Tahoma;font-size:6px;text-anchor:middle;">ABEFG</text>
		<text id="Count_ACDEF" transform="matrix(1 0 0 1 223.6 428.8)" style="fill:#262262;font-family:Tahoma, Tahoma;font-size:6px;text-anchor:middle;">ACDEF</text>
		<text id="Count_ACDEG" transform="matrix(1 0 0 1 630.3 592.3)" style="fill:#262262;font-family:Tahoma, Tahoma;font-size:12;text-anchor:middle">ACDEG</text>
		<text id="Count_ACDFG" transform="matrix(1 0 0 1 252.9 356.3)" style="fill:#262262;font-family:Tahoma, Tahoma;font-size:12;text-anchor:middle">ACDFG</text>
		<text id="Count_ACEFG" transform="matrix(1 0 0 1 522.3 194.4)" style="fill:#262262;font-family:Tahoma, Tahoma;font-size:6px;text-anchor:middle;">ACEFG</text>
		<text id="Count_ADEFG" transform="matrix(1 0 0 1 292.1 268)" style="fill:#262262;font-family:Tahoma, Tahoma;font-size:6px;text-anchor:middle;">ADEFG</text>
		<text id="Count_BCDEF" transform="matrix(1 0 0 1 349.2 633.8)" style="fill:#262262;font-family:Tahoma, Tahoma;font-size:6px;text-anchor:middle;">BCDEF</text>
		<text id="Count_BCDEG" transform="matrix(1 0 0 1 318.1 617.4)" style="fill:#262262;font-family:Tahoma, Tahoma;font-size:6px;text-anchor:middle;">BCDEG</text>
		<text id="Count_BCDFG" transform="matrix(1 0 0 1 697.6 397.6)" style="fill:#262262;font-family:Tahoma, Tahoma;font-size:12;text-anchor:middle">BCDFG</text>
		<text id="Count_BCEFG" transform="matrix(1 0 0 1 270 542.1)" style="fill:#262262;font-family:Tahoma, Tahoma;font-size:12;text-anchor:middle">BCEFG</text>
		<text id="Count_BDEFG" transform="matrix(1 0 0 1 313.7 240.6)" style="fill:#262262;font-family:Tahoma, Tahoma;font-size:6px;text-anchor:middle;">BDEFG</text>
		<text id="Count_CDEFG" transform="matrix(1 0 0 1 229.9 462.1)" style="fill:#262262;font-family:Tahoma, Tahoma;font-size:6px;text-anchor:middle;">CDEFG</text>
		<text id="Count_ABCDEF" transform="matrix(1 0 0 1 455.9 612.1)" style="fill:#262262;font-family:Tahoma, Tahoma;font-size:12;text-anchor:middle">ABCDEF</text>
		<text id="Count_ABCDEG" transform="matrix(1 0 0 1 636.2 543.7)" style="fill:#262262;font-family:Tahoma, Tahoma;font-size:12;text-anchor:middle">ABCDEG</text>
		<text id="Count_ABCDFG" transform="matrix(1 0 0 1 657.8 384)" style="fill:#262262;font-family:Tahoma, Tahoma;font-size:12;text-anchor:middle">ABCDFG</text>
		<text id="Count_ABCEFG" transform="matrix(1 0 0 1 551.4 260.1)" style="fill:#262262;font-family:Tahoma, Tahoma;font-size:12;text-anchor:middle">ABCEFG</text>
		<text id="Count_ABDEFG" transform="matrix(1 0 0 1 379.1 261.7)" style="fill:#262262;font-family:Tahoma, Tahoma;font-size:12;text-anchor:middle">ABDEFG</text>
		<text id="Count_ACDEFG" transform="matrix(1 0 0 1 274.2 397.4)" style="fill:#262262;font-family:Tahoma, Tahoma;font-size:12;text-anchor:middle">ACDEFG</text>
		<text id="Count_BCDEFG" transform="matrix(1 0 0 1 319.1 543.2)" style="fill:#262262;font-family:Tahoma, Tahoma;font-size:12;text-anchor:middle">BCDEFG</text>
		<text id="Count_ABCDEFG" transform="matrix(1 0 0 1 472.2 431.7)" style="fill:#FFFFFF;font-family:Tahoma, Tahoma;font-size:30;text-anchor:middle">ABCDEFG</text>
	</g>
	<g id="Group_CountSums">
		<text id="CountSUM_A" transform="matrix(1 0 0 1 770.4 98.3)" style="fill:#262262;font-family:Tahoma, Tahoma;font-size:16;text-anchor:middle;">CountSUM_A</text>
		<text id="CountSUM_B" transform="matrix(1 0 0 1 865.8 261.7)" style="fill:#262262;font-family:Tahoma, Tahoma;font-size:16;text-anchor:middle;">CountSUM_B</text>
		<text id="CountSUM_C" transform="matrix(1 0 0 1 836.1 692.4)" style="fill:#262262;font-family:Tahoma, Tahoma;font-size:16;text-anchor:middle;">CountSUM_C</text>
		<text id="CountSUM_D" transform="matrix(1 0 0 1 475.6 838.3)" style="fill:#262262;font-family:Tahoma, Tahoma;font-size:16;text-anchor:middle;">CountSUM_D</text>
		<text id="CountSUM_E" transform="matrix(1 0 0 1 98.1 694.9)" style="fill:#262262;font-family:Tahoma, Tahoma;font-size:16;text-anchor:middle;">CountSUM_E</text>
		<text id="CountSUM_F" transform="matrix(1 0 0 1 82 271.3)" style="fill:#262262;font-family:Tahoma, Tahoma;font-size:16;text-anchor:middle;">CountSUM_F</text>
		<text id="CountSUM_G" transform="matrix(1 0 0 1 176.9 105.3)" style="fill:#262262;font-family:Tahoma, Tahoma;font-size:16;text-anchor:middle;">CountSUM_G</text>
	</g>
</g>
<g id="Group_Bullets" style="display:none;">
	<circle id="BulletA" style="opacity:0.2;fill:#FFF200;stroke:#010101;stroke-width:2;" cx="59.2" cy="25" r="6.9"/>
	<circle id="BulletB" style="opacity:0.2;fill:#2E3192;stroke:#010101;stroke-width:2;" cx="59.2" cy="43.7" r="6.9"/>
	<circle id="BulletC" style="opacity:0.2;fill:#ED1C24;stroke:#010101;stroke-width:2;" cx="59.2" cy="62.4" r="6.9"/>
	<circle id="BulletD" style="opacity:0.2;fill:#808285;stroke:#010101;stroke-width:2;" cx="59.2" cy="81.1" r="6.9"/>
	<circle id="BulletE" style="opacity:0.2;fill:#3C2415;stroke:#010101;stroke-width:2;" cx="59.2" cy="99.8" r="6.9"/>
	<circle id="BulletF" style="opacity:0.2;fill:#9E1F63;stroke:#010101;stroke-width:2;" cx="59.2" cy="118.5" r="6.9"/>
	<circle id="BulletG" style="opacity:0.2;fill:#CA4B9B;stroke:#010101;stroke-width:2;" cx="59.2" cy="137.2" r="6.9"/>
</g>
</svg>
